<svg width="38" height="64" viewBox="0 0 38 64" fill="none" xmlns="http://www.w3.org/2000/svg">
<path d="M16 7C9.92487 7 5 11.9249 5 18V35C5 41.0751 9.92487 46 16 46H22C22.3371 46 22.6706 45.9848 23 45.9552V29H28V44.2211C31.0102 42.2584 33 38.8616 33 35H38C38 41.7148 33.8637 47.4634 28 49.837V64H23V50.9693C22.6693 50.9897 22.3358 51 22 51H16C7.16344 51 0 43.8366 0 35V18C0 9.16344 7.16344 2 16 2H22C30.8366 2 38 9.16344 38 18H33C33 11.9249 28.0751 7 22 7H16Z" fill="black"/>
<rect width="2" height="64" fill="#D9D9D9"/>
</svg>
