<svg width="47" height="64" viewBox="0 0 47 64" fill="none" xmlns="http://www.w3.org/2000/svg">
<path d="M42 1H47V23H42C42 18.0294 37.9706 14 33 14H31C26.0294 14 22 18.0294 22 23V37C22 41.9706 26.0294 46 31 46H32V29H37V45.0645C39.9634 43.5918 42 40.5337 42 37H47C47 43.342 42.783 48.6991 37 50.4202V56.5C37 60.6421 33.6421 64 29.5 64H18.5C14.3579 64 11 60.6421 11 56.5V53H16V56.5C16 57.8807 17.1193 59 18.5 59H29.5C30.8807 59 32 57.8807 32 56.5V51H31C23.268 51 17 44.732 17 37V23C17 15.268 23.268 9 31 9H33C36.427 9 39.5665 10.2314 42 12.2758V1Z" fill="black"/>
<rect width="2" height="64" fill="#D9D9D9"/>
</svg>
