<svg width="45" height="64" viewBox="0 0 45 64" fill="none" xmlns="http://www.w3.org/2000/svg">
<path fill-rule="evenodd" clip-rule="evenodd" d="M45 1H16V6H28.7161C22.3524 10.3261 17.7994 17.1169 16.4294 25H13V30H16V41C16 46.5228 20.4772 51 26 51H35C40.5228 51 45 46.5229 45 41V39C45 31.268 38.732 25 31 25H21.5216C23.8219 14.145 33.4598 6 45 6V1ZM21 41V30H31C35.9706 30 40 34.0294 40 39V41C40 43.7614 37.7614 46 35 46H26C23.2386 46 21 43.7614 21 41Z" fill="black"/>
<rect width="2" height="64" fill="#D9D9D9"/>
</svg>
