<svg width="32" height="64" viewBox="0 0 32 64" fill="none" xmlns="http://www.w3.org/2000/svg">
<path fill-rule="evenodd" clip-rule="evenodd" d="M32 1H3V6H15.7161C9.35244 10.3261 4.79942 17.1169 3.42943 25H0V30H3V41C3 46.5228 7.47715 51 13 51H22C27.5228 51 32 46.5229 32 41V39C32 31.268 25.732 25 18 25H8.52158C10.8219 14.145 20.4598 6 32 6V1ZM8 41V30H18C22.9706 30 27 34.0294 27 39V41C27 43.7614 24.7614 46 22 46H13C10.2386 46 8 43.7614 8 41Z" fill="black"/>
<rect width="2" height="64" fill="#D9D9D9"/>
</svg>
