<svg width="50" height="64" viewBox="0 0 50 64" fill="none" xmlns="http://www.w3.org/2000/svg">
<path fill-rule="evenodd" clip-rule="evenodd" d="M50 1H45V26H30V11C30 8.79086 28.2091 7 26 7C17.1634 7 10 14.1634 10 23V26.2C10 28.851 12.149 31 14.8 31H25V39C25 42.866 21.866 46 18 46H17C13.134 46 10 42.866 10 39V36H5V39C5 45.6274 10.3726 51 17 51H18C24.6274 51 30 45.6274 30 39V31H50V1ZM15 23V26H25V12.0448C19.3935 12.5501 15 17.262 15 23Z" fill="black"/>
<rect width="2" height="64" fill="#D9D9D9"/>
</svg>
