<svg width="28" height="64" viewBox="0 0 28 64" fill="none" xmlns="http://www.w3.org/2000/svg">
<path d="M9 1C5.13401 1 2 4.13401 2 8V17C2 23.6274 7.37258 29 14 29H16C19.866 29 23 32.134 23 36V45C23 45.5523 22.5523 46 22 46H6C5.44772 46 5 45.5523 5 45V41H0V45C0 48.3137 2.68629 51 6 51H22C25.3137 51 28 48.3137 28 45V36C28 29.3726 22.6274 24 16 24H14C10.134 24 7 20.866 7 17V8C7 6.89543 7.89543 6 9 6H19C19.5523 6 20 6.44772 20 7V10H25V7C25 3.68629 22.3137 1 19 1H9Z" fill="black"/>
<rect width="2" height="64" fill="#D9D9D9"/>
</svg>
