<svg width="42" height="64" viewBox="0 0 42 64" fill="none" xmlns="http://www.w3.org/2000/svg">
<path d="M23 1C19.134 1 16 4.13401 16 8V17C16 23.6274 21.3726 29 28 29H30C33.866 29 37 32.134 37 36V45C37 45.5523 36.5523 46 36 46H20C19.4477 46 19 45.5523 19 45V41H14V45C14 48.3137 16.6863 51 20 51H36C39.3137 51 42 48.3137 42 45V36C42 29.3726 36.6274 24 30 24H28C24.134 24 21 20.866 21 17V8C21 6.89543 21.8954 6 23 6H33C33.5523 6 34 6.44772 34 7V10H39V7C39 3.68629 36.3137 1 33 1H23Z" fill="black"/>
<rect width="2" height="64" fill="#D9D9D9"/>
</svg>
