<svg width="38" height="64" viewBox="0 0 38 64" fill="none" xmlns="http://www.w3.org/2000/svg">
<path fill-rule="evenodd" clip-rule="evenodd" d="M34 9C34 5.13401 30.866 2 27 2H18C11.9249 2 7 6.92487 7 13V15C7 16.6807 7.5183 18.2404 8.40379 19.5279C5.16901 21.4432 3 24.9683 3 29V30C3 34.9706 7.02944 39 12 39H16C22.0751 39 27 34.0751 27 28V23.0709C30.3923 23.5561 33 26.4735 33 30V39C33 42.866 29.866 46 26 46H13C8.58172 46 5 42.4183 5 38V37H0V38C0 45.1797 5.8203 51 13 51H26C32.6274 51 38 45.6274 38 39V30C38 23.3726 32.6274 18 26 18H15C13.3431 18 12 16.6569 12 15V13C12 9.68629 14.6863 7 18 7H27C28.1046 7 29 7.89543 29 9V13H34V9ZM22 23V28C22 31.3137 19.3137 34 16 34H12C9.79086 34 8 32.2091 8 30V29C8 25.6863 10.6863 23 14 23H22Z" fill="black"/>
<rect width="2" height="64" fill="#D9D9D9"/>
</svg>
