<svg width="47" height="64" viewBox="0 0 47 64" fill="none" xmlns="http://www.w3.org/2000/svg">
<path fill-rule="evenodd" clip-rule="evenodd" d="M43 9C43 5.13401 39.866 2 36 2H27C20.9249 2 16 6.92487 16 13V15C16 16.6807 16.5183 18.2404 17.4038 19.5279C14.169 21.4432 12 24.9683 12 29V30C12 34.9706 16.0294 39 21 39H25C31.0751 39 36 34.0751 36 28V23.0709C39.3923 23.5561 42 26.4735 42 30V39C42 42.866 38.866 46 35 46H22C17.5817 46 14 42.4183 14 38V37H9V38C9 45.1797 14.8203 51 22 51H35C41.6274 51 47 45.6274 47 39V30C47 23.3726 41.6274 18 35 18H24C22.3431 18 21 16.6569 21 15V13C21 9.68629 23.6863 7 27 7H36C37.1046 7 38 7.89543 38 9V13H43V9ZM31 23V28C31 31.3137 28.3137 34 25 34H21C18.7909 34 17 32.2091 17 30V29C17 25.6863 19.6863 23 23 23H31Z" fill="black"/>
<rect width="2" height="64" fill="#D9D9D9"/>
</svg>
