<svg width="47" height="64" viewBox="0 0 47 64" fill="none" xmlns="http://www.w3.org/2000/svg">
<path fill-rule="evenodd" clip-rule="evenodd" d="M7 1H12V26H27V11C27 8.79086 28.7909 7 31 7C39.8366 7 47 14.1634 47 23V26.2C47 28.851 44.851 31 42.2 31H32V39C32 45.6274 26.6274 51 20 51H19C12.3726 51 7 45.6274 7 39V36H12V39C12 42.866 15.134 46 19 46H20C23.866 46 27 42.866 27 39V31H7V1ZM42 23V26H32V12.0448C37.6065 12.5501 42 17.262 42 23Z" fill="black"/>
<rect width="2" height="64" fill="#D9D9D9"/>
</svg>
