<svg width="38" height="64" viewBox="0 0 38 64" fill="none" xmlns="http://www.w3.org/2000/svg">
<path d="M33 18C33 11.9249 28.0751 7 22 7H16C9.92487 7 5 11.9249 5 18H0C0 9.16344 7.16344 2 16 2H22C30.8366 2 38 9.16344 38 18V35C38 43.8366 30.8366 51 22 51H16C7.16344 51 0 43.8366 0 35H5C5 41.0751 9.92487 46 16 46H22C28.0751 46 33 41.0751 33 35V18Z" fill="black"/>
<path d="M19 26C19 23.7909 17.2091 22 15 22H7C3.68629 22 1 24.6863 1 28H6C6 27.4477 6.44772 27 7 27H14V29C14 31.2091 15.7909 33 18 33H26C29.3137 33 32 30.3137 32 27H27C27 27.5523 26.5523 28 26 28H19V26Z" fill="black"/>
<rect width="2" height="64" fill="#D9D9D9"/>
</svg>
