<svg width="47" height="64" viewBox="0 0 47 64" fill="none" xmlns="http://www.w3.org/2000/svg">
<path d="M5 51H10V19.5C10 12.5964 15.5964 7 22.5 7H38C40.2091 7 42 8.79086 42 11V13C42 15.2091 40.2091 17 38 17H15V51H20V40.5C20 34.701 24.701 30 30.5 30H31C34.866 30 38 33.134 38 37V46C38 48.7614 40.2386 51 43 51H47V46H43V37C43 30.3726 37.6274 25 31 25H30.5C26.4492 25 22.7614 26.5539 20 29.0981V22H38C42.9706 22 47 17.9706 47 13V11C47 6.02944 42.9706 2 38 2H22.5C12.835 2 5 9.83502 5 19.5V51Z" fill="black"/>
<rect width="2" height="64" fill="#D9D9D9"/>
</svg>
