<svg width="42" height="64" viewBox="0 0 42 64" fill="none" xmlns="http://www.w3.org/2000/svg">
<path d="M0 51H5V19.5C5 12.5964 10.5964 7 17.5 7H33C35.2091 7 37 8.79086 37 11V13C37 15.2091 35.2091 17 33 17H10V51H15V40.5C15 34.701 19.701 30 25.5 30H26C29.866 30 33 33.134 33 37V46C33 48.7614 35.2386 51 38 51H42V46H38V37C38 30.3726 32.6274 25 26 25H25.5C21.4492 25 17.7614 26.5539 15 29.0981V22H33C37.9706 22 42 17.9706 42 13V11C42 6.02944 37.9706 2 33 2H17.5C7.83502 2 0 9.83502 0 19.5V51Z" fill="black"/>
<rect width="2" height="64" fill="#D9D9D9"/>
</svg>
