<svg width="41" height="64" viewBox="0 0 41 64" fill="none" xmlns="http://www.w3.org/2000/svg">
<path fill-rule="evenodd" clip-rule="evenodd" d="M19.6676 26.5C16.8284 24.3054 15 20.8662 15 17V12C15 6.47715 19.4772 2 25 2H31C36.5228 2 41 6.47715 41 12V17C41 20.8662 39.1716 24.3054 36.3324 26.5C39.1716 28.6946 41 32.1338 41 36V41C41 46.5228 36.5228 51 31 51H25C19.4772 51 15 46.5228 15 41V36C15 32.1338 16.8284 28.6946 19.6676 26.5ZM29 29H27C23.134 29 20 32.134 20 36V41C20 43.7614 22.2386 46 25 46H31C33.7614 46 36 43.7614 36 41V36C36 32.134 32.866 29 29 29ZM29 24C32.866 24 36 20.866 36 17V12C36 9.23858 33.7614 7 31 7H25C22.2386 7 20 9.23858 20 12V17C20 20.866 23.134 24 27 24H29Z" fill="black"/>
<rect width="2" height="64" fill="#D9D9D9"/>
</svg>
