<svg width="52" height="64" viewBox="0 0 52 64" fill="none" xmlns="http://www.w3.org/2000/svg">
<path fill-rule="evenodd" clip-rule="evenodd" d="M8.68217 51C8.21576 50.3689 8.04705 49.5195 8.34585 48.6937L13.6628 34H4.00012V29H15.472L25.0149 2.62752C25.3683 1.65074 26.2958 1 27.3346 1C27.3931 1 27.4509 1.00198 27.5081 1.00588C27.5654 1.00198 27.6234 1 27.6819 1C28.7078 1 29.6269 1.63405 29.9913 2.5931L40.0226 29H52.0001V34H41.9219L48.3798 51H43.0946L36.6367 34H18.9097L14.5675 46H34.0001V51H8.68217ZM34.7374 29H20.7189L27.5578 10.1002L34.7374 29Z" fill="black"/>
<rect width="2" height="64" fill="#D9D9D9"/>
</svg>
