<svg width="46" height="64" viewBox="0 0 46 64" fill="none" xmlns="http://www.w3.org/2000/svg">
<path fill-rule="evenodd" clip-rule="evenodd" d="M33 10V42C33 44.2091 34.7909 46 37 46C39.2091 46 41 44.2091 41 42V40H46V42C46 46.9706 41.9706 51 37 51C32.0294 51 28 46.9706 28 42V23.0645C26.795 23.6633 25.4368 24 24 24C19.0294 24 15 19.9706 15 15V10C15 5.02944 19.0294 1 24 1C28.9706 1 33 5.02944 33 10ZM24 19C26.2091 19 28 17.2091 28 15V10C28 7.79086 26.2091 6 24 6C21.7909 6 20 7.79086 20 10V15C20 17.2091 21.7909 19 24 19Z" fill="black"/>
<rect width="2" height="64" fill="#D9D9D9"/>
</svg>
