<svg width="41" height="64" viewBox="0 0 41 64" fill="none" xmlns="http://www.w3.org/2000/svg">
<path d="M15 17C15 23.6274 20.3726 29 27 29H29C32.866 29 36 32.134 36 36V41C36 43.7614 33.7614 46 31 46H25C22.2386 46 20 43.7614 20 41H15C15 46.5228 19.4772 51 25 51H31C36.5228 51 41 46.5228 41 41V36C41 29.3726 35.6274 24 29 24H27C23.134 24 20 20.866 20 17V12C20 9.23858 22.2386 7 25 7H31C33.7614 7 36 9.23858 36 12H41C41 6.47715 36.5228 2 31 2H25C19.4772 2 15 6.47715 15 12V17Z" fill="black"/>
<rect width="2" height="64" fill="#D9D9D9"/>
</svg>
