<svg width="52" height="64" viewBox="0 0 52 64" fill="none" xmlns="http://www.w3.org/2000/svg">
<path d="M2.00009 15V22C2.00009 29.732 8.26811 36 16.0001 36H21.0001V31H16.0001C11.0295 31 7.00009 26.9706 7.00009 22V15C7.00009 10.0294 11.0295 6 16.0001 6H20.0001C25.5229 6 30.0001 10.4772 30.0001 16V29C30.0001 34.5228 25.5229 39 20.0001 39H17.0001V44H18.9415L37.2493 51H51.0649L27.5036 41.9913C31.9852 39.3972 35.0001 34.5507 35.0001 29V16C35.0001 7.71573 28.2844 1 20.0001 1H16.0001C8.26811 1 2.00009 7.26801 2.00009 15Z" fill="black"/>
<rect width="2" height="64" fill="#D9D9D9"/>
</svg>
