<svg width="48" height="64" viewBox="0 0 48 64" fill="none" xmlns="http://www.w3.org/2000/svg">
<path fill-rule="evenodd" clip-rule="evenodd" d="M20 41V26H35V34H30C26.134 34 23 37.134 23 41V42.5C23 47.1944 26.8056 51 31.5 51C36.1944 51 40 47.1944 40 42.5V39H48V34H40V26C40 23.2386 37.7614 21 35 21H20V1H15V41C15 43.7614 12.7614 46 10 46V51C15.5228 51 20 46.5228 20 41ZM35 39H30C28.8954 39 28 39.8954 28 41V42.5C28 44.433 29.567 46 31.5 46C33.433 46 35 44.433 35 42.5V39Z" fill="black"/>
<rect width="2" height="64" fill="#D9D9D9"/>
</svg>
