<svg width="51" height="64" viewBox="0 0 51 64" fill="none" xmlns="http://www.w3.org/2000/svg">
<path d="M8 16H13V14C13 9.58172 16.5817 6 21 6H23C28.5228 6 33 10.4772 33 16V36C33 41.5228 28.5228 46 23 46H21C16.5817 46 13 42.4183 13 38V37H8V38C8 45.1797 13.8203 51 21 51H23C31.2843 51 38 44.2843 38 36V22H42C46.9706 22 51 17.9706 51 13C51 8.02944 46.9706 4 42 4H41V9H42C44.2091 9 46 10.7909 46 13C46 15.2091 44.2091 17 42 17H38V16C38 7.71573 31.2843 1 23 1H21C13.8203 1 8 6.8203 8 14V16Z" fill="black"/>
<rect width="2" height="64" fill="#D9D9D9"/>
</svg>
