<svg width="48" height="64" viewBox="0 0 48 64" fill="none" xmlns="http://www.w3.org/2000/svg">
<path d="M31.0001 1V40C31.0001 43.3137 33.6864 46 37.0001 46C40.3138 46 43.0001 43.3137 43.0001 40V38H48.0001V40C48.0001 46.0751 43.0753 51 37.0001 51C33.5762 51 30.5176 49.4356 28.5001 46.9826C26.4827 49.4356 23.4241 51 20.0001 51C13.925 51 9.00012 46.0751 9.00012 40V1H14.0001V40C14.0001 43.3137 16.6864 46 20.0001 46C23.3138 46 26.0001 43.3137 26.0001 40V1H31.0001Z" fill="black"/>
<rect width="2" height="64" fill="#D9D9D9"/>
</svg>
