<svg width="55" height="64" viewBox="0 0 55 64" fill="none" xmlns="http://www.w3.org/2000/svg">
<path d="M17.0001 2H35.0001C41.0752 2 46.0001 6.92487 46.0001 13V21C46.0001 28.1797 40.1798 34 33.0001 34H32.271L54.2712 51H46.7293L25.0001 34.2094L25.0001 29H33.0001C37.4184 29 41.0001 25.4183 41.0001 21V13C41.0001 9.68629 38.3138 7 35.0001 7H22.0001V41C22.0001 46.5228 17.5229 51 12.0001 51C6.47724 51 2.00009 46.5228 2.00009 41V37H7.00009V41C7.00009 43.7614 9.23867 46 12.0001 46C14.7615 46 17.0001 43.7614 17.0001 41V2Z" fill="black"/>
<rect width="2" height="64" fill="#D9D9D9"/>
</svg>
