<svg width="34" height="64" viewBox="0 0 34 64" fill="none" xmlns="http://www.w3.org/2000/svg">
<path fill-rule="evenodd" clip-rule="evenodd" d="M14 1V14.5898C15.6193 13.5828 17.53 13 19.5771 13C27.5426 13.0001 33.9999 19.4574 34 27.4229V36.5771L33.9951 36.9492C33.7976 44.7427 27.4182 50.9999 19.5771 51C17.5298 51 15.6194 50.4164 14 49.4092V51H9V1H14ZM19.5771 18C16.4971 18 14 20.4971 14 23.5771V40.4229C14 43.5029 16.4971 46 19.5771 46C24.7812 45.9999 28.9999 41.7812 29 36.5771V27.4229L28.9873 26.9385C28.7351 21.9595 24.6187 18.0001 19.5771 18Z" fill="black"/>
<rect width="2" height="64" fill="#D9D9D9"/>
</svg>
