<svg width="38" height="64" viewBox="0 0 38 64" fill="none" xmlns="http://www.w3.org/2000/svg">
<path fill-rule="evenodd" clip-rule="evenodd" d="M17.5 13C24.9558 13 31 19.0442 31 26.5V45C31 45.5523 31.4477 46 32 46C32.5523 46 33 45.5523 33 45V43H38V45C38 48.3137 35.3137 51 32 51C29.5844 51 27.503 49.5721 26.5518 47.5146C24.1572 49.6803 20.9829 51 17.5 51C10.0442 51 4 44.9558 4 37.5V26.5L4.00488 26.1514C4.1898 18.8567 10.1607 13 17.5 13ZM17.5 18C12.8056 18 9 21.8056 9 26.5V37.5C9 42.1944 12.8056 46 17.5 46C22.1944 46 26 42.1944 26 37.5V26.5C26 21.8056 22.1944 18 17.5 18Z" fill="black"/>
<rect width="2" height="64" fill="#D9D9D9"/>
</svg>
