<svg width="32" height="64" viewBox="0 0 32 64" fill="none" xmlns="http://www.w3.org/2000/svg">
<path d="M12 40C12 43.3137 14.6863 46 18 46H21C24.3137 46 27 43.3137 27 40C27 37.2386 24.7614 35 22 35H18C11.9249 35 7 30.0751 7 24C7 17.9249 11.9249 13 18 13H21C27.0751 13 32 17.9249 32 24H27C27 20.6863 24.3137 18 21 18H18C14.6863 18 12 20.6863 12 24C12 27.3137 14.6863 30 18 30H22C27.5228 30 32 34.4772 32 40C32 46.0751 27.0751 51 21 51H18C11.9249 51 7 46.0751 7 40H12Z" fill="black"/>
<rect width="2" height="64" fill="#D9D9D9"/>
</svg>
