<svg width="31" height="64" viewBox="0 0 31 64" fill="none" xmlns="http://www.w3.org/2000/svg">
<path fill-rule="evenodd" clip-rule="evenodd" d="M31 51H26V49.4092C24.3806 50.4164 22.4702 51 20.4229 51C12.5818 50.9999 6.20235 44.7427 6.00488 36.9492L6 36.5771V27.4229C6.00012 19.4574 12.4574 13.0001 20.4229 13C22.47 13 24.3807 13.5828 26 14.5898V1H31V51ZM20.4229 18C15.3813 18.0001 11.2649 21.9595 11.0127 26.9385L11 27.4229V36.5771C11.0001 41.7812 15.2188 45.9999 20.4229 46C23.5029 46 26 43.5029 26 40.4229V23.5771C26 20.4971 23.5029 18 20.4229 18Z" fill="black"/>
<rect width="2" height="64" fill="#D9D9D9"/>
</svg>
