<svg width="35" height="64" viewBox="0 0 35 64" fill="none" xmlns="http://www.w3.org/2000/svg">
<path d="M25 13C30.5228 13 35 17.4772 35 23V24C35 26.9879 33.6878 29.6676 31.6104 31.5C33.6878 33.3324 35 36.0121 35 39V41C35 46.5228 30.5228 51 25 51H13C9.68629 51 7 48.3137 7 45V44H12V45C12 45.5523 12.4477 46 13 46H25C27.7614 46 30 43.7614 30 41V39C30 36.2386 27.7614 34 25 34H16V29H25C27.7614 29 30 26.7614 30 24V23C30 20.2386 27.7614 18 25 18H13C12.4477 18 12 18.4477 12 19V20H7V19C7 15.6863 9.68629 13 13 13H25Z" fill="black"/>
<rect width="2" height="64" fill="#D9D9D9"/>
</svg>
