<svg width="37" height="64" viewBox="0 0 37 64" fill="none" xmlns="http://www.w3.org/2000/svg">
<path fill-rule="evenodd" clip-rule="evenodd" d="M22 23C30.2843 23 37 29.7157 37 38V41C37 45.9706 32.9706 50 28 50V45C30.2091 45 32 43.2091 32 41V38C32 32.4772 27.5228 28 22 28V44C22 47.7451 19.0589 50.8037 15.3604 50.9912L15 51H11L10.5371 50.9883C5.78166 50.7474 2 46.8153 2 42V38C2 29.845 8.50774 23.21 16.6133 23.0049L17 23V1H22V23ZM17 28C11.4772 28 7 32.4772 7 38V42C7 44.2091 8.79086 46 11 46H15C16.1046 46 17 45.1046 17 44V28Z" fill="black"/>
<rect width="2" height="64" fill="#D9D9D9"/>
</svg>
