<svg width="36" height="64" viewBox="0 0 36 64" fill="none" xmlns="http://www.w3.org/2000/svg">
<path fill-rule="evenodd" clip-rule="evenodd" d="M20 13C28.8366 13 36 20.1634 36 29V35L35.9951 35.4131C35.776 44.0587 28.6984 51 20 51C11.3016 51 4.22398 44.0587 4.00488 35.4131L4 35V29C4 20.1634 11.1634 13 20 13ZM20 18C13.9249 18 9 22.9249 9 29V35C9 41.0751 13.9249 46 20 46C26.0751 46 31 41.0751 31 35V29C31 22.9249 26.0751 18 20 18Z" fill="black"/>
<rect width="2" height="64" fill="#D9D9D9"/>
</svg>
