<svg width="37" height="64" viewBox="0 0 37 64" fill="none" xmlns="http://www.w3.org/2000/svg">
<path fill-rule="evenodd" clip-rule="evenodd" d="M17 29C8.71573 29 2 22.2843 2 14V11C2 6.02944 6.02944 2 11 2V7C8.79086 7 7 8.79086 7 11V14C7 19.5228 11.4772 24 17 24V9C17 4.58172 20.5817 1 25 1C31.6274 1 37 6.37258 37 13V15C37 22.6112 30.9263 28.8035 23.3613 28.9951L23 29H22V51H17V29ZM25 6C23.3431 6 22 7.34315 22 9V24H23C27.9706 24 32 19.9706 32 15V13C32 9.13401 28.866 6 25 6Z" fill="black"/>
<rect width="2" height="64" fill="#D9D9D9"/>
</svg>
