<svg width="43" height="64" viewBox="0 0 43 64" fill="none" xmlns="http://www.w3.org/2000/svg">
<path d="M40.5 12H20C14.4772 12 10 7.52285 10 2H15C15 4.76142 17.2386 7 20 7H43V12C43.0001 12.5647 43.0033 22.1478 39.8076 31.6699C38.2066 36.4403 35.7454 41.3748 31.918 45.1416C28.0297 48.968 22.8146 51.4999 16 51.5L15.999 46.5C21.4341 46.5 25.4088 44.5328 28.4111 41.5781C31.4741 38.5638 33.6059 34.4345 35.0674 30.0801C37.9942 21.3595 38 12.4496 38 12.001L40.5 12Z" fill="black"/>
<rect width="2" height="64" fill="#D9D9D9"/>
</svg>
