<svg width="54" height="64" viewBox="0 0 54 64" fill="none" xmlns="http://www.w3.org/2000/svg">
<path fill-rule="evenodd" clip-rule="evenodd" d="M31 1C36.5228 1 41 5.47715 41 11V23C41 33.2119 34.8764 41.9921 26.1016 45.873C27.0728 45.955 28.0423 46 29 46C34.1323 46 39.6037 44.7076 43.875 43.3652C45.9927 42.6997 47.7779 42.0337 49.0293 41.5361C49.6542 41.2877 50.1444 41.0815 50.4746 40.9395C50.6397 40.8685 50.765 40.8137 50.8467 40.7773C50.8874 40.7592 50.9178 40.7458 50.9365 40.7373C50.9457 40.7331 50.9524 40.7302 50.9561 40.7285L50.959 40.7266L53.041 45.2734H53.0391L53.0361 45.2754C53.0337 45.2765 53.0302 45.2776 53.0264 45.2793C53.0185 45.2829 53.0077 45.2878 52.9941 45.2939C52.9669 45.3062 52.9284 45.3237 52.8789 45.3457C52.7794 45.3899 52.6356 45.4539 52.4512 45.5332C52.0822 45.6919 51.5487 45.9155 50.877 46.1826C49.5347 46.7163 47.632 47.4254 45.375 48.1348C40.8963 49.5423 34.8675 51 29 51C23.1325 51 17.1037 49.5423 12.625 48.1348C10.368 47.4254 8.46529 46.7163 7.12305 46.1826C6.45129 45.9155 5.91782 45.6919 5.54883 45.5332C5.36437 45.4539 5.22056 45.3899 5.12109 45.3457C5.0716 45.3237 5.03309 45.3062 5.00586 45.2939C4.9923 45.2878 4.98152 45.2829 4.97363 45.2793C4.96983 45.2776 4.96632 45.2765 4.96387 45.2754L4.96094 45.2734H4.95898L7.04102 40.7266L7.04395 40.7285C7.04762 40.7302 7.05426 40.7331 7.06348 40.7373C7.08222 40.7458 7.11255 40.7592 7.15332 40.7773C7.23497 40.8137 7.36033 40.8685 7.52539 40.9395C7.8556 41.0815 8.34576 41.2877 8.9707 41.5361C9.99361 41.9428 11.3737 42.4604 13 43H16C27.0457 43 36 34.0457 36 23V19.6582C34.5287 20.5097 32.8221 21 31 21C25.4772 21 21 16.5228 21 11C21 5.47715 25.4772 1 31 1ZM31 6C28.2386 6 26 8.23858 26 11C26 13.7614 28.2386 16 31 16C33.7614 16 36 13.7614 36 11C36 8.23858 33.7614 6 31 6Z" fill="black"/>
<rect width="2" height="64" fill="#D9D9D9"/>
</svg>
