<svg width="39" height="64" viewBox="0 0 39 64" fill="none" xmlns="http://www.w3.org/2000/svg">
<path fill-rule="evenodd" clip-rule="evenodd" d="M39 25C39 29.2739 36.5606 32.9748 33 34.7959V36.333C33 36.5566 32.9943 36.7789 32.9844 37H33V40C33 43.3137 35.6863 46 39 46V51C35.0194 51 31.5327 48.8856 29.6016 45.7188C26.9111 48.9454 22.8625 51 18.333 51C14.4096 50.9998 11.2061 47.9186 11.0098 44.0439L11 43.667V34C11 28.4772 15.4772 24 21 24H23.4189C27.2201 24 30.5034 26.2143 32.0518 29.4229C33.2485 28.326 34 26.7513 34 25V1H39V25ZM21 29C18.3247 29 16.1405 31.1011 16.0068 33.7432L16 34V43.667C16.0002 44.9554 17.0446 45.9998 18.333 46C23.6718 46 28 41.6718 28 36.333V33.5811C28 31.0512 25.9488 29 23.4189 29H21Z" fill="black"/>
<rect width="2" height="64" fill="#D9D9D9"/>
</svg>
