<svg width="48" height="64" viewBox="0 0 48 64" fill="none" xmlns="http://www.w3.org/2000/svg">
<path fill-rule="evenodd" clip-rule="evenodd" d="M38 25C38 29.2739 35.5606 32.9748 32 34.7959V36.333C32 36.5566 31.9943 36.7789 31.9844 37H32V40C32 43.3137 34.6863 46 38 46C40.7614 46 43 43.7614 43 41V33H48V41C48 46.5228 43.5228 51 38 51C34.0194 51 30.5327 48.8856 28.6016 45.7188C25.9111 48.9454 21.8625 51 17.333 51C13.4096 50.9998 10.2061 47.9186 10.0098 44.0439L10 43.667V34C10 28.4772 14.4772 24 20 24H22.4189C26.2201 24 29.5034 26.2143 31.0518 29.4229C32.2485 28.326 33 26.7513 33 25V1H38V25ZM20 29C17.3247 29 15.1405 31.1011 15.0068 33.7432L15 34V43.667C15.0002 44.9554 16.0446 45.9998 17.333 46C22.6718 46 27 41.6718 27 36.333V33.5811C27 31.0512 24.9488 29 22.4189 29H20Z" fill="black"/>
<rect width="2" height="64" fill="#D9D9D9"/>
</svg>
