<svg width="42" height="64" viewBox="0 0 42 64" fill="none" xmlns="http://www.w3.org/2000/svg">
<path fill-rule="evenodd" clip-rule="evenodd" d="M28 6H27.5C22.8056 6 19 9.80558 19 14.5C19 19.1944 22.8056 23 27.5 23H28C32.9706 23 37 18.9706 37 14H42C42 18.764 39.6198 22.9712 35.9844 25.5C39.6198 28.0288 42 32.236 42 37C42 44.732 35.732 51 28 51C20.268 51 14 44.732 14 37C14 32.3112 16.3051 28.1609 19.8438 25.6201C16.3137 23.185 14 19.1128 14 14.5C14 7.04416 20.0442 1 27.5 1H28V6ZM28 28C23.0294 28 19 32.0294 19 37C19 41.9706 23.0294 46 28 46C32.9706 46 37 41.9706 37 37C37 32.0294 32.9706 28 28 28Z" fill="black"/>
<rect width="2" height="64" fill="#D9D9D9"/>
</svg>
