<svg width="43" height="64" viewBox="0 0 43 64" fill="none" xmlns="http://www.w3.org/2000/svg">
<path fill-rule="evenodd" clip-rule="evenodd" d="M31 28C31 40.7025 20.7025 51 8 51V46C17.9411 46 26 37.9411 26 28H21.5C16.2533 28 12 23.7467 12 18.5C12 13.2533 16.2533 9 21.5 9C26.7467 9 31 13.2533 31 18.5V23C34.866 23 38 19.866 38 16V1H43V16C43 22.6274 37.6274 28 31 28ZM21.5 14C19.0147 14 17 16.0147 17 18.5C17 20.9853 19.0147 23 21.5 23H26V18.5C26 16.0147 23.9853 14 21.5 14Z" fill="black"/>
<rect width="2" height="64" fill="#D9D9D9"/>
</svg>
