<svg width="31" height="64" viewBox="0 0 31 64" fill="none" xmlns="http://www.w3.org/2000/svg">
<path fill-rule="evenodd" clip-rule="evenodd" d="M22.4004 26H22.1006C20.4421 26 19.088 27.3026 19.0049 28.9404L19 29.1006C19.0003 30.8124 20.3887 32.2002 22.1006 32.2002H22.4004C24.2779 32.2 25.8007 30.6774 25.8008 28.7998H30.8008C30.8007 31.6582 29.3708 34.1809 27.1895 35.6982C29.2611 37.1385 30.6533 39.4875 30.7891 42.168L30.7998 42.5996C30.7998 47.2388 27.0386 51 22.3994 51L21.9678 50.9893C17.5294 50.7643 14 47.0938 14 42.5996L14.0107 42.168C14.1443 39.5323 15.4923 37.2163 17.5068 35.7705C15.389 34.3095 14.0002 31.8679 14 29.1006C14 24.6271 17.6271 21 22.1006 21H22.4004V26ZM22.3994 39.2002C20.522 39.2005 19.0002 40.7222 19 42.5996C19 44.4772 20.5219 45.9997 22.3994 46C24.2772 46 25.7998 44.4774 25.7998 42.5996C25.7996 40.722 24.2771 39.2002 22.3994 39.2002Z" fill="black"/>
<rect width="2" height="64" fill="#D9D9D9"/>
</svg>
