<svg width="36" height="64" viewBox="0 0 36 64" fill="none" xmlns="http://www.w3.org/2000/svg">
<path fill-rule="evenodd" clip-rule="evenodd" d="M28 35C28 36.9323 27.2171 38.6816 25.9512 39.9482C25.9818 40.1872 26 40.4305 26 40.6777V44C26 45.1046 26.8954 46 28 46C29.6569 46 31 44.6569 31 43V40H36V43C36 47.4183 32.4183 51 28 51C25.841 51 23.911 50.0219 22.627 48.4854C20.8624 50.0487 18.5429 51 16 51L15.7432 50.9932C13.1011 50.8595 11 48.6753 11 46V42.1426C11.0002 38.1979 14.1979 35.0002 18.1426 35H20.3223C21.2507 35 22.1266 35.224 22.9004 35.6191C22.9639 35.424 23 35.2163 23 35V21H28V35ZM18.1426 40C16.9593 40.0002 16.0002 40.9593 16 42.1426V46C18.7614 46 21 43.7614 21 41V40.6777C21 40.3036 20.6964 40 20.3223 40H18.1426Z" fill="black"/>
<rect width="2" height="64" fill="#D9D9D9"/>
</svg>
