<svg width="29" height="64" viewBox="0 0 29 64" fill="none" xmlns="http://www.w3.org/2000/svg">
<path fill-rule="evenodd" clip-rule="evenodd" d="M22 39C22 45.6274 16.6274 51 10 51H8V46H10C13.866 46 17 42.866 17 39H15.5C11.9101 39 9 36.0899 9 32.5C9 28.9101 11.9101 26 15.5 26C19.0899 26 22 28.9101 22 32.5V34C23.1046 34 24 33.1046 24 32V21H29V32C29 35.866 25.866 39 22 39ZM15.5 31C14.6716 31 14 31.6716 14 32.5C14 33.3284 14.6716 34 15.5 34H17V32.5C17 31.6716 16.3284 31 15.5 31Z" fill="black"/>
<rect width="2" height="64" fill="#D9D9D9"/>
</svg>
