<svg width="29" height="64" viewBox="0 0 29 64" fill="none" xmlns="http://www.w3.org/2000/svg">
<path d="M17 26.001C17.0001 26.0055 17.0002 26.0294 17.001 26.0732C17.0018 26.1212 17.0033 26.1886 17.0059 26.2744C17.0109 26.4466 17.0204 26.691 17.0371 26.9961C17.0706 27.6072 17.1329 28.4599 17.251 29.4697C17.4888 31.5024 17.9437 34.1168 18.7969 36.6777C20.5529 41.948 23.5903 45.9989 29 45.999V51C20.2096 50.9998 15.9966 44.0921 14.0527 38.2578C12.324 33.0689 12.0486 27.8726 12.0068 26.3945L12 26V21H29V26H14.5L17 26.001Z" fill="black"/>
<rect width="2" height="64" fill="#D9D9D9"/>
</svg>
