<svg width="44" height="64" viewBox="0 0 44 64" fill="none" xmlns="http://www.w3.org/2000/svg">
<path fill-rule="evenodd" clip-rule="evenodd" d="M43.999 6.00037C43.5816 6.00062 43.0222 6.16132 42.2666 6.73572C41.497 7.32094 40.6551 8.23812 39.7432 9.49744C37.9073 12.0327 36.1224 15.4722 34.2207 19.1488C33.1026 21.3105 31.9395 23.5581 30.7314 25.64C31.9437 27.799 33.1112 30.1338 34.2354 32.3822C36.1363 36.184 37.9258 39.7495 39.7666 42.3793C40.6818 43.6867 41.5268 44.6392 42.2988 45.2465C43.0587 45.8441 43.6078 46.0003 44 46.0004V51.0004C42.1423 51.0003 40.5339 50.219 39.208 49.1761C37.8943 48.1429 36.7242 46.7512 35.6709 45.2465C33.5743 42.2512 31.6127 38.3157 29.7637 34.6176C29.0299 33.15 28.3114 31.7185 27.6016 30.3617C26.7326 31.4593 25.7903 32.4592 24.7588 33.2435C23.4292 34.2544 21.8324 35.0003 20 35.0004C16.1341 35.0004 13.0002 31.8662 13 28.0004V23.0004C13 19.1344 16.134 16.0004 20 16.0004L20.3447 16.0092C22.0572 16.0987 23.5489 16.8468 24.792 17.8246C25.8406 18.6494 26.7956 19.704 27.6748 20.8607C28.3656 19.5815 29.0646 18.2337 29.7793 16.8519C31.6274 13.2789 33.5919 9.46688 35.6934 6.56482C36.7499 5.10575 37.9243 3.75688 39.2402 2.75623C40.5699 1.7453 42.1676 1.0004 44 1.00037L43.999 6.00037ZM20 20.9994C18.8954 20.9994 18 21.8958 18 23.0004V28.0004C18.0002 29.1048 18.8956 30.0004 20 30.0004C20.4175 30.0003 20.9772 29.839 21.7334 29.264C22.503 28.6788 23.344 27.7616 24.2559 26.5023C24.4664 26.2116 24.6753 25.9085 24.8848 25.5951C24.6678 25.2584 24.4515 24.933 24.2334 24.6215C23.3182 23.3141 22.4731 22.3616 21.7012 21.7543C20.9414 21.1567 20.3922 20.9995 20 20.9994Z" fill="black"/>
<rect width="2" height="64" fill="#D9D9D9"/>
</svg>
