<svg width="43" height="64" viewBox="0 0 43 64" fill="none" xmlns="http://www.w3.org/2000/svg">
<path d="M11.6924 1.00037C13.5247 1.00037 15.1225 1.74536 16.4522 2.75623C17.7682 3.75689 18.9424 5.1057 19.999 6.56482C22.1005 9.46691 24.0649 13.2788 25.9131 16.8519C26.6276 18.2333 27.326 19.5809 28.0166 20.8597C28.8959 19.7029 29.8527 18.6495 30.9014 17.8246C32.2273 16.7817 33.8356 16.0004 35.6934 16.0004L35.6924 20.9994C35.3002 20.9995 34.7519 21.1568 33.9922 21.7543C33.2202 22.3615 32.3752 23.314 31.46 24.6215C31.2417 24.9333 31.0237 25.2581 30.8066 25.5951C31.0162 25.9087 31.2259 26.2115 31.4365 26.5023C32.3484 27.7616 33.1903 28.6788 33.96 29.264C34.716 29.8388 35.2759 30.0003 35.6934 30.0004C36.7976 30.0001 37.6932 29.1046 37.6934 28.0004V23.0004C37.6934 21.8959 36.7977 21.0006 35.6934 21.0004V16.0004C39.5592 16.0006 42.6934 19.1345 42.6934 23.0004V28.0004C42.6932 31.866 39.559 35.0001 35.6934 35.0004C33.8611 35.0002 32.2631 34.2544 30.9336 33.2435C29.9019 32.4591 28.9589 31.4595 28.0899 30.3617C27.3801 31.7182 26.6633 33.1503 25.9297 34.6176C24.0806 38.3156 22.1191 42.2513 20.0225 45.2465C18.9692 46.7511 17.799 48.1429 16.4854 49.1761C15.1595 50.219 13.5501 51.0004 11.6924 51.0004V46.0004C12.0846 46.0004 12.6337 45.844 13.3936 45.2465C14.1655 44.6393 15.0106 43.6866 15.9258 42.3793C17.7666 39.7496 19.5562 36.1839 21.457 32.3822C22.5811 30.1341 23.7478 27.7988 24.96 25.64C23.752 23.5582 22.5897 21.3103 21.4717 19.1488C19.57 15.4722 17.7851 12.0327 15.9492 9.49744C15.0373 8.23809 14.1955 7.3209 13.4258 6.73572C12.67 6.16119 12.1108 6.0005 11.6934 6.00037L11.6924 1.00037Z" fill="black"/>
<rect width="2" height="64" fill="#D9D9D9"/>
</svg>
