<svg width="48" height="64" viewBox="0 0 48 64" fill="none" xmlns="http://www.w3.org/2000/svg">
<path fill-rule="evenodd" clip-rule="evenodd" d="M15 1C20.4056 1 25.4106 2.7154 29.5 5.63184C33.5894 2.7154 38.5944 1 44 1H48V6H44C40.0968 6 36.455 7.11838 33.377 9.05176C37.4879 13.507 40 19.4599 40 26C40 32.5399 37.4876 38.4921 33.377 42.9473C36.4551 44.8808 40.0967 46 44 46H48V51H44C38.5942 51 33.5895 49.2838 29.5 46.3672C25.4105 49.2838 20.4058 51 15 51H11V46H15C18.903 46 22.5441 44.8805 25.6221 42.9473C21.5117 38.4921 19 32.5396 19 26C19 19.4601 21.5114 13.507 25.6221 9.05176C22.5442 7.11865 18.9029 6 15 6H11V1H15ZM29.5 12.2246C26.0915 15.8113 24 20.6615 24 26C24 31.3383 26.0918 36.1878 29.5 39.7744C32.9082 36.1878 35 31.3383 35 26C35 20.6615 32.9085 15.8113 29.5 12.2246Z" fill="black"/>
<rect width="2" height="64" fill="#D9D9D9"/>
</svg>
