<svg width="46" height="64" viewBox="0 0 46 64" fill="none" xmlns="http://www.w3.org/2000/svg">
<path d="M44 51H39V18H44V51Z" fill="black"/>
<path d="M16 26C18.5389 26 20.4866 26.4886 21.9414 27.6201C23.364 28.7266 23.9503 30.2047 24.2979 31.0156C24.7001 31.9541 24.8632 32.2276 25.1279 32.4336C25.3607 32.6146 26.0394 33 28 33C30.2091 33 32 31.2091 32 29V28C32 26.8954 31.1046 26 30 26H28V21H30C33.866 21 37 24.134 37 28V29C37 33.9706 32.9706 38 28 38C25.461 38 23.5134 37.5105 22.0586 36.3789C20.6366 35.2727 20.0497 33.7963 19.7021 32.9854C19.2997 32.0464 19.1359 31.7734 18.8711 31.5674C18.6384 31.3864 17.961 31.0001 16.001 31L16 26Z" fill="black"/>
<path d="M46 3C46 10.1797 40.1797 16 33 16H27C20.2288 16 14.5064 20.4869 12.6416 26.6494C13.6795 26.2316 14.8126 26 16 26L16.001 31C13.7918 31 12 32.7909 12 35V36H7V31C7 19.9543 15.9543 11 27 11H33C37.4183 11 41 7.41828 41 3V1H46V3Z" fill="black"/>
<rect width="2" height="64" fill="#D9D9D9"/>
</svg>
