<svg width="54" height="64" viewBox="0 0 54 64" fill="none" xmlns="http://www.w3.org/2000/svg">
<path fill-rule="evenodd" clip-rule="evenodd" d="M54 6C44.6112 6 37 13.6112 37 23V24H36.5C43.9558 24 50 30.0442 50 37.5V42C50 46.9706 45.9706 51 41 51C36.0294 51 32 46.9706 32 42V29H26C26 41.1503 16.1503 51 4 51V46C13.3888 46 21 38.3888 21 29H22L21.6387 28.9951C14.0737 28.8035 8 22.6112 8 15V10C8 5.02944 12.0294 1 17 1C21.9706 1 26 5.02944 26 10V24H32V23C32 10.8497 41.8497 1 54 1V6ZM37 42C37 44.2091 38.7909 46 41 46C43.2091 46 45 44.2091 45 42V37.5C45 32.9735 41.4617 29.2745 37 29.0156V42ZM17 6C14.7909 6 13 7.79086 13 10V15C13 19.6325 16.5002 23.4448 21 23.9424V10C21 7.79086 19.2091 6 17 6Z" fill="black"/>
<rect width="2" height="64" fill="#D9D9D9"/>
</svg>
