<svg width="49" height="64" viewBox="0 0 49 64" fill="none" xmlns="http://www.w3.org/2000/svg">
<path d="M33 6H30C18.9543 6 10 14.9543 10 26C10 37.0457 18.9543 46 30 46H33V51H30C16.1929 51 5 39.8071 5 26C5 12.1929 16.1929 1 30 1H33V6Z" fill="black"/>
<path d="M35 13H30.5C26.9101 13 24 15.9101 24 19.5C24 23.0899 26.9101 26 30.5 26H35V32H43C46.3137 32 49 34.6863 49 38C49 41.3137 46.3137 44 43 44H39V39H43C43.5523 39 44 38.5523 44 38C44 37.4477 43.5523 37 43 37H35V45H30V37H16V32H30V30.9873C23.8807 30.7255 19 25.6837 19 19.5C19 13.1487 24.1487 8 30.5 8H35V13Z" fill="black"/>
<rect width="2" height="64" fill="#D9D9D9"/>
</svg>
