<svg width="54" height="64" viewBox="0 0 54 64" fill="none" xmlns="http://www.w3.org/2000/svg">
<path d="M26 1C33.732 1 40 7.26801 40 15C40 22.3957 34.2652 28.4501 27 28.9629V37H40C42.2091 37 44 35.2091 44 33H49C49 37.9706 44.9706 42 40 42H27V51H22V42H17C12.0294 42 8 37.9706 8 33H13C13 35.2091 14.7909 37 17 37H22V24H26C30.9706 24 35 19.9706 35 15C35 10.0294 30.9706 6 26 6H22V1H26Z" fill="black"/>
<path fill-rule="evenodd" clip-rule="evenodd" d="M46.5 17C50.6421 17 54 20.3579 54 24.5C54 28.6421 50.6421 32 46.5 32C42.3579 32 39 28.6421 39 24.5C39 20.3579 42.3579 17 46.5 17ZM46.5 22C45.1193 22 44 23.1193 44 24.5C44 25.8807 45.1193 27 46.5 27C47.8807 27 49 25.8807 49 24.5C49 23.1193 47.8807 22 46.5 22Z" fill="black"/>
<rect width="2" height="64" fill="#D9D9D9"/>
</svg>
