<svg width="53" height="64" viewBox="0 0 53 64" fill="none" xmlns="http://www.w3.org/2000/svg">
<path d="M30 51H25V34H30V51Z" fill="black"/>
<path d="M38 34C38 36.7614 40.2386 39 43 39C45.7614 39 48 36.7614 48 34V32H53V34C53 39.5228 48.5228 44 43 44C37.4772 44 33 39.5228 33 34V32H38V34Z" fill="black"/>
<path fill-rule="evenodd" clip-rule="evenodd" d="M28.5 1C37.0604 1 44 7.93959 44 16.5C44 25.0604 37.0604 32 28.5 32C24.9214 32 21.6264 30.7869 19.0029 28.75L11.2256 38H5L15.7129 25.2607C14.0021 22.7684 13 19.7514 13 16.5C13 7.93959 19.9396 1 28.5 1ZM28.5 6C22.701 6 18 10.701 18 16.5C18 18.1948 18.404 19.7946 19.1172 21.2119L24.3418 15H30.5674L22.2246 24.9189C23.9753 26.226 26.1472 27 28.5 27C34.299 27 39 22.299 39 16.5C39 10.701 34.299 6 28.5 6Z" fill="black"/>
<rect width="2" height="64" fill="#D9D9D9"/>
</svg>
