<svg width="55" height="64" viewBox="0 0 55 64" fill="none" xmlns="http://www.w3.org/2000/svg">
<path d="M27 6H26C21.5817 6 18 9.58172 18 14V18C22.9706 18 27 22.0294 27 27V51H22V27C22 24.7909 20.2091 23 18 23V24C18 28.9706 13.9706 33 9 33C5.13401 33 2 29.866 2 26V24H7V26C7 27.1046 7.89543 28 9 28C11.2091 28 13 26.2091 13 24V14C13 6.8203 18.8203 1 26 1H27V6Z" fill="black"/>
<path d="M31 1C38.1797 1 44 6.8203 44 14V24C44 26.2091 45.7909 28 48 28C49.1046 28 50 27.1046 50 26V24H55V26C55 29.866 51.866 33 48 33C43.0294 33 39 28.9706 39 24V23C36.7909 23 35 24.7909 35 27V51H30V27C30 22.0294 34.0294 18 39 18V14C39 9.58172 35.4183 6 31 6H30V1H31Z" fill="black"/>
<rect width="2" height="64" fill="#D9D9D9"/>
</svg>
