<svg width="55" height="64" viewBox="0 0 55 64" fill="none" xmlns="http://www.w3.org/2000/svg">
<path fill-rule="evenodd" clip-rule="evenodd" d="M7 31C7 25.4772 11.4772 21 17 21H22V1C34.135 1 44.2494 9.64631 46.5215 21.1143C51.3223 21.847 55 25.9944 55 31H50C50 28.9475 48.7631 27.1843 46.9941 26.4141C46.773 40.0302 35.6688 51 22 51V26H17C14.2386 26 12 28.2386 12 31C12 32.6569 13.3431 34 15 34H18V39H15C10.5817 39 7 35.4183 7 31ZM27 45.3691C35.626 43.1489 42 35.3191 42 26H27V45.3691ZM27 21H41.3691C39.5602 13.972 34.028 8.43875 27 6.62988V21Z" fill="black"/>
<rect width="2" height="64" fill="#D9D9D9"/>
</svg>
