<svg width="50" height="64" viewBox="0 0 50 64" fill="none" xmlns="http://www.w3.org/2000/svg">
<path d="M18 19H17C13.134 19 10 22.134 10 26C10 29.866 13.134 33 17 33H18C21.866 33 25 29.866 25 26C25 19.3726 30.3726 14 37 14H38C44.6274 14 50 19.3726 50 26C50 32.6274 44.6274 38 38 38H37V33H38C41.866 33 45 29.866 45 26C45 22.134 41.866 19 38 19H37C33.134 19 30 22.134 30 26C30 32.6274 24.6274 38 18 38H17C10.3726 38 5 32.6274 5 26C5 19.3726 10.3726 14 17 14H18V19Z" fill="black"/>
<rect width="2" height="64" fill="#D9D9D9"/>
</svg>
