<svg width="50" height="64" viewBox="0 0 50 64" fill="none" xmlns="http://www.w3.org/2000/svg">
<path d="M10 27C10 37.4934 18.5066 46 29 46H38V51H29C15.7452 51 5 40.2548 5 27H10Z" fill="black"/>
<path fill-rule="evenodd" clip-rule="evenodd" d="M35.5 30C39.6421 30 43 33.3579 43 37.5C43 41.6421 39.6421 45 35.5 45C31.3579 45 28 41.6421 28 37.5C28 33.3579 31.3579 30 35.5 30ZM35.5 35C34.1193 35 33 36.1193 33 37.5C33 38.8807 34.1193 40 35.5 40C36.8807 40 38 38.8807 38 37.5C38 36.1193 36.8807 35 35.5 35Z" fill="black"/>
<path d="M33 17H39.5C42.5376 17 45 14.5376 45 11.5C45 8.46243 42.5376 6 39.5 6H33V1H39.5C45.299 1 50 5.70101 50 11.5C50 17.299 45.299 22 39.5 22H38V29H33V17Z" fill="black"/>
<rect width="2" height="64" fill="#D9D9D9"/>
</svg>
