<svg width="53" height="64" viewBox="0 0 53 64" fill="none" xmlns="http://www.w3.org/2000/svg">
<path d="M23.5 43C25.433 43 27 44.567 27 46.5C27 48.433 25.433 50 23.5 50C21.567 50 20 48.433 20 46.5C20 44.567 21.567 43 23.5 43Z" fill="black"/>
<path d="M32.5 43C34.433 43 36 44.567 36 46.5C36 48.433 34.433 50 32.5 50C30.567 50 29 48.433 29 46.5C29 44.567 30.567 43 32.5 43Z" fill="black"/>
<path d="M19 8.13574C12.4751 11.4294 8.00012 18.1918 8 26C8 33.8082 12.4752 40.5705 19 43.8643V49.3291C9.64027 45.7158 3 36.6341 3 26C3.00013 15.366 9.64026 6.28409 19 2.6709V8.13574Z" fill="black"/>
<path d="M37 2.6709C46.3597 6.28409 52.9999 15.366 53 26C53 36.6341 46.3597 45.7158 37 49.3291V43.8643C43.5248 40.5705 48 33.8082 48 26C47.9999 18.1918 43.5249 11.4294 37 8.13574V2.6709Z" fill="black"/>
<path d="M23.5 2C25.433 2 27 3.567 27 5.5C27 7.433 25.433 9 23.5 9C21.567 9 20 7.433 20 5.5C20 3.567 21.567 2 23.5 2Z" fill="black"/>
<path d="M32.5 2C34.433 2 36 3.567 36 5.5C36 7.433 34.433 9 32.5 9C30.567 9 29 7.433 29 5.5C29 3.567 30.567 2 32.5 2Z" fill="black"/>
<rect width="2" height="64" fill="#D9D9D9"/>
</svg>
