<svg width="52" height="64" viewBox="0 0 52 64" fill="none" xmlns="http://www.w3.org/2000/svg">
<path d="M27.5 44C29.433 44 31 45.567 31 47.5C31 49.433 29.433 51 27.5 51C25.567 51 24 49.433 24 47.5C24 45.567 25.567 44 27.5 44Z" fill="black"/>
<path d="M11.5 37C13.433 37 15 38.567 15 40.5C15 42.433 13.433 44 11.5 44C9.567 44 8 42.433 8 40.5C8 38.567 9.567 37 11.5 37Z" fill="black"/>
<path d="M42.5 37C44.433 37 46 38.567 46 40.5C46 42.433 44.433 44 42.5 44C40.567 44 39 42.433 39 40.5C39 38.567 40.567 37 42.5 37Z" fill="black"/>
<path fill-rule="evenodd" clip-rule="evenodd" d="M27 10C35.8366 10 43 17.1634 43 26C43 34.8366 35.8366 42 27 42C18.1634 42 11 34.8366 11 26C11 17.1634 18.1634 10 27 10ZM27 15C20.9249 15 16 19.9249 16 26C16 32.0751 20.9249 37 27 37C33.0751 37 38 32.0751 38 26C38 19.9249 33.0751 15 27 15Z" fill="black"/>
<path d="M5.5 22C7.433 22 9 23.567 9 25.5C9 27.433 7.433 29 5.5 29C3.567 29 2 27.433 2 25.5C2 23.567 3.567 22 5.5 22Z" fill="black"/>
<path d="M48.5 22C50.433 22 52 23.567 52 25.5C52 27.433 50.433 29 48.5 29C46.567 29 45 27.433 45 25.5C45 23.567 46.567 22 48.5 22Z" fill="black"/>
<path d="M11.5 6C13.433 6 15 7.567 15 9.5C15 11.433 13.433 13 11.5 13C9.567 13 8 11.433 8 9.5C8 7.567 9.567 6 11.5 6Z" fill="black"/>
<path d="M42.5 6C44.433 6 46 7.567 46 9.5C46 11.433 44.433 13 42.5 13C40.567 13 39 11.433 39 9.5C39 7.567 40.567 6 42.5 6Z" fill="black"/>
<path d="M27.5 1C29.433 1 31 2.567 31 4.5C31 6.433 29.433 8 27.5 8C25.567 8 24 6.433 24 4.5C24 2.567 25.567 1 27.5 1Z" fill="black"/>
<rect width="2" height="64" fill="#D9D9D9"/>
</svg>
