<svg width="53" height="64" viewBox="0 0 53 64" fill="none" xmlns="http://www.w3.org/2000/svg">
<path d="M20 29H19C15.6863 29 13 31.6863 13 35C13 38.3137 15.6863 41 19 41H20C23.3137 41 26 38.3137 26 35C26 28.9249 30.9249 24 37 24H38C44.0751 24 49 28.9249 49 35C49 41.0751 44.0751 46 38 46H37V41H38C41.3137 41 44 38.3137 44 35C44 31.6863 41.3137 29 38 29H37C33.6863 29 31 31.6863 31 35C31 41.0751 26.0751 46 20 46H19C12.9249 46 8 41.0751 8 35C8 28.9249 12.9249 24 19 24H20V29Z" fill="black"/>
<path d="M52.041 11.2734H52.0391L52.0361 11.2754C52.0337 11.2765 52.0302 11.2776 52.0264 11.2793C52.0185 11.2829 52.0077 11.2878 51.9941 11.2939C51.9669 11.3062 51.9284 11.3237 51.8789 11.3457C51.7794 11.3899 51.6356 11.4539 51.4512 11.5332C51.0822 11.6919 50.5487 11.9155 49.877 12.1826C48.5347 12.7163 46.632 13.4254 44.375 14.1348C39.8963 15.5423 33.8675 17 28 17C22.1325 17 16.1037 15.5423 11.625 14.1348C9.36796 13.4254 7.46529 12.7163 6.12305 12.1826C5.45129 11.9155 4.91782 11.6919 4.54883 11.5332C4.36437 11.4539 4.22056 11.3899 4.12109 11.3457C4.0716 11.3237 4.03309 11.3062 4.00586 11.2939C3.9923 11.2878 3.98152 11.2829 3.97363 11.2793C3.96983 11.2776 3.96632 11.2765 3.96387 11.2754L3.96094 11.2734H3.95898L6.04102 6.72656L6.04395 6.72852C6.04762 6.73019 6.05426 6.73314 6.06348 6.7373C6.08222 6.74577 6.11255 6.75921 6.15332 6.77734C6.23497 6.81366 6.36033 6.86845 6.52539 6.93945C6.8556 7.0815 7.34576 7.28766 7.9707 7.53613C9.22211 8.03368 11.0073 8.69967 13.125 9.36523C17.3963 10.7076 22.8677 12 28 12C33.1323 12 38.6037 10.7076 42.875 9.36523C44.9927 8.69967 46.7779 8.03368 48.0293 7.53613C48.6542 7.28766 49.1444 7.0815 49.4746 6.93945C49.6397 6.86845 49.765 6.81366 49.8467 6.77734C49.8874 6.75921 49.9178 6.74577 49.9365 6.7373C49.9457 6.73314 49.9524 6.73019 49.9561 6.72852L49.959 6.72656L52.041 11.2734Z" fill="black"/>
<rect width="2" height="64" fill="#D9D9D9"/>
</svg>
