<svg width="53" height="64" viewBox="0 0 53 64" fill="none" xmlns="http://www.w3.org/2000/svg">
<path d="M22.5 2C29.9558 2 36 8.04416 36 15.5C36 18.8877 34.7515 21.9833 32.6904 24.3535C36.7494 24.0503 40.7774 23.3147 44.0684 22.5625C46.2014 22.0749 47.9987 21.588 49.2588 21.2236C49.8884 21.0416 50.383 20.8906 50.7168 20.7861C50.8833 20.734 51.0096 20.6929 51.0928 20.666C51.1344 20.6526 51.166 20.6431 51.1855 20.6367C51.1951 20.6336 51.202 20.6312 51.2061 20.6299C51.208 20.6292 51.2094 20.6281 51.21 20.6279L52.79 25.3721C52.7893 25.3723 52.7871 25.3727 52.7861 25.373C52.7838 25.3738 52.7801 25.3747 52.7764 25.376C52.7688 25.3785 52.7583 25.3824 52.7451 25.3867C52.7186 25.3954 52.6806 25.4081 52.6318 25.4238C52.5339 25.4555 52.3916 25.5005 52.209 25.5576C51.8436 25.6719 51.3145 25.8335 50.6475 26.0264C49.3139 26.412 47.4234 26.9251 45.1816 27.4375C41.8147 28.2071 37.5938 28.9896 33.2451 29.3271C34.9734 31.5958 36 34.4279 36 37.5C36 44.9558 29.9558 51 22.5 51H22V46H22.5C27.1944 46 31 42.1944 31 37.5C31 33.6255 28.4071 30.3587 24.8623 29.335C20.4758 29.0021 16.213 28.2134 12.8184 27.4375C10.5766 26.9251 8.68608 26.412 7.35254 26.0264C6.68547 25.8335 6.15645 25.6719 5.79102 25.5576C5.60836 25.5005 5.46607 25.4555 5.36816 25.4238C5.31939 25.4081 5.28144 25.3954 5.25488 25.3867C5.24171 25.3824 5.23116 25.3785 5.22363 25.376C5.21986 25.3747 5.21618 25.3738 5.21387 25.373C5.21286 25.3727 5.21165 25.3723 5.21094 25.3721L6.79004 20.6279C6.79063 20.6281 6.79195 20.6292 6.79395 20.6299C6.79798 20.6312 6.80487 20.6336 6.81445 20.6367C6.83396 20.6431 6.86561 20.6526 6.90723 20.666C6.99043 20.6929 7.11667 20.734 7.2832 20.7861C7.61697 20.8906 8.11157 21.0416 8.74121 21.2236C10.0013 21.588 11.7986 22.0749 13.9316 22.5625C16.2877 23.101 19.0216 23.6304 21.874 24H22.5C27.1944 24 31 20.1944 31 15.5C31 10.8056 27.1944 7 22.5 7H22V2H22.5Z" fill="black"/>
<rect width="2" height="64" fill="#D9D9D9"/>
</svg>
