<svg width="53" height="64" viewBox="0 0 53 64" fill="none" xmlns="http://www.w3.org/2000/svg">
<path d="M52.041 5.27344H52.0391L52.0361 5.27539C52.0337 5.27651 52.0302 5.27757 52.0264 5.2793C52.0185 5.28289 52.0077 5.28782 51.9941 5.29395C51.9669 5.30624 51.9284 5.32369 51.8789 5.3457C51.7794 5.38994 51.6356 5.45386 51.4512 5.5332C51.0822 5.69193 50.5487 5.91553 49.877 6.18262C48.5347 6.71628 46.632 7.4254 44.375 8.13477C40.4169 9.37873 35.248 10.6609 30.0498 10.9424L30.2715 11.0439L23.4004 26H35.5L37.8545 29.3408L30.5 49.9336V51H25.5V49.0674L31.9531 31H19.5L17.2285 27.4561L24.8496 10.8672C20.0279 10.4789 15.3035 9.29087 11.625 8.13477C9.36796 7.4254 7.46529 6.71628 6.12305 6.18262C5.45129 5.91553 4.91782 5.69193 4.54883 5.5332C4.36437 5.45386 4.22056 5.38994 4.12109 5.3457C4.0716 5.32369 4.03309 5.30624 4.00586 5.29395C3.9923 5.28782 3.98152 5.28289 3.97363 5.2793C3.96983 5.27757 3.96632 5.27651 3.96387 5.27539L3.96094 5.27344H3.95898L6.04102 0.726562L6.04395 0.728516C6.04762 0.730186 6.05426 0.733142 6.06348 0.737305C6.08222 0.74577 6.11255 0.759211 6.15332 0.777344C6.23497 0.813655 6.36033 0.86845 6.52539 0.939453C6.8556 1.0815 7.34576 1.28766 7.9707 1.53613C9.22211 2.03368 11.0073 2.69967 13.125 3.36523C17.3963 4.70761 22.8677 6 28 6C33.1323 6 38.6037 4.70761 42.875 3.36523C44.9927 2.69967 46.7779 2.03368 48.0293 1.53613C48.6542 1.28766 49.1444 1.0815 49.4746 0.939453C49.6397 0.86845 49.765 0.813655 49.8467 0.777344C49.8874 0.759211 49.9178 0.74577 49.9365 0.737305C49.9457 0.733142 49.9524 0.730186 49.9561 0.728516L49.959 0.726562L52.041 5.27344Z" fill="black"/>
<rect width="2" height="64" fill="#D9D9D9"/>
</svg>
