<svg width="52" height="64" viewBox="0 0 52 64" fill="none" xmlns="http://www.w3.org/2000/svg">
<path d="M27.9844 10.4756L15.7783 40.165C19.5317 40.9002 23.8631 41.5 28 41.5C32.1265 41.5 36.4465 40.9035 40.1934 40.1709L27.9844 10.4756L27.9854 2H29.8252L45.0693 39.0801C46.3324 38.7632 47.416 38.4673 48.2588 38.2236C48.8884 38.0416 49.383 37.8906 49.7168 37.7861C49.8833 37.734 50.0096 37.6929 50.0928 37.666C50.1344 37.6526 50.166 37.6431 50.1855 37.6367C50.1951 37.6336 50.202 37.6312 50.2061 37.6299C50.208 37.6292 50.2094 37.6281 50.21 37.6279L51.79 42.3721C51.7893 42.3723 51.7871 42.3727 51.7861 42.373C51.7838 42.3738 51.7801 42.3747 51.7764 42.376C51.7688 42.3785 51.7583 42.3824 51.7451 42.3867C51.7186 42.3954 51.6806 42.4081 51.6318 42.4238C51.5339 42.4555 51.3916 42.5005 51.209 42.5576C50.8436 42.6719 50.3145 42.8335 49.6475 43.0264C48.9173 43.2375 48.0196 43.4844 46.9893 43.751L49.9697 51H44.6455L42.1299 44.8818C37.9811 45.7381 32.922 46.5 28 46.5C23.0668 46.5 17.9959 45.7346 13.8418 44.876L11.3242 51H6L8.98242 43.7441C7.96393 43.4804 7.07601 43.2356 6.35254 43.0264C5.68547 42.8335 5.15645 42.6719 4.79102 42.5576C4.60836 42.5005 4.46607 42.4555 4.36816 42.4238C4.31939 42.4081 4.28144 42.3954 4.25488 42.3867C4.24171 42.3824 4.23116 42.3785 4.22363 42.376C4.21986 42.3747 4.21618 42.3738 4.21387 42.373C4.21286 42.3727 4.21165 42.3723 4.21094 42.3721L5.79004 37.6279C5.79063 37.6281 5.79195 37.6292 5.79395 37.6299C5.79798 37.6312 5.80487 37.6336 5.81445 37.6367C5.83396 37.6431 5.86561 37.6526 5.90723 37.666C5.99043 37.6929 6.11667 37.734 6.2832 37.7861C6.61697 37.8906 7.11157 38.0416 7.74121 38.2236C8.57767 38.4655 9.65141 38.759 10.9023 39.0732L26.1445 2H27.9854L27.9844 10.4756Z" fill="black"/>
<path fill-rule="evenodd" clip-rule="evenodd" d="M28 25C31.866 25 35 28.134 35 32C35 35.866 31.866 39 28 39C24.134 39 21 35.866 21 32C21 28.134 24.134 25 28 25ZM28 30C26.8954 30 26 30.8954 26 32C26 33.1046 26.8954 34 28 34C29.1046 34 30 33.1046 30 32C30 30.8954 29.1046 30 28 30Z" fill="black"/>
<rect width="2" height="64" fill="#D9D9D9"/>
</svg>
