<svg width="52" height="64" viewBox="0 0 52 64" fill="none" xmlns="http://www.w3.org/2000/svg">
<path d="M51.79 5.37207C51.7893 5.37231 51.7871 5.37271 51.7861 5.37305C51.7838 5.37382 51.7801 5.37473 51.7764 5.37598C51.7688 5.37847 51.7583 5.38239 51.7451 5.38672C51.7186 5.39544 51.6806 5.40805 51.6318 5.42383C51.5339 5.4555 51.3916 5.50047 51.209 5.55762C51.0587 5.60463 50.8806 5.65883 50.6768 5.7207L50.2461 6.06445L25.2109 26H31.5C38.4036 26 44 31.5964 44 38.5C44 45.4036 38.4036 51 31.5 51H19V46H31.5C35.6421 46 39 42.6421 39 38.5C39 34.3579 35.6421 31 31.5 31H19V25.0352L40.0273 8.29102C36.331 8.96617 32.1176 9.5 28 9.5C22.2328 9.5 16.2769 8.45656 11.8184 7.4375C9.57664 6.92511 7.68608 6.41197 6.35254 6.02637C5.68547 5.83348 5.15645 5.67194 4.79102 5.55762C4.60836 5.50047 4.46607 5.4555 4.36816 5.42383C4.31939 5.40805 4.28144 5.39544 4.25488 5.38672C4.24171 5.38239 4.23116 5.37847 4.22363 5.37598C4.21986 5.37473 4.21618 5.37382 4.21387 5.37305C4.21286 5.37271 4.21165 5.37231 4.21094 5.37207L5.79004 0.62793C5.79063 0.628127 5.79195 0.629223 5.79395 0.629883C5.79798 0.631218 5.80487 0.63357 5.81445 0.636719C5.83396 0.643128 5.86561 0.652554 5.90723 0.666016C5.99043 0.692927 6.11667 0.734031 6.2832 0.786133C6.61697 0.890553 7.11157 1.04157 7.74121 1.22363C9.00132 1.588 10.7986 2.07493 12.9316 2.5625C17.2231 3.5434 22.7674 4.5 28 4.5C33.2326 4.5 38.7769 3.5434 43.0684 2.5625C45.2014 2.07493 46.9987 1.588 48.2588 1.22363C48.8884 1.04157 49.383 0.890553 49.7168 0.786133C49.8833 0.734031 50.0096 0.692927 50.0928 0.666016C50.1344 0.652554 50.166 0.643128 50.1855 0.636719C50.1951 0.63357 50.202 0.631218 50.2061 0.629883C50.208 0.629223 50.2094 0.628127 50.21 0.62793L51.79 5.37207Z" fill="black"/>
<rect width="2" height="64" fill="#D9D9D9"/>
</svg>
