<svg width="54" height="64" viewBox="0 0 54 64" fill="none" xmlns="http://www.w3.org/2000/svg">
<path d="M32 32.8633C36.2006 32.4979 40.4285 31.4484 43.875 30.3652C45.9927 29.6997 47.7779 29.0337 49.0293 28.5361C49.6542 28.2877 50.1444 28.0815 50.4746 27.9395C50.6397 27.8685 50.765 27.8137 50.8467 27.7773C50.8874 27.7592 50.9178 27.7458 50.9365 27.7373C50.9457 27.7331 50.9524 27.7302 50.9561 27.7285L50.959 27.7266L53.041 32.2734H53.0391L53.0361 32.2754C53.0337 32.2765 53.0302 32.2776 53.0264 32.2793C53.0185 32.2829 53.0077 32.2878 52.9941 32.2939C52.9669 32.3062 52.9284 32.3237 52.8789 32.3457C52.7794 32.3899 52.6356 32.4539 52.4512 32.5332C52.0822 32.6919 51.5487 32.9155 50.877 33.1826C49.5347 33.7163 47.632 34.4254 45.375 35.1348C41.6583 36.3029 36.8737 37.5025 32 37.8779V46H45V51H13V46H27V37.9443C21.785 37.6684 16.5957 36.3827 12.625 35.1348C10.368 34.4254 8.46529 33.7163 7.12305 33.1826C6.45129 32.9155 5.91782 32.6919 5.54883 32.5332C5.36437 32.4539 5.22056 32.3899 5.12109 32.3457C5.0716 32.3237 5.03309 32.3062 5.00586 32.2939C4.9923 32.2878 4.98152 32.2829 4.97363 32.2793C4.96983 32.2776 4.96632 32.2765 4.96387 32.2754L4.96094 32.2734H4.95898L7.04102 27.7266L7.04395 27.7285C7.04762 27.7302 7.05426 27.7331 7.06348 27.7373C7.08222 27.7458 7.11255 27.7592 7.15332 27.7773C7.23497 27.8137 7.36033 27.8685 7.52539 27.9395C7.8556 28.0815 8.34576 28.2877 8.9707 28.5361C10.2221 29.0337 12.0073 29.6997 14.125 30.3652C17.8452 31.5344 22.4759 32.6641 27 32.9365V27H28C20.8203 27 15 21.1797 15 14C15 6.8203 20.8203 1 28 1H32V6H28C23.5817 6 20 9.58172 20 14C20 18.4183 23.5817 22 28 22H32V32.8633Z" fill="black"/>
<rect width="2" height="64" fill="#D9D9D9"/>
</svg>
