<svg width="52" height="64" viewBox="0 0 52 64" fill="none" xmlns="http://www.w3.org/2000/svg">
<path d="M13.001 6.07715C17.2827 7.05251 22.7954 8 28 8C33.1907 8 38.6879 7.05757 42.9648 6.08496L44.6455 2H49.9697L48.9316 4.52441C49.2492 4.42954 49.5131 4.34985 49.7168 4.28613C49.8833 4.23403 50.0096 4.19293 50.0928 4.16602C50.1344 4.15255 50.166 4.14313 50.1855 4.13672C50.1951 4.13357 50.202 4.13122 50.2061 4.12988C50.208 4.12922 50.2094 4.12813 50.21 4.12793L51.79 8.87207C51.7893 8.87231 51.7871 8.87271 51.7861 8.87305C51.7838 8.87382 51.7801 8.87473 51.7764 8.87598C51.7688 8.87847 51.7583 8.88239 51.7451 8.88672C51.7186 8.89544 51.6806 8.90805 51.6318 8.92383C51.5339 8.9555 51.3916 9.00047 51.209 9.05762C50.8436 9.17194 50.3145 9.33348 49.6475 9.52637C48.8107 9.76832 47.7538 10.0575 46.5293 10.3682L29.8252 51H27.9854V42.5244L40.668 11.6719C36.8223 12.4026 32.3574 13 28 13C23.6297 13 19.1512 12.3997 15.2979 11.666L27.9854 42.5244V51H26.1445L9.43652 10.3594C8.22652 10.0519 7.18151 9.76607 6.35254 9.52637C5.68547 9.33348 5.15645 9.17194 4.79102 9.05762C4.60836 9.00047 4.46607 8.9555 4.36816 8.92383C4.31939 8.90805 4.28144 8.89544 4.25488 8.88672C4.24171 8.88239 4.23116 8.87847 4.22363 8.87598C4.21986 8.87473 4.21618 8.87382 4.21387 8.87305C4.21286 8.87271 4.21165 8.87231 4.21094 8.87207L5.79004 4.12793C5.79063 4.12813 5.79195 4.12922 5.79395 4.12988C5.79798 4.13122 5.80487 4.13357 5.81445 4.13672C5.83396 4.14313 5.86561 4.15255 5.90723 4.16602C5.99043 4.19293 6.11667 4.23403 6.2832 4.28613C6.47928 4.34748 6.73134 4.42332 7.0332 4.51367L6 2H11.3242L13.001 6.07715Z" fill="black"/>
<path fill-rule="evenodd" clip-rule="evenodd" d="M28 14C31.866 14 35 17.134 35 21C35 24.866 31.866 28 28 28C24.134 28 21 24.866 21 21C21 17.134 24.134 14 28 14ZM28 19C26.8954 19 26 19.8954 26 21C26 22.1046 26.8954 23 28 23C29.1046 23 30 22.1046 30 21C30 19.8954 29.1046 19 28 19Z" fill="black"/>
<rect width="2" height="64" fill="#D9D9D9"/>
</svg>
