<svg width="29" height="64" viewBox="0 0 29 64" fill="none" xmlns="http://www.w3.org/2000/svg">
<path d="M21.474 5L13.9312 14.7778H19.9831L20 14.7558V14.797C20.2688 14.797 20.5356 14.8228 20.797 14.8733C21.3441 14.9789 21.8674 15.1928 22.3351 15.5053C23.0262 15.9672 23.5649 16.6236 23.8831 17.3916C24.2012 18.1596 24.2844 19.0047 24.1222 19.82C23.9601 20.6353 23.5598 21.3842 22.972 21.972C22.3842 22.5598 21.6353 22.9601 20.82 23.1222C20.0047 23.2844 19.1596 23.2012 18.3916 22.8831C17.6236 22.565 16.9672 22.0262 16.5053 21.3351C16.1928 20.8674 15.9789 20.3441 15.8733 19.797C15.8228 19.5356 15.797 19.2688 15.797 19L11 19C11 20.78 11.5278 22.52 12.5167 24C13.5056 25.4801 14.9113 26.6337 16.5559 27.3149C18.2004 27.9961 20.01 28.1743 21.7558 27.8271C23.5017 27.4798 25.1053 26.6226 26.364 25.364C27.6226 24.1053 28.4798 22.5016 28.8271 20.7558C29.1743 19.01 28.9961 17.2004 28.3149 15.5558C27.6337 13.9113 26.4802 12.5057 25.0001 11.5168C24.4376 11.1409 23.8373 10.8315 23.2117 10.5926L27.5259 5H21.474Z" fill="black"/>
<rect width="2" height="64" fill="#D9D9D9"/>
</svg>
