<svg width="40" height="64" viewBox="0 0 40 64" fill="none" xmlns="http://www.w3.org/2000/svg">
<rect x="0.5" y="0.5" width="39" height="63" fill="#D9D9D9" stroke="#BE9999"/>
<path fill-rule="evenodd" clip-rule="evenodd" d="M28.5 13C26.2019 13 23.9262 13.4527 21.803 14.3321C21.1847 14.5882 20.5827 14.8791 20 15.2029C19.4173 14.8791 18.8153 14.5882 18.197 14.3321C16.0738 13.4527 13.7981 13 11.5 13V17.9869C12.8966 17.9869 14.2816 18.2207 15.5979 18.6769C14.22 20.1806 13.1141 21.9151 12.3321 23.803C11.5165 25.7721 11.068 27.8723 11.0071 30H5V35H11V46C11 48.7614 13.2386 51 16 51H24C26.7614 51 29 48.7614 29 46V35H35V30H28.9929C28.932 27.8723 28.4835 25.7721 27.6679 23.803C26.8859 21.9151 25.78 20.1806 24.4021 18.6769C25.7184 18.2207 27.1034 17.9869 28.5 17.9869V13ZM24.0031 30C23.9443 28.5274 23.6256 27.0754 23.0606 25.7114C22.4318 24.1933 21.5101 22.8138 20.3481 21.6519C20.2342 21.5379 20.1181 21.4262 20 21.3169C19.8819 21.4262 19.7658 21.5379 19.6519 21.6519C18.4899 22.8138 17.5682 24.1933 16.9394 25.7114C16.3744 27.0754 16.0557 28.5274 15.9969 30H24.0031ZM24 35H16V46H24V35Z" fill="black"/>
</svg>
