<svg width="40" height="64" viewBox="0 0 40 64" fill="none" xmlns="http://www.w3.org/2000/svg">
<rect x="0.5" y="0.499969" width="39" height="63" fill="#D9D9D9" stroke="#BE9999"/>
<path fill-rule="evenodd" clip-rule="evenodd" d="M32.7635 8.49988C32.7635 8.92845 32.6791 9.35283 32.5151 9.74878C32.3511 10.1447 32.1107 10.5045 31.8077 10.8076C31.5046 11.1106 31.1449 11.351 30.7489 11.515C30.353 11.679 29.9286 11.7634 29.5 11.7634C29.0714 11.7634 28.647 11.679 28.2511 11.515C27.8551 11.351 27.4954 11.1106 27.1923 10.8076C26.8893 10.5045 26.6489 10.1447 26.4849 9.74878C26.3209 9.35283 26.2365 8.92845 26.2365 8.49988H22C22 9.48479 22.194 10.4601 22.5709 11.37C22.8945 12.1512 23.3474 12.8711 23.9098 13.4999C24.0025 13.6035 24.0982 13.7046 24.1967 13.8032C24.8931 14.4996 25.7199 15.0521 26.6299 15.429C27.5398 15.8059 28.5151 15.9999 29.5 15.9999C30.4849 15.9999 31.4602 15.8059 32.3701 15.429C33.2801 15.0521 34.1069 14.4996 34.8033 13.8032C34.9018 13.7046 34.9975 13.6035 35.0902 13.4999C35.6526 12.8711 36.1055 12.1512 36.4291 11.37C36.806 10.4601 37 9.48479 37 8.49988H32.7635Z" fill="black"/>
<path d="M17 12.9999H12V27.9999H23C23.5523 27.9999 24 28.4477 24 28.9999V33.9999C24 40.6274 18.6274 45.9999 12 45.9999V50.9999C21.3888 50.9999 29 43.3888 29 33.9999V28.9999C29 25.6862 26.3137 22.9999 23 22.9999H17V12.9999Z" fill="black"/>
</svg>
