<svg width="40" height="64" viewBox="0 0 40 64" fill="none" xmlns="http://www.w3.org/2000/svg">
<rect x="0.5" y="0.499969" width="39" height="63" fill="#D9D9D9" stroke="#BE9999"/>
<path fill-rule="evenodd" clip-rule="evenodd" d="M23.9098 13.4999C23.3474 12.8711 22.8945 12.1512 22.5709 11.37C22.194 10.4601 22 9.48479 22 8.49988H26.2365C26.2365 8.92845 26.3209 9.35283 26.4849 9.74878C26.6489 10.1447 26.8893 10.5045 27.1923 10.8076C27.4954 11.1106 27.8551 11.351 28.2511 11.515C28.647 11.679 29.0714 11.7634 29.5 11.7634C29.9286 11.7634 30.353 11.679 30.7489 11.515C31.1449 11.351 31.5046 11.1106 31.8077 10.8076C32.1107 10.5045 32.3511 10.1447 32.5151 9.74878C32.6791 9.35283 32.7635 8.92845 32.7635 8.49988H37C37 9.48479 36.806 10.4601 36.4291 11.37C36.1055 12.1512 35.6526 12.8711 35.0902 13.4999C34.9975 13.6035 34.9018 13.7046 34.8033 13.8032C34.1069 14.4996 33.2801 15.0521 32.3701 15.429C31.4602 15.8059 30.4849 15.9999 29.5 15.9999C28.5151 15.9999 27.5398 15.8059 26.6299 15.429C25.7199 15.0521 24.8931 14.4996 24.1967 13.8032C24.0982 13.7046 24.0025 13.6035 23.9098 13.4999Z" fill="black"/>
<path fill-rule="evenodd" clip-rule="evenodd" d="M15.101 54C15.084 54.0167 15.0671 54.0334 15.0503 54.0503C14.4002 54.7003 13.8846 55.4719 13.5328 56.3212C13.1811 57.1705 13 58.0807 13 59H16.954C16.954 58.6 17.0328 58.2039 17.1859 57.8344C17.339 57.4648 17.5633 57.129 17.8462 56.8462C18.129 56.5633 18.4648 56.339 18.8344 56.1859C19.2039 56.0328 19.6 55.954 20 55.954C20.4 55.954 20.7961 56.0328 21.1656 56.1859C21.5352 56.339 21.871 56.5633 22.1538 56.8462C22.4367 57.129 22.661 57.4648 22.8141 57.8344C22.9672 58.2039 23.046 58.6 23.046 59H27C27 58.0807 26.8189 57.1705 26.4672 56.3212C26.1154 55.4719 25.5998 54.7003 24.9497 54.0503C24.9329 54.0334 24.916 54.0167 24.899 54C24.2597 53.3736 23.5061 52.8755 22.6788 52.5328C21.8295 52.1811 20.9193 52 20 52C19.0807 52 18.1705 52.1811 17.3212 52.5328C16.4939 52.8755 15.7403 53.3736 15.101 54Z" fill="black"/>
<path d="M17 13H12V28H23C23.5523 28 24 28.4477 24 29V34C24 40.6274 18.6274 46 12 46V51C21.3888 51 29 43.3888 29 34V29C29 25.6863 26.3137 23 23 23H17V13Z" fill="black"/>
</svg>
