<svg width="41" height="64" viewBox="0 0 41 64" fill="none" xmlns="http://www.w3.org/2000/svg">
<rect x="0.5" y="0.499878" width="40" height="63" fill="#D9D9D9" stroke="#BE9999"/>
<path d="M34 11.7373V50.9999H29V9.99986H18V23.0828C20.8377 23.5588 23 26.0268 23 28.9998V33.9998C23 43.3886 15.3888 50.9998 6 50.9998V45.9998C12.6274 45.9998 18 40.6272 18 33.9998V28.9998C18 28.4475 17.5523 27.9998 17 27.9998H6V12.9999H11V22.9998H13V9.49986C13 7.01458 15.0147 4.99986 17.5 4.99986H28.8995C28.8995 4.08065 29.0806 3.17044 29.4323 2.3212C29.7841 1.47192 30.2997 0.700242 30.9497 0.0502319L33.7457 2.84615C33.4628 3.12899 33.2385 3.46478 33.0854 3.83433C32.9323 4.20389 32.8535 4.59998 32.8535 4.99998C32.8535 5.39998 32.9323 5.79607 33.0854 6.16562C33.2385 6.53518 33.4628 6.87097 33.7457 7.15381C34.0285 7.43666 34.3643 7.66102 34.7338 7.8141C35.1034 7.96717 35.4995 8.04596 35.8995 8.04596C36.2995 8.04596 36.6956 7.96717 37.0651 7.8141C37.4347 7.66102 37.7705 7.43666 38.0533 7.15381L40.8492 9.94973C40.1992 10.5997 39.4276 11.1154 38.5783 11.4671C37.729 11.8189 36.8187 12 35.8995 12C35.8757 12 35.8519 11.9999 35.8281 11.9996C35.2087 11.9933 34.594 11.9048 34 11.7373Z" fill="black"/>
</svg>
