<svg width="40" height="64" viewBox="0 0 40 64" fill="none" xmlns="http://www.w3.org/2000/svg">
<rect x="0.5" y="0.5" width="39" height="63" fill="#D9D9D9" stroke="#BE9999"/>
<path fill-rule="evenodd" clip-rule="evenodd" d="M4.5 14C3.11929 14 2 15.1193 2 16.5V48.5C2 49.8807 3.11929 51 4.5 51H7V50.9929C7.06407 50.9976 7.12912 51 7.19508 51H7.26016C8.02054 51 8.73958 50.6539 9.21396 50.0597L20.0013 36.5466L30.7903 50.0598C31.2647 50.654 31.9952 51 32.7555 51C34.8506 51 36.0663 48.5776 34.7592 46.9403L23.2317 32.5L34.7592 18.0597C36.0663 16.4224 34.8506 14 32.7555 14C31.9952 14 31.2647 14.346 30.7903 14.9402L20.0013 28.4534L9.21396 14.9403C8.73958 14.3461 8.02054 14 7.26016 14H7.19508C7.12912 14 7.06407 14.0024 7 14.0071V14H4.5ZM7 20.2625V44.7375L16.7705 32.5L7 20.2625Z" fill="black"/>
</svg>
