<svg width="40" height="64" viewBox="0 0 40 64" fill="none" xmlns="http://www.w3.org/2000/svg">
<path d="M0.5 0.5H39.5V63.5H0.5V0.5Z" fill="#D9D9D9" stroke="#BE9999"/>
<path d="M28 60C28 59.0807 27.8189 58.1705 27.4672 57.3212C27.1154 56.4719 26.5998 55.7003 25.9497 55.0503C25.2997 54.4002 24.5281 53.8846 23.6788 53.5328C22.8295 53.1811 21.9193 53 21 53C20.0807 53 19.1705 53.1811 18.3212 53.5328C17.4719 53.8846 16.7003 54.4002 16.0503 55.0503C15.4002 55.7003 14.8846 56.4719 14.5328 57.3212C14.1811 58.1705 14 59.0807 14 60H17.954C17.954 59.6 18.0328 59.2039 18.1859 58.8344C18.339 58.4648 18.5633 58.129 18.8462 57.8462C19.129 57.5633 19.4648 57.339 19.8344 57.1859C20.2039 57.0328 20.6 56.954 21 56.954C21.4 56.954 21.7961 57.0328 22.1656 57.1859C22.5352 57.339 22.871 57.5633 23.1538 57.8462C23.4367 58.129 23.661 58.4648 23.8141 58.8344C23.9672 59.2039 24.046 59.6 24.046 60H28Z" fill="black"/>
<path d="M32.1325 16.9909C33.906 18.7954 35 21.2699 35 24V51H30V34C30 33.4477 29.5523 33 29 33H23C22.4477 33 22 33.4477 22 34V51H17V34C17 30.6863 19.6863 28 23 28H29C29.3407 28 29.6748 28.0284 30 28.083V24C30 21.2386 27.7614 19 25 19H16C13.2386 19 11 21.2386 11 24V51H6V24C6 18.4772 10.4772 14 16 14H25C25.5437 14 26.0772 14.0434 26.5974 14.1269C26.1779 13.5917 25.8322 13.0008 25.5709 12.37C25.194 11.4601 25 10.4848 25 9.49988H29.2365C29.2365 9.92845 29.3209 10.3528 29.4849 10.7488C29.6489 11.1447 29.8893 11.5045 30.1923 11.8076C30.4954 12.1106 30.8551 12.351 31.2511 12.515C31.647 12.679 32.0714 12.7634 32.5 12.7634C32.9286 12.7634 33.353 12.679 33.7489 12.515C34.1449 12.351 34.5046 12.1106 34.8077 11.8076C35.1107 11.5045 35.3511 11.1447 35.5151 10.7488C35.6791 10.3528 35.7635 9.92845 35.7635 9.49988H40C40 10.4848 39.806 11.4601 39.4291 12.37C39.1055 13.1512 38.6525 13.8711 38.0902 14.4999C37.9975 14.6035 37.9018 14.7046 37.8033 14.8032C37.1069 15.4996 36.2801 16.0521 35.3701 16.429C34.4602 16.8059 33.4849 16.9999 32.5 16.9999C32.3773 16.9999 32.2548 16.9969 32.1325 16.9909Z" fill="black"/>
</svg>
