<svg width="40" height="66" viewBox="0 0 40 66" fill="none" xmlns="http://www.w3.org/2000/svg">
<path d="M0.5 0.5H39.5V63.5H0.5V0.5Z" fill="#D9D9D9" stroke="#BE9999"/>
<path d="M28 59C28 58.0807 27.8189 57.1705 27.4672 56.3212C27.1154 55.4719 26.5998 54.7003 25.9497 54.0503C25.2997 53.4002 24.5281 52.8846 23.6788 52.5328C22.8295 52.1811 21.9193 52 21 52C20.0807 52 19.1705 52.1811 18.3212 52.5328C17.4719 52.8846 16.7003 53.4002 16.0503 54.0503C15.4002 54.7003 14.8846 55.4719 14.5328 56.3212C14.1811 57.1705 14 58.0807 14 59L17.954 59C17.954 58.6 18.0328 58.2039 18.1859 57.8344C18.339 57.4648 18.5633 57.129 18.8462 56.8462C19.129 56.5633 19.4648 56.339 19.8344 56.1859C20.2039 56.0328 20.6 55.954 21 55.954C21.4 55.954 21.7961 56.0328 22.1656 56.1859C22.5352 56.339 22.871 56.5633 23.1538 56.8462C23.4367 57.129 23.661 57.4648 23.8141 57.8344C23.9672 58.2039 24.046 58.6 24.046 59H28Z" fill="black"/>
<path d="M32.1325 15.9909C33.906 17.7954 35 20.2699 35 23V50H30V33C30 32.4477 29.5523 32 29 32H23C22.4477 32 22 32.4477 22 33V50H17V33C17 29.6863 19.6863 27 23 27H29C29.3407 27 29.6748 27.0284 30 27.083V23C30 20.2386 27.7614 18 25 18H16C13.2386 18 11 20.2386 11 23V50H6V23C6 17.4772 10.4772 13 16 13H25C25.5437 13 26.0772 13.0434 26.5974 13.1269C26.1779 12.5917 25.8322 12.0008 25.5709 11.37C25.194 10.4601 25 9.48479 25 8.49988H29.2365C29.2365 8.92845 29.3209 9.35283 29.4849 9.74878C29.6489 10.1447 29.8893 10.5045 30.1923 10.8076C30.4954 11.1106 30.8551 11.351 31.2511 11.515C31.647 11.679 32.0714 11.7634 32.5 11.7634C32.9286 11.7634 33.353 11.679 33.7489 11.515C34.1449 11.351 34.5046 11.1106 34.8077 10.8076C35.1107 10.5045 35.3511 10.1447 35.5151 9.74878C35.6791 9.35283 35.7635 8.92845 35.7635 8.49988H40C40 9.48479 39.806 10.4601 39.4291 11.37C39.1055 12.1512 38.6525 12.8711 38.0902 13.4999C37.9975 13.6035 37.9018 13.7046 37.8033 13.8032C37.1069 14.4996 36.2801 15.0521 35.3701 15.429C34.4602 15.8059 33.4849 15.9999 32.5 15.9999C32.3773 15.9999 32.2548 15.9969 32.1325 15.9909Z" fill="black"/>
</svg>
