<svg width="52" height="64" viewBox="0 0 52 64" fill="none" xmlns="http://www.w3.org/2000/svg">
<path d="M0.5 0.5H39.5V63.5H0.5V0.5Z" fill="#D9D9D9" stroke="#BE9999"/>
<path d="M39.8999 5.97089C39.8996 5.94708 39.8995 5.92327 39.8995 5.89945C39.8995 4.9802 40.0806 4.06995 40.4323 3.22067C40.7841 2.37139 41.2997 1.59972 41.9497 0.949707L44.7457 3.74562C44.4628 4.02847 44.2385 4.36425 44.0854 4.73381C43.9323 5.10336 43.8535 5.49945 43.8535 5.89945C43.8535 6.29946 43.9323 6.69554 44.0854 7.0651C44.2385 7.43466 44.4628 7.77044 44.7457 8.05329C45.0285 8.33613 45.3643 8.5605 45.7338 8.71357C46.1034 8.86665 46.4995 8.94543 46.8995 8.94543C47.2995 8.94543 47.6956 8.86665 48.0651 8.71357C48.4347 8.5605 48.7705 8.33613 49.0533 8.05329L51.8492 10.8492C51.1992 11.4992 50.4276 12.0148 49.5783 12.3666C48.729 12.7184 47.8187 12.8995 46.8995 12.8995C46.8757 12.8995 46.8519 12.8993 46.8281 12.8991C46.2087 12.8928 45.594 12.8043 45 12.6368V16H40V11.8995H31V15.9992C33.4289 17.8237 35 20.7283 35 24V51H30V34C30 33.4477 29.5523 33 29 33H23C22.4477 33 22 33.4477 22 34V51H17V34C17 30.6863 19.6863 28 23 28H29C29.3407 28 29.6748 28.0284 30 28.0829V24C30 21.2386 27.7614 19 25 19H16C13.2386 19 11 21.2386 11 24V51H6V24C6 18.4771 10.4772 14 16 14H25C25.3375 14 25.6711 14.0167 26 14.0494V11.3995C26 8.91423 28.0147 6.89952 30.5 6.89952H39.9713C39.927 6.59251 39.903 6.28229 39.8999 5.97089Z" fill="black"/>
<path d="M45 51V16H40V51H45Z" fill="black"/>
</svg>
