<svg width="40" height="64" viewBox="0 0 40 64" fill="none" xmlns="http://www.w3.org/2000/svg">
<path d="M0.5 0.5H39.5V63.5H0.5V0.5Z" fill="#D9D9D9" stroke="#BE9999"/>
<path d="M28 60C28 59.0807 27.8189 58.1705 27.4672 57.3212C27.1154 56.4719 26.5998 55.7003 25.9497 55.0503C25.2997 54.4002 24.5281 53.8846 23.6788 53.5328C22.8295 53.1811 21.9193 53 21 53C20.0807 53 19.1705 53.1811 18.3212 53.5328C17.4719 53.8846 16.7003 54.4002 16.0503 55.0503C15.4002 55.7003 14.8846 56.4719 14.5328 57.3212C14.1811 58.1705 14 59.0807 14 60H17.954C17.954 59.6 18.0328 59.2039 18.1859 58.8344C18.339 58.4648 18.5633 58.129 18.8462 57.8462C19.129 57.5633 19.4648 57.339 19.8344 57.1859C20.2039 57.0328 20.6 56.954 21 56.954C21.4 56.954 21.7961 57.0328 22.1656 57.1859C22.5352 57.339 22.871 57.5633 23.1538 57.8462C23.4367 58.129 23.661 58.4648 23.8141 58.8344C23.9672 59.2039 24.046 59.6 24.046 60H28Z" fill="black"/>
<path d="M35 24C35 18.4772 30.5228 14 25 14H16C10.4772 14 6 18.4772 6 24V51H11V24C11 21.2386 13.2386 19 16 19H25C27.7614 19 30 21.2386 30 24V28.083C29.6748 28.0284 29.3407 28 29 28H23C19.6863 28 17 30.6863 17 34V51H22V34C22 33.4477 22.4477 33 23 33H29C29.5523 33 30 33.4477 30 34V51H35V24Z" fill="black"/>
</svg>
