<svg width="40" height="64" viewBox="0 0 40 64" fill="none" xmlns="http://www.w3.org/2000/svg">
<path d="M0.5 0.5H39.5V63.5H0.5V0.5Z" fill="#D9D9D9" stroke="#BE9999"/>
<circle cx="20" cy="56" r="4" fill="black"/>
<path d="M35 23C35 17.4772 30.5228 13 25 13H16C10.4772 13 6 17.4772 6 23V50H11V23C11 20.2386 13.2386 18 16 18H25C27.7614 18 30 20.2386 30 23V27.083C29.6748 27.0284 29.3407 27 29 27H23C19.6863 27 17 29.6863 17 33V50H22V33C22 32.4477 22.4477 32 23 32H29C29.5523 32 30 32.4477 30 33V50H35V23Z" fill="black"/>
</svg>
