<svg width="45" height="64" viewBox="0 0 45 64" fill="none" xmlns="http://www.w3.org/2000/svg">
<path d="M0.5 0.5H39.5V63.5H0.5V0.5Z" fill="#D9D9D9" stroke="#BE9999"/>
<path d="M24 14V10.5C24 8.01472 26.0147 6 28.5 6H40.5C42.9853 6 45 8.01472 45 10.5V51H40V11H29V14.8321C32.5318 16.3752 35 19.8994 35 24V51H30V34C30 33.4477 29.5523 33 29 33H23C22.4477 33 22 33.4477 22 34V51H17V34C17 30.6863 19.6863 28 23 28H29C29.3407 28 29.6748 28.0284 30 28.083V24C30 21.2386 27.7614 19 25 19H16C13.2386 19 11 21.2386 11 24V51H6V24C6 18.4772 10.4772 14 16 14H24Z" fill="black"/>
</svg>
