<svg width="360" height="66" viewBox="0 0 360 66" fill="none" xmlns="http://www.w3.org/2000/svg">
<path d="M0.5 0.5H39.5V63.5H0.5V0.5Z" fill="#D9D9D9" stroke="#BE9999"/>
<mask id="path-2-inside-1_161_8607" fill="white">
<path d="M22 19H35V41C35 46.5228 30.5228 51 25 51H22V19Z"/>
</mask>
<path d="M22 19H35H22ZM40 41C40 49.2843 33.2843 56 25 56H22V46H25C27.7614 46 30 43.7614 30 41H40ZM22 51V19V51ZM40 19V41C40 49.2843 33.2843 56 25 56V46C27.7614 46 30 43.7614 30 41V19H40Z" fill="black" mask="url(#path-2-inside-1_161_8607)"/>
<mask id="path-4-inside-2_161_8607" fill="white">
<path d="M21 21H5V36C5 42.0751 9.92487 47 16 47H21V21Z"/>
</mask>
<path d="M21 21H5H21ZM0 36C0 44.8366 7.16344 52 16 52H21V42H16C12.6863 42 10 39.3137 10 36H0ZM21 47V21V47ZM0 21V36C0 44.8366 7.16344 52 16 52V42C12.6863 42 10 39.3137 10 36V21H0Z" fill="black" mask="url(#path-4-inside-2_161_8607)"/>
<rect x="5" y="14" width="30" height="5" fill="black"/>
<mask id="path-7-inside-3_161_8607" fill="white">
<path d="M16 31C16 28.2386 18.2386 26 21 26H26V42H16V31Z"/>
</mask>
<path d="M11 31C11 25.4772 15.4772 21 21 21H26V31H21H11ZM26 42H16H26ZM11 42V31C11 25.4772 15.4772 21 21 21V31V42H11ZM26 26V42V26Z" fill="black" mask="url(#path-7-inside-3_161_8607)"/>
<path d="M80.5 0.5H119.5V63.5H80.5V0.5Z" fill="#D9D9D9" stroke="#BE9999"/>
<mask id="path-10-inside-4_161_8607" fill="white">
<path d="M102 19H115V41C115 46.5228 110.523 51 105 51H102V19Z"/>
</mask>
<path d="M102 19H115H102ZM120 41C120 49.2843 113.284 56 105 56H102V46H105C107.761 46 110 43.7614 110 41H120ZM102 51V19V51ZM120 19V41C120 49.2843 113.284 56 105 56V46C107.761 46 110 43.7614 110 41V19H120Z" fill="black" mask="url(#path-10-inside-4_161_8607)"/>
<mask id="path-12-inside-5_161_8607" fill="white">
<path d="M101 21H85V36C85 42.0751 89.9249 47 96 47H101V21Z"/>
</mask>
<path d="M101 21H85H101ZM80 36C80 44.8366 87.1634 52 96 52H101V42H96C92.6863 42 90 39.3137 90 36H80ZM101 47V21V47ZM80 21V36C80 44.8366 87.1634 52 96 52V42C92.6863 42 90 39.3137 90 36V21H80Z" fill="black" mask="url(#path-12-inside-5_161_8607)"/>
<rect x="85" y="14" width="30" height="5" fill="black"/>
<mask id="path-15-inside-6_161_8607" fill="white">
<path d="M96 31C96 28.2386 98.2386 26 101 26H106V42H96V31Z"/>
</mask>
<path d="M91 31C91 25.4772 95.4772 21 101 21H106V31H101H91ZM106 42H96H106ZM91 42V31C91 25.4772 95.4772 21 101 21V31V42H91ZM106 26V42V26Z" fill="black" mask="url(#path-15-inside-6_161_8607)"/>
<rect x="88" y="53" width="24" height="5" fill="black"/>
<path d="M160.5 0.5H199.5V63.5H160.5V0.5Z" fill="#D9D9D9" stroke="#BE9999"/>
<mask id="path-19-inside-7_161_8607" fill="white">
<path d="M182 19H195V41C195 46.5228 190.523 51 185 51H182V19Z"/>
</mask>
<path d="M182 19H195H182ZM200 41C200 49.2843 193.284 56 185 56H182V46H185C187.761 46 190 43.7614 190 41H200ZM182 51V19V51ZM200 19V41C200 49.2843 193.284 56 185 56V46C187.761 46 190 43.7614 190 41V19H200Z" fill="black" mask="url(#path-19-inside-7_161_8607)"/>
<mask id="path-21-inside-8_161_8607" fill="white">
<path d="M181 21H165V36C165 42.0751 169.925 47 176 47H181V21Z"/>
</mask>
<path d="M181 21H165H181ZM160 36C160 44.8366 167.163 52 176 52H181V42H176C172.686 42 170 39.3137 170 36H160ZM181 47V21V47ZM160 21V36C160 44.8366 167.163 52 176 52V42C172.686 42 170 39.3137 170 36V21H160Z" fill="black" mask="url(#path-21-inside-8_161_8607)"/>
<rect x="165" y="14" width="30" height="5" fill="black"/>
<mask id="path-24-inside-9_161_8607" fill="white">
<path d="M176 31C176 28.2386 178.239 26 181 26H186V42H176V31Z"/>
</mask>
<path d="M171 31C171 25.4772 175.477 21 181 21H186V31H181H171ZM186 42H176H186ZM171 42V31C171 25.4772 175.477 21 181 21V31V42H171ZM186 26V42V26Z" fill="black" mask="url(#path-24-inside-9_161_8607)"/>
<circle cx="180" cy="56" r="4" fill="black"/>
<path d="M240.5 0.5H279.5V63.5H240.5V0.5Z" fill="#D9D9D9" stroke="#BE9999"/>
<mask id="path-28-inside-10_161_8607" fill="white">
<path d="M262 19H275V41C275 46.5228 270.523 51 265 51H262V19Z"/>
</mask>
<path d="M262 19H275H262ZM280 41C280 49.2843 273.284 56 265 56H262V46H265C267.761 46 270 43.7614 270 41H280ZM262 51V19V51ZM280 19V41C280 49.2843 273.284 56 265 56V46C267.761 46 270 43.7614 270 41V19H280Z" fill="black" mask="url(#path-28-inside-10_161_8607)"/>
<mask id="path-30-inside-11_161_8607" fill="white">
<path d="M261 21H245V36C245 42.0751 249.925 47 256 47H261V21Z"/>
</mask>
<path d="M261 21H245H261ZM240 36C240 44.8366 247.163 52 256 52H261V42H256C252.686 42 250 39.3137 250 36H240ZM261 47V21V47ZM240 21V36C240 44.8366 247.163 52 256 52V42C252.686 42 250 39.3137 250 36V21H240Z" fill="black" mask="url(#path-30-inside-11_161_8607)"/>
<rect x="245" y="14" width="30" height="5" fill="black"/>
<mask id="path-33-inside-12_161_8607" fill="white">
<path d="M256 31C256 28.2386 258.239 26 261 26H266V42H256V31Z"/>
</mask>
<path d="M251 31C251 25.4772 255.477 21 261 21H266V31H261H251ZM266 42H256H266ZM251 42V31C251 25.4772 255.477 21 261 21V31V42H251ZM266 26V42V26Z" fill="black" mask="url(#path-33-inside-12_161_8607)"/>
<rect width="5" height="35" transform="matrix(1 0 0 -1 280 51)" fill="black"/>
<mask id="path-36-inside-13_161_8607" fill="white">
<path d="M285 19L266 19V10.5C266 8.01472 268.015 6 270.5 6L280.5 6C282.985 6 285 8.01472 285 10.5V19Z"/>
</mask>
<path d="M285 19L266 19L285 19ZM261 10.5C261 5.25329 265.253 1 270.5 1H280.5C285.747 1 290 5.25329 290 10.5L280 11L271 11L261 10.5ZM280.5 1C285.747 1 290 5.25329 290 10.5V19H280V11L280.5 1ZM261 19V10.5C261 5.25329 265.253 1 270.5 1L271 11V19L261 19Z" fill="black" mask="url(#path-36-inside-13_161_8607)"/>
<path d="M320.5 0.5H359.5V63.5H320.5V0.5Z" fill="#D9D9D9" stroke="#BE9999"/>
<mask id="path-39-inside-14_161_8607" fill="white">
<path d="M342 19H355V41C355 46.5228 350.523 51 345 51H342V19Z"/>
</mask>
<path d="M342 19H355H342ZM360 41C360 49.2843 353.284 56 345 56H342V46H345C347.761 46 350 43.7614 350 41H360ZM342 51V19V51ZM360 19V41C360 49.2843 353.284 56 345 56V46C347.761 46 350 43.7614 350 41V19H360Z" fill="black" mask="url(#path-39-inside-14_161_8607)"/>
<mask id="path-41-inside-15_161_8607" fill="white">
<path d="M341 21H325V36C325 42.0751 329.925 47 336 47H341V21Z"/>
</mask>
<path d="M341 21H325H341ZM320 36C320 44.8366 327.163 52 336 52H341V42H336C332.686 42 330 39.3137 330 36H320ZM341 47V21V47ZM320 21V36C320 44.8366 327.163 52 336 52V42C332.686 42 330 39.3137 330 36V21H320Z" fill="black" mask="url(#path-41-inside-15_161_8607)"/>
<rect x="325" y="14" width="30" height="5" fill="black"/>
<mask id="path-44-inside-16_161_8607" fill="white">
<path d="M336 31C336 28.2386 338.239 26 341 26H346V42H336V31Z"/>
</mask>
<path d="M331 31C331 25.4772 335.477 21 341 21H346V31H341H331ZM346 42H336H346ZM331 42V31C331 25.4772 335.477 21 341 21V31V42H331ZM346 26V42V26Z" fill="black" mask="url(#path-44-inside-16_161_8607)"/>
<path d="M348 59C348 58.0807 347.819 57.1705 347.467 56.3212C347.115 55.4719 346.6 54.7003 345.95 54.0503C345.3 53.4002 344.528 52.8846 343.679 52.5328C342.83 52.1811 341.919 52 341 52C340.081 52 339.17 52.1811 338.321 52.5328C337.472 52.8846 336.7 53.4002 336.05 54.0503C335.4 54.7003 334.885 55.4719 334.533 56.3212C334.181 57.1705 334 58.0807 334 59L337.954 59C337.954 58.6 338.033 58.2039 338.186 57.8344C338.339 57.4648 338.563 57.129 338.846 56.8462C339.129 56.5633 339.465 56.339 339.834 56.1859C340.204 56.0328 340.6 55.954 341 55.954C341.4 55.954 341.796 56.0328 342.166 56.1859C342.535 56.339 342.871 56.5633 343.154 56.8462C343.437 57.129 343.661 57.4648 343.814 57.8344C343.967 58.2039 344.046 58.6 344.046 59H348Z" fill="black"/>
</svg>
