<svg width="45" height="64" viewBox="0 0 45 64" fill="none" xmlns="http://www.w3.org/2000/svg">
<path opacity="0.3" d="M0.5 0.5H39.5V63.5H0.5V0.5Z" fill="#D9D9D9" stroke="#BE9999"/>
<path d="M5 19V14H26V10.5C26 8.01472 28.0147 6 30.5 6H40.5C42.9853 6 45 8.01472 45 10.5V51H40V11H31V14H35V41C35 46.5229 30.5228 51 25 51H22V46H25C27.7614 46 30 43.7614 30 41V19H5Z" fill="black"/>
<path d="M5 36V21H10V36C10 39.3137 12.6863 42 16 42V31C16 28.2386 18.2386 26 21 26H26V31H21V47H16C9.92487 47 5 42.0751 5 36Z" fill="black"/>
</svg>
