<svg width="400" height="64" viewBox="0 0 400 64" fill="none" xmlns="http://www.w3.org/2000/svg">
<path d="M0.5 0.5H39.5V63.5H0.5V0.5Z" fill="#D9D9D9" stroke="#BE9999"/>
<path d="M18 19V51H23V33C23 32.4477 23.4477 32 24 32H29C29.5523 32 30 32.4477 30 33V51H35V33C35 29.6863 32.3137 27 29 27H24C23.6593 27 23.3252 27.0284 23 27.083V19C23 15.6863 20.3137 13 17 13H12C8.68629 13 6 15.6863 6 19V51H11V19C11 18.4477 11.4477 18 12 18H17C17.5523 18 18 18.4477 18 19Z" fill="black"/>
<rect x="40.5" y="0.5" width="39" height="63" fill="#D9D9D9" stroke="#BE9999"/>
<path d="M58 19V51H63V33C63 32.4477 63.4477 32 64 32H69C69.5523 32 70 32.4477 70 33V51H75V33C75 29.6863 72.3137 27 69 27H64C63.6593 27 63.3252 27.0284 63 27.083V19C63 15.6863 60.3137 13 57 13H52C48.6863 13 46 15.6863 46 19V51H51V19C51 18.4477 51.4477 18 52 18H57C57.5523 18 58 18.4477 58 19Z" fill="black"/>
<path d="M79.8211 7L71.0711 17H64L72.75 7H79.8211Z" fill="black"/>
<rect x="80.5" y="0.5" width="39" height="63" fill="#D9D9D9" stroke="#BE9999"/>
<rect x="88" y="53" width="24" height="5" fill="black"/>
<path d="M98 19V51H103V33C103 32.4477 103.448 32 104 32H109C109.552 32 110 32.4477 110 33V51H115V33C115 29.6863 112.314 27 109 27H104C103.659 27 103.325 27.0284 103 27.083V19C103 15.6863 100.314 13 97 13H92C88.6863 13 86 15.6863 86 19V51H91V19C91 18.4477 91.4477 18 92 18H97C97.5523 18 98 18.4477 98 19Z" fill="black"/>
<rect x="120.5" y="0.5" width="39" height="63" fill="#D9D9D9" stroke="#BE9999"/>
<path fill-rule="evenodd" clip-rule="evenodd" d="M159.821 7L151.071 17H144L152.75 7H159.821Z" fill="black"/>
<rect x="128" y="53" width="24" height="5" fill="black"/>
<path d="M138 19V51H143V33C143 32.4477 143.448 32 144 32H149C149.552 32 150 32.4477 150 33V51H155V33C155 29.6863 152.314 27 149 27H144C143.659 27 143.325 27.0284 143 27.083V19C143 15.6863 140.314 13 137 13H132C128.686 13 126 15.6863 126 19V51H131V19C131 18.4477 131.448 18 132 18H137C137.552 18 138 18.4477 138 19Z" fill="black"/>
<rect x="160.5" y="0.5" width="39" height="63" fill="#D9D9D9" stroke="#BE9999"/>
<circle cx="180" cy="56" r="4" fill="black"/>
<path d="M178 19V51H183V33C183 32.4477 183.448 32 184 32H189C189.552 32 190 32.4477 190 33V51H195V33C195 29.6863 192.314 27 189 27H184C183.659 27 183.325 27.0284 183 27.083V19C183 15.6863 180.314 13 177 13H172C168.686 13 166 15.6863 166 19V51H171V19C171 18.4477 171.448 18 172 18H177C177.552 18 178 18.4477 178 19Z" fill="black"/>
<rect x="200.5" y="0.5" width="39" height="63" fill="#D9D9D9" stroke="#BE9999"/>
<path fill-rule="evenodd" clip-rule="evenodd" d="M239.821 7L231.071 17H224L232.75 7H239.821Z" fill="black"/>
<circle cx="220" cy="56" r="4" fill="black"/>
<path d="M218 19V51H223V33C223 32.4477 223.448 32 224 32H229C229.552 32 230 32.4477 230 33V51H235V33C235 29.6863 232.314 27 229 27H224C223.659 27 223.325 27.0284 223 27.083V19C223 15.6863 220.314 13 217 13H212C208.686 13 206 15.6863 206 19V51H211V19C211 18.4477 211.448 18 212 18H217C217.552 18 218 18.4477 218 19Z" fill="black"/>
<rect x="240.5" y="0.5" width="39" height="63" fill="#D9D9D9" stroke="#BE9999"/>
<path d="M266 27V10.5C266 8.01472 268.015 6 270.5 6H280.5C282.985 6 285 8.01472 285 10.5V51.0002H280V11H271V27.3414C273.33 28.1651 275 30.3876 275 33V51H270V33C270 32.4477 269.552 32 269 32H264C263.448 32 263 32.4477 263 33V51H258V19C258 18.4477 257.552 18 257 18H252C251.448 18 251 18.4477 251 19V51H246V19C246 15.6863 248.686 13 252 13H257C260.314 13 263 15.6863 263 19V27.083C263.325 27.0284 263.659 27 264 27H266Z" fill="black"/>
<rect x="280.5" y="0.5" width="39" height="63" fill="#D9D9D9" stroke="#BE9999"/>
<path d="M324.477 8.39295L331.821 0H324.75L319.5 6H310.5C308.015 6 306 8.01472 306 10.5V27H304C303.659 27 303.325 27.0284 303 27.083V19C303 15.6863 300.314 13 297 13H292C288.686 13 286 15.6863 286 19V51H291V19C291 18.4477 291.448 18 292 18H297C297.552 18 298 18.4477 298 19V51H303V33C303 32.4477 303.448 32 304 32H309C309.552 32 310 32.4477 310 33V51H315V33C315 30.3876 313.33 28.1651 311 27.3414V11H320V51.0002H325V10.5C325 9.7387 324.811 9.02155 324.477 8.39295Z" fill="black"/>
<rect x="320.5" y="0.5" width="39" height="63" fill="#D9D9D9" stroke="#BE9999"/>
<path d="M348 59C348 58.0807 347.819 57.1705 347.467 56.3212C347.115 55.4719 346.6 54.7003 345.95 54.0503C345.3 53.4002 344.528 52.8846 343.679 52.5328C342.83 52.1811 341.919 52 341 52C340.081 52 339.17 52.1811 338.321 52.5328C337.472 52.8846 336.7 53.4002 336.05 54.0503C335.4 54.7003 334.885 55.4719 334.533 56.3212C334.181 57.1705 334 58.0807 334 59H337.954C337.954 58.6 338.033 58.2039 338.186 57.8344C338.339 57.4648 338.563 57.129 338.846 56.8462C339.129 56.5633 339.465 56.339 339.834 56.1859C340.204 56.0328 340.6 55.954 341 55.954C341.4 55.954 341.796 56.0328 342.166 56.1859C342.535 56.339 342.871 56.5633 343.154 56.8462C343.437 57.129 343.661 57.4648 343.814 57.8344C343.967 58.2039 344.046 58.6 344.046 59H348Z" fill="black"/>
<path d="M338 19V51H343V33C343 32.4477 343.448 32 344 32H349C349.552 32 350 32.4477 350 33V51H355V33C355 29.6863 352.314 27 349 27H344C343.659 27 343.325 27.0284 343 27.083V19C343 15.6863 340.314 13 337 13H332C328.686 13 326 15.6863 326 19V51H331V19C331 18.4477 331.448 18 332 18H337C337.552 18 338 18.4477 338 19Z" fill="black"/>
<rect x="360.5" y="0.5" width="39" height="63" fill="#D9D9D9" stroke="#BE9999"/>
<path fill-rule="evenodd" clip-rule="evenodd" d="M399.821 7L391.071 17H384L392.75 7H399.821Z" fill="black"/>
<path d="M388 59C388 58.0807 387.819 57.1705 387.467 56.3212C387.115 55.4719 386.6 54.7003 385.95 54.0503C385.3 53.4002 384.528 52.8846 383.679 52.5328C382.83 52.1811 381.919 52 381 52C380.081 52 379.17 52.1811 378.321 52.5328C377.472 52.8846 376.7 53.4002 376.05 54.0503C375.4 54.7003 374.885 55.4719 374.533 56.3212C374.181 57.1705 374 58.0807 374 59H377.954C377.954 58.6 378.033 58.2039 378.186 57.8344C378.339 57.4648 378.563 57.129 378.846 56.8462C379.129 56.5633 379.465 56.339 379.834 56.1859C380.204 56.0328 380.6 55.954 381 55.954C381.4 55.954 381.796 56.0328 382.166 56.1859C382.535 56.339 382.871 56.5633 383.154 56.8462C383.437 57.129 383.661 57.4648 383.814 57.8344C383.967 58.2039 384.046 58.6 384.046 59H388Z" fill="black"/>
<path d="M378 19V51H383V33C383 32.4477 383.448 32 384 32H389C389.552 32 390 32.4477 390 33V51H395V33C395 29.6863 392.314 27 389 27H384C383.659 27 383.325 27.0284 383 27.083V19C383 15.6863 380.314 13 377 13H372C368.686 13 366 15.6863 366 19V51H371V19C371 18.4477 371.448 18 372 18H377C377.552 18 378 18.4477 378 19Z" fill="black"/>
</svg>
