<svg width="40" height="64" viewBox="0 0 40 64" fill="none" xmlns="http://www.w3.org/2000/svg">
<rect x="0.5" y="0.5" width="39" height="63" fill="#D9D9D9" stroke="#BE9999"/>
<circle cx="20" cy="56" r="4" fill="black"/>
<path d="M18 19V51H23V33C23 32.4477 23.4477 32 24 32H29C29.5523 32 30 32.4477 30 33V51H35V33C35 29.6863 32.3137 27 29 27H24C23.6593 27 23.3252 27.0284 23 27.083V19C23 15.6863 20.3137 13 17 13H12C8.68629 13 6 15.6863 6 19V51H11V19C11 18.4477 11.4477 18 12 18H17C17.5523 18 18 18.4477 18 19Z" fill="black"/>
</svg>
