<svg width="45" height="64" viewBox="0 0 45 64" fill="none" xmlns="http://www.w3.org/2000/svg">
<rect x="0.5" y="0.5" width="39" height="63" fill="#D9D9D9" stroke="#BE9999"/>
<path d="M26 27V10.5C26 8.01472 28.0147 6 30.5 6H40.5C42.9853 6 45 8.01472 45 10.5V51.0002H40V11H31V27.3414C33.3304 28.1651 35 30.3876 35 33V51H30V33C30 32.4477 29.5523 32 29 32H24C23.4477 32 23 32.4477 23 33V51H18V19C18 18.4477 17.5523 18 17 18H12C11.4477 18 11 18.4477 11 19V51H6V19C6 15.6863 8.68629 13 12 13H17C20.3137 13 23 15.6863 23 19V27.083C23.3252 27.0284 23.6593 27 24 27H26Z" fill="black"/>
</svg>
