<svg width="360" height="66" viewBox="0 0 360 66" fill="none" xmlns="http://www.w3.org/2000/svg">
<rect x="0.5" y="0.5" width="39" height="63" fill="#D9D9D9" stroke="#BE9999"/>
<rect x="5" y="16" width="5" height="33" fill="black"/>
<mask id="path-3-inside-1_161_8503" fill="white">
<path d="M5 35C5 25.0589 13.0589 17 23 17H23.3871C29.8007 17 35 22.1993 35 28.6129V35H5V35Z"/>
</mask>
<path d="M0 35C0 22.2975 10.2975 12 23 12H23.3871C32.5621 12 40 19.4379 40 28.6129H30C30 24.9607 27.0393 22 23.3871 22H23C15.8203 22 10 27.8203 10 35H0ZM35 35H5H35ZM0 35C0 22.2975 10.2975 12 23 12V22C15.8203 22 10 27.8203 10 35H0ZM23.3871 12C32.5621 12 40 19.4379 40 28.6129V35H30V28.6129C30 24.9607 27.0393 22 23.3871 22V12Z" fill="black" mask="url(#path-3-inside-1_161_8503)"/>
<mask id="path-5-inside-2_161_8503" fill="white">
<path d="M18 51H28C31.866 51 35 47.866 35 44V35H18V51Z"/>
</mask>
<path d="M18 56H28C34.6274 56 40 50.6274 40 44H30C30 45.1046 29.1046 46 28 46H18V56ZM35 35H18H35ZM18 35V51V35ZM28 56C34.6274 56 40 50.6274 40 44V35H30V44C30 45.1046 29.1046 46 28 46V56Z" fill="black" mask="url(#path-5-inside-2_161_8503)"/>
<rect x="18" y="13" width="5" height="5" fill="black"/>
<rect x="80.5" y="0.5" width="39" height="63" fill="#D9D9D9" stroke="#BE9999"/>
<rect x="85" y="16" width="5" height="33" fill="black"/>
<mask id="path-10-inside-3_161_8503" fill="white">
<path d="M85 35C85 25.0589 93.0589 17 103 17H103.387C109.801 17 115 22.1993 115 28.6129V35H85V35Z"/>
</mask>
<path d="M80 35C80 22.2975 90.2975 12 103 12H103.387C112.562 12 120 19.4379 120 28.6129H110C110 24.9607 107.039 22 103.387 22H103C95.8203 22 90 27.8203 90 35H80ZM115 35H85H115ZM80 35C80 22.2975 90.2975 12 103 12V22C95.8203 22 90 27.8203 90 35H80ZM103.387 12C112.562 12 120 19.4379 120 28.6129V35H110V28.6129C110 24.9607 107.039 22 103.387 22V12Z" fill="black" mask="url(#path-10-inside-3_161_8503)"/>
<mask id="path-12-inside-4_161_8503" fill="white">
<path d="M98 51H108C111.866 51 115 47.866 115 44V35H98V51Z"/>
</mask>
<path d="M98 56H108C114.627 56 120 50.6274 120 44H110C110 45.1046 109.105 46 108 46H98V56ZM115 35H98H115ZM98 35V51V35ZM108 56C114.627 56 120 50.6274 120 44V35H110V44C110 45.1046 109.105 46 108 46V56Z" fill="black" mask="url(#path-12-inside-4_161_8503)"/>
<rect x="98" y="13" width="5" height="5" fill="black"/>
<rect x="88" y="53" width="24" height="5" fill="black"/>
<rect x="160.5" y="0.5" width="39" height="63" fill="#D9D9D9" stroke="#BE9999"/>
<rect x="165" y="16" width="5" height="33" fill="black"/>
<mask id="path-18-inside-5_161_8503" fill="white">
<path d="M165 35C165 25.0589 173.059 17 183 17H183.387C189.801 17 195 22.1993 195 28.6129V35H165V35Z"/>
</mask>
<path d="M160 35C160 22.2975 170.297 12 183 12H183.387C192.562 12 200 19.4379 200 28.6129H190C190 24.9607 187.039 22 183.387 22H183C175.82 22 170 27.8203 170 35H160ZM195 35H165H195ZM160 35C160 22.2975 170.297 12 183 12V22C175.82 22 170 27.8203 170 35H160ZM183.387 12C192.562 12 200 19.4379 200 28.6129V35H190V28.6129C190 24.9607 187.039 22 183.387 22V12Z" fill="black" mask="url(#path-18-inside-5_161_8503)"/>
<mask id="path-20-inside-6_161_8503" fill="white">
<path d="M178 51H188C191.866 51 195 47.866 195 44V35H178V51Z"/>
</mask>
<path d="M178 56H188C194.627 56 200 50.6274 200 44H190C190 45.1046 189.105 46 188 46H178V56ZM195 35H178H195ZM178 35V51V35ZM188 56C194.627 56 200 50.6274 200 44V35H190V44C190 45.1046 189.105 46 188 46V56Z" fill="black" mask="url(#path-20-inside-6_161_8503)"/>
<rect x="178" y="13" width="5" height="5" fill="black"/>
<circle cx="180" cy="56" r="4" fill="black"/>
<rect x="240.5" y="0.5" width="39" height="63" fill="#D9D9D9" stroke="#BE9999"/>
<rect x="245" y="16" width="5" height="33" fill="black"/>
<mask id="path-26-inside-7_161_8503" fill="white">
<path d="M245 35C245 25.0589 253.059 17 263 17H263.387C269.801 17 275 22.1993 275 28.6129V35H245V35Z"/>
</mask>
<path d="M240 35C240 22.2975 250.297 12 263 12H263.387C272.562 12 280 19.4379 280 28.6129H270C270 24.9607 267.039 22 263.387 22H263C255.82 22 250 27.8203 250 35H240ZM275 35H245H275ZM240 35C240 22.2975 250.297 12 263 12V22C255.82 22 250 27.8203 250 35H240ZM263.387 12C272.562 12 280 19.4379 280 28.6129V35H270V28.6129C270 24.9607 267.039 22 263.387 22V12Z" fill="black" mask="url(#path-26-inside-7_161_8503)"/>
<mask id="path-28-inside-8_161_8503" fill="white">
<path d="M258 51H268C271.866 51 275 47.866 275 44V35H258V51Z"/>
</mask>
<path d="M258 56H268C274.627 56 280 50.6274 280 44H270C270 45.1046 269.105 46 268 46H258V56ZM275 35H258H275ZM258 35V51V35ZM268 56C274.627 56 280 50.6274 280 44V35H270V44C270 45.1046 269.105 46 268 46V56Z" fill="black" mask="url(#path-28-inside-8_161_8503)"/>
<rect x="258" y="13" width="5" height="5" fill="black"/>
<rect width="5" height="33" transform="matrix(1 0 0 -1 280 51)" fill="black"/>
<mask id="path-32-inside-9_161_8503" fill="white">
<path d="M285 22L266 22V10.5C266 8.01472 268.015 6 270.5 6H280.5C282.985 6 285 8.01472 285 10.5V22Z"/>
</mask>
<path d="M285 22L266 22L285 22ZM261 10.5C261 5.25329 265.253 1 270.5 1H280.5C285.747 1 290 5.25329 290 10.5L280 11L271 11L261 10.5ZM280.5 1C285.747 1 290 5.25329 290 10.5V22H280V11L280.5 1ZM261 22V10.5C261 5.25329 265.253 1 270.5 1L271 11V22L261 22Z" fill="black" mask="url(#path-32-inside-9_161_8503)"/>
<rect x="320.5" y="0.5" width="39" height="63" fill="#D9D9D9" stroke="#BE9999"/>
<rect x="325" y="16" width="5" height="33" fill="black"/>
<mask id="path-36-inside-10_161_8503" fill="white">
<path d="M325 35C325 25.0589 333.059 17 343 17H343.387C349.801 17 355 22.1993 355 28.6129V35H325V35Z"/>
</mask>
<path d="M320 35C320 22.2975 330.297 12 343 12H343.387C352.562 12 360 19.4379 360 28.6129H350C350 24.9607 347.039 22 343.387 22H343C335.82 22 330 27.8203 330 35H320ZM355 35H325H355ZM320 35C320 22.2975 330.297 12 343 12V22C335.82 22 330 27.8203 330 35H320ZM343.387 12C352.562 12 360 19.4379 360 28.6129V35H350V28.6129C350 24.9607 347.039 22 343.387 22V12Z" fill="black" mask="url(#path-36-inside-10_161_8503)"/>
<mask id="path-38-inside-11_161_8503" fill="white">
<path d="M338 51H348C351.866 51 355 47.866 355 44V35H338V51Z"/>
</mask>
<path d="M338 56H348C354.627 56 360 50.6274 360 44H350C350 45.1046 349.105 46 348 46H338V56ZM355 35H338H355ZM338 35V51V35ZM348 56C354.627 56 360 50.6274 360 44V35H350V44C350 45.1046 349.105 46 348 46V56Z" fill="black" mask="url(#path-38-inside-11_161_8503)"/>
<rect x="338" y="13" width="5" height="5" fill="black"/>
<path d="M348 59C348 58.0807 347.819 57.1705 347.467 56.3212C347.115 55.4719 346.6 54.7003 345.95 54.0503C345.3 53.4002 344.528 52.8846 343.679 52.5328C342.83 52.1811 341.919 52 341 52C340.081 52 339.17 52.1811 338.321 52.5328C337.472 52.8846 336.7 53.4002 336.05 54.0503C335.4 54.7003 334.885 55.4719 334.533 56.3212C334.181 57.1705 334 58.0807 334 59L337.954 59C337.954 58.6 338.033 58.2039 338.186 57.8344C338.339 57.4648 338.563 57.129 338.846 56.8462C339.129 56.5633 339.465 56.339 339.834 56.1859C340.204 56.0328 340.6 55.954 341 55.954C341.4 55.954 341.796 56.0328 342.166 56.1859C342.535 56.339 342.871 56.5633 343.154 56.8462C343.437 57.129 343.661 57.4648 343.814 57.8344C343.967 58.2039 344.046 58.6 344.046 59H348Z" fill="black"/>
</svg>
