<svg width="40" height="64" viewBox="0 0 40 64" fill="none" xmlns="http://www.w3.org/2000/svg">
<rect opacity="0.3" x="0.5" y="0.5" width="39" height="63" fill="#D9D9D9" stroke="#BE9999"/>
<path d="M23 13H18V17.7035C14.9114 18.5948 12.1642 20.2909 10 22.5501V16H5V49H10V35C10 27.8203 15.8203 22 23 22H23.3871C27.0393 22 30 24.9607 30 28.6129V44C30 45.1046 29.1046 46 28 46H18V51H28C31.866 51 35 47.866 35 44V28.6129C35 22.1993 29.8007 17 23.3871 17H23V13Z" fill="black"/>
<path d="M28 59C28 58.0807 27.8189 57.1705 27.4672 56.3212C27.1154 55.4719 26.5998 54.7003 25.9497 54.0503C25.2997 53.4002 24.5281 52.8846 23.6788 52.5328C22.8295 52.1811 21.9193 52 21 52C20.0807 52 19.1705 52.1811 18.3212 52.5328C17.4719 52.8846 16.7003 53.4002 16.0503 54.0503C15.4002 54.7003 14.8846 55.4719 14.5328 56.3212C14.1811 57.1705 14 58.0807 14 59H17.954C17.954 58.6 18.0328 58.2039 18.1859 57.8344C18.339 57.4648 18.5633 57.129 18.8462 56.8462C19.129 56.5633 19.4648 56.339 19.8344 56.1859C20.2039 56.0328 20.6 55.954 21 55.954C21.4 55.954 21.7961 56.0328 22.1656 56.1859C22.5352 56.339 22.871 56.5633 23.1538 56.8462C23.4367 57.129 23.661 57.4648 23.8141 57.8344C23.9672 58.2039 24.046 58.6 24.046 59H28Z" fill="black"/>
</svg>
