<svg width="45" height="64" viewBox="0 0 45 64" fill="none" xmlns="http://www.w3.org/2000/svg">
<rect opacity="0.3" x="0.5" y="0.5" width="39" height="63" fill="#D9D9D9" stroke="#BE9999"/>
<path d="M26 17.2951V10.5C26 8.01472 28.0147 6 30.5 6H40.5C42.9853 6 45 8.01472 45 10.5V51H40V11H31V19.8432C33.4506 21.9724 35 25.1117 35 28.6129V44C35 47.866 31.866 51 28 51H18V46H28C29.1046 46 30 45.1046 30 44V28.6129C30 24.9607 27.0393 22 23.3871 22H23C15.8203 22 10 27.8203 10 35V49H5V16H10V22.5501C12.1642 20.2909 14.9114 18.5948 18 17.7035V13H23V17H23.3871C24.2855 17 25.1602 17.102 26 17.2951Z" fill="black"/>
</svg>
