<svg width="40" height="64" viewBox="0 0 40 64" fill="none" xmlns="http://www.w3.org/2000/svg">
<path opacity="0.3" d="M0.5 0.5H39.5V63.5H0.5V0.5Z" fill="#D9D9D9" stroke="#BE9999"/>
<path fill-rule="evenodd" clip-rule="evenodd" d="M18 14H23V22H25.5C31.299 22 36 26.701 36 32.5V34H39V39H36V40.5C36 46.299 31.299 51 25.5 51H15.5C9.70101 51 5 46.299 5 40.5V39H2V34H5V32.5C5 26.701 9.70101 22 15.5 22H18V14ZM18 27H15.5C12.4624 27 10 29.4624 10 32.5V34H18V27ZM10 39V40.5C10 43.5376 12.4624 46 15.5 46H18V39H10ZM23 46H25.5C28.5376 46 31 43.5376 31 40.5V39H23V46ZM31 34V32.5C31 29.4624 28.5376 27 25.5 27H23V34H31Z" fill="black"/>
</svg>
