<svg width="40" height="64" viewBox="0 0 40 64" fill="none" xmlns="http://www.w3.org/2000/svg">
<path opacity="0.3" d="M0.5 0.5H39.5V63.5H0.5V0.5Z" fill="#D9D9D9" stroke="#BE9999"/>
<path fill-rule="evenodd" clip-rule="evenodd" d="M18 14H23V22H25.5C31.299 22 36 26.701 36 32.5V34H39V39H36V40.5C36 46.299 31.299 51 25.5 51H15.5C9.70101 51 5 46.299 5 40.5V39H2V34H5V32.5C5 26.701 9.70101 22 15.5 22H18V14ZM18 27H15.5C12.4624 27 10 29.4624 10 32.5V34H18V27ZM10 39V40.5C10 43.5376 12.4624 46 15.5 46H18V39H10ZM23 46H25.5C28.5376 46 31 43.5376 31 40.5V39H23V46ZM31 34V32.5C31 29.4624 28.5376 27 25.5 27H23V34H31Z" fill="black"/>
<path d="M28 59C28 58.0807 27.8189 57.1705 27.4672 56.3212C27.1154 55.4719 26.5998 54.7003 25.9497 54.0503C25.2997 53.4002 24.5281 52.8846 23.6788 52.5328C22.8295 52.1811 21.9193 52 21 52C20.0807 52 19.1705 52.1811 18.3212 52.5328C17.4719 52.8846 16.7003 53.4002 16.0503 54.0503C15.4002 54.7003 14.8846 55.4719 14.5328 56.3212C14.1811 57.1705 14 58.0807 14 59H17.954C17.954 58.6 18.0328 58.2039 18.1859 57.8344C18.339 57.4648 18.5633 57.129 18.8462 56.8462C19.129 56.5633 19.4648 56.339 19.8344 56.1859C20.2039 56.0328 20.6 55.954 21 55.954C21.4 55.954 21.7961 56.0328 22.1656 56.1859C22.5352 56.339 22.871 56.5633 23.1538 56.8462C23.4367 57.129 23.661 57.4648 23.8141 57.8344C23.9672 58.2039 24.046 58.6 24.046 59H28Z" fill="black"/>
</svg>
