<svg width="45" height="64" viewBox="0 0 45 64" fill="none" xmlns="http://www.w3.org/2000/svg">
<path opacity="0.3" d="M0.5 0.5H39.5V63.5H0.5V0.5Z" fill="#D9D9D9" stroke="#BE9999"/>
<path fill-rule="evenodd" clip-rule="evenodd" d="M26 22.0117V12.5C26 10.0147 28.0147 8 30.5 8H40.5C42.9853 8 45 10.0147 45 12.5V51H40V13H31V23.554C34.0001 25.4024 36 28.7176 36 32.5V34H39V39H36V40.5C36 46.299 31.299 51 25.5 51H15.5C9.70101 51 5 46.299 5 40.5V39H2V34H5V32.5C5 26.701 9.70101 22 15.5 22H18V14H23V22H25.5C25.6676 22 25.8343 22.0039 26 22.0117ZM15.5 27H18V34H10V32.5C10 29.4624 12.4624 27 15.5 27ZM10 40.5V39H18V46H15.5C12.4624 46 10 43.5376 10 40.5ZM25.5 46H23V39H31V40.5C31 43.5376 28.5376 46 25.5 46ZM31 32.5V34H23V27H25.5C28.5376 27 31 29.4624 31 32.5Z" fill="black"/>
</svg>
