<svg width="40" height="64" viewBox="0 0 40 64" fill="none" xmlns="http://www.w3.org/2000/svg">
<rect x="0.5" y="0.5" width="39" height="63" fill="#D9D9D9" stroke="#BE9999"/>
<path fill-rule="evenodd" clip-rule="evenodd" d="M13 36.6676V30H6.33238C7.2131 33.2373 9.76273 35.7869 13 36.6676ZM24.6676 30C23.7869 33.2373 21.2373 35.7869 18 36.6676V30H24.6676ZM24.6676 25H18V18.3324C21.2373 19.2131 23.7869 21.7627 24.6676 25ZM29.7906 25.0308C28.6185 18.1989 22.6664 13 15.5 13C7.49187 13 1 19.4919 1 27.5C1 34.6664 6.19886 40.6185 13.0308 41.7906C13.4338 46.9439 17.7432 51 23 51H26.5C33.4036 51 39 45.4036 39 38.5V35C39 29.7432 34.9439 25.4338 29.7906 25.0308ZM29.7748 30.0597C28.7139 36.0161 24.0161 40.7139 18.0597 41.7748C18.432 44.1683 20.5021 46 23 46H26.5C30.6421 46 34 42.6421 34 38.5V35C34 32.5021 32.1683 30.432 29.7748 30.0597ZM13 18.3324V25H6.33238C7.2131 21.7627 9.76273 19.2131 13 18.3324Z" fill="black"/>
</svg>
