<svg width="52" height="64" viewBox="0 0 52 64" fill="none" xmlns="http://www.w3.org/2000/svg">
<rect x="0.5" y="0.5" width="39" height="63" fill="#D9D9D9" stroke="#BE9999"/>
<path d="M44.4772 8.39295L51.8211 0H44.75L39.5 6H30.5C28.0147 6 26 8.01472 26 10.5V27H24C23.6593 27 23.3252 27.0284 23 27.083V19C23 15.6863 20.3137 13 17 13H12C8.68629 13 6 15.6863 6 19V51H11V19C11 18.4477 11.4477 18 12 18H17C17.5523 18 18 18.4477 18 19V51H23V33C23 32.4477 23.4477 32 24 32H29C29.5523 32 30 32.4477 30 33V51H35V33C35 30.3876 33.3304 28.1651 31 27.3414V11H40V51.0002H45V10.5C45 9.7387 44.811 9.02155 44.4772 8.39295Z" fill="black"/>
</svg>
