<svg width="40" height="64" viewBox="0 0 40 64" fill="none" xmlns="http://www.w3.org/2000/svg">
<rect x="0.5" y="0.5" width="39" height="63" fill="#D9D9D9" stroke="#BE9999"/>
<path d="M27 61C27 60.0807 26.8189 59.1705 26.4672 58.3212C26.1154 57.4719 25.5998 56.7003 24.9497 56.0503C24.2997 55.4002 23.5281 54.8846 22.6788 54.5328C21.8295 54.1811 20.9193 54 20 54C19.0807 54 18.1705 54.1811 17.3212 54.5328C16.4719 54.8846 15.7003 55.4002 15.0503 56.0503C14.4002 56.7003 13.8846 57.4719 13.5328 58.3212C13.1811 59.1705 13 60.0807 13 61H16.954C16.954 60.6 17.0328 60.2039 17.1859 59.8344C17.339 59.4648 17.5633 59.129 17.8462 58.8462C18.129 58.5633 18.4648 58.339 18.8344 58.1859C19.2039 58.0328 19.6 57.954 20 57.954C20.4 57.954 20.7961 58.0328 21.1656 58.1859C21.5352 58.339 21.871 58.5633 22.1538 58.8462C22.4367 59.129 22.661 59.4648 22.8141 59.8344C22.9672 60.2039 23.046 60.6 23.046 61H27Z" fill="black"/>
<rect x="7.5" y="15.5" width="25" height="33" rx="5.5" stroke="black" stroke-width="5"/>
<rect x="12" y="29" width="16" height="5" fill="black"/>
</svg>
