<svg width="40" height="64" viewBox="0 0 40 64" fill="none" xmlns="http://www.w3.org/2000/svg">
<rect x="0.5" y="0.5" width="39" height="63" fill="#D9D9D9" stroke="#BE9999"/>
<path fill-rule="evenodd" clip-rule="evenodd" d="M19 10.5V13H10C5.58172 13 2 16.5817 2 21V43C2 47.4183 5.58172 51 10 51H24C28.4183 51 32 47.4183 32 43V21C32 16.5817 28.4183 13 24 13V11H35V51H40V10.5C40 8.01472 37.9853 6 35.5 6H23.5C21.0147 6 19 8.01472 19 10.5ZM10 18H24C25.6569 18 27 19.3431 27 21V43C27 44.6569 25.6569 46 24 46H10C8.34315 46 7 44.6569 7 43V21C7 19.3431 8.34314 18 10 18Z" fill="black"/>
<rect x="9" y="29" width="16" height="5" fill="black"/>
</svg>
