<svg width="40" height="64" viewBox="0 0 40 64" fill="none" xmlns="http://www.w3.org/2000/svg">
<rect x="0.5" y="0.5" width="39" height="63" fill="#D9D9D9" stroke="#BE9999"/>
<path d="M29 12H8V17H24V39C24 44.5229 28.4772 49 34 49V44C31.2386 44 29 41.7614 29 39V12Z" fill="black"/>
<path fill-rule="evenodd" clip-rule="evenodd" d="M16.101 51C16.084 51.0167 16.0671 51.0334 16.0503 51.0503C15.4002 51.7003 14.8846 52.4719 14.5328 53.3212C14.1811 54.1705 14 55.0807 14 56H17.954C17.954 55.6 18.0328 55.2039 18.1859 54.8344C18.339 54.4648 18.5633 54.129 18.8462 53.8462C19.129 53.5633 19.4648 53.339 19.8344 53.1859C20.2039 53.0328 20.6 52.954 21 52.954C21.4 52.954 21.7961 53.0328 22.1656 53.1859C22.5352 53.339 22.871 53.5633 23.1538 53.8462C23.4367 54.129 23.661 54.4648 23.8141 54.8344C23.9672 55.2039 24.046 55.6 24.046 56H28C28 55.0807 27.8189 54.1705 27.4672 53.3212C27.1154 52.4719 26.5998 51.7003 25.9497 51.0503C25.9329 51.0334 25.916 51.0167 25.899 51C25.2597 50.3736 24.5061 49.8755 23.6788 49.5328C22.8295 49.1811 21.9193 49 21 49C20.0807 49 19.1705 49.1811 18.3212 49.5328C17.4939 49.8755 16.7403 50.3736 16.101 51Z" fill="black"/>
</svg>
