<svg width="40" height="64" viewBox="0 0 40 64" fill="none" xmlns="http://www.w3.org/2000/svg">
<rect x="0.5" y="0.5" width="39" height="63" fill="#D9D9D9" stroke="#BE9999"/>
<path fill-rule="evenodd" clip-rule="evenodd" d="M14 14H16.5C17.8807 14 19 15.1193 19 16.5V46H37V51H19H14V41.7101C13.3663 41.8987 12.695 42 12 42H10C6.13401 42 3 38.866 3 35V30C3 26.134 6.13401 23 10 23H12C12.695 23 13.3663 23.1013 14 23.2899V19C11.7909 19 10 17.2091 10 15V14H14ZM14 30V35C14 36.1046 13.1046 37 12 37H10C8.89543 37 8 36.1046 8 35V30C8 28.8954 8.89543 28 10 28H12C13.1046 28 14 28.8954 14 30Z" fill="black"/>
</svg>
