<svg width="40" height="64" viewBox="0 0 40 64" fill="none" xmlns="http://www.w3.org/2000/svg">
<rect x="0.5" y="0.5" width="39" height="63" fill="#D9D9D9" stroke="#BE9999"/>
<path fill-rule="evenodd" clip-rule="evenodd" d="M14.101 54C14.084 54.0167 14.0671 54.0334 14.0503 54.0503C13.4002 54.7003 12.8846 55.4719 12.5328 56.3212C12.1811 57.1705 12 58.0807 12 59H15.954C15.954 58.6 16.0328 58.2039 16.1859 57.8344C16.339 57.4648 16.5633 57.129 16.8462 56.8462C17.129 56.5633 17.4648 56.339 17.8344 56.1859C18.2039 56.0328 18.6 55.954 19 55.954C19.4 55.954 19.7961 56.0328 20.1656 56.1859C20.5352 56.339 20.871 56.5633 21.1538 56.8462C21.4367 57.129 21.661 57.4648 21.8141 57.8344C21.9672 58.2039 22.046 58.6 22.046 59H26C26 58.0807 25.8189 57.1705 25.4672 56.3212C25.1154 55.4719 24.5998 54.7003 23.9497 54.0503C23.9329 54.0334 23.916 54.0167 23.899 54C23.2597 53.3736 22.5061 52.8755 21.6788 52.5328C20.8295 52.1811 19.9193 52 19 52C18.0807 52 17.1705 52.1811 16.3212 52.5328C15.4939 52.8755 14.7403 53.3736 14.101 54Z" fill="black"/>
<path d="M17 13H12V28H23C23.5523 28 24 28.4477 24 29V34C24 40.6274 18.6274 46 12 46V51C21.3888 51 29 43.3888 29 34V29C29 25.6863 26.3137 23 23 23H17V13Z" fill="black"/>
<path fill-rule="evenodd" clip-rule="evenodd" d="M37.8211 7.99994L29.0711 17.9999H22L30.75 7.99994H37.8211Z" fill="black"/>
<path d="M17 13H12V28H23C23.5523 28 24 28.4477 24 29V34C24 40.6274 18.6274 46 12 46V51C21.3888 51 29 43.3888 29 34V29C29 25.6863 26.3137 23 23 23H17V13Z" fill="black"/>
</svg>
