<svg width="40" height="64" viewBox="0 0 40 64" fill="none" xmlns="http://www.w3.org/2000/svg">
<rect x="0.5" y="0.499969" width="39" height="63" fill="#D9D9D9" stroke="#BE9999"/>
<path d="M29.25 4.99994H17.5C15.0147 4.99994 13 7.01466 13 9.49994V22.9999H11V12.9999H6V27.9999H17C17.5523 27.9999 18 28.4477 18 28.9999V33.9999C18 40.6274 12.6274 45.9999 6 45.9999V50.9999C15.3888 50.9999 23 43.3888 23 33.9999V28.9999C23 26.0269 20.8377 23.559 18 23.0829V9.99994H29V51H34V9.49994C34 8.95945 33.9047 8.44122 33.73 7.96113L39.8211 0.999939H32.75L29.25 4.99994Z" fill="black"/>
</svg>
