<svg width="40" height="64" viewBox="0 0 40 64" fill="none" xmlns="http://www.w3.org/2000/svg">
<rect x="0.5" y="0.5" width="39" height="63" fill="#D9D9D9" stroke="#BE9999"/>
<path fill-rule="evenodd" clip-rule="evenodd" d="M31.3047 17.733L38.9461 9H31.875L27.6193 13.8636C26.5325 13.3113 25.3026 13 24 13H10C5.58172 13 2 16.5817 2 21V43C2 47.4183 5.58172 51 10 51H24C28.4183 51 32 47.4183 32 43V21C32 19.8362 31.7515 18.7305 31.3047 17.733ZM24 18H10C8.34314 18 7 19.3431 7 21V43C7 44.6569 8.34315 46 10 46H24C25.6569 46 27 44.6569 27 43V21C27 19.3431 25.6569 18 24 18Z" fill="black"/>
<rect x="9" y="29" width="16" height="5" fill="black"/>
</svg>
