<svg width="40" height="64" viewBox="0 0 40 64" fill="none" xmlns="http://www.w3.org/2000/svg">
<rect x="0.5" y="0.5" width="39" height="63" fill="#D9D9D9" stroke="#BE9999"/>
<path d="M24 61C24 60.0807 23.8189 59.1705 23.4672 58.3212C23.1154 57.4719 22.5998 56.7003 21.9497 56.0503C21.2997 55.4002 20.5281 54.8846 19.6788 54.5328C18.8295 54.1811 17.9193 54 17 54C16.0807 54 15.1705 54.1811 14.3212 54.5328C13.4719 54.8846 12.7003 55.4002 12.0503 56.0503C11.4002 56.7003 10.8846 57.4719 10.5328 58.3212C10.1811 59.1705 10 60.0807 10 61H13.954C13.954 60.6 14.0328 60.2039 14.1859 59.8344C14.339 59.4648 14.5633 59.129 14.8462 58.8462C15.129 58.5633 15.4648 58.339 15.8344 58.1859C16.2039 58.0328 16.6 57.954 17 57.954C17.4 57.954 17.7961 58.0328 18.1656 58.1859C18.5352 58.339 18.871 58.5633 19.1538 58.8462C19.4367 59.129 19.661 59.4648 19.8141 59.8344C19.9672 60.2039 20.046 60.6 20.046 61H24Z" fill="black"/>
<path fill-rule="evenodd" clip-rule="evenodd" d="M31.3047 17.733L38.9461 9H31.875L27.6193 13.8636C26.5325 13.3113 25.3026 13 24 13H10C5.58172 13 2 16.5817 2 21V43C2 47.4183 5.58172 51 10 51H24C28.4183 51 32 47.4183 32 43V21C32 19.8362 31.7515 18.7305 31.3047 17.733ZM24 18H10C8.34314 18 7 19.3431 7 21V43C7 44.6569 8.34315 46 10 46H24C25.6569 46 27 44.6569 27 43V21C27 19.3431 25.6569 18 24 18Z" fill="black"/>
<rect x="9" y="29" width="16" height="5" fill="black"/>
</svg>
