<svg width="49" height="64" viewBox="0 0 49 64" fill="none" xmlns="http://www.w3.org/2000/svg">
<rect x="0.5" y="0.5" width="48" height="63" fill="#D9D9D9" stroke="#BE9999"/>
<path d="M40.0711 10L48.8211 0H41.75L36.418 6.09371C36.1216 6.03228 35.8146 6 35.5 6H23.5C21.0147 6 19 8.01472 19 10.5V14H0V19H5V51H10V37.5C10 35.0147 12.0147 33 14.5 33H23C23.5523 33 24 33.4477 24 34V51H29V34C29 30.6863 26.3137 28 23 28H14.5C12.8719 28 11.3394 28.4096 10 29.1313V19H32V14H24V11H35V51H40V10.5C40 10.331 39.9907 10.1642 39.9725 10H40.0711Z" fill="black"/>
</svg>
