<svg width="40" height="64" viewBox="0 0 40 64" fill="none" xmlns="http://www.w3.org/2000/svg">
<rect x="0.5" y="0.5" width="39" height="63" fill="#D9D9D9" stroke="#BE9999"/>
<path fill-rule="evenodd" clip-rule="evenodd" d="M20 45V49H17C13.134 49 10 52.134 10 56C10 59.866 13.134 63 17 63H19C22.3137 63 25 60.3137 25 57V54C26.6569 54 28 55.3431 28 57V63H33V57C33 52.5817 29.4183 49 25 49V45H28C31.866 45 35 41.866 35 38C35 34.134 31.866 31 28 31H26C22.6863 31 20 33.6863 20 37V40C18.3431 40 17 38.6569 17 37V31H12V37C12 41.4183 15.5817 45 20 45ZM28 40H25V37C25 36.4477 25.4477 36 26 36H28C29.1046 36 30 36.8954 30 38C30 39.1046 29.1046 40 28 40ZM17 58C15.8954 58 15 57.1046 15 56C15 54.8954 15.8954 54 17 54H20V57C20 57.5523 19.5523 58 19 58H17Z" fill="black"/>
</svg>
