<svg width="40" height="64" viewBox="0 0 40 64" fill="none" xmlns="http://www.w3.org/2000/svg">
<rect x="0.5" y="0.5" width="39" height="63" fill="#D9D9D9" stroke="#BE9999"/>
<path fill-rule="evenodd" clip-rule="evenodd" d="M6 14H33V19H22V24H35V29H22V38H29C31.7614 38 34 40.2386 34 43H22V46C22 48.7614 19.7614 51 17 51H12.6667C7.8802 51 4 47.1198 4 42.3333C4 39.9401 5.9401 38 8.33333 38H17V29H4V24H17V19H6V14ZM17 43H9.06046C9.37396 44.7067 10.8693 46 12.6667 46H17V43Z" fill="black"/>
<path fill-rule="evenodd" clip-rule="evenodd" d="M6 14H33V19H22V24H35V29H22V38H29C31.7614 38 34 40.2386 34 43H22V46C22 48.7614 19.7614 51 17 51H12.6667C7.8802 51 4 47.1198 4 42.3333C4 39.9401 5.9401 38 8.33333 38H17V29H4V24H17V19H6V14ZM17 43H9.06046C9.37396 44.7067 10.8693 46 12.6667 46H17V43Z" fill="black"/>
<path d="M1.52841 7V2.63636H4.16193V3.10511H2.05682V4.57955H4.02557V5.0483H2.05682V6.53125H4.19602V7H1.52841ZM6.46094 7.05966C6.13991 7.05966 5.86648 6.9723 5.64062 6.79759C5.41477 6.62145 5.24219 6.36648 5.12287 6.03267C5.00355 5.69744 4.94389 5.29261 4.94389 4.81818C4.94389 4.34659 5.00355 3.94389 5.12287 3.61009C5.24361 3.27486 5.4169 3.01918 5.64276 2.84304C5.87003 2.66548 6.14276 2.5767 6.46094 2.5767C6.77912 2.5767 7.05114 2.66548 7.27699 2.84304C7.50426 3.01918 7.67756 3.27486 7.79688 3.61009C7.91761 3.94389 7.97798 4.34659 7.97798 4.81818C7.97798 5.29261 7.91832 5.69744 7.79901 6.03267C7.67969 6.36648 7.5071 6.62145 7.28125 6.79759C7.0554 6.9723 6.78196 7.05966 6.46094 7.05966ZM6.46094 6.59091C6.77912 6.59091 7.02628 6.4375 7.20241 6.13068C7.37855 5.82386 7.46662 5.38636 7.46662 4.81818C7.46662 4.44034 7.42614 4.11861 7.34517 3.85298C7.26563 3.58736 7.15057 3.38494 7 3.24574C6.85085 3.10653 6.67116 3.03693 6.46094 3.03693C6.1456 3.03693 5.89915 3.19247 5.72159 3.50355C5.54403 3.81321 5.45526 4.25142 5.45526 4.81818C5.45526 5.19602 5.49503 5.51705 5.57457 5.78125C5.65412 6.04545 5.76847 6.24645 5.91761 6.38423C6.06818 6.52202 6.24929 6.59091 6.46094 6.59091ZM10.2109 7.05966C9.88991 7.05966 9.61648 6.9723 9.39062 6.79759C9.16477 6.62145 8.99219 6.36648 8.87287 6.03267C8.75355 5.69744 8.69389 5.29261 8.69389 4.81818C8.69389 4.34659 8.75355 3.94389 8.87287 3.61009C8.99361 3.27486 9.1669 3.01918 9.39276 2.84304C9.62003 2.66548 9.89276 2.5767 10.2109 2.5767C10.5291 2.5767 10.8011 2.66548 11.027 2.84304C11.2543 3.01918 11.4276 3.27486 11.5469 3.61009C11.6676 3.94389 11.728 4.34659 11.728 4.81818C11.728 5.29261 11.6683 5.69744 11.549 6.03267C11.4297 6.36648 11.2571 6.62145 11.0312 6.79759C10.8054 6.9723 10.532 7.05966 10.2109 7.05966ZM10.2109 6.59091C10.5291 6.59091 10.7763 6.4375 10.9524 6.13068C11.1286 5.82386 11.2166 5.38636 11.2166 4.81818C11.2166 4.44034 11.1761 4.11861 11.0952 3.85298C11.0156 3.58736 10.9006 3.38494 10.75 3.24574C10.6009 3.10653 10.4212 3.03693 10.2109 3.03693C9.8956 3.03693 9.64915 3.19247 9.47159 3.50355C9.29403 3.81321 9.20526 4.25142 9.20526 4.81818C9.20526 5.19602 9.24503 5.51705 9.32457 5.78125C9.40412 6.04545 9.51847 6.24645 9.66761 6.38423C9.81818 6.52202 9.99929 6.59091 10.2109 6.59091ZM14.0717 2.63636V7H13.5433V3.19034H13.5178L12.4524 3.89773V3.3608L13.5433 2.63636H14.0717Z" fill="black"/>
</svg>
