<svg width="53" height="64" viewBox="0 0 53 64" fill="none" xmlns="http://www.w3.org/2000/svg">
<rect x="0.5" y="0.5" width="52" height="63" fill="#D9D9D9" stroke="#BE9999"/>
<path fill-rule="evenodd" clip-rule="evenodd" d="M39.9098 13.4999C39.3474 12.8711 38.8945 12.1512 38.5709 11.37C38.194 10.4601 38 9.48479 38 8.49988H42.2365C42.2365 8.92845 42.3209 9.35283 42.4849 9.74878C42.6489 10.1447 42.8893 10.5045 43.1923 10.8076C43.4954 11.1106 43.8551 11.351 44.2511 11.515C44.647 11.679 45.0714 11.7634 45.5 11.7634C45.9286 11.7634 46.353 11.679 46.7489 11.515C47.1449 11.351 47.5046 11.1106 47.8077 10.8076C48.1107 10.5045 48.3511 10.1447 48.5151 9.74878C48.6791 9.35283 48.7635 8.92845 48.7635 8.49988H53C53 9.48479 52.806 10.4601 52.4291 11.37C52.1055 12.1512 51.6526 12.8711 51.0902 13.4999C50.9975 13.6035 50.9018 13.7046 50.8033 13.8032C50.1069 14.4996 49.2801 15.0521 48.3701 15.429C47.4602 15.8059 46.4849 15.9999 45.5 15.9999C44.5151 15.9999 43.5398 15.8059 42.6299 15.429C41.7199 15.0521 40.8931 14.4996 40.1967 13.8032C40.0982 13.7046 40.0025 13.6035 39.9098 13.4999Z" fill="black"/>
<path fill-rule="evenodd" clip-rule="evenodd" d="M16.101 49C16.084 49.0166 16.0671 49.0334 16.0503 49.0502C15.4002 49.7002 14.8846 50.4719 14.5328 51.3212C14.1811 52.1705 14 53.0807 14 54H17.954C17.954 53.6 18.0328 53.2039 18.1859 52.8343C18.339 52.4648 18.5633 52.129 18.8462 51.8461C19.129 51.5633 19.4648 51.3389 19.8344 51.1859C20.2039 51.0328 20.6 50.954 21 50.954C21.4 50.954 21.7961 51.0328 22.1656 51.1859C22.5352 51.3389 22.871 51.5633 23.1538 51.8461C23.4367 52.129 23.661 52.4648 23.8141 52.8343C23.9672 53.2039 24.046 53.6 24.046 54H28C28 53.0807 27.8189 52.1705 27.4672 51.3212C27.1154 50.4719 26.5998 49.7002 25.9497 49.0502C25.9329 49.0334 25.916 49.0166 25.899 49C25.2597 48.3736 24.5061 47.8755 23.6788 47.5328C22.8295 47.181 21.9193 47 21 47C20.0807 47 19.1705 47.181 18.3212 47.5328C17.4939 47.8755 16.7403 48.3736 16.101 49Z" fill="black"/>
<path d="M6 14H1V51H6V14Z" fill="black"/>
<path fill-rule="evenodd" clip-rule="evenodd" d="M36.5 14H34L21.7542 28.5939L9.50849 14H9V21.1726L18.4907 32.4832L9 43.7938V50.9664H9.50849L21.7542 36.3725L34 50.9664V51H36.5C37.8807 51 39 49.8807 39 48.5V16.5C39 15.1193 37.8807 14 36.5 14ZM25.0178 32.4832L34 43.1878V21.7786L25.0178 32.4832Z" fill="black"/>
</svg>
