<svg width="53" height="64" viewBox="0 0 53 64" fill="none" xmlns="http://www.w3.org/2000/svg">
<rect x="0.5" y="0.499969" width="52" height="63" fill="#D9D9D9" stroke="#BE9999"/>
<path fill-rule="evenodd" clip-rule="evenodd" d="M48.7635 8.49982C48.7635 8.92839 48.6791 9.35277 48.5151 9.74872C48.3511 10.1447 48.1107 10.5044 47.8077 10.8075C47.5046 11.1105 47.1449 11.3509 46.7489 11.5149C46.353 11.679 45.9286 11.7634 45.5 11.7634C45.0714 11.7634 44.647 11.679 44.2511 11.5149C43.8551 11.3509 43.4954 11.1105 43.1923 10.8075C42.8893 10.5044 42.6489 10.1447 42.4849 9.74872C42.3209 9.35277 42.2365 8.92839 42.2365 8.49982H38C38 9.48473 38.194 10.46 38.5709 11.3699C38.8945 12.1511 39.3474 12.8711 39.9098 13.4998C40.0025 13.6034 40.0982 13.7046 40.1967 13.8031C40.8931 14.4996 41.7199 15.052 42.6299 15.4289C43.5398 15.8058 44.5151 15.9998 45.5 15.9998C46.4849 15.9998 47.4602 15.8058 48.3701 15.4289C49.2801 15.052 50.1069 14.4996 50.8033 13.8031C50.9018 13.7046 50.9975 13.6034 51.0902 13.4998C51.6526 12.8711 52.1055 12.1511 52.4291 11.3699C52.806 10.46 53 9.48473 53 8.49982H48.7635Z" fill="black"/>
<rect x="16" y="46" width="11" height="5" fill="black"/>
<path d="M6 14H1V51H6V14Z" fill="black"/>
<path fill-rule="evenodd" clip-rule="evenodd" d="M36.5 14H34L21.7542 28.5939L9.50849 14H9V21.1726L18.4907 32.4832L9 43.7938V50.9664H9.50849L21.7542 36.3725L34 50.9664V51H36.5C37.8807 51 39 49.8807 39 48.5V16.5C39 15.1193 37.8807 14 36.5 14ZM25.0178 32.4832L34 43.1878V21.7786L25.0178 32.4832Z" fill="black"/>
</svg>
