<svg width="53" height="64" viewBox="0 0 53 64" fill="none" xmlns="http://www.w3.org/2000/svg">
<rect x="0.5" y="0.499969" width="52" height="63" fill="#D9D9D9" stroke="#BE9999"/>
<path fill-rule="evenodd" clip-rule="evenodd" d="M39.9098 13.4998C39.3474 12.8711 38.8945 12.1512 38.5709 11.37C38.194 10.46 38 9.48476 38 8.49985H42.2365C42.2365 8.92842 42.3209 9.3528 42.4849 9.74875C42.6489 10.1447 42.8893 10.5045 43.1923 10.8075C43.4954 11.1106 43.8551 11.351 44.2511 11.515C44.647 11.679 45.0714 11.7634 45.5 11.7634C45.9286 11.7634 46.353 11.679 46.7489 11.515C47.1449 11.351 47.5046 11.1106 47.8077 10.8075C48.1107 10.5045 48.3511 10.1447 48.5151 9.74875C48.6791 9.3528 48.7635 8.92842 48.7635 8.49985H53C53 9.48476 52.806 10.46 52.4291 11.37C52.1055 12.1512 51.6526 12.8711 51.0902 13.4998C50.9975 13.6035 50.9018 13.7046 50.8033 13.8031C50.1069 14.4996 49.2801 15.052 48.3701 15.4289C47.4602 15.8059 46.4849 15.9998 45.5 15.9998C44.5151 15.9998 43.5398 15.8059 42.6299 15.4289C41.7199 15.052 40.8931 14.4996 40.1967 13.8031C40.0982 13.7046 40.0025 13.6035 39.9098 13.4998Z" fill="black"/>
<circle cx="22" cy="46" r="4" fill="black"/>
<path d="M6 14H1V51H6V14Z" fill="black"/>
<path fill-rule="evenodd" clip-rule="evenodd" d="M36.5 14H34L21.7542 28.5939L9.50849 14H9V21.1726L18.4907 32.4832L9 43.7938V50.9664H9.50849L21.7542 36.3725L34 50.9664V51H36.5C37.8807 51 39 49.8807 39 48.5V16.5C39 15.1193 37.8807 14 36.5 14ZM25.0178 32.4832L34 43.1878V21.7786L25.0178 32.4832Z" fill="black"/>
</svg>
