<svg width="55" height="64" viewBox="0 0 55 64" fill="none" xmlns="http://www.w3.org/2000/svg">
<rect x="0.5" y="0.499969" width="54" height="63" fill="#D9D9D9" stroke="#BE9999"/>
<path fill-rule="evenodd" clip-rule="evenodd" d="M47 11.3713V51H42V8.99998H31V17.5752L34 14L36.5 14C37.8807 14 39 15.1193 39 16.5V48.5C39 49.8807 37.8807 51 36.5 51H34V50.9665L21.7542 36.3725L9.50849 50.9664H9V43.7938L18.4907 32.4832L9 21.1726V14H9.50849L21.7542 28.5939L26 23.534V8.49998C26 6.0147 28.0147 3.99998 30.5 3.99998H42.5C42.658 3.99998 42.8141 4.00813 42.9679 4.02401C43.0501 3.44039 43.2058 2.86818 43.4323 2.32126C43.7841 1.47198 44.2997 0.700303 44.9497 0.050293L47.7457 2.84621C47.4628 3.12905 47.2385 3.46484 47.0854 3.83439C46.9323 4.20395 46.8535 4.60004 46.8535 5.00004C46.8535 5.40004 46.9323 5.79613 47.0854 6.16569C47.2385 6.53524 47.4628 6.87103 47.7457 7.15387C48.0285 7.43672 48.3643 7.66108 48.7338 7.81416C49.1034 7.96723 49.4995 8.04602 49.8995 8.04602C50.2995 8.04602 50.6956 7.96723 51.0651 7.81416C51.4347 7.66108 51.7705 7.43672 52.0533 7.15387L54.8492 9.94979C54.1992 10.5998 53.4276 11.1154 52.5783 11.4672C51.729 11.819 50.8187 12 49.8995 12C49.8757 12 49.8519 11.9999 49.8281 11.9997C48.9331 11.9905 48.048 11.8099 47.2207 11.4672C47.1465 11.4365 47.073 11.4045 47 11.3713ZM34 43.1878L25.0178 32.4832L34 21.7786V43.1878Z" fill="black"/>
<path d="M1 14H6V51H1V14Z" fill="black"/>
</svg>
