<svg width="40" height="64" viewBox="0 0 40 64" fill="none" xmlns="http://www.w3.org/2000/svg">
<rect x="0.5" y="0.5" width="39" height="63" fill="#D9D9D9" stroke="#BE9999"/>
<path fill-rule="evenodd" clip-rule="evenodd" d="M15.101 53C15.084 53.0167 15.0671 53.0334 15.0503 53.0503C14.4002 53.7003 13.8846 54.4719 13.5328 55.3212C13.1811 56.1705 13 57.0807 13 58H16.954C16.954 57.6 17.0328 57.2039 17.1859 56.8344C17.339 56.4648 17.5633 56.129 17.8462 55.8462C18.129 55.5633 18.4648 55.339 18.8344 55.1859C19.2039 55.0328 19.6 54.954 20 54.954C20.4 54.954 20.7961 55.0328 21.1656 55.1859C21.5352 55.339 21.871 55.5633 22.1538 55.8462C22.4367 56.129 22.661 56.4648 22.8141 56.8344C22.9672 57.2039 23.046 57.6 23.046 58H27C27 57.0807 26.8189 56.1705 26.4672 55.3212C26.1154 54.4719 25.5998 53.7003 24.9497 53.0503C24.9329 53.0334 24.916 53.0167 24.899 53C24.2597 52.3736 23.5061 51.8755 22.6788 51.5328C21.8295 51.1811 20.9193 51 20 51C19.0807 51 18.1705 51.1811 17.3212 51.5328C16.4939 51.8755 15.7403 52.3736 15.101 53Z" fill="black"/>
<path fill-rule="evenodd" clip-rule="evenodd" d="M31.2627 14.4952L37.8211 7H30.75L25.5 13H14C8.47715 13 4 17.4772 4 23V36C4 43.732 10.268 50 18 50H22C29.732 50 36 43.732 36 36V35C36 32.2386 33.7614 30 31 30H9V23C9 20.2386 11.2386 18 14 18H26C28.7614 18 31 20.2386 31 23V24H36V23C36 19.4081 34.1063 16.2585 31.2627 14.4952ZM31 36C31 40.9706 26.9706 45 22 45H18C13.0294 45 9 40.9706 9 36V35H31V36Z" fill="black"/>
</svg>
