<svg width="48" height="64" viewBox="0 0 48 64" fill="none" xmlns="http://www.w3.org/2000/svg">
<rect x="0.5" y="0.5" width="47" height="63" fill="#D9D9D9" stroke="#BE9999"/>
<path fill-rule="evenodd" clip-rule="evenodd" d="M39.7658 9.06322L46.8211 1H39.75L35.375 6H23.5C21.0147 6 19 8.01472 19 10.5V14H10C4.47715 14 0 18.4772 0 24V37C0 44.732 6.26801 51 14 51H18C25.732 51 32 44.732 32 37V36C32 33.2386 29.7614 31 27 31H5V24C5 21.2386 7.23858 19 10 19H22C24.7614 19 27 21.2386 27 24V25H32V24C32 19.1621 28.5645 15.1266 24 14.2V11H35V51H40V10.5C40 9.99759 39.9177 9.51441 39.7658 9.06322ZM18 46C22.9706 46 27 41.9706 27 37V36H5V37C5 41.9706 9.02944 46 14 46H18Z" fill="black"/>
</svg>
