<svg width="40" height="64" viewBox="0 0 40 64" fill="none" xmlns="http://www.w3.org/2000/svg">
<rect x="0.5" y="0.499969" width="39" height="63" fill="#D9D9D9" stroke="#BE9999"/>
<path fill-rule="evenodd" clip-rule="evenodd" d="M16.101 49C16.084 49.0166 16.0671 49.0334 16.0503 49.0502C15.4002 49.7002 14.8846 50.4719 14.5328 51.3212C14.1811 52.1705 14 53.0807 14 54H17.954C17.954 53.6 18.0328 53.2039 18.1859 52.8343C18.339 52.4648 18.5633 52.129 18.8462 51.8461C19.129 51.5633 19.4648 51.3389 19.8344 51.1859C20.2039 51.0328 20.6 50.954 21 50.954C21.4 50.954 21.7961 51.0328 22.1656 51.1859C22.5352 51.3389 22.871 51.5633 23.1538 51.8461C23.4367 52.129 23.661 52.4648 23.8141 52.8343C23.9672 53.2039 24.046 53.6 24.046 54H28C28 53.0807 27.8189 52.1705 27.4672 51.3212C27.1154 50.4719 26.5998 49.7002 25.9497 49.0502C25.9329 49.0334 25.916 49.0166 25.899 49C25.2597 48.3736 24.5061 47.8755 23.6788 47.5328C22.8295 47.181 21.9193 47 21 47C20.0807 47 19.1705 47.181 18.3212 47.5328C17.4939 47.8755 16.7403 48.3736 16.101 49Z" fill="black"/>
<path d="M6 14H1V51H6V14Z" fill="black"/>
<path fill-rule="evenodd" clip-rule="evenodd" d="M36.5 14H34L21.7542 28.5939L9.50849 14H9V21.1726L18.4907 32.4832L9 43.7938V50.9664H9.50849L21.7542 36.3725L34 50.9664V51H36.5C37.8807 51 39 49.8807 39 48.5V16.5C39 15.1193 37.8807 14 36.5 14ZM25.0178 32.4832L34 43.1878V21.7786L25.0178 32.4832Z" fill="black"/>
</svg>
