<svg width="47" height="64" viewBox="0 0 47 64" fill="none" xmlns="http://www.w3.org/2000/svg">
<rect x="0.5" y="0.499969" width="46" height="63" fill="#D9D9D9" stroke="#BE9999"/>
<path fill-rule="evenodd" clip-rule="evenodd" d="M26 23.534V8.49997C26 6.01469 28.0147 3.99997 30.5 3.99997H42.5C44.9853 3.99997 47 6.01469 47 8.49997V51H42V8.99997H31V17.5753L34 14H36.5C37.8807 14 39 15.1193 39 16.5V48.5C39 49.8807 37.8807 51 36.5 51H34V50.9665L21.7542 36.3726L9.50849 50.9665H9V43.7938L18.4907 32.4832L9 21.1726V14H9.50849L21.7542 28.5939L26 23.534ZM25.0178 32.4832L34 43.1879V21.7786L25.0178 32.4832Z" fill="black"/>
<path d="M6 14H1V51H6V14Z" fill="black"/>
</svg>
