<svg width="40" height="64" viewBox="0 0 40 64" fill="none" xmlns="http://www.w3.org/2000/svg">
<rect x="0.5" y="0.499878" width="39" height="63" fill="#D9D9D9" stroke="#BE9999"/>
<path fill-rule="evenodd" clip-rule="evenodd" d="M35 40.9999V19.9999H30V40.9999C30 43.7613 27.7614 45.9999 25 45.9999H16C13.2386 45.9999 11 43.7613 11 40.9999V19.9999H6V40.9999C6 46.5227 10.4772 50.9999 16 50.9999H25C30.5228 50.9999 35 46.5227 35 40.9999Z" fill="black"/>
<rect x="18" y="12.9999" width="5" height="31" fill="black"/>
<path fill-rule="evenodd" clip-rule="evenodd" d="M26.9098 13.4999C26.3474 12.8711 25.8945 12.1512 25.5709 11.37C25.194 10.4601 25 9.48479 25 8.49988H29.2365C29.2365 8.92845 29.3209 9.35283 29.4849 9.74878C29.6489 10.1447 29.8893 10.5045 30.1923 10.8076C30.4954 11.1106 30.8551 11.351 31.2511 11.515C31.647 11.679 32.0714 11.7634 32.5 11.7634C32.9286 11.7634 33.353 11.679 33.7489 11.515C34.1449 11.351 34.5046 11.1106 34.8077 10.8076C35.1107 10.5045 35.3511 10.1447 35.5151 9.74878C35.6791 9.35283 35.7635 8.92845 35.7635 8.49988H40C40 9.48479 39.806 10.4601 39.4291 11.37C39.1055 12.1512 38.6526 12.8711 38.0902 13.4999C37.9975 13.6035 37.9018 13.7046 37.8033 13.8032C37.1069 14.4996 36.2801 15.0521 35.3701 15.429C34.4602 15.8059 33.4849 15.9999 32.5 15.9999C31.5151 15.9999 30.5398 15.8059 29.6299 15.429C28.7199 15.0521 27.8931 14.4996 27.1967 13.8032C27.0982 13.7046 27.0025 13.6035 26.9098 13.4999Z" fill="black"/>
</svg>
