<svg width="40" height="64" viewBox="0 0 40 64" fill="none" xmlns="http://www.w3.org/2000/svg">
<rect x="0.5" y="0.5" width="39" height="63" fill="#D9D9D9" stroke="#BE9999"/>
<path fill-rule="evenodd" clip-rule="evenodd" d="M35 41V20H30V41C30 43.7614 27.7614 46 25 46H16C13.2386 46 11 43.7614 11 41V20H6V41C6 46.5228 10.4772 51 16 51H25C30.5228 51 35 46.5228 35 41Z" fill="black"/>
<rect x="18" y="13" width="5" height="31" fill="black"/>
<path fill-rule="evenodd" clip-rule="evenodd" d="M26.9098 13.5C26.3474 12.8712 25.8945 12.1513 25.5709 11.3701C25.194 10.4602 25 9.48491 25 8.5H29.2365C29.2365 8.92858 29.3209 9.35295 29.4849 9.74891C29.6489 10.1449 29.8893 10.5046 30.1923 10.8077C30.4954 11.1107 30.8551 11.3511 31.2511 11.5151C31.647 11.6791 32.0714 11.7635 32.5 11.7635C32.9286 11.7635 33.353 11.6791 33.7489 11.5151C34.1449 11.3511 34.5046 11.1107 34.8077 10.8077C35.1107 10.5046 35.3511 10.1449 35.5151 9.74891C35.6791 9.35295 35.7635 8.92858 35.7635 8.5H40C40 9.48491 39.806 10.4602 39.4291 11.3701C39.1055 12.1513 38.6526 12.8712 38.0902 13.5C37.9975 13.6036 37.9018 13.7048 37.8033 13.8033C37.1069 14.4997 36.2801 15.0522 35.3701 15.4291C34.4602 15.806 33.4849 16 32.5 16C31.5151 16 30.5398 15.806 29.6299 15.4291C28.7199 15.0522 27.8931 14.4997 27.1967 13.8033C27.0982 13.7048 27.0025 13.6036 26.9098 13.5Z" fill="black"/>
<rect x="8" y="53" width="24" height="5" fill="black"/>
</svg>
