<svg width="45" height="64" viewBox="0 0 45 64" fill="none" xmlns="http://www.w3.org/2000/svg">
<rect x="0.5" y="0.500061" width="44" height="63" fill="#D9D9D9" stroke="#BE9999"/>
<path fill-rule="evenodd" clip-rule="evenodd" d="M30 40.9999V19.9999H25V40.9999C25 43.7613 22.7614 45.9999 20 45.9999H11C8.23858 45.9999 6 43.7613 6 40.9999V19.9999H1V40.9999C1 46.5227 5.47715 50.9999 11 50.9999H20C25.5228 50.9999 30 46.5227 30 40.9999Z" fill="black"/>
<rect x="13" y="12.9999" width="5" height="31" fill="black"/>
<path d="M32.8995 5.00004C32.8995 5.02386 32.8996 5.04767 32.8998 5.07147C32.903 5.38286 32.927 5.69307 32.9713 6.00006H23.5C21.0147 6.00006 19 8.01478 19 10.5001V16.0001H24V11.0001H33V51.0001H38V11.7374C38.594 11.9049 39.2087 11.9934 39.828 11.9997C39.8518 11.9999 39.8757 12 39.8995 12C40.8187 12 41.729 11.819 42.5783 11.4672C43.4275 11.1154 44.1992 10.5998 44.8492 9.94979L42.0533 7.15387C41.7705 7.43672 41.4347 7.66108 41.0651 7.81416C40.6956 7.96723 40.2995 8.04602 39.8995 8.04602C39.4995 8.04602 39.1034 7.96723 38.7338 7.81416C38.3643 7.66108 38.0285 7.43672 37.7456 7.15387C37.4628 6.87103 37.2384 6.53524 37.0854 6.16569C36.9323 5.79613 36.8535 5.40004 36.8535 5.00004C36.8535 4.60004 36.9323 4.20395 37.0854 3.83439C37.2384 3.46484 37.4628 3.12905 37.7456 2.84621L34.9497 0.050293C34.2997 0.700303 33.7841 1.47198 33.4323 2.32126C33.0805 3.17054 32.8995 4.08079 32.8995 5.00004Z" fill="black"/>
</svg>
