<svg width="40" height="64" viewBox="0 0 40 64" fill="none" xmlns="http://www.w3.org/2000/svg">
<path opacity="0.3" d="M0.5 0.5H39.5V63.5H0.5V0.5Z" fill="#D9D9D9" stroke="#BE9999"/>
<path d="M28 59C28 58.0807 27.8189 57.1705 27.4672 56.3212C27.1154 55.4719 26.5998 54.7003 25.9497 54.0503C25.2997 53.4002 24.5281 52.8846 23.6788 52.5328C22.8295 52.1811 21.9193 52 21 52C20.0807 52 19.1705 52.1811 18.3212 52.5328C17.4719 52.8846 16.7003 53.4002 16.0503 54.0503C15.4002 54.7003 14.8846 55.4719 14.5328 56.3212C14.1811 57.1705 14 58.0807 14 59H17.954C17.954 58.6 18.0328 58.2039 18.1859 57.8344C18.339 57.4648 18.5633 57.129 18.8462 56.8462C19.129 56.5633 19.4648 56.339 19.8344 56.1859C20.2039 56.0328 20.6 55.954 21 55.954C21.4 55.954 21.7961 56.0328 22.1656 56.1859C22.5352 56.339 22.871 56.5633 23.1538 56.8462C23.4367 57.129 23.661 57.4648 23.8141 57.8344C23.9672 58.2039 24.046 58.6 24.046 59H28Z" fill="black"/>
<path fill-rule="evenodd" clip-rule="evenodd" d="M13 13H8V27H4.64286C2.07868 27 0 29.0787 0 31.6429C0 36.2584 3.74162 40 8.35714 40C10.9213 40 13 37.9213 13 35.3571V32H21V38H17.6429C15.0787 38 13 40.0787 13 42.6429C13 47.2584 16.7416 51 21.3571 51C23.9213 51 26 48.9213 26 46.3571V43H40V38H26V32H34V27H26V19H21V27H13V13ZM8 34.9812C6.43116 34.8153 5.18467 33.5688 5.01877 32H8V34.9812ZM18.0188 43C18.1847 44.5688 19.4312 45.8153 21 45.9812V43H18.0188Z" fill="black"/>
</svg>
