<svg width="40" height="64" viewBox="0 0 40 64" fill="none" xmlns="http://www.w3.org/2000/svg">
<path opacity="0.3" d="M0.5 0.5H39.5V63.5H0.5V0.5Z" fill="#D9D9D9" stroke="#BE9999"/>
<circle cx="20" cy="56" r="4" fill="black"/>
<path fill-rule="evenodd" clip-rule="evenodd" d="M13 13H8V27H4.64286C2.07868 27 0 29.0787 0 31.6429C0 36.2584 3.74162 40 8.35714 40C10.9213 40 13 37.9213 13 35.3571V32H21V38H17.6429C15.0787 38 13 40.0787 13 42.6429C13 47.2584 16.7416 51 21.3571 51C23.9213 51 26 48.9213 26 46.3571V43H40V38H26V32H34V27H26V19H21V27H13V13ZM8 34.9812C6.43116 34.8153 5.18467 33.5688 5.01877 32H8V34.9812ZM18.0188 43C18.1847 44.5688 19.4312 45.8153 21 45.9812V43H18.0188Z" fill="black"/>
</svg>
