<svg width="45" height="64" viewBox="0 0 45 64" fill="none" xmlns="http://www.w3.org/2000/svg">
<path opacity="0.3" d="M0.5 0.5H39.5V63.5H0.5V0.5Z" fill="#D9D9D9" stroke="#BE9999"/>
<path fill-rule="evenodd" clip-rule="evenodd" d="M27 20H32V11H40V38H26V32H34V27H26V19H21V27H13V13H8V27H4.64286C2.07868 27 0 29.0787 0 31.6429C0 36.2584 3.74162 40 8.35714 40C10.9213 40 13 37.9213 13 35.3571V32H21V38H17.6429C15.0787 38 13 40.0787 13 42.6429C13 47.2584 16.7416 51 21.3571 51C23.9213 51 26 48.9213 26 46.3571V43H40V51H45V10.5C45 8.01472 42.9853 6 40.5 6H31.5C29.0147 6 27 8.01472 27 10.5V20ZM5.01877 32C5.18467 33.5688 6.43116 34.8153 8 34.9812V32H5.01877ZM21 45.9812C19.4312 45.8153 18.1847 44.5688 18.0188 43H21V45.9812Z" fill="black"/>
</svg>
