<svg width="52" height="64" viewBox="0 0 52 64" fill="none" xmlns="http://www.w3.org/2000/svg">
<rect x="0.5" y="0.5" width="39" height="63" fill="#D9D9D9" stroke="#BE9999"/>
<path fill-rule="evenodd" clip-rule="evenodd" d="M35 41V20H30V41C30 43.7614 27.7614 46 25 46H16C13.2386 46 11 43.7614 11 41V20H6V41C6 46.5228 10.4772 51 16 51H25C30.5228 51 35 46.5228 35 41Z" fill="black"/>
<rect x="18" y="13" width="5" height="31" fill="black"/>
<path d="M44.7658 8.06322L51.8211 0H44.75L40.375 5H28.5C26.0147 5 24 7.01472 24 9.5V18H29V10H40V51H45V9.5C45 8.99759 44.9177 8.51441 44.7658 8.06322Z" fill="black"/>
</svg>
