<svg width="40" height="64" viewBox="0 0 40 64" fill="none" xmlns="http://www.w3.org/2000/svg">
<rect x="0.5" y="0.5" width="39" height="63" fill="#D9D9D9" stroke="#BE9999"/>
<path d="M10 19H9.5C8.11929 19 7 20.1193 7 21.5C7 22.8807 8.11929 24 9.5 24H12C13.1046 24 14 23.1046 14 22C14 17.5817 17.5817 14 22 14H29.5C33.6421 14 37 17.3579 37 21.5C37 25.6421 33.6421 29 29.5 29H23V51H18V29C18 26.2386 20.2386 24 23 24H29.5C30.8807 24 32 22.8807 32 21.5C32 20.1193 30.8807 19 29.5 19H22C20.3431 19 19 20.3431 19 22C19 25.866 15.866 29 12 29H9.5C5.35786 29 2 25.6421 2 21.5C2 17.3579 5.35786 14 9.5 14H10V19Z" fill="#020000"/>
</svg>
