<svg width="40" height="64" viewBox="0 0 40 64" fill="none" xmlns="http://www.w3.org/2000/svg">
<rect x="0.5" y="0.5" width="39" height="63" fill="#D9D9D9" stroke="#BE9999"/>
<path d="M28 59C28 58.0807 27.8189 57.1705 27.4672 56.3212C27.1154 55.4719 26.5998 54.7003 25.9497 54.0503C25.2997 53.4002 24.5281 52.8846 23.6788 52.5328C22.8295 52.1811 21.9193 52 21 52C20.0807 52 19.1705 52.1811 18.3212 52.5328C17.4719 52.8846 16.7003 53.4002 16.0503 54.0503C15.4002 54.7003 14.8846 55.4719 14.5328 56.3212C14.1811 57.1705 14 58.0807 14 59H17.954C17.954 58.6 18.0328 58.2039 18.1859 57.8344C18.339 57.4648 18.5633 57.129 18.8462 56.8462C19.129 56.5633 19.4648 56.339 19.8344 56.1859C20.2039 56.0328 20.6 55.954 21 55.954C21.4 55.954 21.7961 56.0328 22.1656 56.1859C22.5352 56.339 22.871 56.5633 23.1538 56.8462C23.4367 57.129 23.661 57.4648 23.8141 57.8344C23.9672 58.2039 24.046 58.6 24.046 59H28Z" fill="black"/>
<path d="M10 19H9.5C8.11929 19 7 20.1193 7 21.5C7 22.8807 8.11929 24 9.5 24H12C13.1046 24 14 23.1046 14 22C14 17.5817 17.5817 14 22 14H29.5C33.6421 14 37 17.3579 37 21.5C37 25.6421 33.6421 29 29.5 29H23V51H18V29C18 26.2386 20.2386 24 23 24H29.5C30.8807 24 32 22.8807 32 21.5C32 20.1193 30.8807 19 29.5 19H22C20.3431 19 19 20.3431 19 22C19 25.866 15.866 29 12 29H9.5C5.35786 29 2 25.6421 2 21.5C2 17.3579 5.35786 14 9.5 14H10V19Z" fill="#020000"/>
</svg>
