<svg width="42" height="64" viewBox="0 0 42 64" fill="none" xmlns="http://www.w3.org/2000/svg">
<rect x="0.5" y="0.5" width="41" height="63" fill="#D9D9D9" stroke="#BE9999"/>
<path d="M23 14V10.5002C23 8.0149 25.0147 6.00018 27.5 6.00018H37.5C39.9853 6.00018 42 8.0149 42 10.5002V51.0002H37V11.0002H28V14H28.5C32.6421 14 36 17.3579 36 21.5C36 25.6421 32.6421 29 28.5 29H22V51H17V29C17 26.2386 19.2386 24 22 24H28.5C29.8807 24 31 22.8807 31 21.5C31 20.1193 29.8807 19 28.5 19H21C19.3431 19 18 20.3431 18 22C18 25.866 14.866 29 11 29H8.5C4.35786 29 1 25.6421 1 21.5C1 17.3579 4.35786 14 8.5 14H9V19H8.5C7.11929 19 6 20.1193 6 21.5C6 22.8807 7.11929 24 8.5 24H11C12.1046 24 13 23.1046 13 22C13 17.5817 16.5817 14 21 14H23Z" fill="black"/>
</svg>
