<svg width="360" height="66" viewBox="0 0 360 66" fill="none" xmlns="http://www.w3.org/2000/svg">
<path d="M0.5 0.5H39.5V63.5H0.5V0.5Z" fill="#D9D9D9" stroke="#BE9999"/>
<mask id="path-2-inside-1_161_8461" fill="white">
<path d="M18 40C18 35.5817 21.5817 32 26 32V32V51H18V40Z"/>
</mask>
<path d="M13 40C13 32.8203 18.8203 27 26 27V37C24.3431 37 23 38.3431 23 40H13ZM26 51H18H26ZM13 51V40C13 32.8203 18.8203 27 26 27V37C24.3431 37 23 38.3431 23 40V51H13ZM26 32V51V32Z" fill="black" mask="url(#path-2-inside-1_161_8461)"/>
<mask id="path-4-inside-2_161_8461" fill="white">
<path d="M35 27.7692C35 32.8672 30.8672 37 25.7692 37V37V25H35V27.7692Z"/>
</mask>
<path d="M40 27.7692C40 35.6287 33.6287 42 25.7692 42V32C28.1058 32 30 30.1058 30 27.7692H40ZM25.7692 25H35H25.7692ZM40 25V27.7692C40 35.6287 33.6287 42 25.7692 42V32C28.1058 32 30 30.1058 30 27.7692V25H40ZM25.7692 37V25V37Z" fill="black" mask="url(#path-4-inside-2_161_8461)"/>
<mask id="path-6-inside-3_161_8461" fill="white">
<path d="M16 14H24C30.0751 14 35 18.9249 35 25V25H16V14Z"/>
</mask>
<path d="M16 9H24C32.8366 9 40 16.1634 40 25H30C30 21.6863 27.3137 19 24 19H16V9ZM35 25H16H35ZM16 25V14V25ZM24 9C32.8366 9 40 16.1634 40 25H30C30 21.6863 27.3137 19 24 19V9Z" fill="black" mask="url(#path-6-inside-3_161_8461)"/>
<mask id="path-8-inside-4_161_8461" fill="white">
<path d="M16 14V14C9.92487 14 5 18.9249 5 25V26C5 32.0751 9.92487 37 16 37V37V14Z"/>
</mask>
<path d="M16 9C7.16344 9 0 16.1634 0 25H10C10 21.6863 12.6863 19 16 19V9ZM0 26C0 34.8366 7.16344 42 16 42V32C12.6863 32 10 29.3137 10 26H0ZM16 37V14V37ZM16 9C7.16344 9 0 16.1634 0 25V26C0 34.8366 7.16344 42 16 42V32C12.6863 32 10 29.3137 10 26V25C10 21.6863 12.6863 19 16 19V9Z" fill="black" mask="url(#path-8-inside-4_161_8461)"/>
<path d="M80.5 0.5H119.5V63.5H80.5V0.5Z" fill="#D9D9D9" stroke="#BE9999"/>
<mask id="path-11-inside-5_161_8461" fill="white">
<path d="M98 40C98 35.5817 101.582 32 106 32V32V51H98V40Z"/>
</mask>
<path d="M93 40C93 32.8203 98.8203 27 106 27V37C104.343 37 103 38.3431 103 40H93ZM106 51H98H106ZM93 51V40C93 32.8203 98.8203 27 106 27V37C104.343 37 103 38.3431 103 40V51H93ZM106 32V51V32Z" fill="black" mask="url(#path-11-inside-5_161_8461)"/>
<mask id="path-13-inside-6_161_8461" fill="white">
<path d="M115 27.7692C115 32.8672 110.867 37 105.769 37V37V25H115V27.7692Z"/>
</mask>
<path d="M120 27.7692C120 35.6287 113.629 42 105.769 42V32C108.106 32 110 30.1058 110 27.7692H120ZM105.769 25H115H105.769ZM120 25V27.7692C120 35.6287 113.629 42 105.769 42V32C108.106 32 110 30.1058 110 27.7692V25H120ZM105.769 37V25V37Z" fill="black" mask="url(#path-13-inside-6_161_8461)"/>
<mask id="path-15-inside-7_161_8461" fill="white">
<path d="M96 14H104C110.075 14 115 18.9249 115 25V25H96V14Z"/>
</mask>
<path d="M96 9H104C112.837 9 120 16.1634 120 25H110C110 21.6863 107.314 19 104 19H96V9ZM115 25H96H115ZM96 25V14V25ZM104 9C112.837 9 120 16.1634 120 25H110C110 21.6863 107.314 19 104 19V9Z" fill="black" mask="url(#path-15-inside-7_161_8461)"/>
<mask id="path-17-inside-8_161_8461" fill="white">
<path d="M96 14V14C89.9249 14 85 18.9249 85 25V26C85 32.0751 89.9249 37 96 37V37V14Z"/>
</mask>
<path d="M96 9C87.1634 9 80 16.1634 80 25H90C90 21.6863 92.6863 19 96 19V9ZM80 26C80 34.8366 87.1634 42 96 42V32C92.6863 32 90 29.3137 90 26H80ZM96 37V14V37ZM96 9C87.1634 9 80 16.1634 80 25V26C80 34.8366 87.1634 42 96 42V32C92.6863 32 90 29.3137 90 26V25C90 21.6863 92.6863 19 96 19V9Z" fill="black" mask="url(#path-17-inside-8_161_8461)"/>
<rect x="82" y="23" width="36" height="5" fill="black"/>
<path d="M160.5 0.5H199.5V63.5H160.5V0.5Z" fill="#D9D9D9" stroke="#BE9999"/>
<mask id="path-21-inside-9_161_8461" fill="white">
<path d="M178 40C178 35.5817 181.582 32 186 32V32V51H178V40Z"/>
</mask>
<path d="M173 40C173 32.8203 178.82 27 186 27V37C184.343 37 183 38.3431 183 40H173ZM186 51H178H186ZM173 51V40C173 32.8203 178.82 27 186 27V37C184.343 37 183 38.3431 183 40V51H173ZM186 32V51V32Z" fill="black" mask="url(#path-21-inside-9_161_8461)"/>
<mask id="path-23-inside-10_161_8461" fill="white">
<path d="M195 27.7692C195 32.8672 190.867 37 185.769 37V37V25H195V27.7692Z"/>
</mask>
<path d="M200 27.7692C200 35.6287 193.629 42 185.769 42V32C188.106 32 190 30.1058 190 27.7692H200ZM185.769 25H195H185.769ZM200 25V27.7692C200 35.6287 193.629 42 185.769 42V32C188.106 32 190 30.1058 190 27.7692V25H200ZM185.769 37V25V37Z" fill="black" mask="url(#path-23-inside-10_161_8461)"/>
<mask id="path-25-inside-11_161_8461" fill="white">
<path d="M176 14H184C190.075 14 195 18.9249 195 25V25H176V14Z"/>
</mask>
<path d="M176 9H184C192.837 9 200 16.1634 200 25H190C190 21.6863 187.314 19 184 19H176V9ZM195 25H176H195ZM176 25V14V25ZM184 9C192.837 9 200 16.1634 200 25H190C190 21.6863 187.314 19 184 19V9Z" fill="black" mask="url(#path-25-inside-11_161_8461)"/>
<mask id="path-27-inside-12_161_8461" fill="white">
<path d="M176 14V14C169.925 14 165 18.9249 165 25V26C165 32.0751 169.925 37 176 37V37V14Z"/>
</mask>
<path d="M176 9C167.163 9 160 16.1634 160 25H170C170 21.6863 172.686 19 176 19V9ZM160 26C160 34.8366 167.163 42 176 42V32C172.686 32 170 29.3137 170 26H160ZM176 37V14V37ZM176 9C167.163 9 160 16.1634 160 25V26C160 34.8366 167.163 42 176 42V32C172.686 32 170 29.3137 170 26V25C170 21.6863 172.686 19 176 19V9Z" fill="black" mask="url(#path-27-inside-12_161_8461)"/>
<circle cx="180" cy="56" r="4" fill="black"/>
<path d="M240.5 0.5H279.5V63.5H240.5V0.5Z" fill="#D9D9D9" stroke="#BE9999"/>
<mask id="path-31-inside-13_161_8461" fill="white">
<path d="M258 40C258 35.5817 261.582 32 266 32V32V51H258V40Z"/>
</mask>
<path d="M253 40C253 32.8203 258.82 27 266 27V37C264.343 37 263 38.3431 263 40H253ZM266 51H258H266ZM253 51V40C253 32.8203 258.82 27 266 27V37C264.343 37 263 38.3431 263 40V51H253ZM266 32V51V32Z" fill="black" mask="url(#path-31-inside-13_161_8461)"/>
<mask id="path-33-inside-14_161_8461" fill="white">
<path d="M275 27.7692C275 32.8672 270.867 37 265.769 37V37V25H275V27.7692Z"/>
</mask>
<path d="M280 27.7692C280 35.6287 273.629 42 265.769 42V32C268.106 32 270 30.1058 270 27.7692H280ZM265.769 25H275H265.769ZM280 25V27.7692C280 35.6287 273.629 42 265.769 42V32C268.106 32 270 30.1058 270 27.7692V25H280ZM265.769 37V25V37Z" fill="black" mask="url(#path-33-inside-14_161_8461)"/>
<mask id="path-35-inside-15_161_8461" fill="white">
<path d="M256 14H264C270.075 14 275 18.9249 275 25V25H256V14Z"/>
</mask>
<path d="M256 9H264C272.837 9 280 16.1634 280 25H270C270 21.6863 267.314 19 264 19H256V9ZM275 25H256H275ZM256 25V14V25ZM264 9C272.837 9 280 16.1634 280 25H270C270 21.6863 267.314 19 264 19V9Z" fill="black" mask="url(#path-35-inside-15_161_8461)"/>
<mask id="path-37-inside-16_161_8461" fill="white">
<path d="M256 14V14C249.925 14 245 18.9249 245 25V26C245 32.0751 249.925 37 256 37V37V14Z"/>
</mask>
<path d="M256 9C247.163 9 240 16.1634 240 25H250C250 21.6863 252.686 19 256 19V9ZM240 26C240 34.8366 247.163 42 256 42V32C252.686 32 250 29.3137 250 26H240ZM256 37V14V37ZM256 9C247.163 9 240 16.1634 240 25V26C240 34.8366 247.163 42 256 42V32C252.686 32 250 29.3137 250 26V25C250 21.6863 252.686 19 256 19V9Z" fill="black" mask="url(#path-37-inside-16_161_8461)"/>
<rect width="5" height="33" transform="matrix(1 0 0 -1 280 51)" fill="black"/>
<mask id="path-40-inside-17_161_8461" fill="white">
<path d="M285 18L266 18V10.5C266 8.01472 268.015 6 270.5 6L280.5 6C282.985 6 285 8.01472 285 10.5V18Z"/>
</mask>
<path d="M285 18L266 18L285 18ZM261 10.5C261 5.25329 265.253 1 270.5 1H280.5C285.747 1 290 5.25329 290 10.5L280 11L271 11L261 10.5ZM280.5 1C285.747 1 290 5.25329 290 10.5V18H280V11L280.5 1ZM261 18V10.5C261 5.25329 265.253 1 270.5 1L271 11V18L261 18Z" fill="black" mask="url(#path-40-inside-17_161_8461)"/>
<path d="M320.5 0.5H359.5V63.5H320.5V0.5Z" fill="#D9D9D9" stroke="#BE9999"/>
<mask id="path-43-inside-18_161_8461" fill="white">
<path d="M338 40C338 35.5817 341.582 32 346 32V32V51H338V40Z"/>
</mask>
<path d="M333 40C333 32.8203 338.82 27 346 27V37C344.343 37 343 38.3431 343 40H333ZM346 51H338H346ZM333 51V40C333 32.8203 338.82 27 346 27V37C344.343 37 343 38.3431 343 40V51H333ZM346 32V51V32Z" fill="black" mask="url(#path-43-inside-18_161_8461)"/>
<mask id="path-45-inside-19_161_8461" fill="white">
<path d="M355 27.7692C355 32.8672 350.867 37 345.769 37V37V25H355V27.7692Z"/>
</mask>
<path d="M360 27.7692C360 35.6287 353.629 42 345.769 42V32C348.106 32 350 30.1058 350 27.7692H360ZM345.769 25H355H345.769ZM360 25V27.7692C360 35.6287 353.629 42 345.769 42V32C348.106 32 350 30.1058 350 27.7692V25H360ZM345.769 37V25V37Z" fill="black" mask="url(#path-45-inside-19_161_8461)"/>
<mask id="path-47-inside-20_161_8461" fill="white">
<path d="M336 14H344C350.075 14 355 18.9249 355 25V25H336V14Z"/>
</mask>
<path d="M336 9H344C352.837 9 360 16.1634 360 25H350C350 21.6863 347.314 19 344 19H336V9ZM355 25H336H355ZM336 25V14V25ZM344 9C352.837 9 360 16.1634 360 25H350C350 21.6863 347.314 19 344 19V9Z" fill="black" mask="url(#path-47-inside-20_161_8461)"/>
<mask id="path-49-inside-21_161_8461" fill="white">
<path d="M336 14V14C329.925 14 325 18.9249 325 25V26C325 32.0751 329.925 37 336 37V37V14Z"/>
</mask>
<path d="M336 9C327.163 9 320 16.1634 320 25H330C330 21.6863 332.686 19 336 19V9ZM320 26C320 34.8366 327.163 42 336 42V32C332.686 32 330 29.3137 330 26H320ZM336 37V14V37ZM336 9C327.163 9 320 16.1634 320 25V26C320 34.8366 327.163 42 336 42V32C332.686 32 330 29.3137 330 26V25C330 21.6863 332.686 19 336 19V9Z" fill="black" mask="url(#path-49-inside-21_161_8461)"/>
<path d="M348 59C348 58.0807 347.819 57.1705 347.467 56.3212C347.115 55.4719 346.6 54.7003 345.95 54.0503C345.3 53.4002 344.528 52.8846 343.679 52.5328C342.83 52.1811 341.919 52 341 52C340.081 52 339.17 52.1811 338.321 52.5328C337.472 52.8846 336.7 53.4002 336.05 54.0503C335.4 54.7003 334.885 55.4719 334.533 56.3212C334.181 57.1705 334 58.0807 334 59L337.954 59C337.954 58.6 338.033 58.2039 338.186 57.8344C338.339 57.4648 338.563 57.129 338.846 56.8462C339.129 56.5633 339.465 56.339 339.834 56.1859C340.204 56.0328 340.6 55.954 341 55.954C341.4 55.954 341.796 56.0328 342.166 56.1859C342.535 56.339 342.871 56.5633 343.154 56.8462C343.437 57.129 343.661 57.4648 343.814 57.8344C343.967 58.2039 344.046 58.6 344.046 59H348Z" fill="black"/>
</svg>
