<svg width="40" height="64" viewBox="0 0 40 64" fill="none" xmlns="http://www.w3.org/2000/svg">
<path opacity="0.3" d="M0.5 0.5H39.5V63.5H0.5V0.5Z" fill="#D9D9D9" stroke="#BE9999"/>
<path d="M16 14C9.92487 14 5 18.9249 5 25V26C5 32.0751 9.92487 37 16 37V32C12.6863 32 10 29.3137 10 26V25C10 21.6863 12.6863 19 16 19H24C27.3137 19 30 21.6863 30 25L30 27.7692C30 30.1058 28.1058 32 25.7692 32V32.0033C21.4577 32.1254 18 35.6589 18 40V51H23V40C23 38.3431 24.3431 37 26 37V36.9972C30.9914 36.8747 35 32.7901 35 27.7692L35 25C35 18.9249 30.0751 14 24 14H16Z" fill="black"/>
<path d="M28 59C28 58.0807 27.8189 57.1705 27.4672 56.3212C27.1154 55.4719 26.5998 54.7003 25.9497 54.0503C25.2997 53.4002 24.5281 52.8846 23.6788 52.5328C22.8295 52.1811 21.9193 52 21 52C20.0807 52 19.1705 52.1811 18.3212 52.5328C17.4719 52.8846 16.7003 53.4002 16.0503 54.0503C15.4002 54.7003 14.8846 55.4719 14.5328 56.3212C14.1811 57.1705 14 58.0807 14 59H17.954C17.954 58.6 18.0328 58.2039 18.1859 57.8344C18.339 57.4648 18.5633 57.129 18.8462 56.8462C19.129 56.5633 19.4648 56.339 19.8344 56.1859C20.2039 56.0328 20.6 55.954 21 55.954C21.4 55.954 21.7961 56.0328 22.1656 56.1859C22.5352 56.339 22.871 56.5633 23.1538 56.8462C23.4367 57.129 23.661 57.4648 23.8141 57.8344C23.9672 58.2039 24.046 58.6 24.046 59H28Z" fill="black"/>
</svg>
