<svg width="40" height="64" viewBox="0 0 40 64" fill="none" xmlns="http://www.w3.org/2000/svg">
<path opacity="0.3" d="M0.5 0.5H39.5V63.5H0.5V0.5Z" fill="#D9D9D9" stroke="#BE9999"/>
<path fill-rule="evenodd" clip-rule="evenodd" d="M5.18138 23C6.12189 17.8798 10.6079 14 16 14H24C29.3921 14 33.8781 17.8798 34.8186 23H38V28H34.9972C34.8766 32.9147 30.9147 36.8766 26 36.9972V37C24.3431 37 23 38.3431 23 40V51H18V40C18 35.6589 21.4577 32.1254 25.7692 32.0033V32C28.0284 32 29.874 30.2293 29.9938 28H10.3414C11.1651 30.3304 13.3876 32 16 32V37C10.6079 37 6.12189 33.1202 5.18138 28H2V23H5.18138ZM10.3414 23H29.6586C28.8349 20.6696 26.6124 19 24 19H16C13.3876 19 11.1651 20.6696 10.3414 23Z" fill="black"/>
</svg>
