<svg width="40" height="64" viewBox="0 0 40 64" fill="none" xmlns="http://www.w3.org/2000/svg">
<path opacity="0.3" d="M0.5 0.5H39.5V63.5H0.5V0.5Z" fill="#D9D9D9" stroke="#BE9999"/>
<circle cx="20" cy="56" r="4" fill="black"/>
<path d="M16 14C9.92487 14 5 18.9249 5 25V26C5 32.0751 9.92487 37 16 37V32C12.6863 32 10 29.3137 10 26V25C10 21.6863 12.6863 19 16 19H24C27.3137 19 30 21.6863 30 25L30 27.7692C30 30.1058 28.1058 32 25.7692 32V32.0033C21.4577 32.1254 18 35.6589 18 40V51H23V40C23 38.3431 24.3431 37 26 37V36.9972C30.9914 36.8747 35 32.7901 35 27.7692L35 25C35 18.9249 30.0751 14 24 14H16Z" fill="black"/>
</svg>
