<svg width="45" height="64" viewBox="0 0 45 64" fill="none" xmlns="http://www.w3.org/2000/svg">
<path opacity="0.3" d="M0.5 0.5H39.5V63.5H0.5V0.5Z" fill="#D9D9D9" stroke="#BE9999"/>
<path d="M26 14.1814V10.5C26 8.01472 28.0147 6 30.5 6H40.5C42.9853 6 45 8.01472 45 10.5V51H40V11H31V16.5143C33.443 18.5319 35 21.5841 35 25L35 27.7692C35 32.7901 30.9914 36.8747 26 36.9972V37C24.3431 37 23 38.3431 23 40V51H18V40C18 35.6589 21.4577 32.1254 25.7692 32.0033V32C28.1058 32 30 30.1058 30 27.7692L30 25C30 21.6863 27.3137 19 24 19H16C12.6863 19 10 21.6863 10 25V26C10 29.3137 12.6863 32 16 32V37C9.92487 37 5 32.0751 5 26V25C5 18.9249 9.92487 14 16 14H24C24.683 14 25.3514 14.0622 26 14.1814Z" fill="black"/>
</svg>
