<svg width="360" height="66" viewBox="0 0 360 66" fill="none" xmlns="http://www.w3.org/2000/svg">
<path d="M0.5 0.5H39.5V63.5H0.5V0.5Z" fill="#D9D9D9" stroke="#BE9999"/>
<rect x="8" y="18" width="24" height="5" fill="black"/>
<rect x="4" y="37" width="32" height="5" fill="black"/>
<rect x="18" y="14" width="5" height="4" fill="black"/>
<mask id="path-5-inside-1_161_8377" fill="white">
<path d="M7 23H18V40C18 46.0751 13.0751 51 7 51V51V23Z"/>
</mask>
<path d="M7 23H18H7ZM23 40C23 48.8366 15.8366 56 7 56V46C10.3137 46 13 43.3137 13 40H23ZM7 51V23V51ZM23 23V40C23 48.8366 15.8366 56 7 56V46C10.3137 46 13 43.3137 13 40V23H23Z" fill="black" mask="url(#path-5-inside-1_161_8377)"/>
<mask id="path-7-inside-2_161_8377" fill="white">
<path d="M34 23H22V39C22 45.6274 27.3726 51 34 51V51V23Z"/>
</mask>
<path d="M34 23H22H34ZM17 39C17 48.3888 24.6112 56 34 56V46C30.134 46 27 42.866 27 39H17ZM34 51V23V51ZM17 23V39C17 48.3888 24.6112 56 34 56V46C30.134 46 27 42.866 27 39V23H17Z" fill="black" mask="url(#path-7-inside-2_161_8377)"/>
<path d="M80.5 0.5H119.5V63.5H80.5V0.5Z" fill="#D9D9D9" stroke="#BE9999"/>
<rect x="88" y="18" width="24" height="5" fill="black"/>
<rect x="84" y="37" width="32" height="5" fill="black"/>
<rect x="98" y="14" width="5" height="4" fill="black"/>
<mask id="path-13-inside-3_161_8377" fill="white">
<path d="M87 23H98V40C98 46.0751 93.0751 51 87 51V51V23Z"/>
</mask>
<path d="M87 23H98H87ZM103 40C103 48.8366 95.8366 56 87 56V46C90.3137 46 93 43.3137 93 40H103ZM87 51V23V51ZM103 23V40C103 48.8366 95.8366 56 87 56V46C90.3137 46 93 43.3137 93 40V23H103Z" fill="black" mask="url(#path-13-inside-3_161_8377)"/>
<mask id="path-15-inside-4_161_8377" fill="white">
<path d="M114 23H102V39C102 45.6274 107.373 51 114 51V51V23Z"/>
</mask>
<path d="M114 23H102H114ZM97 39C97 48.3888 104.611 56 114 56V46C110.134 46 107 42.866 107 39H97ZM114 51V23V51ZM97 23V39C97 48.3888 104.611 56 114 56V46C110.134 46 107 42.866 107 39V23H97Z" fill="black" mask="url(#path-15-inside-4_161_8377)"/>
<rect x="88" y="53" width="24" height="5" fill="black"/>
<path d="M160.5 0.5H199.5V63.5H160.5V0.5Z" fill="#D9D9D9" stroke="#BE9999"/>
<rect x="168" y="18" width="24" height="5" fill="black"/>
<rect x="164" y="37" width="32" height="5" fill="black"/>
<rect x="178" y="14" width="5" height="4" fill="black"/>
<mask id="path-22-inside-5_161_8377" fill="white">
<path d="M167 23H178V40C178 46.0751 173.075 51 167 51V51V23Z"/>
</mask>
<path d="M167 23H178H167ZM183 40C183 48.8366 175.837 56 167 56V46C170.314 46 173 43.3137 173 40H183ZM167 51V23V51ZM183 23V40C183 48.8366 175.837 56 167 56V46C170.314 46 173 43.3137 173 40V23H183Z" fill="black" mask="url(#path-22-inside-5_161_8377)"/>
<mask id="path-24-inside-6_161_8377" fill="white">
<path d="M194 23H182V39C182 45.6274 187.373 51 194 51V51V23Z"/>
</mask>
<path d="M194 23H182H194ZM177 39C177 48.3888 184.611 56 194 56V46C190.134 46 187 42.866 187 39H177ZM194 51V23V51ZM177 23V39C177 48.3888 184.611 56 194 56V46C190.134 46 187 42.866 187 39V23H177Z" fill="black" mask="url(#path-24-inside-6_161_8377)"/>
<circle cx="180" cy="56" r="4" fill="black"/>
<path d="M240.5 0.5H279.5V63.5H240.5V0.5Z" fill="#D9D9D9" stroke="#BE9999"/>
<rect width="5" height="34" transform="matrix(1 0 0 -1 278 51)" fill="black"/>
<mask id="path-29-inside-7_161_8377" fill="white">
<path d="M283 18L265 18V10.5C265 8.01472 267.015 6 269.5 6L278.5 6C280.985 6 283 8.01472 283 10.5V18Z"/>
</mask>
<path d="M283 18L265 18L283 18ZM260 10.5C260 5.25329 264.253 1 269.5 1H278.5C283.747 1 288 5.25329 288 10.5L278 11L270 11L260 10.5ZM278.5 1C283.747 1 288 5.25329 288 10.5V18H278V11L278.5 1ZM260 18V10.5C260 5.25329 264.253 1 269.5 1L270 11V18L260 18Z" fill="black" mask="url(#path-29-inside-7_161_8377)"/>
<rect x="248" y="18" width="24" height="5" fill="black"/>
<rect x="244" y="37" width="32" height="5" fill="black"/>
<rect x="258" y="14" width="5" height="4" fill="black"/>
<mask id="path-34-inside-8_161_8377" fill="white">
<path d="M247 23H258V40C258 46.0751 253.075 51 247 51V51V23Z"/>
</mask>
<path d="M247 23H258H247ZM263 40C263 48.8366 255.837 56 247 56V46C250.314 46 253 43.3137 253 40H263ZM247 51V23V51ZM263 23V40C263 48.8366 255.837 56 247 56V46C250.314 46 253 43.3137 253 40V23H263Z" fill="black" mask="url(#path-34-inside-8_161_8377)"/>
<mask id="path-36-inside-9_161_8377" fill="white">
<path d="M274 23H262V39C262 45.6274 267.373 51 274 51V51V23Z"/>
</mask>
<path d="M274 23H262H274ZM257 39C257 48.3888 264.611 56 274 56V46C270.134 46 267 42.866 267 39H257ZM274 51V23V51ZM257 23V39C257 48.3888 264.611 56 274 56V46C270.134 46 267 42.866 267 39V23H257Z" fill="black" mask="url(#path-36-inside-9_161_8377)"/>
<path d="M320.5 0.5H359.5V63.5H320.5V0.5Z" fill="#D9D9D9" stroke="#BE9999"/>
<rect x="328" y="18" width="24" height="5" fill="black"/>
<rect x="324" y="37" width="32" height="5" fill="black"/>
<rect x="338" y="14" width="5" height="4" fill="black"/>
<mask id="path-42-inside-10_161_8377" fill="white">
<path d="M327 23H338V40C338 46.0751 333.075 51 327 51V51V23Z"/>
</mask>
<path d="M327 23H338H327ZM343 40C343 48.8366 335.837 56 327 56V46C330.314 46 333 43.3137 333 40H343ZM327 51V23V51ZM343 23V40C343 48.8366 335.837 56 327 56V46C330.314 46 333 43.3137 333 40V23H343Z" fill="black" mask="url(#path-42-inside-10_161_8377)"/>
<mask id="path-44-inside-11_161_8377" fill="white">
<path d="M354 23H342V39C342 45.6274 347.373 51 354 51V51V23Z"/>
</mask>
<path d="M354 23H342H354ZM337 39C337 48.3888 344.611 56 354 56V46C350.134 46 347 42.866 347 39H337ZM354 51V23V51ZM337 23V39C337 48.3888 344.611 56 354 56V46C350.134 46 347 42.866 347 39V23H337Z" fill="black" mask="url(#path-44-inside-11_161_8377)"/>
<path d="M348 59C348 58.0807 347.819 57.1705 347.467 56.3212C347.115 55.4719 346.6 54.7003 345.95 54.0503C345.3 53.4002 344.528 52.8846 343.679 52.5328C342.83 52.1811 341.919 52 341 52C340.081 52 339.17 52.1811 338.321 52.5328C337.472 52.8846 336.7 53.4002 336.05 54.0503C335.4 54.7003 334.885 55.4719 334.533 56.3212C334.181 57.1705 334 58.0807 334 59L337.954 59C337.954 58.6 338.033 58.2039 338.186 57.8344C338.339 57.4648 338.563 57.129 338.846 56.8462C339.129 56.5633 339.465 56.339 339.834 56.1859C340.204 56.0328 340.6 55.954 341 55.954C341.4 55.954 341.796 56.0328 342.166 56.1859C342.535 56.339 342.871 56.5633 343.154 56.8462C343.437 57.129 343.661 57.4648 343.814 57.8344C343.967 58.2039 344.046 58.6 344.046 59H348Z" fill="black"/>
</svg>
