<svg width="43" height="64" viewBox="0 0 43 64" fill="none" xmlns="http://www.w3.org/2000/svg">
<path d="M0.5 0.5H39.5V63.5H0.5V0.5Z" fill="#D9D9D9" stroke="#BE9999"/>
<path fill-rule="evenodd" clip-rule="evenodd" d="M25 10.5V18H23V14H18V18H8V23H13V37H4V42H12.6586C11.8349 44.3304 9.61244 46 7 46V51C12.3921 51 16.8781 47.1202 17.8186 42H22.3781C23.7102 47.1757 28.4085 51 34 51V46C31.2076 46 28.7971 44.3649 27.6736 42H36V37H27V23H32V18H30V11H38V51H43V10.5C43 8.01472 40.9853 6 38.5 6H29.5C27.0147 6 25 8.01472 25 10.5ZM18 23H22V37H18V23Z" fill="black"/>
</svg>
