<svg width="43" height="64" viewBox="0 0 43 64" fill="none" xmlns="http://www.w3.org/2000/svg">
<rect x="0.5" y="0.5" width="42" height="63" fill="#D9D9D9" stroke="#BE9999"/>
<path d="M34.7876 16.1811L42.8211 7H35.75L29.6241 14.001C29.5828 14.0003 29.5415 14 29.5 14H22C17.5817 14 14 17.5817 14 22C14 23.1046 13.1046 24 12 24H9.5C8.11929 24 7 22.8807 7 21.5C7 20.1193 8.11929 19 9.5 19H10V14H9.5C5.35786 14 2 17.3579 2 21.5C2 25.6421 5.35786 29 9.5 29H12C15.866 29 19 25.866 19 22C19 20.3431 20.3431 19 22 19H29.5C30.8807 19 32 20.1193 32 21.5C32 22.8807 30.8807 24 29.5 24H23C20.2386 24 18 26.2386 18 29V51H23V29H29.5C33.6421 29 37 25.6421 37 21.5C37 19.421 36.1541 17.5395 34.7876 16.1811Z" fill="#020000"/>
</svg>
