<svg width="43" height="64" viewBox="0 0 43 64" fill="none" xmlns="http://www.w3.org/2000/svg">
<rect x="0.5" y="0.5" width="42" height="63" fill="#D9D9D9" stroke="#BE9999"/>
<path d="M28 59C28 58.0807 27.8189 57.1705 27.4672 56.3212C27.1154 55.4719 26.5998 54.7003 25.9497 54.0503C25.2997 53.4002 24.5281 52.8846 23.6788 52.5328C22.8295 52.1811 21.9193 52 21 52C20.0807 52 19.1705 52.1811 18.3212 52.5328C17.4719 52.8846 16.7003 53.4002 16.0503 54.0503C15.4002 54.7003 14.8846 55.4719 14.5328 56.3212C14.1811 57.1705 14 58.0807 14 59H17.954C17.954 58.6 18.0328 58.2039 18.1859 57.8344C18.339 57.4648 18.5633 57.129 18.8462 56.8462C19.129 56.5633 19.4648 56.339 19.8344 56.1859C20.2039 56.0328 20.6 55.954 21 55.954C21.4 55.954 21.7961 56.0328 22.1656 56.1859C22.5352 56.339 22.871 56.5633 23.1538 56.8462C23.4367 57.129 23.661 57.4648 23.8141 57.8344C23.9672 58.2039 24.046 58.6 24.046 59H28Z" fill="black"/>
<path d="M34.7876 16.1811L42.8211 7H35.75L29.6241 14.001C29.5828 14.0003 29.5415 14 29.5 14H22C17.5817 14 14 17.5817 14 22C14 23.1046 13.1046 24 12 24H9.5C8.11929 24 7 22.8807 7 21.5C7 20.1193 8.11929 19 9.5 19H10V14H9.5C5.35786 14 2 17.3579 2 21.5C2 25.6421 5.35786 29 9.5 29H12C15.866 29 19 25.866 19 22C19 20.3431 20.3431 19 22 19H29.5C30.8807 19 32 20.1193 32 21.5C32 22.8807 30.8807 24 29.5 24H23C20.2386 24 18 26.2386 18 29V51H23V29H29.5C33.6421 29 37 25.6421 37 21.5C37 19.421 36.1541 17.5395 34.7876 16.1811Z" fill="#020000"/>
</svg>
