<svg width="48" height="64" viewBox="0 0 48 64" fill="none" xmlns="http://www.w3.org/2000/svg">
<rect x="0.5" y="0.5" width="47" height="63" fill="#D9D9D9" stroke="#BE9999"/>
<path d="M41.0517 7.73643L47.8211 0H40.75L35.5 6H27.5C25.0147 6 23 8.01472 23 10.5V14H21C16.5817 14 13 17.5817 13 22C13 23.1046 12.1046 24 11 24H8.5C7.11929 24 6 22.8807 6 21.5C6 20.1193 7.11929 19 8.5 19H9V14H8.5C4.35786 14 1 17.3579 1 21.5C1 25.6421 4.35786 29 8.5 29H11C14.866 29 18 25.866 18 22C18 20.3431 19.3431 19 21 19H28.5C29.8807 19 31 20.1193 31 21.5C31 22.8807 29.8807 24 28.5 24H22C19.2386 24 17 26.2386 17 29V51H22V29H28.5C32.6421 29 36 25.6421 36 21.5C36 17.3579 32.6421 14 28.5 14H28V11H37V51H42V10.5C42 9.45821 41.646 8.49911 41.0517 7.73643Z" fill="black"/>
</svg>
