<svg width="40" height="64" viewBox="0 0 40 64" fill="none" xmlns="http://www.w3.org/2000/svg">
<rect x="0.5" y="0.5" width="39" height="63" fill="#D9D9D9" stroke="#BE9999"/>
<path d="M27 58C27 57.0807 26.8189 56.1705 26.4672 55.3212C26.1154 54.4719 25.5998 53.7003 24.9497 53.0503C24.2997 52.4002 23.5281 51.8846 22.6788 51.5328C21.8295 51.1811 20.9193 51 20 51C19.0807 51 18.1705 51.1811 17.3212 51.5328C16.4719 51.8846 15.7003 52.4002 15.0503 53.0503C14.4002 53.7003 13.8846 54.4719 13.5328 55.3212C13.1811 56.1705 13 57.0807 13 58H16.954C16.954 57.6 17.0328 57.2039 17.1859 56.8344C17.339 56.4648 17.5633 56.129 17.8462 55.8462C18.129 55.5633 18.4648 55.339 18.8344 55.1859C19.2039 55.0328 19.6 54.954 20 54.954C20.4 54.954 20.7961 55.0328 21.1656 55.1859C21.5352 55.339 21.871 55.5633 22.1538 55.8462C22.4367 56.129 22.661 56.4648 22.8141 56.8344C22.9672 57.2039 23.046 57.6 23.046 58H27Z" fill="black"/>
<path d="M18 33V41C18 46.5228 13.5228 51 8 51V46C10.7614 46 13 43.7614 13 41V14H18V28H31V51H26V33H18Z" fill="black"/>
</svg>
