<svg width="40" height="64" viewBox="0 0 40 64" fill="none" xmlns="http://www.w3.org/2000/svg">
<rect x="0.5" y="0.5" width="39" height="63" fill="#D9D9D9" stroke="#BE9999"/>
<path fill-rule="evenodd" clip-rule="evenodd" d="M16.101 46C16.084 46.0167 16.0671 46.0334 16.0503 46.0503C15.4002 46.7003 14.8846 47.4719 14.5328 48.3212C14.1811 49.1705 14 50.0807 14 51H17.954C17.954 50.6 18.0328 50.2039 18.1859 49.8344C18.339 49.4648 18.5633 49.129 18.8462 48.8462C19.129 48.5633 19.4648 48.339 19.8344 48.1859C20.2039 48.0328 20.6 47.954 21 47.954C21.4 47.954 21.7961 48.0328 22.1656 48.1859C22.5352 48.339 22.871 48.5633 23.1538 48.8462C23.4367 49.129 23.661 49.4648 23.8141 49.8344C23.9672 50.2039 24.046 50.6 24.046 51H28C28 50.0807 27.8189 49.1705 27.4672 48.3212C27.1154 47.4719 26.5998 46.7003 25.9497 46.0503C25.9329 46.0334 25.916 46.0167 25.899 46C25.2597 45.3736 24.5061 44.8755 23.6788 44.5328C22.8295 44.1811 21.9193 44 21 44C20.0807 44 19.1705 44.1811 18.3212 44.5328C17.4939 44.8755 16.7403 45.3736 16.101 46Z" fill="black"/>
<path fill-rule="evenodd" clip-rule="evenodd" d="M29.2548 19L3 51H9.63848L21.099 37.0336L32.5714 51H39.0372L24.3313 33.0946L36.6472 18.0859C37.9862 16.4542 36.8253 14 34.7146 14H9C5.68629 14 3 16.6863 3 20V24C3 27.3137 5.68629 30 9 30H13C16.3137 30 19 27.3137 19 24V19H29.2548ZM9 19H14V24C14 24.5523 13.5523 25 13 25H9C8.44772 25 8 24.5523 8 24V20C8 19.4477 8.44772 19 9 19Z" fill="black"/>
<path d="M3 15H3.03716V15.0452L3 15Z" fill="black"/>
</svg>
