<svg width="42" height="64" viewBox="0 0 42 64" fill="none" xmlns="http://www.w3.org/2000/svg">
<rect x="0.5" y="0.5" width="41" height="63" fill="#D9D9D9" stroke="#BE9999"/>
<path fill-rule="evenodd" clip-rule="evenodd" d="M21 10.5V14H6C2.68629 14 0 16.6863 0 20V24C0 27.3137 2.68629 30 6 30H10C13.3137 30 16 27.3137 16 24V19H26.2548L0 51H6.63848L18.099 37.0336L29.5714 51H36.0372L21.3313 33.0946L33.6472 18.0859C34.9862 16.4542 33.8253 14 31.7146 14H26V11H37V51H42V10.5C42 8.01472 39.9853 6 37.5 6H25.5C23.0147 6 21 8.01472 21 10.5ZM11 19H6C5.44772 19 5 19.4477 5 20V24C5 24.5523 5.44772 25 6 25H10C10.5523 25 11 24.5523 11 24V19Z" fill="black"/>
<path d="M0.0371552 15H0L0.0371552 15.0452V15Z" fill="black"/>
</svg>
