<svg width="40" height="64" viewBox="0 0 40 64" fill="none" xmlns="http://www.w3.org/2000/svg">
<rect x="0.5" y="0.5" width="39" height="63" fill="#D9D9D9" stroke="#BE9999"/>
<path fill-rule="evenodd" clip-rule="evenodd" d="M24 14.2V11H35V51H40V10.5C40 8.01472 37.9853 6 35.5 6H23.5C21.0147 6 19 8.01472 19 10.5V14H10C4.47715 14 0 18.4772 0 24V37C0 44.732 6.26801 51 14 51H18C25.732 51 32 44.732 32 37V36C32 33.2386 29.7614 31 27 31H5V24C5 21.2386 7.23857 19 10 19H22C24.7614 19 27 21.2386 27 24V25H32V24C32 19.1621 28.5645 15.1266 24 14.2ZM18 46H14C9.02944 46 5 41.9706 5 37V36H27V37C27 41.9706 22.9706 46 18 46Z" fill="black"/>
</svg>
