<svg width="51" height="64" viewBox="0 0 51 64" fill="none" xmlns="http://www.w3.org/2000/svg">
<rect x="0.5" y="0.5" width="39" height="63" fill="#D9D9D9" stroke="#BE9999"/>
<rect x="16" y="46" width="11" height="5" fill="black"/>
<path fill-rule="evenodd" clip-rule="evenodd" d="M42.0711 17L50.8211 6.99997H43.75L37.4585 14.1903C37.1633 14.0677 36.8396 14 36.5 14H34L21.7542 28.5939L9.50849 14H9V21.1726L18.4907 32.4832L9 43.7938V50.9664H9.50849L21.7542 36.3725L34 50.9664V51H36.5C37.8807 51 39 49.8807 39 48.5V17H42.0711ZM34 43.1878L25.0178 32.4832L34 21.7786V43.1878Z" fill="black"/>
<path d="M1 14H6V51H1V14Z" fill="black"/>
</svg>
