<svg width="53" height="64" viewBox="0 0 53 64" fill="none" xmlns="http://www.w3.org/2000/svg">
<rect x="0.5" y="0.499969" width="52" height="63" fill="#D9D9D9" stroke="#BE9999"/>
<path fill-rule="evenodd" clip-rule="evenodd" d="M46.73 6.96117L52.8211 -3.05176e-05H45.75L42.25 3.99998H30.5C28.0147 3.99998 26 6.0147 26 8.49998V23.534L21.7542 28.5939L9.50849 14H9V21.1726L18.4907 32.4832L9 43.7938V50.9665H9.50849L21.7542 36.3725L34 50.9665V51H36.5C37.8807 51 39 49.8807 39 48.5V16.5C39 15.1193 37.8807 14 36.5 14H34L31 17.5753V8.99998H42V51H47V8.49998C47 7.95949 46.9047 7.44126 46.73 6.96117ZM25.0178 32.4832L34 43.1879V21.7786L25.0178 32.4832Z" fill="black"/>
<path d="M6 14H1V51H6V14Z" fill="black"/>
</svg>
