<svg width="50" height="64" viewBox="0 0 50 64" fill="none" xmlns="http://www.w3.org/2000/svg">
<rect x="0.5" y="0.5" width="49" height="63" fill="#D9D9D9" stroke="#BE9999"/>
<path fill-rule="evenodd" clip-rule="evenodd" d="M41.7995 9.16755L49.8211 0H42.75L37.5 6H25.5C23.0147 6 21 8.01472 21 10.5V14H6C2.68629 14 0 16.6863 0 20V24C0 27.3137 2.68629 30 6 30H10C13.3137 30 16 27.3137 16 24V19H26.2548L0 51H6.63848L18.099 37.0336L29.5714 51H36.0372L21.3313 33.0946L33.6472 18.0859C34.9862 16.4542 33.8253 14 31.7146 14H26V11H37V51H42V10.5C42 10.0361 41.9298 9.58861 41.7995 9.16755ZM6 19H11V24C11 24.5523 10.5523 25 10 25H6C5.44772 25 5 24.5523 5 24V20C5 19.4477 5.44772 19 6 19Z" fill="black"/>
<path d="M0 15H0.0371552V15.0452L0 15Z" fill="black"/>
</svg>
