<svg width="40" height="64" viewBox="0 0 40 64" fill="none" xmlns="http://www.w3.org/2000/svg">
<rect x="0.5" y="0.5" width="39" height="63" fill="#D9D9D9" stroke="#BE9999"/>
<path fill-rule="evenodd" clip-rule="evenodd" d="M23.7635 8.49988C23.7635 8.92845 23.6791 9.35283 23.5151 9.74878C23.3511 10.1447 23.1107 10.5045 22.8077 10.8076C22.5046 11.1106 22.1449 11.351 21.7489 11.515C21.353 11.679 20.9286 11.7634 20.5 11.7634C20.0714 11.7634 19.647 11.679 19.2511 11.515C18.8551 11.351 18.4954 11.1106 18.1923 10.8076C17.8893 10.5045 17.6489 10.1447 17.4849 9.74878C17.3209 9.35283 17.2365 8.92845 17.2365 8.49988H13C13 9.48479 13.194 10.4601 13.5709 11.37C13.8945 12.1512 14.3474 12.8711 14.9098 13.4999C15.0025 13.6035 15.0982 13.7046 15.1967 13.8032C15.8931 14.4996 16.7199 15.0521 17.6299 15.429C18.5398 15.8059 19.5151 15.9999 20.5 15.9999C21.4849 15.9999 22.4602 15.8059 23.3701 15.429C24.2801 15.0521 25.1069 14.4996 25.8033 13.8032C25.9018 13.7046 25.9975 13.6035 26.0902 13.4999C26.6526 12.8711 27.1055 12.1512 27.4291 11.37C27.806 10.4601 28 9.48479 28 8.49988H23.7635Z" fill="black"/>
</svg>
