<svg width="33" height="64" viewBox="0 0 33 64" fill="none" xmlns="http://www.w3.org/2000/svg">
<rect width="2" height="64" fill="#D9D9D9"/>
<path fill-rule="evenodd" clip-rule="evenodd" d="M28 32C28 35.866 24.866 39 21 39H16V45C16 45.5523 16.4477 46 17 46H33V51H17C13.6863 51 11 48.3137 11 45V39H3V34H11V30.5C11 25.8056 14.8056 22 19.5 22C24.1944 22 28 25.8056 28 30.5V32ZM21 34H16V30.5C16 28.567 17.567 27 19.5 27C21.433 27 23 28.567 23 30.5V32C23 33.1046 22.1046 34 21 34Z" fill="black"/>
<path d="M9 41H4V51H9V41Z" fill="black"/>
</svg>
