<svg width="29" height="64" viewBox="0 0 29 64" fill="none" xmlns="http://www.w3.org/2000/svg">
<path fill-rule="evenodd" clip-rule="evenodd" d="M12 9.5C12 4.80558 15.8056 1 20.5 1C25.1944 1 29 4.80558 29 9.5C29 14.1944 25.1944 18 20.5 18C15.8056 18 12 14.1944 12 9.5ZM20.5 13C18.567 13 17 11.433 17 9.5C17 7.567 18.567 6 20.5 6C22.433 6 24 7.567 24 9.5C24 11.433 22.433 13 20.5 13Z" fill="black"/>
<path fill-rule="evenodd" clip-rule="evenodd" d="M12 42.5C12 37.8056 15.8056 34 20.5 34C25.1944 34 29 37.8056 29 42.5C29 47.1944 25.1944 51 20.5 51C15.8056 51 12 47.1944 12 42.5ZM20.5 46C18.567 46 17 44.433 17 42.5C17 40.567 18.567 39 20.5 39C22.433 39 24 40.567 24 42.5C24 44.433 22.433 46 20.5 46Z" fill="black"/>
<rect width="2" height="64" fill="#D9D9D9"/>
</svg>
