<svg width="27" height="64" viewBox="0 0 27 64" fill="none" xmlns="http://www.w3.org/2000/svg">
<path d="M18 8C18 6.89543 18.8954 6 20 6C21.1046 6 22 6.89543 22 8C22 9.10457 21.1046 10 20 10C18.8954 10 18 9.10457 18 8Z" fill="black"/>
<path fill-rule="evenodd" clip-rule="evenodd" d="M13 8C13 4.13401 16.134 1 20 1C23.866 1 27 4.13401 27 8C27 11.866 23.866 15 20 15C16.134 15 13 11.866 13 8ZM20 12C17.7909 12 16 10.2091 16 8C16 5.79086 17.7909 4 20 4C22.2091 4 24 5.79086 24 8C24 10.2091 22.2091 12 20 12Z" fill="black"/>
<rect width="2" height="64" fill="#D9D9D9"/>
</svg>
