<svg width="40" height="72" viewBox="0 0 40 72" fill="none" xmlns="http://www.w3.org/2000/svg">
<rect width="2" height="72" fill="#D9D9D9"/>
<mask id="path-2-inside-1_216_189" fill="white">
<path d="M1 17H23V46C23 50.9706 18.9706 55 14 55H10C5.02944 55 1 50.9706 1 46V17Z"/>
</mask>
<path d="M1 17H23H1ZM28 46C28 53.732 21.732 60 14 60H10C2.26801 60 -4 53.732 -4 46H6C6 48.2091 7.79086 50 10 50H14C16.2091 50 18 48.2091 18 46H28ZM10 60C2.26801 60 -4 53.732 -4 46V17H6V46C6 48.2091 7.79086 50 10 50V60ZM28 17V46C28 53.732 21.732 60 14 60V50C16.2091 50 18 48.2091 18 46V17H28Z" fill="black" mask="url(#path-2-inside-1_216_189)"/>
<mask id="path-4-inside-2_216_189" fill="white">
<path d="M18 17H40V46C40 50.9706 35.9706 55 31 55H27C22.0294 55 18 50.9706 18 46V17Z"/>
</mask>
<path d="M18 17H40H18ZM45 46C45 53.732 38.732 60 31 60H27C19.268 60 13 53.732 13 46H23C23 48.2091 24.7909 50 27 50H31C33.2091 50 35 48.2091 35 46H45ZM27 60C19.268 60 13 53.732 13 46V17H23V46C23 48.2091 24.7909 50 27 50V60ZM45 17V46C45 53.732 38.732 60 31 60V50C33.2091 50 35 48.2091 35 46V17H45Z" fill="black" mask="url(#path-4-inside-2_216_189)"/>
<rect x="36.25" y="47.25" width="2.5" height="22.5" stroke="black" stroke-width="2.5"/>
</svg>
