<svg width="51" height="64" viewBox="0 0 51 64" fill="none" xmlns="http://www.w3.org/2000/svg">
<path fill-rule="evenodd" clip-rule="evenodd" d="M39 1C44.5228 1 49 5.47715 49 11V26C49 32.7615 46.3141 38.8944 41.9531 43.3945C44.5732 45.0447 47.6749 46 51 46V51C46.1258 51 41.623 49.4133 37.9766 46.7305C33.9867 49.4257 29.1773 51 24 51H17C10.9249 51 6 46.0751 6 40V34.5C6 28.701 10.701 24 16.5 24C22.299 24 27 28.701 27 34.5V36.3076C27 38.3468 25.3468 40 23.3076 40H11C11 43.3137 13.6863 46 17 46H24C27.7266 46 31.2142 44.979 34.2012 43.2041C30.9572 39.3713 29 34.4146 29 29V11C29 5.47715 33.4772 1 39 1ZM39 6C36.2386 6 34 8.23858 34 11V29C34 33.2575 35.5652 37.1494 38.1514 40.1318C41.7649 36.5133 44 31.5179 44 26V11C44 8.23858 41.7614 6 39 6ZM16.5 29C13.4624 29 11 31.4624 11 34.5V35H22V34.5C22 31.4624 19.5376 29 16.5 29Z" fill="black"/>
<rect width="2" height="64" fill="#D9D9D9"/>
</svg>
