<svg width="48" height="64" viewBox="0 0 48 64" fill="none" xmlns="http://www.w3.org/2000/svg">
<path fill-rule="evenodd" clip-rule="evenodd" d="M28 29C32.9706 29 37 33.0294 37 38C37 42.9706 32.9706 47 28 47C23.0294 47 19 42.9706 19 38C19 33.0294 23.0294 29 28 29ZM28 34C25.7909 34 24 35.7909 24 38C24 40.2091 25.7909 42 28 42C30.2091 42 32 40.2091 32 38C32 35.7909 30.2091 34 28 34Z" fill="black"/>
<path d="M13 7C13 14.732 19.268 21 27 21H29C36.732 21 43 14.732 43 7H48C48 17.4934 39.4934 26 29 26H27C16.5066 26 8 17.4934 8 7H13Z" fill="black"/>
<rect width="2" height="64" fill="#D9D9D9"/>
</svg>
