<svg width="53" height="64" viewBox="0 0 53 64" fill="none" xmlns="http://www.w3.org/2000/svg">
<path fill-rule="evenodd" clip-rule="evenodd" d="M37.1383 11.4998H49.9996L52.1334 15.3035L45.858 25.571L52.1246 35.6824L49.9996 39.5007L37.3463 39.4998L30.1334 51.3035L25.8668 51.3044L18.653 39.4998H6.00061L3.85608 35.7136C6.0982 31.9767 8.14817 28.6505 10.1061 25.5134L3.86682 15.3044L5.99963 11.4998H18.9244C21.0925 8.03821 23.3548 4.384 25.8571 0.213623L30.1256 0.18335L37.1383 11.4998ZM27.9996 45.2068L31.4869 39.4998H24.5123L27.9996 45.2068ZM13.024 30.2898C12.1836 31.6463 11.3228 33.0437 10.4352 34.4998L15.5963 34.4988L13.024 30.2898ZM21.6901 16.4998C20.8234 17.8766 19.9683 19.2324 19.1129 20.5857C18.0746 22.2284 17.0386 23.8698 15.985 25.5466L21.4557 34.4988H34.5426L39.9879 25.5896L34.3541 16.4998H21.6901ZM40.402 34.4988H45.5094L42.9381 30.3494L40.402 34.4988ZM42.9078 20.8103L45.5426 16.5007C43.7214 16.5007 41.9584 16.4998 40.2369 16.4998L42.9078 20.8103ZM10.4576 16.5007L13.0748 20.783C13.6816 19.8212 14.2839 18.867 14.8864 17.9138C15.184 17.443 15.4801 16.9712 15.778 16.4998C14.0519 16.4998 12.284 16.5007 10.4576 16.5007ZM28.025 6.28784C26.9176 8.10693 25.8519 9.83317 24.817 11.4998H31.2555L28.025 6.28784Z" fill="black"/>
<rect width="2" height="64" fill="#D9D9D9"/>
</svg>
