<svg width="48" height="64" viewBox="0 0 48 64" fill="none" xmlns="http://www.w3.org/2000/svg">
<path fill-rule="evenodd" clip-rule="evenodd" d="M39 16C43.9706 16 48 20.0294 48 25V43C48 47.4183 44.4183 51 40 51C35.5817 51 32 47.4183 32 43H37C37 44.6569 38.3431 46 40 46C41.6569 46 43 44.6569 43 43V25C43 22.7909 41.2091 21 39 21C35.134 21 32 24.134 32 28V38C32 42.9706 27.9706 47 23 47C20.8832 47 18.863 46.5875 17.0137 45.8408C13.6135 49.039 9.03629 51 4 51V46C7.21097 46 10.1683 44.9175 12.5303 43.0996C9.14275 40.1658 7 35.8331 7 31V25C7 20.5817 10.5817 17 15 17C19.4183 17 23 20.5817 23 25V32C23 35.5343 22.0335 38.8423 20.3525 41.6768C21.2007 41.8864 22.0871 42 23 42C25.2091 42 27 40.2091 27 38V28C27 21.3726 32.3726 16 39 16ZM12 31C12 34.3638 13.5116 37.3729 15.8906 39.3906C17.2268 37.2455 18 34.7133 18 32V25C18 23.3431 16.6569 22 15 22C13.3431 22 12 23.3431 12 25V31Z" fill="black"/>
<path fill-rule="evenodd" clip-rule="evenodd" d="M15 1C18.866 1 22 4.13401 22 8C22 11.866 18.866 15 15 15C11.134 15 8 11.866 8 8C8 4.13401 11.134 1 15 1ZM15 6C13.8954 6 13 6.89543 13 8C13 9.10457 13.8954 10 15 10C16.1046 10 17 9.10457 17 8C17 6.89543 16.1046 6 15 6Z" fill="black"/>
<rect width="2" height="64" fill="#D9D9D9"/>
</svg>
