<svg width="51" height="64" viewBox="0 0 51 64" fill="none" xmlns="http://www.w3.org/2000/svg">
<path d="M10.5 42C12.9853 42 15 44.0147 15 46.5C15 48.9853 12.9853 51 10.5 51C8.01472 51 6 48.9853 6 46.5C6 44.0147 8.01472 42 10.5 42Z" fill="black"/>
<path d="M34 1C43.3888 1 51 8.61116 51 18V19C51 28.3888 43.3888 36 34 36H31C28.2386 36 26 33.7614 26 31C26 29.8954 25.1046 29 24 29H19C15.6863 29 13 31.6863 13 35V39H8V35C8 28.9249 12.9249 24 19 24H24C27.866 24 31 27.134 31 31H34C40.6274 31 46 25.6274 46 19V18C46 11.3726 40.6274 6 34 6V1Z" fill="black"/>
<rect width="2" height="64" fill="#D9D9D9"/>
</svg>
