<svg width="51" height="64" viewBox="0 0 51 64" fill="none" xmlns="http://www.w3.org/2000/svg">
<path fill-rule="evenodd" clip-rule="evenodd" d="M41 42C41 46.9706 36.9706 51 32 51H27V46H32C34.2091 46 36 44.2091 36 42V34C36 32.8954 35.1046 32 34 32C29.5817 32 26 28.4183 26 24V18.7959C24.4994 19.5634 22.8012 20 21 20H16C9.92487 20 5 15.0751 5 9C5 4.58172 8.58172 1 13 1H24.2002C26.7655 1.0001 28.8616 3.01258 28.9941 5.54492C28.9963 5.62964 29 5.71456 29 5.7998V6H42C44.2091 6 46 4.20914 46 2H51C51 6.97056 46.9706 11 42 11H34C32.9273 11 31.9883 11.5645 31.458 12.4111C31.3389 12.7766 31.2002 13.1329 31.0449 13.4805C31.0155 13.6492 31 13.8228 31 14V24C31 25.6569 32.3431 27 34 27C37.866 27 41 30.134 41 34V42ZM13 6C11.3431 6 10 7.34315 10 9C10 12.3137 12.6863 15 16 15H21C23.3065 15 25.3073 13.6977 26.3115 11.7891C26.4404 11.3401 26.606 10.907 26.8076 10.4941C25.1453 9.68168 24 7.97489 24 6H13Z" fill="black"/>
<rect width="2" height="64" fill="#D9D9D9"/>
</svg>
