<svg width="51" height="64" viewBox="0 0 51 64" fill="none" xmlns="http://www.w3.org/2000/svg">
<path fill-rule="evenodd" clip-rule="evenodd" d="M46 24C46 21.2386 43.7614 19 41 19H38C35.7909 19 34 20.7909 34 23V36C34 41.5228 29.5228 46 24 46H19C13.4772 46 9 41.5228 9 36V15.9775C7.16557 14.4184 6 12.0961 6 9.5C6 4.80558 9.80558 1 14.5 1C19.1944 1 23 4.80558 23 9.5C23 14.1944 19.1944 18 14.5 18C14.3321 18 14.1655 17.994 14 17.9844V36C14 38.7614 16.2386 41 19 41H24C26.7614 41 29 38.7614 29 36V23C29 18.0294 33.0294 14 38 14H41C46.5228 14 51 18.4772 51 24V41C51 46.5228 46.5228 51 41 51H40C36.134 51 33 47.866 33 44V43H38V44C38 45.1046 38.8954 46 40 46H41C43.7614 46 46 43.7614 46 41V24ZM14.5 6C12.567 6 11 7.567 11 9.5C11 11.433 12.567 13 14.5 13C16.433 13 18 11.433 18 9.5C18 7.567 16.433 6 14.5 6Z" fill="black"/>
<rect width="2" height="64" fill="#D9D9D9"/>
</svg>
