<svg width="45" height="64" viewBox="0 0 45 64" fill="none" xmlns="http://www.w3.org/2000/svg">
<path fill-rule="evenodd" clip-rule="evenodd" d="M31 1C38.732 1 45 7.26801 45 15C45 19.6889 42.6941 23.8382 39.1553 26.3789C42.6859 28.8139 45 32.8867 45 37.5C45 44.9558 38.9558 51 31.5 51H12V1H31ZM17 46H31.5C36.1944 46 40 42.1944 40 37.5C40 32.8056 36.1944 29 31.5 29H23V24H31C35.9706 24 40 19.9706 40 15C40 10.0294 35.9706 6 31 6H17V46Z" fill="black"/>
<rect width="2" height="64" fill="#D9D9D9"/>
</svg>
