<svg width="46" height="64" viewBox="0 0 46 64" fill="none" xmlns="http://www.w3.org/2000/svg">
<path d="M15.5 3.08984L7.35449 19.3818L16.1182 23.7637L17.4258 26.6064L14.166 39.6455L39.9297 1H46V43C46 47.4183 42.4183 51 38 51C33.5817 51 30 47.4183 30 43V41H35V43C35 44.6569 36.3431 46 38 46C39.6569 46 41 44.6569 41 43V7.60547L12.0703 51H6.5V49.6924L6.57422 49.3936L12.0879 27.3389L2.88184 22.7363L1.76367 19.3818L10.5 1.90918V1H15.5V3.08984Z" fill="black"/>
<rect width="2" height="64" fill="#D9D9D9"/>
</svg>
