<svg width="44" height="64" viewBox="0 0 44 64" fill="none" xmlns="http://www.w3.org/2000/svg">
<path fill-rule="evenodd" clip-rule="evenodd" d="M30.5 24C35.7467 24 40 28.2533 40 33.5C40 38.7467 35.7467 43 30.5 43C25.2533 43 21 38.7467 21 33.5V29C17.134 29 14 32.134 14 36V51H9V36C9 29.3726 14.3726 24 21 24C21 11.2975 31.2975 1 44 1V6C34.0589 6 26 14.0589 26 24H30.5ZM26 33.5C26 35.9853 28.0147 38 30.5 38C32.9853 38 35 35.9853 35 33.5C35 31.0147 32.9853 29 30.5 29H26V33.5Z" fill="black"/>
<rect width="2" height="64" fill="#D9D9D9"/>
</svg>
