<svg width="46" height="64" viewBox="0 0 46 64" fill="none" xmlns="http://www.w3.org/2000/svg">
<path fill-rule="evenodd" clip-rule="evenodd" d="M19 7.29102C19.6338 7.10236 20.3049 7 21 7H30C38.8366 7 46 14.1634 46 23V28C46 35.732 39.732 42 32 42H29C25.1578 42 21.6539 40.5544 19 38.1787V43.5C19 47.6421 15.6421 51 11.5 51C7.35786 51 4 47.6421 4 43.5C4 39.3579 7.35786 36 11.5 36H14V1H19V7.29102ZM11.5 41C10.1193 41 9 42.1193 9 43.5C9 44.8807 10.1193 46 11.5 46C12.8807 46 14 44.8807 14 43.5V41H11.5ZM21 12C19.8954 12 19 12.8954 19 14V27C19 32.5228 23.4772 37 29 37H32C36.9706 37 41 32.9706 41 28V23C41 16.9249 36.0751 12 30 12H21Z" fill="black"/>
<rect width="2" height="64" fill="#D9D9D9"/>
</svg>
