<svg width="51" height="64" viewBox="0 0 51 64" fill="none" xmlns="http://www.w3.org/2000/svg">
<path fill-rule="evenodd" clip-rule="evenodd" d="M31 12.2148C37.0045 13.2584 41.7406 17.9955 42.7842 24H51V29H42.7842C41.7406 35.0045 37.0045 39.7406 31 40.7842V51H26V40.7842C19.9955 39.7406 15.2594 35.0045 14.2158 29H7V24H14.2158C15.2594 17.9955 19.9955 13.2584 26 12.2148V1H31V12.2148ZM19.335 29C20.2158 32.2367 22.7633 34.7842 26 35.665V29H19.335ZM31 29V35.665C34.2367 34.7842 36.7842 32.2367 37.665 29H31ZM26 17.334C22.7631 18.2148 20.2158 20.7632 19.335 24H26V17.334ZM31 24H37.665C36.7842 20.7632 34.2369 18.2148 31 17.334V24Z" fill="black"/>
<rect width="2" height="64" fill="#D9D9D9"/>
</svg>
