<svg width="45" height="64" viewBox="0 0 45 64" fill="none" xmlns="http://www.w3.org/2000/svg">
<path fill-rule="evenodd" clip-rule="evenodd" d="M38 26C38 32.3407 35.6372 38.128 31.7471 42.5352C34.953 44.7212 38.827 46 43 46H45V51H43C37.3718 51 32.1784 49.1396 28 46.001C23.8216 49.1396 18.6282 51 13 51H11V46H13C17.1727 46 21.0461 44.7209 24.252 42.5352C20.362 38.128 18 32.3404 18 26V16C18 7.71573 24.7157 1 33 1H38V6H33C28.074 6 23.9826 9.56228 23.1553 14.251C24.5906 13.4545 26.2421 13 28 13C33.5228 13 38 17.4772 38 23V26ZM33 23C33 20.2386 30.7614 18 28 18C25.2386 18 23 20.2386 23 23V26C23 31.0715 24.8889 35.7011 28 39.2266C31.1111 35.7011 33 31.0715 33 26V23Z" fill="black"/>
<rect width="2" height="64" fill="#D9D9D9"/>
</svg>
