<svg width="44" height="64" viewBox="0 0 44 64" fill="none" xmlns="http://www.w3.org/2000/svg">
<path fill-rule="evenodd" clip-rule="evenodd" d="M28 1.13184C35.3387 2.1096 41 8.39383 41 16V19.667C40.9998 24.3687 37.5228 28.2562 33 28.9033V33H36C37.6569 33 39 31.6569 39 30H44C44 34.4183 40.4183 38 36 38H33V51H28V38H26.5C16.2827 38 8 29.7173 8 19.5C8 9.44992 16.0139 1.27082 26 1.00586V1C26.0822 1 26.1642 1.00161 26.2461 1.00293C26.3306 1.00179 26.4152 1 26.5 1H28V1.13184ZM26.1807 6.00391C18.8723 6.17355 13 12.1509 13 19.5C13 26.9558 19.0442 33 26.5 33H28V29H26C21.5817 29 18 25.4183 18 21V18C18 13.5817 21.5817 10 26 10C29.866 10 33 13.134 33 17V23.7891C34.673 23.2483 35.9014 21.7196 35.9941 19.8896L36 19.667V16C36 10.5375 31.6201 6.1003 26.1807 6.00391ZM26 15C24.3431 15 23 16.3431 23 18V21C23 22.6569 24.3431 24 26 24H28V17C28 15.8954 27.1046 15 26 15Z" fill="black"/>
<rect width="2" height="64" fill="#D9D9D9"/>
</svg>
