<svg width="48" height="64" viewBox="0 0 48 64" fill="none" xmlns="http://www.w3.org/2000/svg">
<path fill-rule="evenodd" clip-rule="evenodd" d="M16.5 1C19.0694 1 21.3359 2.29285 22.6875 4.2627C23.9321 3.46436 25.4115 3 27 3H34C41.732 3 48 9.26801 48 17V20C48 27.1797 42.1797 33 35 33C35 40.1797 40.8203 46 48 46V51C38.0589 51 30 42.9411 30 33H25.5C24.9835 33 24.4817 32.9371 24 32.8232V41C24 46.5228 19.5228 51 14 51V46C16.7614 46 19 43.7614 19 41V16H16.5C12.3579 16 9 12.6421 9 8.5C9 4.35786 12.3579 1 16.5 1ZM25.5 25C24.6716 25 24 25.6716 24 26.5C24 27.3284 24.6716 28 25.5 28H30C30 26.3431 28.6569 25 27 25H25.5ZM27 8C25.3431 8 24 9.34315 24 11V20.1758C24.4816 20.062 24.9836 20 25.5 20H27C31.4183 20 35 23.5817 35 28C39.4183 28 43 24.4183 43 20V17C43 12.0294 38.9706 8 34 8H27ZM16.5 6C15.1193 6 14 7.11929 14 8.5C14 9.88071 15.1193 11 16.5 11H19V8.5C19 7.11929 17.8807 6 16.5 6Z" fill="black"/>
<rect width="2" height="64" fill="#D9D9D9"/>
</svg>
