<svg width="46" height="64" viewBox="0 0 46 64" fill="none" xmlns="http://www.w3.org/2000/svg">
<path d="M28 1C29.6297 0.999973 31.2631 1.1585 32.877 1.47949C37.7265 2.44412 42.1814 4.82498 45.6777 8.32129L42.1426 11.8564C39.3455 9.0594 35.781 7.15549 31.9014 6.38379C30.6103 6.12701 29.3036 6.002 28 6.00195C26.6964 6.002 25.3897 6.12896 24.0986 6.38574C21.5432 6.89408 19.1261 7.89658 16.9736 9.31934L27.9922 26.001L16.9736 42.6816C19.1262 44.1044 21.5431 45.1079 24.0986 45.6162C25.3896 45.873 26.6964 45.997 28 45.9971V45.9951C29.3036 45.9951 30.6103 45.871 31.9014 45.6143C35.781 44.8426 39.3455 42.9387 42.1426 40.1416L45.6777 43.6768C42.1814 47.1731 37.7265 49.5539 32.877 50.5186C31.2631 50.8395 29.6297 50.9971 28 50.9971V50.999C26.3704 50.9991 24.7368 50.8415 23.123 50.5205C18.4253 49.5861 14.0978 47.3219 10.6533 44.0029L10.3223 43.6787L22 26.001L10.3223 8.32324C13.8185 4.82698 18.2736 2.4461 23.123 1.48145C24.7369 1.16046 26.3703 0.999973 28 1Z" fill="black"/>
<rect width="2" height="64" fill="#D9D9D9"/>
</svg>
