<svg width="23" height="64" viewBox="0 0 23 64" fill="none" xmlns="http://www.w3.org/2000/svg">
<path fill-rule="evenodd" clip-rule="evenodd" d="M0 25H5V23C5 20.2386 7.23858 18 10 18H13C15.7614 18 18 20.2386 18 23V29H8.5C3.80558 29 0 32.8056 0 37.5V42.5C0 47.1944 3.80558 51 8.5 51H17C20.3137 51 23 48.3137 23 45V23C23 17.4772 18.5228 13 13 13H10C4.47715 13 0 17.4772 0 23V25ZM8.5 34H18V45C18 45.5523 17.5523 46 17 46H8.5C6.567 46 5 44.433 5 42.5V37.5C5 35.567 6.567 34 8.5 34Z" fill="black"/>
<rect width="2" height="64" fill="#D9D9D9"/>
</svg>
