<svg width="30" height="64" viewBox="0 0 30 64" fill="none" xmlns="http://www.w3.org/2000/svg">
<path fill-rule="evenodd" clip-rule="evenodd" d="M7 25H12V23C12 20.2386 14.2386 18 17 18H20C22.7614 18 25 20.2386 25 23V29H15.5C10.8056 29 7 32.8056 7 37.5V42.5C7 47.1944 10.8056 51 15.5 51H24C27.3137 51 30 48.3137 30 45V23C30 17.4772 25.5228 13 20 13H17C11.4772 13 7 17.4772 7 23V25ZM15.5 34H25V45C25 45.5523 24.5523 46 24 46H15.5C13.567 46 12 44.433 12 42.5V37.5C12 35.567 13.567 34 15.5 34Z" fill="black"/>
<rect width="2" height="64" fill="#D9D9D9"/>
</svg>
