<svg width="36" height="64" viewBox="0 0 36 64" fill="none" xmlns="http://www.w3.org/2000/svg">
<path d="M15 33C15 30.2386 17.2386 28 20 28H26C28.7614 28 31 30.2386 31 33H36C36 27.4772 31.5228 23 26 23H20C14.4772 23 10 27.4772 10 33V41C10 46.5228 14.4772 51 20 51H25C26.8214 51 28.5291 50.513 30 49.6622V56.5C30 57.8807 28.8807 59 27.5 59H15.5C14.1193 59 13 57.8807 13 56.5V53H8V56.5C8 60.6421 11.3579 64 15.5 64H27.5C31.6421 64 35 60.6421 35 56.5V39H30V41C30 43.7614 27.7614 46 25 46H20C17.2386 46 15 43.7614 15 41V33Z" fill="black"/>
<rect width="2" height="64" fill="#D9D9D9"/>
</svg>
