<svg width="28" height="64" viewBox="0 0 28 64" fill="none" xmlns="http://www.w3.org/2000/svg">
<path d="M7 19C7 17.3431 8.34315 16 10 16H20C21.6569 16 23 17.3431 23 19H28C28 14.5817 24.4183 11 20 11H10C5.58172 11 2 14.5817 2 19V31C2 35.4183 5.58172 39 10 39H19C20.0609 39 21.0736 38.7935 22 38.4185V56.5C22 57.8807 20.8807 59 19.5 59H7.5C6.11929 59 5 57.8807 5 56.5V52H0V56.5C0 60.6421 3.35786 64 7.5 64H19.5C23.6421 64 27 60.6421 27 56.5V27H22V31C22 32.6569 20.6569 34 19 34H10C8.34315 34 7 32.6569 7 31V19Z" fill="black"/>
<rect width="2" height="64" fill="#D9D9D9"/>
</svg>
