<svg width="40" height="64" viewBox="0 0 40 64" fill="none" xmlns="http://www.w3.org/2000/svg">
<path fill-rule="evenodd" clip-rule="evenodd" d="M12 13C27.464 13 40 25.536 40 41V51H35C35 42.7157 28.2843 36 20 36V43C20 47.4183 16.4183 51 12 51H8C3.58172 51 0 47.4183 0 43V40C0 35.0294 4.02944 31 9 31H20C25.829 31 31.0756 33.4936 34.7312 37.4723C33.0337 26.4444 23.503 18 12 18V13ZM15 43V36H9C6.79086 36 5 37.7909 5 40V43C5 44.6569 6.34315 46 8 46H12C13.6569 46 15 44.6569 15 43Z" fill="black"/>
<rect width="2" height="64" fill="#D9D9D9"/>
</svg>
