<svg width="36" height="64" viewBox="0 0 36 64" fill="none" xmlns="http://www.w3.org/2000/svg">
<path fill-rule="evenodd" clip-rule="evenodd" d="M22 39H21V56C21 60.4183 17.4183 64 13 64H10C4.47715 64 0 59.5228 0 54V52H5V54C5 56.7614 7.23858 59 10 59H13C14.6569 59 16 57.6569 16 56V39H3V34H16V18.2C16 14.2236 19.2236 11 23.2 11C30.2692 11 36 16.7308 36 23.8V25C36 32.732 29.732 39 22 39ZM31 23.8V25C31 29.9706 26.9706 34 22 34H21V18.2C21 16.985 21.985 16 23.2 16C27.5078 16 31 19.4922 31 23.8Z" fill="black"/>
<rect width="2" height="64" fill="#D9D9D9"/>
</svg>
