<svg width="39" height="64" viewBox="0 0 39 64" fill="none" xmlns="http://www.w3.org/2000/svg">
<path fill-rule="evenodd" clip-rule="evenodd" d="M25 51H24V56C24 60.4183 20.4183 64 16 64H13C7.47715 64 3 59.5228 3 54V52H8V54C8 56.7614 10.2386 59 13 59H16C17.6569 59 19 57.6569 19 56V51H6V46H19V30.2C19 26.2236 22.2236 23 26.2 23C33.2692 23 39 28.7308 39 35.8V37C39 44.732 32.732 51 25 51ZM34 35.8V37C34 41.9706 29.9706 46 25 46H24V30.2C24 28.985 24.985 28 26.2 28C30.5078 28 34 31.4922 34 35.8Z" fill="black"/>
<rect width="2" height="64" fill="#D9D9D9"/>
</svg>
