<svg width="33" height="64" viewBox="0 0 33 64" fill="none" xmlns="http://www.w3.org/2000/svg">
<path fill-rule="evenodd" clip-rule="evenodd" d="M0 21.5C0 16.8056 3.80558 13 8.5 13H11.5C16.1944 13 20 16.8056 20 21.5C20 26.1944 16.1944 30 11.5 30H5V38C5 42.4183 8.58172 46 13 46H20C24.4183 46 28 42.4183 28 38V30H33V38C33 45.1797 27.1797 51 20 51H13C5.8203 51 0 45.1797 0 38V21.5ZM8.5 18H11.5C13.433 18 15 19.567 15 21.5C15 23.433 13.433 25 11.5 25H5V21.5C5 19.567 6.567 18 8.5 18Z" fill="black"/>
<rect width="2" height="64" fill="#D9D9D9"/>
</svg>
