<svg width="39" height="64" viewBox="0 0 39 64" fill="none" xmlns="http://www.w3.org/2000/svg">
<path fill-rule="evenodd" clip-rule="evenodd" d="M6 21.5C6 16.8056 9.80558 13 14.5 13H17.5C22.1944 13 26 16.8056 26 21.5C26 26.1944 22.1944 30 17.5 30H11V38C11 42.4183 14.5817 46 19 46H26C30.4183 46 34 42.4183 34 38V30H39V38C39 45.1797 33.1797 51 26 51H19C11.8203 51 6 45.1797 6 38V21.5ZM14.5 18H17.5C19.433 18 21 19.567 21 21.5C21 23.433 19.433 25 17.5 25H11V21.5C11 19.567 12.567 18 14.5 18Z" fill="black"/>
<rect width="2" height="64" fill="#D9D9D9"/>
</svg>
