<svg width="32" height="64" viewBox="0 0 32 64" fill="none" xmlns="http://www.w3.org/2000/svg">
<path fill-rule="evenodd" clip-rule="evenodd" d="M19 13H14V23H12.5C5.59644 23 0 28.5964 0 35.5V38.5C0 45.4036 5.59644 51 12.5 51H19V28H22C24.7614 28 27 30.2386 27 33V41C27 43.7614 24.7614 46 22 46V51C27.5228 51 32 46.5228 32 41V33C32 27.4772 27.5228 23 22 23H19V13ZM12.5 28H14V46H12.5C8.35786 46 5 42.6421 5 38.5V35.5C5 31.3579 8.35786 28 12.5 28Z" fill="black"/>
<rect width="2" height="64" fill="#D9D9D9"/>
</svg>
