<svg width="36" height="64" viewBox="0 0 36 64" fill="none" xmlns="http://www.w3.org/2000/svg">
<path fill-rule="evenodd" clip-rule="evenodd" d="M23 13H18V23H16.5C9.59644 23 4 28.5964 4 35.5V38.5C4 45.4036 9.59644 51 16.5 51H23V28H26C28.7614 28 31 30.2386 31 33V41C31 43.7614 28.7614 46 26 46V51C31.5228 51 36 46.5228 36 41V33C36 27.4772 31.5228 23 26 23H23V13ZM16.5 28H18V46H16.5C12.3579 46 9 42.6421 9 38.5V35.5C9 31.3579 12.3579 28 16.5 28Z" fill="black"/>
<rect width="2" height="64" fill="#D9D9D9"/>
</svg>
