<svg width="23" height="64" viewBox="0 0 23 64" fill="none" xmlns="http://www.w3.org/2000/svg">
<path fill-rule="evenodd" clip-rule="evenodd" d="M23 25H18V23C18 20.2386 15.7614 18 13 18H10C7.23858 18 5 20.2386 5 23V29H14.5C19.1944 29 23 32.8056 23 37.5V42.5C23 47.1944 19.1944 51 14.5 51H6C2.68629 51 0 48.3137 0 45V23C0 17.4772 4.47715 13 10 13H13C18.5228 13 23 17.4772 23 23V25ZM14.5 34H5V45C5 45.5523 5.44772 46 6 46H14.5C16.433 46 18 44.433 18 42.5V37.5C18 35.567 16.433 34 14.5 34Z" fill="black"/>
<rect width="2" height="64" fill="#D9D9D9"/>
</svg>
