<svg width="35" height="64" viewBox="0 0 35 64" fill="none" xmlns="http://www.w3.org/2000/svg">
<path fill-rule="evenodd" clip-rule="evenodd" d="M35 25H30V23C30 20.2386 27.7614 18 25 18H22C19.2386 18 17 20.2386 17 23V29H26.5C31.1944 29 35 32.8056 35 37.5V42.5C35 47.1944 31.1944 51 26.5 51H18C14.6863 51 12 48.3137 12 45V23C12 17.4772 16.4772 13 22 13H25C30.5228 13 35 17.4772 35 23V25ZM26.5 34H17V45C17 45.5523 17.4477 46 18 46H26.5C28.433 46 30 44.433 30 42.5V37.5C30 35.567 28.433 34 26.5 34Z" fill="black"/>
<rect width="2" height="64" fill="#D9D9D9"/>
</svg>
