<svg width="35" height="64" viewBox="0 0 35 64" fill="none" xmlns="http://www.w3.org/2000/svg">
<path fill-rule="evenodd" clip-rule="evenodd" d="M5 23V30.8571C5 32.5929 6.40711 34 8.14286 34C11.3777 34 14 31.3777 14 28.1429V27H19V39.5815C19.9264 39.2065 20.9391 39 22 39H24.1667C30.1498 39 35 43.8503 35 49.8333C35 57.6574 28.6574 64 20.8333 64H19.4783C16.4527 64 14 61.5473 14 58.5217V37.2862C12.3102 38.3709 10.3 39 8.14286 39C3.64568 39 0 35.3543 0 30.8571V23C0 16.3726 5.37258 11 12 11H18C22.9706 11 27 15.0294 27 20V28H22V20C22 17.7909 20.2091 16 18 16H12C8.13401 16 5 19.134 5 23ZM19 58.5217C19 58.7859 19.2141 59 19.4783 59H20.8333C25.8959 59 30 54.8959 30 49.8333C30 46.6117 27.3883 44 24.1667 44H22C20.3431 44 19 45.3431 19 47V58.5217Z" fill="black"/>
<rect width="2" height="64" fill="#D9D9D9"/>
</svg>
