<svg width="38" height="64" viewBox="0 0 38 64" fill="none" xmlns="http://www.w3.org/2000/svg">
<path d="M8 35V42.8571C8 44.5929 9.40711 46 11.1429 46C14.3777 46 17 43.3777 17 40.1429V39H22V56.5C22 57.8807 23.1193 59 24.5 59H30.5C31.8807 59 33 57.8807 33 56.5V53H38V56.5C38 60.6421 34.6421 64 30.5 64H24.5C20.3579 64 17 60.6421 17 56.5V49.2862C15.3102 50.3709 13.3 51 11.1429 51C6.64568 51 3 47.3543 3 42.8571V35C3 28.3726 8.37258 23 15 23H21C25.9706 23 30 27.0294 30 32V40H25V32C25 29.7909 23.2091 28 21 28H15C11.134 28 8 31.134 8 35Z" fill="black"/>
<rect width="2" height="64" fill="#D9D9D9"/>
</svg>
