<svg width="36" height="64" viewBox="0 0 36 64" fill="none" xmlns="http://www.w3.org/2000/svg">
<path d="M14 46C16.2091 46 18 44.2091 18 42V23H23V42C23 44.2091 24.7909 46 27 46C29.2091 46 31 44.2091 31 42V23H36V56.5C36 60.6421 32.6421 64 28.5 64H11.5C7.35786 64 4 60.6421 4 56.5V53H9V56.5C9 57.8807 10.1193 59 11.5 59H28.5C29.8807 59 31 57.8807 31 56.5V50.0645C29.795 50.6633 28.4368 51 27 51C24.4448 51 22.1382 49.9351 20.5 48.225C18.8618 49.9351 16.5552 51 14 51C9.02944 51 5 46.9706 5 42V23H10V42C10 44.2091 11.7909 46 14 46Z" fill="black"/>
<rect width="2" height="64" fill="#D9D9D9"/>
</svg>
