<svg width="37" height="64" viewBox="0 0 37 64" fill="none" xmlns="http://www.w3.org/2000/svg">
<path d="M16.0435 6C11.6012 6 8 9.60119 8 14.0435C8 15.124 8.87596 16 9.95652 16H18.4C23.7019 16 28 20.2981 28 25.6C28 29.1346 25.1346 32 21.6 32H17V33H19.1818C24.6042 33 29 37.3958 29 42.8182C29 47.3369 25.3369 51 20.8182 51H14C10.6863 51 8 48.3137 8 45H13C13 45.5523 13.4477 46 14 46H20.8182C22.5755 46 24 44.5755 24 42.8182C24 40.1572 21.8428 38 19.1818 38H17C14.2386 38 12 35.7614 12 33V32C12 29.2386 14.2386 27 17 27H21.6C22.3732 27 23 26.3732 23 25.6C23 23.0595 20.9405 21 18.4 21H9.95652C6.11454 21 3 17.8855 3 14.0435C3 6.83977 8.83976 1 16.0435 1H37C37 3.76142 34.7614 6 32 6H16.0435Z" fill="black"/>
<rect width="2" height="64" fill="#D9D9D9"/>
</svg>
