<svg width="34" height="64" viewBox="0 0 34 64" fill="none" xmlns="http://www.w3.org/2000/svg">
<path d="M13.0435 6C8.60119 6 5 9.60119 5 14.0435C5 15.124 5.87596 16 6.95652 16H15.4C20.7019 16 25 20.2981 25 25.6C25 29.1346 22.1346 32 18.6 32H14V33H16.1818C21.6042 33 26 37.3958 26 42.8182C26 47.3369 22.3369 51 17.8182 51H11C7.68629 51 5 48.3137 5 45H10C10 45.5523 10.4477 46 11 46H17.8182C19.5755 46 21 44.5755 21 42.8182C21 40.1572 18.8428 38 16.1818 38H14C11.2386 38 9 35.7614 9 33V32C9 29.2386 11.2386 27 14 27H18.6C19.3732 27 20 26.3732 20 25.6C20 23.0595 17.9405 21 15.4 21H6.95652C3.11454 21 0 17.8855 0 14.0435C0 6.83977 5.83976 1 13.0435 1H34C34 3.76142 31.7614 6 29 6H13.0435Z" fill="black"/>
<rect width="2" height="64" fill="#D9D9D9"/>
</svg>
