<svg width="37" height="64" viewBox="0 0 37 64" fill="none" xmlns="http://www.w3.org/2000/svg">
<path fill-rule="evenodd" clip-rule="evenodd" d="M34 21C34 17.134 30.866 14 27 14H22C15.9249 14 11 18.9249 11 25V27C11 28.6807 11.5183 30.2404 12.4038 31.5279C9.16901 33.4432 7 36.9683 7 41V42C7 46.9706 11.0294 51 16 51H17C23.0751 51 28 46.0751 28 40V35.6736C30.3649 36.7971 32 39.2076 32 42V52C32 55.866 28.866 59 25 59H18C13.5817 59 10 55.4183 10 51V50H5V51C5 58.1797 10.8203 64 18 64H25C31.6274 64 37 58.6274 37 52V42C37 35.3726 31.6274 30 25 30H19C17.3431 30 16 28.6569 16 27V25C16 21.6863 18.6863 19 22 19H27C28.1046 19 29 19.8954 29 21V25H34V21ZM23 35V40C23 43.3137 20.3137 46 17 46H16C13.7909 46 12 44.2091 12 42V41C12 37.6863 14.6863 35 18 35H23Z" fill="black"/>
<rect width="2" height="64" fill="#D9D9D9"/>
</svg>
