<svg width="32" height="64" viewBox="0 0 32 64" fill="none" xmlns="http://www.w3.org/2000/svg">
<path fill-rule="evenodd" clip-rule="evenodd" d="M29 21C29 17.134 25.866 14 22 14H17C10.9249 14 6 18.9249 6 25V27C6 28.6807 6.5183 30.2404 7.40379 31.5279C4.16901 33.4432 2 36.9683 2 41V42C2 46.9706 6.02944 51 11 51H12C18.0751 51 23 46.0751 23 40V35.6736C25.3649 36.7971 27 39.2076 27 42V52C27 55.866 23.866 59 20 59H13C8.58172 59 5 55.4183 5 51V50H0V51C0 58.1797 5.8203 64 13 64H20C26.6274 64 32 58.6274 32 52V42C32 35.3726 26.6274 30 20 30H14C12.3431 30 11 28.6569 11 27V25C11 21.6863 13.6863 19 17 19H22C23.1046 19 24 19.8954 24 21V25H29V21ZM18 35V40C18 43.3137 15.3137 46 12 46H11C8.79086 46 7 44.2091 7 42V41C7 37.6863 9.68629 35 13 35H18Z" fill="black"/>
<rect width="2" height="64" fill="#D9D9D9"/>
</svg>
