<svg width="40" height="64" viewBox="0 0 40 64" fill="none" xmlns="http://www.w3.org/2000/svg">
<path fill-rule="evenodd" clip-rule="evenodd" d="M3 13H8V46H20V27C20 24.7909 21.7909 23 24 23C32.8366 23 40 30.1634 40 39V40.5C40 46.299 35.299 51 29.5 51H25V53C25 59.0751 20.0751 64 14 64H13C6.92487 64 2 59.0751 2 53H7C7 56.3137 9.68629 59 13 59H14C17.3137 59 20 56.3137 20 53V51H3V13ZM35 39V40.5C35 43.5376 32.5376 46 29.5 46H25V28.0448C30.6065 28.5501 35 33.262 35 39Z" fill="black"/>
<rect width="2" height="64" fill="#D9D9D9"/>
</svg>
