<svg width="38" height="64" viewBox="0 0 38 64" fill="none" xmlns="http://www.w3.org/2000/svg">
<path fill-rule="evenodd" clip-rule="evenodd" d="M1 1H6V34H18V15C18 12.7909 19.7909 11 22 11C30.8366 11 38 18.1634 38 27V28.5C38 34.299 33.299 39 27.5 39H23V53C23 59.0751 18.0751 64 12 64H11C4.92487 64 0 59.0751 0 53H5C5 56.3137 7.68629 59 11 59H12C15.3137 59 18 56.3137 18 53V39H1V1ZM33 27V28.5C33 31.5376 30.5376 34 27.5 34H23V16.0448C28.6065 16.5501 33 21.262 33 27Z" fill="black"/>
<rect width="2" height="64" fill="#D9D9D9"/>
</svg>
