<svg width="45" height="64" viewBox="0 0 45 64" fill="none" xmlns="http://www.w3.org/2000/svg">
<path fill-rule="evenodd" clip-rule="evenodd" d="M0.829956 51L16.83 13H22.1701L22.1697 13.001C29.8235 13.0919 36 19.3246 36 27V30C40.9706 30 45 34.0294 45 39V51C42.2386 51 40 48.7614 40 46V39C40 36.7909 38.2092 35 36 35V41.5C36 46.7467 31.7467 51 26.5 51H25.5C20.2533 51 16 46.7467 16 41.5V39.5C16 34.2533 20.2533 30 25.5 30H31V27C31 22.0294 26.9706 18 22 18H20.0648L6.17007 51H0.829956ZM25.5 35H31V41.5C31 43.9853 28.9853 46 26.5 46H25.5C23.0147 46 21 43.9853 21 41.5V39.5C21 37.0147 23.0147 35 25.5 35Z" fill="black"/>
<rect x="5" width="2" height="64" fill="#D9D9D9"/>
</svg>
