<svg width="24" height="64" viewBox="0 0 24 64" fill="none" xmlns="http://www.w3.org/2000/svg">
<path d="M1 19C1 16.2386 3.23858 14 6 14H14C19.5228 14 24 18.4772 24 24V25C24 27.9867 22.6906 30.6676 20.6146 32.5C22.6906 34.3324 24 37.0133 24 40V41C24 46.5229 19.5228 51 14 51H5C2.23858 51 0 48.7614 0 46H14C16.7614 46 19 43.7614 19 41V40C19 37.2386 16.7614 35 14 35H6V30H14C16.7614 30 19 27.7614 19 25V24C19 21.2386 16.7614 19 14 19H1Z" fill="black"/>
<rect width="2" height="64" fill="#D9D9D9"/>
</svg>
