<svg width="31" height="64" viewBox="0 0 31 64" fill="none" xmlns="http://www.w3.org/2000/svg">
<path d="M8 19C8 16.2386 10.2386 14 13 14H21C26.5228 14 31 18.4772 31 24V25C31 27.9867 29.6906 30.6676 27.6146 32.5C29.6906 34.3324 31 37.0133 31 40V41C31 46.5229 26.5228 51 21 51H12C9.23858 51 7 48.7614 7 46H21C23.7614 46 26 43.7614 26 41V40C26 37.2386 23.7614 35 21 35H13V30H21C23.7614 30 26 27.7614 26 25V24C26 21.2386 23.7614 19 21 19H8Z" fill="black"/>
<rect width="2" height="64" fill="#D9D9D9"/>
</svg>
