<svg width="38" height="64" viewBox="0 0 38 64" fill="none" xmlns="http://www.w3.org/2000/svg">
<path d="M4 51V22C4 17.0294 8.02944 13 13 13H31C34.866 13 38 16.134 38 20C38 23.866 34.866 27 31 27H18V35.2521C19.9702 33.8348 22.3876 33 25 33H29C33.4183 33 37 36.5817 37 41V51H32V41C32 39.3431 30.6569 38 29 38H25C21.134 38 18 41.134 18 45V51H13V22H31C32.1046 22 33 21.1046 33 20C33 18.8954 32.1046 18 31 18H13C10.7909 18 9 19.7909 9 22V51H4Z" fill="black"/>
<rect width="2" height="64" fill="#D9D9D9"/>
</svg>
