<svg width="34" height="64" viewBox="0 0 34 64" fill="none" xmlns="http://www.w3.org/2000/svg">
<path d="M5 51H0V30.5C0 20.835 7.83502 13 17.5 13H27C30.866 13 34 16.134 34 20C34 23.866 30.866 27 27 27H14V31.2521C15.9702 29.8348 18.3876 29 21 29H25C29.4183 29 33 32.5817 33 37V51H28V37C28 35.3431 26.6569 34 25 34H21C17.134 34 14 37.134 14 41V51H9V22H27C28.1046 22 29 21.1046 29 20C29 18.8954 28.1046 18 27 18H17.5C10.5964 18 5 23.5964 5 30.5V51Z" fill="black"/>
<rect width="2" height="64" fill="#D9D9D9"/>
</svg>
