<svg width="45" height="64" viewBox="0 0 45 64" fill="none" xmlns="http://www.w3.org/2000/svg">
<path d="M24.3425 9L31.3425 1H41.2016L31.2016 9H24.3425Z" fill="black"/>
<path d="M11 22V41C11 46.5229 15.4772 51 21 51H35C40.5228 51 45 46.5228 45 41V22C45 16.4772 40.5228 12 35 12H34V17H35C37.7614 17 40 19.2386 40 22V41C40 43.7614 37.7614 46 35 46H21C18.2386 46 16 43.7614 16 41V22C16 19.2386 18.2386 17 21 17H22V12H21C15.4772 12 11 16.4772 11 22Z" fill="black"/>
<rect width="2" height="64" fill="#D9D9D9"/>
</svg>
