<svg width="45" height="64" viewBox="0 0 45 64" fill="none" xmlns="http://www.w3.org/2000/svg">
<path d="M24.3425 9L31.3425 1H41.2016L31.2016 9H24.3425Z" fill="black"/>
<path fill-rule="evenodd" clip-rule="evenodd" d="M12 21C12 16.5817 15.5817 13 20 13H37C41.4183 13 45 16.5817 45 21V43C45 47.4183 41.4183 51 37 51H20C15.5817 51 12 47.4183 12 43V21ZM20 18H37C38.6569 18 40 19.3431 40 21V43C40 44.6569 38.6569 46 37 46H20C18.3431 46 17 44.6569 17 43V21C17 19.3431 18.3431 18 20 18Z" fill="black"/>
<rect width="2" height="64" fill="#D9D9D9"/>
</svg>
