<svg width="41" height="64" viewBox="0 0 41 64" fill="none" xmlns="http://www.w3.org/2000/svg">
<path d="M22 1C18.134 1 15 4.13401 15 8V17C15 23.6274 20.3726 29 27 29H29C32.866 29 36 32.134 36 36V45C36 45.5523 35.5523 46 35 46H19C18.4477 46 18 45.5523 18 45V41H13V45C13 48.3137 15.6863 51 19 51H35C38.3137 51 41 48.3137 41 45V36C41 29.3726 35.6274 24 29 24H27C23.134 24 20 20.866 20 17V8C20 6.89543 20.8954 6 22 6H32C32.5523 6 33 6.44772 33 7V10H38V7C38 3.68629 35.3137 1 32 1H22Z" fill="black"/>
<rect width="2" height="64" fill="#D9D9D9"/>
</svg>
