<svg width="42" height="64" viewBox="0 0 42 64" fill="none" xmlns="http://www.w3.org/2000/svg">
<path d="M24.3425 9L31.3425 1H41.2016L31.2016 9H24.3425Z" fill="black"/>
<path d="M16 19C16 15.134 19.134 12 23 12H33C36.3137 12 39 14.6863 39 18V19H34V18C34 17.4477 33.5523 17 33 17H23C21.8954 17 21 17.8954 21 19V23C21 26.866 24.134 30 28 30H30C36.6274 30 42 35.3726 42 42V45C42 48.3137 39.3137 51 36 51H20C16.6863 51 14 48.3137 14 45V43H19V45C19 45.5523 19.4477 46 20 46H36C36.5523 46 37 45.5523 37 45V42C37 38.134 33.866 35 30 35H28C21.3726 35 16 29.6274 16 23V19Z" fill="black"/>
<rect width="2" height="64" fill="#D9D9D9"/>
</svg>
