<svg width="47" height="64" viewBox="0 0 47 64" fill="none" xmlns="http://www.w3.org/2000/svg">
<path d="M24.3425 9L31.3425 1H41.2016L31.2016 9H24.3425Z" fill="black"/>
<path d="M35 18C38.866 18 42 21.134 42 25V39C42 42.866 38.866 46 35 46H21C17.134 46 14 42.866 14 39H9C9 45.6274 14.3726 51 21 51H35C41.6274 51 47 45.6274 47 39V25C47 18.3726 41.6274 13 35 13H21C14.3726 13 9 18.3726 9 25H14C14 21.134 17.134 18 21 18H35Z" fill="black"/>
<path d="M10 33C10 30.2386 12.2386 28 15 28H24C26.2091 28 28 29.7909 28 32H41C41 34.7614 38.7614 37 36 37H27C24.7909 37 23 35.2091 23 33H10Z" fill="black"/>
<rect width="2" height="64" fill="#D9D9D9"/>
</svg>
