<svg width="46" height="64" viewBox="0 0 46 64" fill="none" xmlns="http://www.w3.org/2000/svg">
<path d="M41 18C41 11.9249 36.0751 7 30 7H24C17.9249 7 13 11.9249 13 18H8C8 9.16344 15.1634 2 24 2H30C38.8366 2 46 9.16344 46 18V35C46 43.8366 38.8366 51 30 51H24C15.1634 51 8 43.8366 8 35H13C13 41.0751 17.9249 46 24 46H30C36.0751 46 41 41.0751 41 35V18Z" fill="black"/>
<path d="M27 26C27 23.7909 25.2091 22 23 22H15C11.6863 22 9 24.6863 9 28H14C14 27.4477 14.4477 27 15 27H22V29C22 31.2091 23.7909 33 26 33H34C37.3137 33 40 30.3137 40 27H35C35 27.5523 34.5523 28 34 28H27V26Z" fill="black"/>
<rect width="2" height="64" fill="#D9D9D9"/>
</svg>
