<svg width="38" height="64" viewBox="0 0 38 64" fill="none" xmlns="http://www.w3.org/2000/svg">
<path d="M31 40C32.1046 40 33 40.8954 33 42V45H28C26.1493 45 24.5334 46.0055 23.6689 47.5C24.5334 48.9945 26.1493 50 28 50H33V53C33 53.5523 32.5523 54 32 54H29C28.4477 54 28 53.5523 28 53H23C23 56.3137 25.6863 59 29 59H32C35.3137 59 38 56.3137 38 53V50C38 49.0893 37.7565 48.2354 37.3311 47.5C37.7565 46.7646 38 45.9107 38 45V42C38 38.134 34.866 35 31 35H30C26.134 35 23 38.134 23 42H28C28 40.8954 28.8954 40 30 40H31Z" fill="black"/>
<rect width="2" height="64" fill="#D9D9D9"/>
</svg>
