<svg width="38" height="64" viewBox="0 0 38 64" fill="none" xmlns="http://www.w3.org/2000/svg">
<path d="M31 32C32.1046 32 33 32.8954 33 34V37H28C26.1493 37 24.5335 38.0055 23.6689 39.5C24.5335 40.9945 26.1493 42 28 42H33V45H27.6689C25.8182 45 24.2023 46.0055 23.3378 47.5C24.2023 48.9945 25.8182 50 27.6689 50H33V53C33 53.5523 32.5523 54 32 54H29C28.4477 54 28 53.5523 28 53H23C23 56.3137 25.6863 59 29 59H32C35.3137 59 38 56.3137 38 53V50C38 49.0893 37.7565 48.2354 37.3311 47.5C37.7565 46.7646 38 45.9107 38 45V42C38 41.0893 37.7565 40.2355 37.3311 39.5C37.7565 38.7646 38 37.9107 38 37V34C38 30.134 34.866 27 31 27H30C26.134 27 23 30.134 23 34H28C28 32.8954 28.8954 32 30 32H31Z" fill="black"/>
<rect width="2" height="64" fill="#D9D9D9"/>
</svg>
