<svg width="17" height="64" viewBox="0 0 17 64" fill="none" xmlns="http://www.w3.org/2000/svg">
<path d="M9 10C7.89543 10 7 10.8954 7 12V15H12C13.8507 15 15.4666 16.0055 16.3311 17.5C15.4666 18.9945 13.8507 20 12 20H7V23C7 23.5523 7.44771 24 8 24H11C11.5523 24 12 23.5523 12 23H17C17 26.3137 14.3137 29 11 29H8C4.68629 29 2 26.3137 2 23V20C2 19.0893 2.24349 18.2354 2.66891 17.5C2.24349 16.7646 2 15.9107 2 15V12C2 8.13401 5.13401 5 9 5H10C13.866 5 17 8.13401 17 12H12C12 10.8954 11.1046 10 10 10H9Z" fill="black"/>
<rect width="2" height="64" fill="#D9D9D9"/>
</svg>
