<svg width="50" height="64" viewBox="0 0 50 64" fill="none" xmlns="http://www.w3.org/2000/svg">
<path d="M12 3C12 7.41828 15.5817 11 20 11V18.5C20 22.3242 22.5259 25.5573 26 26.625V1H31V26.625C34.4741 25.5573 37 22.3242 37 18.5V11C41.4183 11 45 7.41828 45 3V1H50V3C50 8.4078 46.6978 13.0437 42 15.0029V18.5C42 25.1016 37.2613 30.5951 31 31.7676V37H46V42H31V51H26V42H11V37H26V31.7676C19.7387 30.5951 15 25.1016 15 18.5V15.0029C10.3022 13.0437 7 8.4078 7 3V1H12V3Z" fill="black"/>
<rect width="2" height="64" fill="#D9D9D9"/>
</svg>
