<svg width="38" height="64" viewBox="0 0 38 64" fill="none" xmlns="http://www.w3.org/2000/svg">
<path d="M28 6C23.5817 6 20 9.58172 20 14C20 18.4183 23.5817 22 28 22C30.7614 22 33 19.7614 33 17C33 14.2386 30.7614 12 28 12C26.8954 12 26 12.8954 26 14C26 15.1046 26.8954 16 28 16V15H32V17C32 19.2091 30.2091 21 28 21C24.134 21 21 17.866 21 14C21 10.134 24.134 7 28 7C33.5228 7 38 11.4772 38 17C38 22.5228 33.5228 27 28 27C20.8203 27 15 21.1797 15 14C15 6.8203 20.8203 1 28 1V6Z" fill="black"/>
<rect width="2" height="64" fill="#D9D9D9"/>
</svg>
