<svg width="38" height="64" viewBox="0 0 38 64" fill="none" xmlns="http://www.w3.org/2000/svg">
<path d="M28 30C23.5817 30 20 33.5817 20 38C20 42.4183 23.5817 46 28 46C30.7614 46 33 43.7614 33 41C33 38.2386 30.7614 36 28 36C26.8954 36 26 36.8954 26 38C26 39.1046 26.8954 40 28 40V39H32V41C32 43.2091 30.2091 45 28 45C24.134 45 21 41.866 21 38C21 34.134 24.134 31 28 31C33.5228 31 38 35.4772 38 41C38 46.5228 33.5228 51 28 51C20.8203 51 15 45.1797 15 38C15 30.8203 20.8203 25 28 25V30Z" fill="black"/>
<rect width="2" height="64" fill="#D9D9D9"/>
</svg>
