<svg width="37" height="64" viewBox="0 0 37 64" fill="none" xmlns="http://www.w3.org/2000/svg">
<path d="M4 23.9149C4 17.8868 8.88677 13 14.9149 13C17.0812 13 19.0485 13.852 20.5 15.2391C21.9515 13.852 23.9188 13 26.0851 13C32.1132 13 37 17.8868 37 23.9149V45C37 48.3137 34.3137 51 31 51V46C31.5523 46 32 45.5523 32 45V23.9149C32 20.6482 29.3518 18 26.0851 18C24.3812 18 23 19.3812 23 21.0851V43H18V21.0851C18 19.3812 16.6188 18 14.9149 18C11.6482 18 9 20.6482 9 23.9149V45C9 45.5523 9.44772 46 10 46V51C6.68629 51 4 48.3137 4 45V23.9149Z" fill="black"/>
<rect width="2" height="64" fill="#D9D9D9"/>
</svg>
