<svg width="36" height="64" viewBox="0 0 36 64" fill="none" xmlns="http://www.w3.org/2000/svg">
<path fill-rule="evenodd" clip-rule="evenodd" d="M23 12H18V16H5V21H18V26H14V26.0336C8.96038 26.4494 5 30.6713 5 35.8182C5 40.3369 8.66313 44 13.1818 44H23V31H23.5C27.6421 31 31 34.3579 31 38.5C31 42.6421 27.6421 46 23.5 46H14V51H23.5C30.4036 51 36 45.4036 36 38.5C36 31.5964 30.4036 26 23.5 26H23V21H36V16H23V12ZM18 31H14.8182C12.1572 31 10 33.1572 10 35.8182C10 37.5755 11.4245 39 13.1818 39H18V31Z" fill="black"/>
<rect width="2" height="64" fill="#D9D9D9"/>
</svg>
