<svg width="39" height="64" viewBox="0 0 39 64" fill="none" xmlns="http://www.w3.org/2000/svg">
<path d="M27 31V23C27 17.4772 22.5228 13 17 13H5V18H17C19.7614 18 22 20.2386 22 23V31C22 39.2843 15.2843 46 7 46H5V51H7C15.9553 51 23.5359 45.1142 26.0844 37H32.6667C33.311 37 33.8486 37.457 33.9729 38.0646C33.9907 38.1514 34 38.2413 34 38.3333C34 42.5675 30.5675 46 26.3333 46H24V51H26.3333C33.3289 51 39 45.3289 39 38.3333C39 34.8355 36.1645 32 32.6667 32H26.9754C26.9917 31.6687 27 31.3353 27 31Z" fill="black"/>
<rect width="2" height="64" fill="#D9D9D9"/>
</svg>
