<svg width="37" height="64" viewBox="0 0 37 64" fill="none" xmlns="http://www.w3.org/2000/svg">
<path d="M4 4H37V9H4V4Z" fill="black"/>
<path d="M4 23.9149V45C4 48.3137 6.68629 51 10 51V46C9.44772 46 9 45.5523 9 45V23.9149C9 20.6482 11.6482 18 14.9149 18C16.6188 18 18 19.3812 18 21.0851V43H23V21.0851C23 19.3812 24.3812 18 26.0851 18C29.3518 18 32 20.6482 32 23.9149V45C32 45.5523 31.5523 46 31 46V51C34.3137 51 37 48.3137 37 45V23.9149C37 17.8868 32.1132 13 26.0851 13C23.9188 13 21.9515 13.852 20.5 15.2391C19.0485 13.852 17.0812 13 14.9149 13C8.88677 13 4 17.8868 4 23.9149Z" fill="black"/>
<rect width="2" height="64" fill="#D9D9D9"/>
</svg>
