<svg width="36" height="64" viewBox="0 0 36 64" fill="none" xmlns="http://www.w3.org/2000/svg">
<path d="M36 4H3V9H17V42.9149C17 44.6188 15.6188 46 13.9149 46C10.6482 46 8 43.3518 8 40.0851V28C8 27.4477 8.44772 27 9 27V22C5.68629 22 3 24.6863 3 28V40.0851C3 46.1132 7.88677 51 13.9149 51C16.0812 51 18.0485 50.148 19.5 48.7609C20.9515 50.148 22.9188 51 25.0851 51C31.1132 51 36 46.1132 36 40.0851V28C36 24.6863 33.3137 22 30 22V27C30.5523 27 31 27.4477 31 28V40.0851C31 43.3518 28.3518 46 25.0851 46C23.3812 46 22 44.6188 22 42.9149V9H36V4Z" fill="black"/>
<rect width="2" height="64" fill="#D9D9D9"/>
</svg>
