<svg width="39" height="64" viewBox="0 0 39 64" fill="none" xmlns="http://www.w3.org/2000/svg">
<path fill-rule="evenodd" clip-rule="evenodd" d="M13 27C15.2091 27 17 28.7909 17 31H17.0494C17.0167 31.3289 17 31.6625 17 32V40C17 40.3375 17.0167 40.6711 17.0494 41H17C17 43.2091 15.2091 45 13 45H10C7.79086 45 6 43.2091 6 41H1C1 45.9706 5.02944 50 10 50H13C15.7044 50 18.1302 48.8072 19.78 46.9189C21.6001 48.8178 24.162 50 27 50H29C34.5228 50 39 45.5228 39 40V32C39 26.4772 34.5229 22 29 22H27C24.162 22 21.6001 23.1822 19.78 25.0811C18.1302 23.1928 15.7044 22 13 22H10C5.02944 22 1 26.0294 1 31H6C6 28.7909 7.79086 27 10 27H13ZM27 27H29C31.7614 27 34 29.2386 34 32V40C34 42.7614 31.7614 45 29 45H27C24.2386 45 22 42.7614 22 40V32C22 29.2386 24.2386 27 27 27Z" fill="black"/>
<rect width="2" height="64" fill="#D9D9D9"/>
</svg>
