<svg width="30" height="64" viewBox="0 0 30 64" fill="none" xmlns="http://www.w3.org/2000/svg">
<path d="M30 4H8V9H30V4Z" fill="black"/>
<path d="M13 23C10.2386 23 8 25.2386 8 28H22C23.6569 28 25 29.3431 25 31C25 32.6569 23.6569 34 22 34H13V39H21.5C23.433 39 25 40.567 25 42.5C25 44.433 23.433 46 21.5 46H8C8 48.7614 10.2386 51 13 51H21.5C26.1944 51 30 47.1944 30 42.5C30 40.2326 29.1122 38.1725 27.6652 36.6485C29.108 35.2014 30 33.2049 30 31C30 26.5817 26.4183 23 22 23H13Z" fill="black"/>
<rect width="2" height="64" fill="#D9D9D9"/>
</svg>
