<svg width="30" height="64" viewBox="0 0 30 64" fill="none" xmlns="http://www.w3.org/2000/svg">
<path d="M8 28C8 25.2386 10.2386 23 13 23H22C26.4183 23 30 26.5817 30 31C30 33.2049 29.108 35.2014 27.6652 36.6485C29.1122 38.1725 30 40.2326 30 42.5C30 47.1944 26.1944 51 21.5 51H13C10.2386 51 8 48.7614 8 46H21.5C23.433 46 25 44.433 25 42.5C25 40.567 23.433 39 21.5 39H13V34H22C23.6569 34 25 32.6569 25 31C25 29.3431 23.6569 28 22 28H8Z" fill="black"/>
<rect width="2" height="64" fill="#D9D9D9"/>
</svg>
