<svg width="32" height="64" viewBox="0 0 32 64" fill="none" xmlns="http://www.w3.org/2000/svg">
<path d="M30 4H7V9H30V4Z" fill="black"/>
<path fill-rule="evenodd" clip-rule="evenodd" d="M30 19C30 15.6863 27.3137 13 24 13V18C24.5523 18 25 18.4477 25 19V24.7789C23.2744 23.6538 21.2136 23 19 23C12.9249 23 8 27.9249 8 34V40C8 46.0751 12.9249 51 19 51C21.6366 51 24.0566 50.0723 25.9514 48.5256C27.1653 50.6038 29.4196 52 32 52V47C30.8954 47 30 46.1046 30 45V19ZM19 28C22.3137 28 25 30.6863 25 34V40C25 43.3137 22.3137 46 19 46C15.6863 46 13 43.3137 13 40V34C13 30.6863 15.6863 28 19 28Z" fill="black"/>
<rect width="2" height="64" fill="#D9D9D9"/>
</svg>
