<svg width="32" height="64" viewBox="0 0 32 64" fill="none" xmlns="http://www.w3.org/2000/svg">
<path fill-rule="evenodd" clip-rule="evenodd" d="M24 13C27.3137 13 30 15.6863 30 19V45C30 46.1046 30.8954 47 32 47V52C29.4196 52 27.1653 50.6038 25.9514 48.5256C24.0566 50.0723 21.6366 51 19 51C12.9249 51 8 46.0751 8 40V34C8 27.9249 12.9249 23 19 23C21.2136 23 23.2744 23.6538 25 24.7789V19C25 18.4477 24.5523 18 24 18V13ZM25 34C25 30.6863 22.3137 28 19 28C15.6863 28 13 30.6863 13 34V40C13 43.3137 15.6863 46 19 46C22.3137 46 25 43.3137 25 40V34Z" fill="black"/>
<rect width="2" height="64" fill="#D9D9D9"/>
</svg>
