<svg width="37" height="64" viewBox="0 0 37 64" fill="none" xmlns="http://www.w3.org/2000/svg">
<path fill-rule="evenodd" clip-rule="evenodd" d="M12 44C12 45.6569 10.6569 47 9 47V52C10.0609 52 11.0736 51.7935 12 51.4185V54C12 59.5228 16.4772 64 22 64H31C34.3137 64 37 61.3137 37 58V53H32V58C32 58.5523 31.5523 59 31 59H22C19.2386 59 17 56.7614 17 54V49.6622C18.4709 50.513 20.1786 51 22 51C27.5228 51 32 46.5228 32 41V33C32 27.4772 27.5228 23 22 23C20.1786 23 18.4709 23.487 17 24.3378V13H12V44ZM17 41C17 43.7614 19.2386 46 22 46C24.7614 46 27 43.7614 27 41V33C27 30.2386 24.7614 28 22 28C19.2386 28 17 30.2386 17 33V41Z" fill="black"/>
<rect width="2" height="64" fill="#D9D9D9"/>
</svg>
