<svg width="42" height="64" viewBox="0 0 42 64" fill="none" xmlns="http://www.w3.org/2000/svg">
<path fill-rule="evenodd" clip-rule="evenodd" d="M39.896 34H42V29H39.7645C38.3261 19.932 30.4726 13 21 13C11.5274 13 3.67385 19.932 2.2355 29H0V34H2.10401C3.1034 43.5533 11.1821 51 21 51C30.8179 51 38.8966 43.5533 39.896 34ZM7.32218 29H34.6778C33.3045 22.7096 27.7022 18 21 18C14.2978 18 8.69552 22.7096 7.32218 29ZM34.8582 34H7.14178C8.11224 40.7846 13.9471 46 21 46C28.0529 46 33.8878 40.7846 34.8582 34Z" fill="black"/>
<rect width="2" height="64" fill="#D9D9D9"/>
</svg>
