<svg width="32" height="64" viewBox="0 0 32 64" fill="none" xmlns="http://www.w3.org/2000/svg">
<path d="M32 4H7V9H32V4Z" fill="black"/>
<path fill-rule="evenodd" clip-rule="evenodd" d="M7 23C10.7248 23 14.0173 24.8514 16.0072 27.6841C18.3919 24.8218 21.9832 23 26 23C29.3137 23 32 25.6863 32 29V45C32 48.3137 29.3137 51 26 51C21.9832 51 18.3919 49.1782 16.0072 46.3159C14.0173 49.1486 10.7248 51 7 51V46C10.3137 46 13 43.3137 13 40V34C13 30.6863 10.3137 28 7 28V23ZM18 36C18 31.5817 21.5817 28 26 28C26.5523 28 27 28.4477 27 29V45C27 45.5523 26.5523 46 26 46C21.5817 46 18 42.4183 18 38V36Z" fill="black"/>
<rect width="2" height="64" fill="#D9D9D9"/>
</svg>
