<svg width="32" height="64" viewBox="0 0 32 64" fill="none" xmlns="http://www.w3.org/2000/svg">
<path fill-rule="evenodd" clip-rule="evenodd" d="M16.0072 27.6841C14.0173 24.8514 10.7248 23 7 23V28C10.3137 28 13 30.6863 13 34V40C13 43.3137 10.3137 46 7 46V51C10.7248 51 14.0173 49.1486 16.0072 46.3159C18.3919 49.1782 21.9832 51 26 51C29.3137 51 32 48.3137 32 45V29C32 25.6863 29.3137 23 26 23C21.9832 23 18.3919 24.8218 16.0072 27.6841ZM26 28C21.5817 28 18 31.5817 18 36V38C18 42.4183 21.5817 46 26 46C26.5523 46 27 45.5523 27 45V29C27 28.4477 26.5523 28 26 28Z" fill="black"/>
<rect width="2" height="64" fill="#D9D9D9"/>
</svg>
