<svg width="34" height="64" viewBox="0 0 34 64" fill="none" xmlns="http://www.w3.org/2000/svg">
<path d="M34 4H7V9H34V4Z" fill="black"/>
<path fill-rule="evenodd" clip-rule="evenodd" d="M34 22H18.3529C12.6352 22 8 26.6352 8 32.3529C8 35.4717 10.5283 38 13.6471 38H25C26.4368 38 27.795 37.6633 29 37.0645V41C29 43.7614 26.7614 46 24 46H17C14.2386 46 12 43.7614 12 41H7C7 46.5228 11.4772 51 17 51H24C29.5228 51 34 46.5228 34 41V22ZM18.3529 27H29V29C29 31.2091 27.2091 33 25 33H13.6471C13.2897 33 13 32.7103 13 32.3529C13 29.3966 15.3966 27 18.3529 27Z" fill="black"/>
<rect width="2" height="64" fill="#D9D9D9"/>
</svg>
