<svg width="34" height="64" viewBox="0 0 34 64" fill="none" xmlns="http://www.w3.org/2000/svg">
<path fill-rule="evenodd" clip-rule="evenodd" d="M34 41C34 46.5228 29.5228 51 24 51H17C11.4772 51 7 46.5228 7 41H12C12 43.7614 14.2386 46 17 46H24C26.7614 46 29 43.7614 29 41V37.0645C27.795 37.6633 26.4368 38 25 38H13.6471C10.5283 38 8 35.4717 8 32.3529C8 26.6352 12.6352 22 18.3529 22H34V41ZM18.3529 27C15.3966 27 13 29.3966 13 32.3529C13 32.7103 13.2897 33 13.6471 33H25C27.2091 33 29 31.2091 29 29V27H18.3529Z" fill="black"/>
<rect width="2" height="64" fill="#D9D9D9"/>
</svg>
