<svg width="41" height="64" viewBox="0 0 41 64" fill="none" xmlns="http://www.w3.org/2000/svg">
<path d="M41 18C38.2386 18 36 20.2386 36 23H31C31 21.178 31.4895 19.4712 32.3408 18H19.7227C21.7675 20.4336 23 23.5726 23 27V37C23 41.0217 21.3035 44.6467 18.5879 47.2002H33.1562C31.8071 45.4957 31 43.3426 31 41H36C36 43.7614 38.2386 46 41 46V51H9V46C13.9706 46 18 41.9706 18 37V27C18 22.0294 13.9706 18 9 18V13H41V18Z" fill="black"/>
<path d="M41 1V6H9V1H41Z" fill="black"/>
<rect width="2" height="64" fill="#D9D9D9"/>
</svg>
