<svg width="47" height="64" viewBox="0 0 47 64" fill="none" xmlns="http://www.w3.org/2000/svg">
<path d="M24 28C28.4183 28 32 31.5817 32 36H27C27 34.3431 25.6569 33 24 33H20C18.3431 33 17 34.3431 17 36V43C17 44.6569 18.3431 46 20 46H24C25.6569 46 27 44.6569 27 43H32C32 47.4183 28.4183 51 24 51H20C15.5817 51 12 47.4183 12 43V36C12 31.5817 15.5817 28 20 28H24Z" fill="black"/>
<path d="M26 13C33.1797 13 39 18.8203 39 26V38C39 42.4183 42.5817 46 47 46V51C39.8203 51 34 45.1797 34 38V26C34 21.5817 30.4183 18 26 18H24C19.5817 18 16 21.5817 16 26H11C11 18.8203 16.8203 13 24 13H26Z" fill="black"/>
<path d="M40 6H12V1H40V6Z" fill="black"/>
<rect width="2" height="64" fill="#D9D9D9"/>
</svg>
