<svg width="33" height="64" viewBox="0 0 33 64" fill="none" xmlns="http://www.w3.org/2000/svg">
<path fill-rule="evenodd" clip-rule="evenodd" d="M11 41C11 43.7614 13.2386 46 16 46H23C25.7614 46 28 43.7614 28 41V33.0615C26.7947 33.6607 25.4373 34 24 34H13C9.68629 34 7 31.3137 7 28V24C7 17.9249 11.9249 13 18 13H33V41C33 46.5228 28.5228 51 23 51H16C10.4772 51 6 46.5228 6 41H11ZM18 18C14.6863 18 12 20.6863 12 24V28C12 28.5523 12.4477 29 13 29H24C26.2091 29 28 27.2091 28 25V18H18Z" fill="black"/>
<rect width="2" height="64" fill="#D9D9D9"/>
</svg>
