<svg width="34" height="64" viewBox="0 0 34 64" fill="none" xmlns="http://www.w3.org/2000/svg">
<path fill-rule="evenodd" clip-rule="evenodd" d="M28 13C31.3137 13 34 15.6863 34 19V45C34 48.3137 31.3137 51 28 51H27C22.0786 51 17.7107 48.6298 14.9756 44.9688C12.6688 48.5943 8.61555 51 4 51V46C8.41828 46 12 42.4183 12 38V26C12 21.5817 8.41828 18 4 18V13C8.61526 13 12.6687 15.4051 14.9756 19.0303C17.7108 15.3695 22.0788 13 27 13H28ZM27 18C21.4772 18 17 22.4772 17 28V36C17 41.5228 21.4772 46 27 46H28C28.5523 46 29 45.5523 29 45V19C29 18.4477 28.5523 18 28 18H27Z" fill="black"/>
<rect width="2" height="64" fill="#D9D9D9"/>
</svg>
