<svg width="33" height="64" viewBox="0 0 33 64" fill="none" xmlns="http://www.w3.org/2000/svg">
<path d="M23 13C28.5228 13 33 17.4772 33 23V25C33 27.9879 31.6878 30.6676 29.6104 32.5C31.6878 34.3324 33 37.0121 33 40V41C33 46.5228 28.5228 51 23 51H12C9.23858 51 7 48.7614 7 46V44H12V46H23C25.7614 46 28 43.7614 28 41V40C28 37.2386 25.7614 35 23 35H12V30H23C25.7614 30 28 27.7614 28 25V23C28 20.2386 25.7614 18 23 18H12V21H7V18C7 15.2386 9.23858 13 12 13H23Z" fill="black"/>
<rect width="2" height="64" fill="#D9D9D9"/>
</svg>
