<svg width="35" height="64" viewBox="0 0 35 64" fill="none" xmlns="http://www.w3.org/2000/svg">
<path d="M21 42.915L21.0039 43.0732C21.0863 44.7035 22.4343 45.9999 24.085 46C27.3517 46 30 43.3517 30 40.085V17C30 16.4477 29.5523 16 29 16V11C32.3137 11 35 13.6863 35 17V40.085C35 46.1131 30.1131 51 24.085 51C21.9177 51 19.9517 50.1451 18.5 48.7568C17.0483 50.1451 15.0823 51 12.915 51C6.88691 51 2 46.1131 2 40.085V17C2 13.6863 4.68629 11 8 11V16C7.44772 16 7 16.4477 7 17V40.085C7 43.3517 9.64833 46 12.915 46C14.5657 45.9999 15.9137 44.7035 15.9961 43.0732L16 42.915V1H21V42.915Z" fill="black"/>
<rect width="2" height="64" fill="#D9D9D9"/>
</svg>
