<svg width="31" height="64" viewBox="0 0 31 64" fill="none" xmlns="http://www.w3.org/2000/svg">
<path fill-rule="evenodd" clip-rule="evenodd" d="M23 1C26.3137 1 29 3.68629 29 7V45C29 46.1046 29.8954 47 31 47V52C28.0418 52 25.5141 50.1642 24.4893 47.5703C22.1021 49.7028 18.9529 51 15.5 51C8.04416 51 2 44.9558 2 37.5V26.5C2 19.0442 8.04416 13 15.5 13C18.7215 13 21.6793 14.1286 24 16.0117V7C24 6.44772 23.5523 6 23 6V1ZM15.5 18C10.8056 18 7 21.8056 7 26.5V37.5C7 42.1944 10.8056 46 15.5 46C20.1944 46 24 42.1944 24 37.5V26.5C24 21.8056 20.1944 18 15.5 18Z" fill="black"/>
<rect width="2" height="64" fill="#D9D9D9"/>
</svg>
