<svg width="30" height="64" viewBox="0 0 30 64" fill="none" xmlns="http://www.w3.org/2000/svg">
<path fill-rule="evenodd" clip-rule="evenodd" d="M3 20C3 16.2549 5.94111 13.1963 9.63965 13.0088L10 13H22C26.4183 13 30 16.5817 30 21V34H8V46H20C22.7614 46 25 43.7614 25 41H30C30 46.5228 25.5228 51 20 51H7.5C5.01472 51 3 48.9853 3 46.5V20ZM10 18C8.89543 18 8 18.8954 8 20V29H25V21C25 19.3431 23.6569 18 22 18H10Z" fill="black"/>
<path d="M30 6H3V1H30V6Z" fill="black"/>
<rect width="2" height="64" fill="#D9D9D9"/>
</svg>
