<svg width="33" height="64" viewBox="0 0 33 64" fill="none" xmlns="http://www.w3.org/2000/svg">
<path fill-rule="evenodd" clip-rule="evenodd" d="M27 13C30.3137 13 33 15.6863 33 19V45C33 48.3137 30.3137 51 27 51H26C21.0786 51 16.7107 48.6298 13.9756 44.9688C11.6688 48.5943 7.61555 51 3 51V46C7.41828 46 11 42.4183 11 38V26C11 21.5817 7.41828 18 3 18V13C7.61526 13 11.6687 15.4051 13.9756 19.0303C16.7108 15.3695 21.0788 13 26 13H27ZM26 18C20.4772 18 16 22.4772 16 28V36C16 41.5228 20.4772 46 26 46H27C27.5523 46 28 45.5523 28 45V19C28 18.4477 27.5523 18 27 18H26Z" fill="black"/>
<path d="M33 6H3V1H33V6Z" fill="black"/>
<rect width="2" height="64" fill="#D9D9D9"/>
</svg>
