<svg width="31" height="64" viewBox="0 0 31 64" fill="none" xmlns="http://www.w3.org/2000/svg">
<path d="M21 13C26.5228 13 31 17.4772 31 23V25C31 27.9879 29.6878 30.6676 27.6104 32.5C29.6878 34.3324 31 37.0121 31 40V41C31 46.5228 26.5228 51 21 51H10C7.23858 51 5 48.7614 5 46V44H10V46H21C23.7614 46 26 43.7614 26 41V40C26 37.2386 23.7614 35 21 35H10V30H21C23.7614 30 26 27.7614 26 25V23C26 20.2386 23.7614 18 21 18H10V21H5V18C5 15.2386 7.23858 13 10 13H21Z" fill="black"/>
<path d="M31 6H5V1H31V6Z" fill="black"/>
<rect width="2" height="64" fill="#D9D9D9"/>
</svg>
