<svg width="36" height="64" viewBox="0 0 36 64" fill="none" xmlns="http://www.w3.org/2000/svg">
<path d="M25.085 13C31.1131 13 36 17.8869 36 23.915V45C36 48.3137 33.3137 51 30 51V46C30.5523 46 31 45.5523 31 45V23.915C31 20.6483 28.3517 18 25.085 18C23.4343 18.0001 22.0863 19.2965 22.0039 20.9268L22 21.085V43H17V21.085L16.9961 20.9268C16.9137 19.2965 15.5657 18.0001 13.915 18C10.6483 18 8 20.6483 8 23.915V45C8 45.5523 8.44772 46 9 46V51C5.68629 51 3 48.3137 3 45V23.915C3 17.8869 7.88691 13 13.915 13C16.082 13 18.0484 13.8542 19.5 15.2422C20.9516 13.8542 22.918 13 25.085 13Z" fill="black"/>
<path d="M36 1V6H3V1H36Z" fill="black"/>
<rect width="2" height="64" fill="#D9D9D9"/>
</svg>
