<svg width="49" height="64" viewBox="0 0 49 64" fill="none" xmlns="http://www.w3.org/2000/svg">
<path d="M33 1V6C33 7.82144 32.513 9.52913 31.6622 11H46V16H35V23C35 27.5157 33.931 31.7817 32.0323 35.5588C35.1629 41.7529 41.5855 46 49 46V51C40.6641 51 33.3207 46.7501 29.0185 40.2989C23.8918 46.8153 15.9346 51 7 51V46C15.1938 46 22.3868 41.7153 26.4608 35.2643C26.4286 35.1764 26.3969 35.0883 26.3657 35H26.6253C28.7659 31.5065 30 27.3974 30 23V16H11V11H23C25.7614 11 28 8.76142 28 6V1H33Z" fill="black"/>
<rect width="2" height="64" fill="#D9D9D9"/>
</svg>
