<svg width="42" height="64" viewBox="0 0 42 64" fill="none" xmlns="http://www.w3.org/2000/svg">
<path d="M12 4H42V9H12V4Z" fill="black"/>
<path fill-rule="evenodd" clip-rule="evenodd" d="M27 13C18.7157 13 12 19.7157 12 28V36C12 44.2843 18.7157 51 27 51C35.2843 51 42 44.2843 42 36V28C42 19.7157 35.2843 13 27 13ZM37 36V35H17V36C17 41.5229 21.4772 46 27 46C32.5228 46 37 41.5229 37 36ZM37 28V30H17V28C17 22.4772 21.4772 18 27 18C32.5228 18 37 22.4772 37 28Z" fill="black"/>
<rect width="2" height="64" fill="#D9D9D9"/>
</svg>
