<svg width="48" height="64" viewBox="0 0 48 64" fill="none" xmlns="http://www.w3.org/2000/svg">
<path d="M27 6C31.4183 6 35 9.58172 35 14V38C35 45.1797 40.8203 51 48 51V46C43.5817 46 40 42.4183 40 38V14C40 6.8203 34.1797 1 27 1H25C17.8203 1 12 6.8203 12 14H17C17 9.58172 20.5817 6 25 6H27Z" fill="black"/>
<path d="M18 41C18 43.7614 20.2386 46 23 46C25.7614 46 28 43.7614 28 41H33C33 46.5228 28.5228 51 23 51C17.4771 51 13 46.5228 13 41V33C13 27.4772 17.4771 23 23 23C28.5228 23 33 27.4772 33 33H28C28 30.2386 25.7614 28 23 28C20.2386 28 18 30.2386 18 33V41Z" fill="black"/>
<rect width="2" height="64" fill="#D9D9D9"/>
</svg>
