<svg width="48" height="64" viewBox="0 0 48 64" fill="none" xmlns="http://www.w3.org/2000/svg">
<path d="M40 4H12V9H40V4Z" fill="black"/>
<path d="M35 26C35 21.5817 31.4182 18 27 18H25C20.5817 18 17 21.5817 17 26H12C12 18.8203 17.8203 13 25 13H27C34.1797 13 40 18.8203 40 26V38C40 42.4183 43.5817 46 48 46V51C40.8203 51 35 45.1797 35 38L35 26Z" fill="black"/>
<path d="M23 46C20.2385 46 18 43.7614 18 41V38C18 35.2386 20.2386 33 23 33C25.7614 33 28 35.2386 28 38H33C33 32.4772 28.5228 28 23 28C17.4771 28 13 32.4772 13 38L13 41C13 46.5228 17.4771 51 23 51C28.5228 51 33 46.5228 33 41H28C28 43.7614 25.7614 46 23 46Z" fill="black"/>
<rect width="2" height="64" fill="#D9D9D9"/>
</svg>
