<svg width="48" height="64" viewBox="0 0 48 64" fill="none" xmlns="http://www.w3.org/2000/svg">
<path fill-rule="evenodd" clip-rule="evenodd" d="M12 9.5C12 4.80558 15.8056 1 20.5 1C25.1944 1 29 4.80558 29 9.5V16H39V44C39 45.1046 39.8954 46 41 46C42.1046 46 43 45.1046 43 44V32H48V44C48 47.866 44.866 51 41 51C37.134 51 34 47.866 34 44V21H29V42.5C29 47.1944 25.1944 51 20.5 51C15.8056 51 12 47.1944 12 42.5V38H17V42.5C17 44.433 18.567 46 20.5 46C22.433 46 24 44.433 24 42.5V21H12V9.5ZM24 9.5V16H17V9.5C17 7.567 18.567 6 20.5 6C22.433 6 24 7.567 24 9.5Z" fill="black"/>
<rect width="2" height="64" fill="#D9D9D9"/>
</svg>
