<svg width="56" height="64" viewBox="0 0 56 64" fill="none" xmlns="http://www.w3.org/2000/svg">
<path fill-rule="evenodd" clip-rule="evenodd" d="M52.8218 29H56V24H52.9212C51.9023 11.128 41.1339 1 28 1C14.8661 1 4.09771 11.128 3.07883 24H0V29H3.17815C4.66022 41.3927 15.2082 51 28 51C40.7918 51 51.3398 41.3927 52.8218 29ZM8.09875 24H47.9012C46.8978 13.8934 38.3707 6 28 6C17.6293 6 9.1022 13.8934 8.09875 24ZM47.7765 29H8.2235C9.67095 38.6225 17.9739 46 28 46C38.0261 46 46.3291 38.6225 47.7765 29Z" fill="black"/>
<rect width="2" height="64" fill="#D9D9D9"/>
</svg>
