<svg width="42" height="64" viewBox="0 0 42 64" fill="none" xmlns="http://www.w3.org/2000/svg">
<path d="M10 4H42V9H10V4Z" fill="black"/>
<path d="M10 13H42V18C39.2386 18 37 20.2386 37 23H32C32 21.1786 32.487 19.4709 33.3378 18H20.7242C22.7686 20.4335 24 23.573 24 27V37C24 41.0212 22.3046 44.6465 19.5896 47.2H34.1535C32.805 45.4958 32 43.3419 32 41H37C37 43.7614 39.2386 46 42 46V51H10V46C14.9706 46 19 41.9706 19 37V27C19 22.0294 14.9706 18 10 18V13Z" fill="black"/>
<rect width="2" height="64" fill="#D9D9D9"/>
</svg>
