<svg width="31" height="64" viewBox="0 0 31 64" fill="none" xmlns="http://www.w3.org/2000/svg">
<path d="M16 16C16 13.7909 17.7909 12 20 12C22.2091 12 24 13.7909 24 16C24 18.2091 22.2091 20 20 20C17.7909 20 16 18.2091 16 16Z" fill="black"/>
<path d="M31 36V23H26V36C26 39.3137 23.3137 42 20 42C16.6863 42 14 39.3137 14 36V23H9V36C9 42.0751 13.9249 47 20 47C22.2136 47 24.2744 46.3462 26 45.2211V48C26 54.0751 21.0751 59 15 59H13V64H15C23.8366 64 31 56.8366 31 48V37H30.9552C30.9848 36.6706 31 36.3371 31 36Z" fill="black"/>
<rect width="2" height="64" fill="#D9D9D9"/>
</svg>
