<svg width="31" height="64" viewBox="0 0 31 64" fill="none" xmlns="http://www.w3.org/2000/svg">
<path d="M18 15C18 13.8954 18.8954 13 20 13C21.1046 13 22 13.8954 22 15C22 16.1046 21.1046 17 20 17C18.8954 17 18 16.1046 18 15Z" fill="black"/>
<path fill-rule="evenodd" clip-rule="evenodd" d="M20 8C16.134 8 13 11.134 13 15C13 18.866 16.134 22 20 22C23.866 22 27 18.866 27 15C27 11.134 23.866 8 20 8ZM16 15C16 17.2091 17.7909 19 20 19C22.2091 19 24 17.2091 24 15C24 12.7909 22.2091 11 20 11C17.7909 11 16 12.7909 16 15Z" fill="black"/>
<path d="M31 23V36C31 36.3371 30.9848 36.6706 30.9552 37H31V48C31 56.8366 23.8366 64 15 64H13V59H15C21.0751 59 26 54.0751 26 48V45.2211C24.2744 46.3462 22.2136 47 20 47C13.9249 47 9 42.0751 9 36V23H14V36C14 39.3137 16.6863 42 20 42C23.3137 42 26 39.3137 26 36V23H31Z" fill="black"/>
<rect width="2" height="64" fill="#D9D9D9"/>
</svg>
