<svg width="34" height="64" viewBox="0 0 34 64" fill="none" xmlns="http://www.w3.org/2000/svg">
<path d="M15.5 16C15.5 13.7909 17.2909 12 19.5 12C21.7091 12 23.5 13.7909 23.5 16C23.5 18.2091 21.7091 20 19.5 20C17.2909 20 15.5 18.2091 15.5 16Z" fill="black"/>
<path d="M5.68114 51H11.033L19.5 31.2438L27.967 51H33.3188L21.9577 24.4907C21.5701 23.5864 20.6809 23 19.697 23C19.6305 23 19.5648 23.0026 19.5 23.0076C19.4352 23.0026 19.3695 23 19.303 23C18.3191 23 17.4299 23.5864 17.0423 24.4907L5.68114 51Z" fill="black"/>
<rect width="2" height="64" fill="#D9D9D9"/>
</svg>
