<svg width="34" height="64" viewBox="0 0 34 64" fill="none" xmlns="http://www.w3.org/2000/svg">
<path d="M17.5 15C17.5 13.8954 18.3954 13 19.5 13C20.6046 13 21.5 13.8954 21.5 15C21.5 16.1046 20.6046 17 19.5 17C18.3954 17 17.5 16.1046 17.5 15Z" fill="black"/>
<path fill-rule="evenodd" clip-rule="evenodd" d="M19.5 8C15.634 8 12.5 11.134 12.5 15C12.5 18.866 15.634 22 19.5 22C23.366 22 26.5 18.866 26.5 15C26.5 11.134 23.366 8 19.5 8ZM15.5 15C15.5 17.2091 17.2909 19 19.5 19C21.7091 19 23.5 17.2091 23.5 15C23.5 12.7909 21.7091 11 19.5 11C17.2909 11 15.5 12.7909 15.5 15Z" fill="black"/>
<path d="M11.033 51H5.68114L17.0423 24.4907C17.4299 23.5864 18.3191 23 19.303 23C19.3695 23 19.4352 23.0026 19.5 23.0076C19.5648 23.0026 19.6305 23 19.697 23C20.6809 23 21.5701 23.5864 21.9577 24.4907L33.3188 51H27.967L19.5 31.2438L11.033 51Z" fill="black"/>
<rect width="2" height="64" fill="#D9D9D9"/>
</svg>
