<svg width="32" height="64" viewBox="0 0 32 64" fill="none" xmlns="http://www.w3.org/2000/svg">
<path d="M19 15C19 13.8954 19.8954 13 21 13C22.1046 13 23 13.8954 23 15C23 16.1046 22.1046 17 21 17C19.8954 17 19 16.1046 19 15Z" fill="black"/>
<path fill-rule="evenodd" clip-rule="evenodd" d="M21 8C17.134 8 14 11.134 14 15C14 18.866 17.134 22 21 22C24.866 22 28 18.866 28 15C28 11.134 24.866 8 21 8ZM17 15C17 17.2091 18.7909 19 21 19C23.2091 19 25 17.2091 25 15C25 12.7909 23.2091 11 21 11C18.7909 11 17 12.7909 17 15Z" fill="black"/>
<path d="M32 23H12V28H26.7882L9.78815 64H15.2117L32 28.4485L32 23Z" fill="black"/>
<rect width="2" height="64" fill="#D9D9D9"/>
</svg>
