<svg width="33" height="64" viewBox="0 0 33 64" fill="none" xmlns="http://www.w3.org/2000/svg">
<path d="M18 15C18 13.8954 18.8954 13 20 13C21.1046 13 22 13.8954 22 15C22 16.1046 21.1046 17 20 17C18.8954 17 18 16.1046 18 15Z" fill="black"/>
<path fill-rule="evenodd" clip-rule="evenodd" d="M20 8C16.134 8 13 11.134 13 15C13 18.866 16.134 22 20 22C23.866 22 27 18.866 27 15C27 11.134 23.866 8 20 8ZM16 15C16 17.2091 17.7909 19 20 19C22.2091 19 24 17.2091 24 15C24 12.7909 22.2091 11 20 11C17.7909 11 16 12.7909 16 15Z" fill="black"/>
<path d="M33 23V28.9199L13.0732 46H33V51H7V45.0801L26.9268 28H7V23H33Z" fill="black"/>
<rect width="2" height="64" fill="#D9D9D9"/>
</svg>
