<svg width="29" height="64" viewBox="0 0 29 64" fill="none" xmlns="http://www.w3.org/2000/svg">
<path d="M11.5 15C11.5 13.8954 12.3954 13 13.5 13C14.6046 13 15.5 13.8954 15.5 15C15.5 16.1046 14.6046 17 13.5 17C12.3954 17 11.5 16.1046 11.5 15Z" fill="black"/>
<path fill-rule="evenodd" clip-rule="evenodd" d="M13.5 8C9.63401 8 6.5 11.134 6.5 15C6.5 18.866 9.63401 22 13.5 22C17.366 22 20.5 18.866 20.5 15C20.5 11.134 17.366 8 13.5 8ZM9.5 15C9.5 17.2091 11.2909 19 13.5 19C15.7091 19 17.5 17.2091 17.5 15C17.5 12.7909 15.7091 11 13.5 11C11.2909 11 9.5 12.7909 9.5 15Z" fill="black"/>
<path d="M11 24V45C11 48.3137 13.6863 51 17 51H23C26.3137 51 29 48.3137 29 45V41H24V45C24 45.5523 23.5523 46 23 46H17C16.4477 46 16 45.5523 16 45V24H11Z" fill="black"/>
<rect width="2" height="64" fill="#D9D9D9"/>
</svg>
