<svg width="31" height="64" viewBox="0 0 31 64" fill="none" xmlns="http://www.w3.org/2000/svg">
<path fill-rule="evenodd" clip-rule="evenodd" d="M13 15C13 11.134 16.134 8 20 8C23.866 8 27 11.134 27 15C27 18.866 23.866 22 20 22C16.134 22 13 18.866 13 15ZM20 18C18.3431 18 17 16.6569 17 15C17 13.3431 18.3431 12 20 12C21.6569 12 23 13.3431 23 15C23 16.6569 21.6569 18 20 18Z" fill="black"/>
<path d="M31 36V23H26V36C26 39.3137 23.3137 42 20 42C16.6863 42 14 39.3137 14 36V23H9V36C9 42.0751 13.9249 47 20 47C22.2136 47 24.2744 46.3462 26 45.2211V48C26 54.0751 21.0751 59 15 59H13V64H15C23.8366 64 31 56.8366 31 48V37H30.9552C30.9848 36.6706 31 36.3371 31 36Z" fill="black"/>
<rect width="2" height="64" fill="#D9D9D9"/>
</svg>
