<svg width="44" height="64" viewBox="0 0 44 64" fill="none" xmlns="http://www.w3.org/2000/svg">
<path fill-rule="evenodd" clip-rule="evenodd" d="M28 8C28 4.13401 31.134 1 35 1C38.866 1 42 4.13401 42 8C42 11.866 38.866 15 35 15C31.134 15 28 11.866 28 8ZM35 11C33.3431 11 32 9.65685 32 8C32 6.34315 33.3431 5 35 5C36.6569 5 38 6.34315 38 8C38 9.65685 36.6569 11 35 11Z" fill="black"/>
<path d="M35 15H34C29.5817 15 26 18.5817 26 23V30H17V35H26V43C26 44.6569 24.6569 46 23 46H21C19.3431 46 18 44.6569 18 43H13C13 47.4183 16.5817 51 21 51H23C27.4183 51 31 47.4183 31 43V23C31 21.3431 32.3431 20 34 20H36C37.6569 20 39 21.3431 39 23H44C44 18.5817 40.4183 15 36 15H35Z" fill="black"/>
<rect width="2" height="64" fill="#D9D9D9"/>
</svg>
