<svg width="50" height="64" viewBox="0 0 50 64" fill="none" xmlns="http://www.w3.org/2000/svg">
<path fill-rule="evenodd" clip-rule="evenodd" d="M21 8C21 4.13401 24.134 1 28 1C31.866 1 35 4.13401 35 8C35 11.866 31.866 15 28 15C24.134 15 21 11.866 21 8ZM28 11C26.3431 11 25 9.65685 25 8C25 6.34315 26.3431 5 28 5C29.6569 5 31 6.34315 31 8C31 9.65685 29.6569 11 28 11Z" fill="black"/>
<path d="M28 15H30C36.0751 15 41 19.9249 41 26C41 32.8849 35.6479 38.5197 28.8772 38.9709L50 50.9724V51H40.9516L20 39.0957V34H28C32.4183 34 36 30.4183 36 26C36 22.6863 33.3137 20 30 20H26C22.6863 20 20 22.6863 20 26H15C15 19.9249 19.9249 15 26 15H28Z" fill="black"/>
<rect width="2" height="64" fill="#D9D9D9"/>
</svg>
