<svg width="51" height="64" viewBox="0 0 51 64" fill="none" xmlns="http://www.w3.org/2000/svg">
<path fill-rule="evenodd" clip-rule="evenodd" d="M21 8C21 4.13401 24.134 1 28 1C31.866 1 35 4.13401 35 8C35 11.866 31.866 15 28 15C24.134 15 21 11.866 21 8ZM28 11C26.3431 11 25 9.65685 25 8C25 6.34315 26.3431 5 28 5C29.6569 5 31 6.34315 31 8C31 9.65685 29.6569 11 28 11Z" fill="black"/>
<path d="M28 15C36.2843 15 43 21.7157 43 30H51V35H43V36C43 44.2843 36.2843 51 28 51H23C17.4772 51 13 46.5228 13 41H18C18 43.7614 20.2386 46 23 46H28C33.5228 46 38 41.5229 38 36V35H5V30H38C38 24.4772 33.5228 20 28 20H24C20.6863 20 18 22.6863 18 26H13C13 19.9249 17.9249 15 24 15H28Z" fill="black"/>
<rect width="2" height="64" fill="#D9D9D9"/>
</svg>
