<svg width="34" height="64" viewBox="0 0 34 64" fill="none" xmlns="http://www.w3.org/2000/svg">
<path fill-rule="evenodd" clip-rule="evenodd" d="M12.5 15C12.5 11.134 15.634 8 19.5 8C23.366 8 26.5 11.134 26.5 15C26.5 18.866 23.366 22 19.5 22C15.634 22 12.5 18.866 12.5 15ZM19.5 18C17.8431 18 16.5 16.6569 16.5 15C16.5 13.3431 17.8431 12 19.5 12C21.1569 12 22.5 13.3431 22.5 15C22.5 16.6569 21.1569 18 19.5 18Z" fill="black"/>
<path d="M5.68114 51H11.033L19.5 31.2438L27.967 51H33.3188L21.9577 24.4907C21.5701 23.5864 20.6809 23 19.697 23C19.6305 23 19.5648 23.0026 19.5 23.0076C19.4352 23.0026 19.3695 23 19.303 23C18.3191 23 17.4299 23.5864 17.0423 24.4907L5.68114 51Z" fill="black"/>
<rect width="2" height="64" fill="#D9D9D9"/>
</svg>
