<svg width="32" height="64" viewBox="0 0 32 64" fill="none" xmlns="http://www.w3.org/2000/svg">
<path fill-rule="evenodd" clip-rule="evenodd" d="M14 15C14 11.134 17.134 8 21 8C24.866 8 28 11.134 28 15C28 18.866 24.866 22 21 22C17.134 22 14 18.866 14 15ZM21 18C19.3431 18 18 16.6569 18 15C18 13.3431 19.3431 12 21 12C22.6569 12 24 13.3431 24 15C24 16.6569 22.6569 18 21 18Z" fill="black"/>
<path d="M10 45V22H15V29H32V34H15V45C15 45.5523 15.4477 46 16 46H32V51H16C12.6863 51 10 48.3137 10 45Z" fill="black"/>
<rect width="2" height="64" fill="#D9D9D9"/>
</svg>
