<svg width="43" height="64" viewBox="0 0 43 64" fill="none" xmlns="http://www.w3.org/2000/svg">
<path fill-rule="evenodd" clip-rule="evenodd" d="M21.5 8C21.5 4.13401 24.634 1 28.5 1C32.366 1 35.5 4.13401 35.5 8C35.5 11.866 32.366 15 28.5 15C24.634 15 21.5 11.866 21.5 8ZM28.5 11C26.8431 11 25.5 9.65685 25.5 8C25.5 6.34315 26.8431 5 28.5 5C30.1569 5 31.5 6.34315 31.5 8C31.5 9.65685 30.1569 11 28.5 11Z" fill="black"/>
<path d="M28.5 15H26V25H16C12.6863 25 10 27.6863 10 31V51H15V31C15 30.4477 15.4477 30 16 30H26V51H31V30H43V25H31V15H28.5Z" fill="black"/>
<rect width="2" height="64" fill="#D9D9D9"/>
</svg>
