<svg width="50" height="64" viewBox="0 0 50 64" fill="none" xmlns="http://www.w3.org/2000/svg">
<path fill-rule="evenodd" clip-rule="evenodd" d="M21.5 8C21.5 4.13401 24.634 1 28.5 1C32.366 1 35.5 4.13401 35.5 8C35.5 11.866 32.366 15 28.5 15C24.634 15 21.5 11.866 21.5 8ZM28.5 11C26.8431 11 25.5 9.65685 25.5 8C25.5 6.34315 26.8431 5 28.5 5C30.1569 5 31.5 6.34315 31.5 8C31.5 9.65685 30.1569 11 28.5 11Z" fill="black"/>
<path d="M28.5 15H30.7043C30.774 15.0952 30.8372 15.1961 30.8932 15.3023L49.4265 50.4179C49.5271 50.6086 49.5998 50.8039 49.6466 51H44.2108L28.4965 21.2256L15.3806 46H28V51H8.76298C8.24332 50.2872 8.10649 49.3021 8.57582 48.4156L26.1079 15.2994C26.1636 15.1942 26.2263 15.0943 26.2952 15H28.5Z" fill="black"/>
<rect width="2" height="64" fill="#D9D9D9"/>
</svg>
