<svg width="32" height="64" viewBox="0 0 32 64" fill="none" xmlns="http://www.w3.org/2000/svg">
<path fill-rule="evenodd" clip-rule="evenodd" d="M15 15C15 11.134 18.134 8 22 8C25.866 8 29 11.134 29 15C29 18.866 25.866 22 22 22C18.134 22 15 18.866 15 15ZM22 18C20.3431 18 19 16.6569 19 15C19 13.3431 20.3431 12 22 12C23.6569 12 25 13.3431 25 15C25 16.6569 23.6569 18 22 18Z" fill="black"/>
<path d="M12 28V23H32L32 28.4485L15.2117 64H9.78815L26.7882 28H12Z" fill="black"/>
<rect width="2" height="64" fill="#D9D9D9"/>
</svg>
