<svg width="47" height="64" viewBox="0 0 47 64" fill="none" xmlns="http://www.w3.org/2000/svg">
<path fill-rule="evenodd" clip-rule="evenodd" d="M20 8C20 4.13401 23.134 1 27 1C30.866 1 34 4.13401 34 8C34 11.866 30.866 15 27 15C23.134 15 20 11.866 20 8ZM27 11C25.3431 11 24 9.65685 24 8C24 6.34315 25.3431 5 27 5C28.6569 5 30 6.34315 30 8C30 9.65685 28.6569 11 27 11Z" fill="black"/>
<path d="M27 15H23C17.4772 15 13 19.4772 13 25V26H18V25C18 22.2386 20.2386 20 23 20H31C33.7614 20 36 22.2386 36 25V26C36 37.0457 27.0457 46 16 46H13V51H47V46H31.0024C37.0733 41.4389 41 34.178 41 26V25C41 19.4772 36.5228 15 31 15H27Z" fill="black"/>
<rect width="2" height="64" fill="#D9D9D9"/>
</svg>
