<svg width="41" height="64" viewBox="0 0 41 64" fill="none" xmlns="http://www.w3.org/2000/svg">
<path fill-rule="evenodd" clip-rule="evenodd" d="M21 8C21 4.13401 24.134 1 28 1C31.866 1 35 4.13401 35 8C35 11.866 31.866 15 28 15C24.134 15 21 11.866 21 8ZM28 11C26.3431 11 25 9.65685 25 8C25 6.34315 26.3431 5 28 5C29.6569 5 31 6.34315 31 8C31 9.65685 29.6569 11 28 11Z" fill="black"/>
<path fill-rule="evenodd" clip-rule="evenodd" d="M28 15H24.0909C19.0701 15 15 19.0701 15 24.0909C15 27.5565 16.616 30.6446 19.1355 32.6429C16.6087 34.744 15 37.9114 15 41.4545C15 46.7264 19.2736 51 24.5455 51H31.4545C36.7264 51 41 46.7264 41 41.4545C41 37.9114 39.3913 34.744 36.8645 32.6429C39.384 30.6446 41 27.5565 41 24.0909C41 19.0701 36.9299 15 31.9091 15H28ZM25.9091 30C22.6456 30 20 27.3544 20 24.0909C20 21.8316 21.8316 20 24.0909 20H31.9091C34.1684 20 36 21.8316 36 24.0909C36 27.3544 33.3544 30 30.0909 30H25.9091ZM29.5455 35C33.1102 35 36 37.8898 36 41.4545C36 43.9649 33.9649 46 31.4545 46H24.5455C22.0351 46 20 43.9649 20 41.4545C20 37.8898 22.8898 35 26.4545 35H29.5455Z" fill="black"/>
<rect width="2" height="64" fill="#D9D9D9"/>
</svg>
