<svg width="52" height="64" viewBox="0 0 52 64" fill="none" xmlns="http://www.w3.org/2000/svg">
<path fill-rule="evenodd" clip-rule="evenodd" d="M20.5 8C20.5 4.13401 23.634 1 27.5 1C31.366 1 34.5 4.13401 34.5 8C34.5 11.866 31.366 15 27.5 15C23.634 15 20.5 11.866 20.5 8ZM27.5 11C25.8431 11 24.5 9.65685 24.5 8C24.5 6.34315 25.8431 5 27.5 5C29.1569 5 30.5 6.34315 30.5 8C30.5 9.65685 29.1569 11 27.5 11Z" fill="black"/>
<path fill-rule="evenodd" clip-rule="evenodd" d="M27.5 15H29.2817C29.5405 15.2136 29.757 15.4817 29.9125 15.7928L39.5161 35H52V40H42.0161L47.4653 50.8984C47.4759 50.9195 47.4861 50.9407 47.496 50.962C47.5019 50.9746 47.5077 50.9873 47.5134 51H42.044L36.544 40H18.4561L12.9561 51H7.48673C7.50191 50.966 7.51793 50.9321 7.53481 50.8984L12.984 40H4V35H15.484L25.0876 15.7928C25.2432 15.4817 25.4597 15.2136 25.7184 15H27.5ZM27.5001 21.9121L34.044 35H20.9561L27.5001 21.9121Z" fill="black"/>
<rect width="2" height="64" fill="#D9D9D9"/>
</svg>
