<svg width="52" height="64" viewBox="0 0 52 64" fill="none" xmlns="http://www.w3.org/2000/svg">
<path fill-rule="evenodd" clip-rule="evenodd" d="M20.5001 8C20.5001 4.13401 23.6341 1 27.5001 1C31.3661 1 34.5001 4.13401 34.5001 8C34.5001 11.866 31.3661 15 27.5001 15C23.6341 15 20.5001 11.866 20.5001 8ZM27.5001 11C25.8433 11 24.5001 9.65685 24.5001 8C24.5001 6.34315 25.8433 5 27.5001 5C29.157 5 30.5001 6.34315 30.5001 8C30.5001 9.65685 29.157 11 27.5001 11Z" fill="black"/>
<path fill-rule="evenodd" clip-rule="evenodd" d="M27.5001 15H25.7238C25.4671 15.2121 25.2521 15.478 25.0971 15.7863L15.9435 34H4.00012V39H13.4307L8.53614 48.739C8.15112 49.5051 8.21016 50.3358 8.57068 51H34.0001V46H15.3825L18.9005 39H36.6415L42.9727 51H48.4958C48.4739 50.9511 48.4501 50.9024 48.4246 50.854L42.1704 39H52.0001V34H39.5324L29.9005 15.7441C29.7472 15.4534 29.5401 15.2022 29.2952 15H27.5001ZM21.4133 34H34.0035L27.5554 21.7786L21.4133 34Z" fill="black"/>
<rect width="2" height="64" fill="#D9D9D9"/>
</svg>
