<svg width="46" height="64" viewBox="0 0 46 64" fill="none" xmlns="http://www.w3.org/2000/svg">
<path fill-rule="evenodd" clip-rule="evenodd" d="M17 8C17 4.13401 20.134 1 24 1C27.866 1 31 4.13401 31 8C31 11.866 27.866 15 24 15C20.134 15 17 11.866 17 8ZM24 11C22.3431 11 21 9.65685 21 8C21 6.34315 22.3431 5 24 5C25.6569 5 27 6.34315 27 8C27 9.65685 25.6569 11 24 11Z" fill="black"/>
<path fill-rule="evenodd" clip-rule="evenodd" d="M24 15H23.5C18.8056 15 15 18.8056 15 23.5C15 28.1944 18.8056 32 23.5 32H24.5C25.7477 32 26.9326 31.7312 28 31.2483V43C28 47.4183 31.5817 51 36 51H38C42.4183 51 46 47.4183 46 43H41C41 44.6569 39.6569 46 38 46H36C34.3431 46 33 44.6569 33 43V23H32.9855C32.7267 18.5383 29.0266 15 24.5 15H24ZM20 23.5C20 21.567 21.567 20 23.5 20H24.5C26.433 20 28 21.567 28 23.5C28 25.433 26.433 27 24.5 27H23.5C21.567 27 20 25.433 20 23.5Z" fill="black"/>
<rect width="2" height="64" fill="#D9D9D9"/>
</svg>
