<svg width="41" height="64" viewBox="0 0 41 64" fill="none" xmlns="http://www.w3.org/2000/svg">
<path fill-rule="evenodd" clip-rule="evenodd" d="M21 8C21 4.13401 24.134 1 28 1C31.866 1 35 4.13401 35 8C35 11.866 31.866 15 28 15C24.134 15 21 11.866 21 8ZM28 11C26.3431 11 25 9.65685 25 8C25 6.34315 26.3431 5 28 5C29.6569 5 31 6.34315 31 8C31 9.65685 29.6569 11 28 11Z" fill="black"/>
<path d="M28 15H24.0909C19.0701 15 15 19.0701 15 24.0909C15 30.1158 19.8842 35 25.9091 35H29.5455C33.1102 35 36 37.8898 36 41.4545C36 43.9649 33.9649 46 31.4545 46H23C21.3431 46 20 44.6569 20 43H15C15 47.4183 18.5817 51 23 51H31.4545C36.7264 51 41 46.7264 41 41.4545C41 35.1284 35.8716 30 29.5455 30H25.9091C22.6456 30 20 27.3544 20 24.0909C20 21.8316 21.8316 20 24.0909 20H33C34.6569 20 36 21.3431 36 23H41C41 18.5817 37.4183 15 33 15H28Z" fill="black"/>
<rect width="2" height="64" fill="#D9D9D9"/>
</svg>
