<svg width="47" height="64" viewBox="0 0 47 64" fill="none" xmlns="http://www.w3.org/2000/svg">
<path fill-rule="evenodd" clip-rule="evenodd" d="M22 8C22 4.13401 25.134 1 29 1C32.866 1 36 4.13401 36 8C36 11.866 32.866 15 29 15C25.134 15 22 11.866 22 8ZM29 11C27.3431 11 26 9.65685 26 8C26 6.34315 27.3431 5 29 5C30.6569 5 32 6.34315 32 8C32 9.65685 30.6569 11 29 11Z" fill="black"/>
<path d="M25 15C28.3137 15 31 17.6863 31 21V30H47V35H31V45C31 45.5523 31.4477 46 32 46H47V51H32C28.6863 51 26 48.3137 26 45V35H10V30H26V21C26 20.4477 25.5523 20 25 20H10V15H25Z" fill="black"/>
<rect width="2" height="64" fill="#D9D9D9"/>
</svg>
