<svg width="43" height="64" viewBox="0 0 43 64" fill="none" xmlns="http://www.w3.org/2000/svg">
<path fill-rule="evenodd" clip-rule="evenodd" d="M21 8C21 4.13401 24.134 1 28 1C31.866 1 35 4.13401 35 8C35 11.866 31.866 15 28 15C24.134 15 21 11.866 21 8ZM28 11C26.3431 11 25 9.65685 25 8C25 6.34315 26.3431 5 28 5C29.6569 5 31 6.34315 31 8C31 9.65685 29.6569 11 28 11Z" fill="black"/>
<path d="M28 15H32C38.0751 15 43 19.9249 43 26H38C38 22.6863 35.3137 20 32 20H28C22.4772 20 18 24.4772 18 30V36C18 41.5229 22.4772 46 28 46H32C35.3137 46 38 43.3137 38 40H43C43 46.0751 38.0751 51 32 51H28C19.7157 51 13 44.2843 13 36V30C13 21.7157 19.7157 15 28 15Z" fill="black"/>
<rect width="2" height="64" fill="#D9D9D9"/>
</svg>
