<svg width="53" height="64" viewBox="0 0 53 64" fill="none" xmlns="http://www.w3.org/2000/svg">
<path fill-rule="evenodd" clip-rule="evenodd" d="M11.0001 8C11.0001 4.13401 14.1341 1 18.0001 1C21.8661 1 25.0001 4.13401 25.0001 8C25.0001 11.866 21.8661 15 18.0001 15C14.1341 15 11.0001 11.866 11.0001 8ZM18.0001 11C16.3432 11 15.0001 9.65685 15.0001 8C15.0001 6.34315 16.3432 5 18.0001 5C19.6569 5 21.0001 6.34315 21.0001 8C21.0001 9.65685 19.6569 11 18.0001 11Z" fill="black"/>
<path d="M18.0001 15H20.0001C28.2844 15 35.0001 21.7157 35.0001 30V31C35.0001 36.5457 31.9906 41.3885 27.5156 43.9843L53.0001 51H35.3142L17.1516 46H17.0001V41H20.0001C25.5229 41 30.0001 36.5229 30.0001 31V30C30.0001 24.4772 25.5229 20 20.0001 20H14.0001C10.1341 20 7.00009 23.134 7.00009 27C7.00009 30.866 10.1341 34 14.0001 34H21.0001V39H14.0001C7.37267 39 2.00009 33.6274 2.00009 27C2.00009 20.3726 7.37267 15 14.0001 15H18.0001Z" fill="black"/>
<rect width="2" height="64" fill="#D9D9D9"/>
</svg>
