<svg width="48" height="64" viewBox="0 0 48 64" fill="none" xmlns="http://www.w3.org/2000/svg">
<path fill-rule="evenodd" clip-rule="evenodd" d="M13 8C13 4.13401 16.134 1 20 1C23.866 1 27 4.13401 27 8C27 11.866 23.866 15 20 15C16.134 15 13 11.866 13 8ZM20 11C18.3431 11 17 9.65685 17 8C17 6.34315 18.3431 5 20 5C21.6569 5 23 6.34315 23 8C23 9.65685 21.6569 11 20 11Z" fill="black"/>
<path d="M35 14H30V38C30 42.4183 26.4183 46 22 46H18C13.5817 46 10 42.4183 10 38V37H5V38C5 45.1797 10.8203 51 18 51H22C29.1797 51 35 45.1797 35 38V27H48V22H35V14Z" fill="black"/>
<rect width="2" height="64" fill="#D9D9D9"/>
</svg>
