<svg width="47" height="64" viewBox="0 0 47 64" fill="none" xmlns="http://www.w3.org/2000/svg">
<path fill-rule="evenodd" clip-rule="evenodd" d="M19 1V21H34C36.7614 21 39 23.2386 39 26V34H47V39H39V42.5C39 47.1944 35.1944 51 30.5 51C25.8056 51 22 47.1944 22 42.5V41C22 37.134 25.134 34 29 34H34V26H19V41C19 46.5228 14.5228 51 9 51V46C11.7614 46 14 43.7614 14 41V1H19ZM34 39H29C27.8954 39 27 39.8954 27 41V42.5C27 44.433 28.567 46 30.5 46C32.433 46 34 44.433 34 42.5V39Z" fill="black"/>
<path fill-rule="evenodd" clip-rule="evenodd" d="M21 8C21 4.13401 24.134 1 28 1C31.866 1 35 4.13401 35 8C35 11.866 31.866 15 28 15C24.134 15 21 11.866 21 8ZM28 11C26.3431 11 25 9.65685 25 8C25 6.34315 26.3431 5 28 5C29.6569 5 31 6.34315 31 8C31 9.65685 29.6569 11 28 11Z" fill="black"/>
<rect width="2" height="64" fill="#D9D9D9"/>
</svg>
