<svg width="45" height="64" viewBox="0 0 45 64" fill="none" xmlns="http://www.w3.org/2000/svg">
<path fill-rule="evenodd" clip-rule="evenodd" d="M24 8C24 4.13401 27.134 1 31 1C34.866 1 38 4.13401 38 8C38 11.866 34.866 15 31 15C27.134 15 24 11.866 24 8ZM31 11C29.3431 11 28 9.65685 28 8C28 6.34315 29.3431 5 31 5C32.6569 5 34 6.34315 34 8C34 9.65685 32.6569 11 31 11Z" fill="black"/>
<path fill-rule="evenodd" clip-rule="evenodd" d="M31 15H36C40.9706 15 45 19.0294 45 24V26.5714C45 31.542 40.9706 35.5714 36 35.5714H22V51H17V15H31ZM36 30.5714H22V20H36C38.2091 20 40 21.7909 40 24V26.5714C40 28.7806 38.2091 30.5714 36 30.5714Z" fill="black"/>
<rect width="2" height="64" fill="#D9D9D9"/>
</svg>
