<svg width="51" height="64" viewBox="0 0 51 64" fill="none" xmlns="http://www.w3.org/2000/svg">
<path fill-rule="evenodd" clip-rule="evenodd" d="M16 8C16 4.13401 19.134 1 23 1C26.866 1 30 4.13401 30 8C30 11.866 26.866 15 23 15C19.134 15 16 11.866 16 8ZM23 11C21.3431 11 20 9.65685 20 8C20 6.34315 21.3431 5 23 5C24.6569 5 26 6.34315 26 8C26 9.65685 24.6569 11 23 11Z" fill="black"/>
<path d="M23 15H19C12.9249 15 8 19.9249 8 26H13C13 22.6863 15.6863 20 19 20H23C28.5228 20 33 24.4772 33 30V36C33 41.5229 28.5228 46 23 46H18C15.2386 46 13 43.7614 13 41H8C8 46.5228 12.4772 51 18 51H23C31.2843 51 38 44.2843 38 36V30H44.5C48.0899 30 51 27.0899 51 23.5C51 19.9101 48.0899 17 44.5 17H41V22H44.5C45.3284 22 46 22.6716 46 23.5C46 24.3284 45.3284 25 44.5 25H37.1465C35.0873 19.174 29.5311 15 23 15Z" fill="black"/>
<rect width="2" height="64" fill="#D9D9D9"/>
</svg>
