<svg width="46" height="64" viewBox="0 0 46 64" fill="none" xmlns="http://www.w3.org/2000/svg">
<path fill-rule="evenodd" clip-rule="evenodd" d="M21.5 8C21.5 4.13401 24.634 1 28.5 1C32.366 1 35.5 4.13401 35.5 8C35.5 11.866 32.366 15 28.5 15C24.634 15 21.5 11.866 21.5 8ZM28.5 11C26.8431 11 25.5 9.65685 25.5 8C25.5 6.34315 26.8431 5 28.5 5C30.1569 5 31.5 6.34315 31.5 8C31.5 9.65685 30.1569 11 28.5 11Z" fill="black"/>
<path fill-rule="evenodd" clip-rule="evenodd" d="M28.5 15H12V20H26V36H14.4091C12.5263 36 11 37.5263 11 39.4091C11 45.8106 16.1894 51 22.5909 51H26.4545C28.9649 51 31 48.9649 31 46.4545V41H46V36H31V20H45V15H28.5ZM16.1933 41C16.905 43.8715 19.4994 46 22.5909 46H26V41H16.1933Z" fill="black"/>
<rect width="2" height="64" fill="#D9D9D9"/>
</svg>
