<svg width="29" height="64" viewBox="0 0 29 64" fill="none" xmlns="http://www.w3.org/2000/svg">
<path fill-rule="evenodd" clip-rule="evenodd" d="M6.5 15C6.5 11.134 9.63401 8 13.5 8C17.366 8 20.5 11.134 20.5 15C20.5 18.866 17.366 22 13.5 22C9.63401 22 6.5 18.866 6.5 15ZM13.5 18C11.8431 18 10.5 16.6569 10.5 15C10.5 13.3431 11.8431 12 13.5 12C15.1569 12 16.5 13.3431 16.5 15C16.5 16.6569 15.1569 18 13.5 18Z" fill="black"/>
<path d="M11 24H16V45C16 45.5523 16.4477 46 17 46H23C23.5523 46 24 45.5523 24 45V41H29V45C29 48.3137 26.3137 51 23 51H17C13.6863 51 11 48.3137 11 45V24Z" fill="black"/>
<rect width="2" height="64" fill="#D9D9D9"/>
</svg>
