<svg width="43" height="64" viewBox="0 0 43 64" fill="none" xmlns="http://www.w3.org/2000/svg">
<path fill-rule="evenodd" clip-rule="evenodd" d="M16.5 8C16.5 4.13401 19.634 1 23.5 1C27.366 1 30.5 4.13401 30.5 8C30.5 11.866 27.366 15 23.5 15C19.634 15 16.5 11.866 16.5 8ZM23.5 11C21.8431 11 20.5 9.65685 20.5 8C20.5 6.34315 21.8431 5 23.5 5C25.1569 5 26.5 6.34315 26.5 8C26.5 9.65685 25.1569 11 23.5 11Z" fill="black"/>
<path d="M34 15C31.2386 15 29 17.2386 29 20V26C29 28.7614 26.7614 31 24 31H23C20.2386 31 18 28.7614 18 26V17H13V26C13 31.5228 17.4772 36 23 36H24C29.5228 36 34 31.5228 34 26V20H38V51H43V20C43 17.2386 40.7614 15 38 15H34Z" fill="black"/>
<rect width="2" height="64" fill="#D9D9D9"/>
</svg>
