<svg width="48" height="64" viewBox="0 0 48 64" fill="none" xmlns="http://www.w3.org/2000/svg">
<path fill-rule="evenodd" clip-rule="evenodd" d="M13.0001 8C13.0001 4.13401 16.1341 1 20.0001 1C23.8661 1 27.0001 4.13401 27.0001 8C27.0001 11.866 23.8661 15 20.0001 15C16.1341 15 13.0001 11.866 13.0001 8ZM20.0001 11C18.3433 11 17.0001 9.65685 17.0001 8C17.0001 6.34315 18.3433 5 20.0001 5C21.657 5 23.0001 6.34315 23.0001 8C23.0001 9.65685 21.657 11 20.0001 11Z" fill="black"/>
<path d="M31.0001 13H26.0001V40C26.0001 43.3137 23.3138 46 20.0001 46C16.6864 46 14.0001 43.3137 14.0001 40V13H9.00012V40C9.00012 46.0751 13.925 51 20.0001 51C23.4241 51 26.4827 49.4356 28.5001 46.9826C30.5176 49.4356 33.5762 51 37.0001 51C43.0753 51 48.0001 46.0751 48.0001 40V38H43.0001V40C43.0001 43.3137 40.3138 46 37.0001 46C33.6864 46 31.0001 43.3137 31.0001 40V13Z" fill="black"/>
<rect width="2" height="64" fill="#D9D9D9"/>
</svg>
