<svg width="55" height="64" viewBox="0 0 55 64" fill="none" xmlns="http://www.w3.org/2000/svg">
<path fill-rule="evenodd" clip-rule="evenodd" d="M22.0001 8C22.0001 4.13401 25.1341 1 29.0001 1C32.8661 1 36.0001 4.13401 36.0001 8C36.0001 11.866 32.8661 15 29.0001 15C25.1341 15 22.0001 11.866 22.0001 8ZM29.0001 11C27.3432 11 26.0001 9.65685 26.0001 8C26.0001 6.34315 27.3432 5 29.0001 5C30.6569 5 32.0001 6.34315 32.0001 8C32.0001 9.65685 30.6569 11 29.0001 11Z" fill="black"/>
<path d="M29.0001 15H35.0001C41.0752 15 46.0001 19.9249 46.0001 26V26.7551H45.9788C45.5985 33.3111 40.1616 38.5102 33.5103 38.5102H25.0001V33.5102H33.5103C37.6468 33.5102 41.0001 30.1569 41.0001 26.0204V26C41.0001 22.6863 38.3138 20 35.0001 20H22.0001V41C22.0001 46.5228 17.5229 51 12.0001 51C6.47724 51 2.00009 46.5228 2.00009 41V40.7143H7.00009V41C7.00009 43.7614 9.23867 46 12.0001 46C14.7615 46 17.0001 43.7614 17.0001 41V15H29.0001Z" fill="black"/>
<path d="M55.0001 50.9709V51H45.9492L25.0001 39.1069V38.5102L33.0511 38.5102L55.0001 50.9709Z" fill="black"/>
<rect width="2" height="64" fill="#D9D9D9"/>
</svg>
