<svg width="40" height="64" viewBox="0 0 40 64" fill="none" xmlns="http://www.w3.org/2000/svg">
<path fill-rule="evenodd" clip-rule="evenodd" d="M40 1V51H35V26.9873C32.6793 28.8707 29.7218 30 26.5 30C19.0442 30 13 23.9558 13 16.5V14.5C13 7.04416 19.0442 1 26.5 1C29.7216 1 32.6794 2.12856 35 4.01172V1H40ZM26.5 6C21.8056 6 18 9.80558 18 14.5V16.5C18 21.1944 21.8056 25 26.5 25C31.1944 25 35 21.1944 35 16.5V14.5C35 9.80558 31.1944 6 26.5 6Z" fill="black"/>
<rect width="2" height="64" fill="#D9D9D9"/>
</svg>
