<svg width="41" height="64" viewBox="0 0 41 64" fill="none" xmlns="http://www.w3.org/2000/svg">
<path fill-rule="evenodd" clip-rule="evenodd" d="M34.5 1C38.0899 1 41 3.91015 41 7.5C41 11.0899 38.0899 14 34.5 14H28V16C33.5228 16 38 20.4772 38 26V27C38 32.5228 33.5228 37 28 37V45C28 48.3137 25.3137 51 22 51H16C12.6863 51 10 48.3137 10 45C10 41.7898 12.5211 39.1684 15.6914 39.0078L16 39H23V37H21C13.268 37 7 30.732 7 23C7 15.268 13.268 9 21 9H23.0566C23.5542 4.50014 27.3675 1 32 1H34.5ZM16 44C15.4477 44 15 44.4477 15 45C15 45.5523 15.4477 46 16 46H22C22.5523 46 23 45.5523 23 45V44H16ZM21 14C16.0294 14 12 18.0294 12 23C12 27.9706 16.0294 32 21 32H23V30H22C18.134 30 15 26.866 15 23C15 19.134 18.134 16 22 16H23V14H21ZM28 25H31V27C31 28.6569 29.6569 30 28 30V32C30.7614 32 33 29.7614 33 27V26C33 23.2386 30.7614 21 28 21V25ZM22 21C20.8954 21 20 21.8954 20 23C20 24.1046 20.8954 25 22 25H23V21H22ZM32 6C30.1362 6 28.57 7.27477 28.126 9H34.5C35.3284 9 36 8.32843 36 7.5C36 6.67157 35.3284 6 34.5 6H32Z" fill="black"/>
<rect width="2" height="64" fill="#D9D9D9"/>
</svg>
