<svg width="39" height="64" viewBox="0 0 39 64" fill="none" xmlns="http://www.w3.org/2000/svg">
<path fill-rule="evenodd" clip-rule="evenodd" d="M13 18C13 8.61116 20.6112 1 30 1H30.333C35.1195 1 39 4.88052 39 9.66699V18H34V9.66699C34 7.64195 32.3581 6 30.333 6H30C23.3726 6 18 11.3726 18 18V24C18 28.4183 21.5817 32 26 32V32.1182C26.4886 32.0407 26.9896 32 27.5 32C32.7467 32 37 36.2533 37 41.5C37 46.7467 32.7467 51 27.5 51C22.2533 51 18 46.7467 18 41.5C18 39.2583 18.7776 37.199 20.0762 35.5742C15.8751 33.4197 13 29.0459 13 24V18ZM27.5 37C25.0147 37 23 39.0147 23 41.5C23 43.9853 25.0147 46 27.5 46C29.9853 46 32 43.9853 32 41.5C32 39.0147 29.9853 37 27.5 37Z" fill="black"/>
<rect width="2" height="64" fill="#D9D9D9"/>
</svg>
