<svg width="49" height="64" viewBox="0 0 49 64" fill="none" xmlns="http://www.w3.org/2000/svg">
<path fill-rule="evenodd" clip-rule="evenodd" d="M26.5 1C31.7467 1 36 5.25329 36 10.5C36 13.6324 34.4829 16.4091 32.1445 18.1396C36.6098 20.0285 39.9309 24.0907 40.7842 29H49V34H40.7842C39.7406 40.0045 35.0045 44.7406 29 45.7842V51H24V45.7842C17.9955 44.7406 13.2594 40.0045 12.2158 34H5V29H12.2158C13.069 24.091 16.3896 20.0286 20.8545 18.1396C18.5165 16.4091 17 13.6321 17 10.5C17 5.25329 21.2533 1 26.5 1ZM17.335 34C18.2158 37.2367 20.7633 39.7842 24 40.665V34H17.335ZM29 34V40.665C32.2367 39.7842 34.7842 37.2367 35.665 34H29ZM24 22.334C20.7631 23.2148 18.2158 25.7632 17.335 29H24V22.334ZM29 29H35.665C34.7842 25.7632 32.2369 23.2148 29 22.334V29ZM26.5 6C24.0147 6 22 8.01472 22 10.5C22 12.9853 24.0147 15 26.5 15C28.9853 15 31 12.9853 31 10.5C31 8.01472 28.9853 6 26.5 6Z" fill="black"/>
<rect width="2" height="64" fill="#D9D9D9"/>
</svg>
