<svg width="40" height="64" viewBox="0 0 40 64" fill="none" xmlns="http://www.w3.org/2000/svg">
<path fill-rule="evenodd" clip-rule="evenodd" d="M28 1C34.6274 1 40 6.37258 40 13C40 19.6274 34.6274 25 28 25V34.374C31.4743 35.4416 34 38.6757 34 42.5C34 47.1944 30.1944 51 25.5 51C20.8056 51 17 47.1944 17 42.5C17 38.6757 19.5257 35.4416 23 34.374V25C23 22.2386 25.2386 20 28 20C31.866 20 35 16.866 35 13C35 9.13401 31.866 6 28 6H24C20.6863 6 18 8.68629 18 12H13C13 5.92487 17.9249 1 24 1H28ZM25.5 39C23.567 39 22 40.567 22 42.5C22 44.433 23.567 46 25.5 46C27.433 46 29 44.433 29 42.5C29 40.567 27.433 39 25.5 39Z" fill="black"/>
<rect width="2" height="64" fill="#D9D9D9"/>
</svg>
