<svg width="51" height="64" viewBox="0 0 51 64" fill="none" xmlns="http://www.w3.org/2000/svg">
<path fill-rule="evenodd" clip-rule="evenodd" d="M18 17C22.4183 17 26 20.5817 26 25V32C26 36.5413 24.405 40.709 21.7471 43.9775C23.8624 45.2612 26.345 46 29 46C30.6569 46 32 44.6569 32 43V34H37V40C37 43.3137 39.6863 46 43 46C44.6569 46 46 44.6569 46 43V40H51V43C51 47.4183 47.4183 51 43 51C40.0178 51 37.3144 49.8117 35.333 47.8848C33.87 49.7788 31.5784 51 29 51C24.9004 51 21.1043 49.7012 18 47.4932C14.8957 49.7012 11.0996 51 7 51V46C9.65475 46 12.1368 45.2609 14.252 43.9775C11.5942 40.709 10 36.541 10 32V25C10 20.5817 13.5817 17 18 17ZM15 32C15 35.2698 16.1214 38.2773 18 40.6602C19.8786 38.2773 21 35.2698 21 32V25C21 23.3431 19.6569 22 18 22C16.3431 22 15 23.3431 15 25V32Z" fill="black"/>
<path fill-rule="evenodd" clip-rule="evenodd" d="M18 1C21.866 1 25 4.13401 25 8C25 11.866 21.866 15 18 15C14.134 15 11 11.866 11 8C11 4.13401 14.134 1 18 1ZM18 6C16.8954 6 16 6.89543 16 8C16 9.10457 16.8954 10 18 10C19.1046 10 20 9.10457 20 8C20 6.89543 19.1046 6 18 6Z" fill="black"/>
<rect width="2" height="64" fill="#D9D9D9"/>
</svg>
