<svg width="47" height="64" viewBox="0 0 47 64" fill="none" xmlns="http://www.w3.org/2000/svg">
<path fill-rule="evenodd" clip-rule="evenodd" d="M30 25H47V30H30V32.334C34.0336 33.4316 37 37.1187 37 41.5C37 46.7467 32.7467 51 27.5 51C22.2533 51 18 46.7467 18 41.5C18 37.1187 20.9664 33.4316 25 32.334V30H9V25H25V1H30V25ZM27.5 37C25.0147 37 23 39.0147 23 41.5C23 43.9853 25.0147 46 27.5 46C29.9853 46 32 43.9853 32 41.5C32 39.0147 29.9853 37 27.5 37Z" fill="black"/>
<rect width="2" height="64" fill="#D9D9D9"/>
</svg>
