<svg width="49" height="64" viewBox="0 0 49 64" fill="none" xmlns="http://www.w3.org/2000/svg">
<path fill-rule="evenodd" clip-rule="evenodd" d="M31.0002 51H26.0002V29H7.17211L23.1379 13.0332C21.8205 11.7603 21.0002 9.97653 21.0002 8C21.0002 4.13401 24.1342 1 28.0002 1C31.8661 1.00013 35.0002 4.13408 35.0002 8C35.0002 9.98064 34.1759 11.7676 32.8537 13.041L48.8127 29H31.0002V51ZM17.8284 25H38.1565L28.1526 14.9961C28.1019 14.9972 28.0512 15 28.0002 15C27.9441 15 27.888 14.9964 27.8323 14.9951L17.8284 25ZM28.0002 6C26.8957 6 26.0002 6.89543 26.0002 8C26.0002 9.10457 26.8957 10 28.0002 10C29.1047 9.99987 30.0002 9.10449 30.0002 8C30.0002 6.89551 29.1047 6.00013 28.0002 6Z" fill="black"/>
<rect width="2" height="64" fill="#D9D9D9"/>
</svg>
