<svg width="45" height="64" viewBox="0 0 45 64" fill="none" xmlns="http://www.w3.org/2000/svg">
<path fill-rule="evenodd" clip-rule="evenodd" d="M28.5 9C33.1944 9 37 12.8056 37 17.5C37 22.1944 33.1944 26 28.5 26C23.8056 26 20 22.1944 20 17.5C20 12.8056 23.8056 9 28.5 9ZM28.5 14C26.567 14 25 15.567 25 17.5C25 19.433 26.567 21 28.5 21C30.433 21 32 19.433 32 17.5C32 15.567 30.433 14 28.5 14Z" fill="black"/>
<path fill-rule="evenodd" clip-rule="evenodd" d="M28.5 1C37.6127 1 45 8.3873 45 17.5C45 26.4454 37.8814 33.7269 29 33.9912V34H28C24.6863 34 22 36.6863 22 40C22 43.3137 24.6863 46 28 46H33C36.3137 46 39 43.3137 39 40H44C44 46.0751 39.0751 51 33 51H28C21.9249 51 17 46.0751 17 40C17 36.8166 18.3532 33.95 20.5146 31.9414C15.4374 29.128 12 23.7158 12 17.5C12 8.3873 19.3873 1 28.5 1ZM28.5 6C22.1487 6 17 11.1487 17 17.5C17 23.8513 22.1487 29 28.5 29C34.8513 29 40 23.8513 40 17.5C40 11.1487 34.8513 6 28.5 6Z" fill="black"/>
<rect width="2" height="64" fill="#D9D9D9"/>
</svg>
