<svg width="48" height="64" viewBox="0 0 48 64" fill="none" xmlns="http://www.w3.org/2000/svg">
<path fill-rule="evenodd" clip-rule="evenodd" d="M28.5 1C33.7467 1 38 5.25329 38 10.5C38 14.8812 35.0335 18.5674 31 19.665V22H48V27H31V51H26V27H10V22H26V19.665C21.9665 18.5674 19 14.8812 19 10.5C19 5.25329 23.2533 1 28.5 1ZM28.5 6C26.0147 6 24 8.01472 24 10.5C24 12.9853 26.0147 15 28.5 15C30.9853 15 33 12.9853 33 10.5C33 8.01472 30.9853 6 28.5 6Z" fill="black"/>
<rect width="2" height="64" fill="#D9D9D9"/>
</svg>
