<svg width="49" height="64" viewBox="0 0 49 64" fill="none" xmlns="http://www.w3.org/2000/svg">
<path d="M21 8C16.0294 8 12 12.0294 12 17V37C12 41.9706 16.0294 46 21 46C29.2843 46 36 39.2843 36 31V24C43.1797 24 49 29.8203 49 37V51H44V37C44 34.4741 42.8283 32.223 41 30.7568V31C41 42.0457 32.0457 51 21 51C13.268 51 7 44.732 7 37V17C7 9.26801 13.268 3 21 3V8Z" fill="black"/>
<path fill-rule="evenodd" clip-rule="evenodd" d="M34.5 3C39.1944 3 43 6.80558 43 11.5C43 16.1944 39.1944 20 34.5 20C29.8056 20 26 16.1944 26 11.5C26 6.80558 29.8056 3 34.5 3ZM34.5 8C32.567 8 31 9.567 31 11.5C31 13.433 32.567 15 34.5 15C36.433 15 38 13.433 38 11.5C38 9.567 36.433 8 34.5 8Z" fill="black"/>
<rect width="2" height="64" fill="#D9D9D9"/>
</svg>
