<svg width="38" height="64" viewBox="0 0 38 64" fill="none" xmlns="http://www.w3.org/2000/svg">
<path d="M17.6846 12L24.6847 0H33.3155V0.345646L23.6035 12H17.6846Z" fill="black"/>
<path d="M14 46C16.2091 46 18 44.2091 18 42V23H23V42C23 44.2091 24.7909 46 27 46H29C31.2091 46 33 44.2091 33 42V23H38V51H33V50.0645C31.795 50.6633 30.4368 51 29 51H27C24.4448 51 22.1382 49.9351 20.5 48.225C18.8618 49.9351 16.5552 51 14 51H12C7.02944 51 3 46.9706 3 42V23H8V42C8 44.2091 9.79086 46 12 46H14Z" fill="black"/>
<rect width="2" height="64" fill="#D9D9D9"/>
</svg>
