<svg width="34" height="64" viewBox="0 0 34 64" fill="none" xmlns="http://www.w3.org/2000/svg">
<path d="M17.6294 12L24.6294 1H33.703L23.7029 12H17.6294Z" fill="black"/>
<path fill-rule="evenodd" clip-rule="evenodd" d="M8 31C8 26.5817 11.5817 23 16 23H24C28.4183 23 32 26.5817 32 31V43C32 47.4183 28.4183 51 24 51H16C11.5817 51 8 47.4183 8 43V31ZM16 28H24C25.6569 28 27 29.3431 27 31V43C27 44.6569 25.6569 46 24 46H16C14.3431 46 13 44.6569 13 43V31C13 29.3431 14.3431 28 16 28Z" fill="black"/>
<rect width="2" height="64" fill="#D9D9D9"/>
</svg>
