<svg width="34" height="64" viewBox="0 0 34 64" fill="none" xmlns="http://www.w3.org/2000/svg">
<path d="M17.6846 12L24.6847 0H33.6035L23.6035 12H17.6846Z" fill="black"/>
<path d="M9 19.5C9 16.4624 11.4624 14 14.5 14H27C29.7614 14 32 16.2386 32 19V22H27V19H14.5C14.2239 19 14 19.2239 14 19.5V24C14 27.3137 16.6863 30 20 30C26.6274 30 32 35.3726 32 42V45C32 48.3137 29.3137 51 26 51H13C10.2386 51 8 48.7614 8 46H26C26.5523 46 27 45.5523 27 45V42C27 38.134 23.866 35 20 35C13.9249 35 9 30.0751 9 24V19.5Z" fill="black"/>
<rect width="2" height="64" fill="#D9D9D9"/>
</svg>
