<svg width="33" height="64" viewBox="0 0 33 64" fill="none" xmlns="http://www.w3.org/2000/svg">
<path d="M16.6846 12L23.6846 0H32.6035L22.6034 12H16.6846Z" fill="black"/>
<path d="M13 14C10.2386 14 8 16.2386 8 19H21C23.7614 19 26 21.2386 26 24V25C26 27.7614 23.7614 30 21 30H13V35H21C23.7614 35 26 37.2386 26 40V41C26 43.7614 23.7614 46 21 46H7C7 48.7614 9.23858 51 12 51H21C26.5228 51 31 46.5229 31 41V40C31 37.0133 29.6906 34.3324 27.6146 32.5C29.6906 30.6676 31 27.9867 31 25V24C31 18.4772 26.5228 14 21 14H13Z" fill="black"/>
<rect width="2" height="64" fill="#D9D9D9"/>
</svg>
