<svg width="54" height="64" viewBox="0 0 54 64" fill="none" xmlns="http://www.w3.org/2000/svg">
<path d="M8 1C8 5.41828 11.5817 9 16 9V14H14C12.8954 14 12 14.8954 12 16C12 20.4183 15.5817 24 20 24V26.5C20 30.3242 22.5259 33.5573 26 34.625V21H31V34.625C34.4741 33.5573 37 30.3242 37 26.5V24C41.4183 24 45 20.4183 45 16C45 14.8954 44.1046 14 43 14H41V9C45.4183 9 49 5.41828 49 1H54C54 5.3981 51.8153 9.28523 48.4727 11.6377C49.4277 12.8343 50 14.3499 50 16C50 21.4414 46.6565 26.1013 41.9121 28.0391C41.2423 33.941 36.7677 38.6875 31 39.7676V51H26V39.7676C20.2323 38.6875 15.7567 33.9411 15.0869 28.0391C10.343 26.1011 7 21.4411 7 16C7 14.3502 7.57152 12.8342 8.52637 11.6377C5.18405 9.28518 3 5.39781 3 1H8Z" fill="black"/>
<rect width="2" height="64" fill="#D9D9D9"/>
</svg>
