<svg width="47" height="64" viewBox="0 0 47 64" fill="none" xmlns="http://www.w3.org/2000/svg">
<path d="M11.5 24C16.1944 24 20 27.8056 20 32.5C20 34.6927 19.1689 36.6906 17.8057 38.1982C19.1617 39.5553 20 41.4299 20 43.5C20 47.6421 16.6421 51 12.5 51H10V46H12.5C13.8807 46 15 44.8807 15 43.5C15 42.1193 13.8807 41 12.5 41H10V36H11.5C13.433 36 15 34.433 15 32.5C15 30.567 13.433 29 11.5 29H10V24H11.5Z" fill="black"/>
<path d="M38.5 24C43.1944 24 47 27.8056 47 32.5C47 34.6927 46.1689 36.6906 44.8057 38.1982C46.1617 39.5553 47 41.4299 47 43.5C47 47.6421 43.6421 51 39.5 51H37V46H39.5C40.8807 46 42 44.8807 42 43.5C42 42.1193 40.8807 41 39.5 41H37V36H38.5C40.433 36 42 34.433 42 32.5C42 30.567 40.433 29 38.5 29H37V24H38.5Z" fill="black"/>
<path d="M24.5 1C29.1944 1 33 4.80558 33 9.5C33 11.6927 32.1689 13.6906 30.8057 15.1982C32.1617 16.5553 33 18.4299 33 20.5C33 24.6421 29.6421 28 25.5 28H23V23H25.5C26.8807 23 28 21.8807 28 20.5C28 19.1193 26.8807 18 25.5 18H23V13H24.5C26.433 13 28 11.433 28 9.5C28 7.567 26.433 6 24.5 6H23V1H24.5Z" fill="black"/>
<rect width="2" height="64" fill="#D9D9D9"/>
</svg>
