<svg width="51" height="64" viewBox="0 0 51 64" fill="none" xmlns="http://www.w3.org/2000/svg">
<path fill-rule="evenodd" clip-rule="evenodd" d="M9.5 38C13.0899 38 16 40.9101 16 44.5C16 48.0899 13.0899 51 9.5 51C5.91015 51 3 48.0899 3 44.5C3 40.9101 5.91015 38 9.5 38ZM9.5 43C8.67157 43 8 43.6716 8 44.5C8 45.3284 8.67157 46 9.5 46C10.3284 46 11 45.3284 11 44.5C11 43.6716 10.3284 43 9.5 43Z" fill="black"/>
<path d="M30 1C35.5228 1 40 5.47715 40 11C40 16.5228 35.5228 21 30 21H17C14.8948 21 13.0946 22.3016 12.3574 24.1436C13.7451 23.4147 15.3238 23 17 23H21C25.4183 23 29 26.5817 29 31C29 32.6569 30.3431 34 32 34H40.5C43.5376 34 46 31.5376 46 28.5C46 25.4624 43.5376 23 40.5 23H40V18H40.5C46.299 18 51 22.701 51 28.5C51 34.299 46.299 39 40.5 39H32C27.5817 39 24 35.4183 24 31C24 29.3431 22.6569 28 21 28H17C14.2389 28 12.0005 30.238 12 32.999V35H7V26C7 20.4772 11.4772 16 17 16H30C32.7614 16 35 13.7614 35 11C35 8.23858 32.7614 6 30 6H28C26.8954 6 26 6.89543 26 8H21C21 4.13401 24.134 1 28 1H30Z" fill="black"/>
<rect width="2" height="64" fill="#D9D9D9"/>
</svg>
