<svg width="55" height="64" viewBox="0 0 55 64" fill="none" xmlns="http://www.w3.org/2000/svg">
<path d="M44.5 10C50.299 10 55 14.701 55 20.5C55 26.299 50.299 31 44.5 31H44V26H44.5C47.5376 26 50 23.5376 50 20.5C50 17.4624 47.5376 15 44.5 15H43C38.5817 15 35 18.5817 35 23V25C35 26.3956 34.7801 27.7399 34.373 29H36.5C41.7467 29 46 33.2533 46 38.5C46 43.7467 41.7467 48 36.5 48H34C30.134 48 27 44.866 27 41H32C32 42.1046 32.8954 43 34 43H36.5C38.9853 43 41 40.9853 41 38.5C41 36.0147 38.9853 34 36.5 34H31.376C29.0103 36.4639 25.6855 38 22 38H13V33H22C26.4183 33 30 29.4183 30 25V23C30 15.8203 35.8203 10 43 10H44.5Z" fill="black"/>
<path fill-rule="evenodd" clip-rule="evenodd" d="M6.5 23C10.0899 23 13 25.9101 13 29.5C13 33.0899 10.0899 36 6.5 36C2.91015 36 0 33.0899 0 29.5C0 25.9101 2.91015 23 6.5 23ZM6.5 28C5.67157 28 5 28.6716 5 29.5C5 30.3284 5.67157 31 6.5 31C7.32843 31 8 30.3284 8 29.5C8 28.6716 7.32843 28 6.5 28Z" fill="black"/>
<rect width="2" height="64" fill="#D9D9D9"/>
</svg>
