<svg width="51" height="64" viewBox="0 0 51 64" fill="none" xmlns="http://www.w3.org/2000/svg">
<path fill-rule="evenodd" clip-rule="evenodd" d="M28.5 30C33.1944 30 37 33.8056 37 38.5C37 43.1944 33.1944 47 28.5 47C23.8056 47 20 43.1944 20 38.5C20 33.8056 23.8056 30 28.5 30ZM28.5 35C26.567 35 25 36.567 25 38.5C25 40.433 26.567 42 28.5 42C30.433 42 32 40.433 32 38.5C32 36.567 30.433 35 28.5 35Z" fill="black"/>
<path d="M11 16C11 19.866 14.134 23 18 23H19C22.866 23 26 19.866 26 16H31C31 19.866 34.134 23 38 23H39C42.866 23 46 19.866 46 16H51C51 22.6274 45.6274 28 39 28H38C34.1323 28 30.6945 26.1683 28.5 23.3271C26.3055 26.1683 22.8677 28 19 28H18C11.3726 28 6 22.6274 6 16H11Z" fill="black"/>
<path d="M11 3C11 6.86599 14.134 10 18 10H19C22.866 10 26 6.86599 26 3H31C31 6.86599 34.134 10 38 10H39C42.866 10 46 6.86599 46 3H51C51 9.62742 45.6274 15 39 15H38C34.1323 15 30.6945 13.1683 28.5 10.3271C26.3055 13.1683 22.8677 15 19 15H18C11.3726 15 6 9.62742 6 3H11Z" fill="black"/>
<rect width="2" height="64" fill="#D9D9D9"/>
</svg>
