<svg width="52" height="64" viewBox="0 0 52 64" fill="none" xmlns="http://www.w3.org/2000/svg">
<path fill-rule="evenodd" clip-rule="evenodd" d="M48.8838 0.763672C48.8841 0.764414 48.8835 0.766933 48.8857 0.771484L51.5332 4.97461L25.7295 25.001C25.8189 25.0007 25.9091 25 26 25H34C38.4182 25 42 28.5817 42 33V43C42 47.4183 38.4182 51 34 51H25L24.5879 50.9893C20.3611 50.7748 17 47.28 17 43C17 38.5817 20.5817 35 25 35H25.5C30.1944 35 34 38.8056 34 43.5V46C35.6568 46 37 44.6569 37 43V33C37 31.3431 35.6568 30 34 30H26C21.5951 30 19.5018 30.3722 18.5937 30.6445C18.4968 30.6736 18.4182 30.7 18.3564 30.7227L18.0332 30.9746L14.1279 28.209L16.5 29C14.1601 28.22 14.1311 28.2036 14.1328 28.1973C14.1335 28.1952 14.1352 28.1887 14.1367 28.1846C14.1396 28.1762 14.1425 28.1676 14.1455 28.1592C14.1514 28.1426 14.1577 28.126 14.164 28.1094C14.1768 28.0757 14.1906 28.0415 14.205 28.0078C14.234 27.9404 14.2662 27.8732 14.3017 27.8066C14.373 27.6731 14.4566 27.5445 14.5507 27.4209C14.7392 27.1735 14.9652 26.9558 15.2187 26.7656C15.3679 26.6538 15.5303 26.5491 15.706 26.4502L37.0713 9.86914C33.8435 10.5325 30.2446 11 26.5 11C19.897 11 13.9922 9.55037 9.76071 8.11816C7.63857 7.39989 5.91905 6.67979 4.72165 6.13477C4.12266 5.86212 3.65283 5.63223 3.32712 5.46777C3.16435 5.38559 3.03743 5.31957 2.94821 5.27246C2.90374 5.24898 2.86827 5.23056 2.84274 5.2168C2.82997 5.20991 2.81941 5.20353 2.81149 5.19922L2.79782 5.19238L2.79684 5.19141C2.79631 5.19085 2.80676 5.16947 3.99997 3C5.1191 0.96521 5.19789 0.820108 5.20309 0.80957C5.20512 0.810673 5.2099 0.812259 5.21579 0.81543C5.22882 0.822455 5.25111 0.83417 5.28219 0.850586C5.34551 0.884018 5.44612 0.936766 5.58102 1.00488C5.85093 1.14116 6.26042 1.34115 6.79391 1.58398C7.86208 2.07017 9.4242 2.72521 11.3642 3.38184C15.2577 4.69961 20.6031 6 26.5 6C32.4048 6 38.0109 4.6967 42.1777 3.36816C44.252 2.70679 45.9477 2.04632 47.1172 1.55469C47.7012 1.30915 48.1525 1.10579 48.4531 0.966797C48.6031 0.897406 48.7158 0.844357 48.7881 0.80957C48.8241 0.79219 48.8505 0.779193 48.8662 0.771484L48.8838 0.763672ZM25 40C23.3431 40 22 41.3432 22 43C22 44.6568 23.3431 46 25 46H29V43.5C29 41.567 27.433 40 25.5 40H25Z" fill="black"/>
<rect width="2" height="64" fill="#D9D9D9"/>
</svg>
