<svg width="43" height="64" viewBox="0 0 43 64" fill="none" xmlns="http://www.w3.org/2000/svg">
<path fill-rule="evenodd" clip-rule="evenodd" d="M27.5 1C32.1944 1 36 4.80558 36 9.5C36 12.1068 34.8251 14.4379 32.9775 15.9971C38.8345 18.2103 43 23.8681 43 30.5C43 38.2092 37.3716 44.6024 30 45.7979V51H25V45.7979C17.6284 44.6024 12 38.2092 12 30.5C12 23.8684 16.165 18.2105 22.0215 15.9971C20.1743 14.4379 19 12.1066 19 9.5C19 4.80558 22.8056 1 27.5 1ZM25 20.3018C20.4083 21.4235 17 25.5627 17 30.5C17 35.4372 20.4084 39.5754 25 40.6973V20.3018ZM30 40.6973C34.5916 39.5754 38 35.4372 38 30.5C38 25.5627 34.5917 21.4235 30 20.3018V40.6973ZM27.5 6C25.567 6 24 7.567 24 9.5C24 11.433 25.567 13 27.5 13C29.433 13 31 11.433 31 9.5C31 7.567 29.433 6 27.5 6Z" fill="black"/>
<rect width="2" height="64" fill="#D9D9D9"/>
</svg>
