<svg width="46" height="64" viewBox="0 0 46 64" fill="none" xmlns="http://www.w3.org/2000/svg">
<path fill-rule="evenodd" clip-rule="evenodd" d="M27 6H21.5C17.9101 6 15 8.91015 15 12.5C15 16.0899 17.9101 19 21.5 19H22V18.2178C22 16.9931 22.9931 16 24.2178 16H37.5C42.1944 16 46 19.8056 46 24.5C46 29.0477 42.4286 32.7616 37.9375 32.9893L37.5 33H34C31.3866 33 28.9706 32.1615 27 30.7432V51H22V29H20C15.5817 29 12 32.5817 12 37V39H7V37C7 29.8203 12.8203 24 20 24H21.5C15.1487 24 10 18.8513 10 12.5C10 6.14873 15.1487 1 21.5 1H27V6ZM27 21C27 24.866 30.134 28 34 28H37.5C39.433 28 41 26.433 41 24.5C41 22.567 39.433 21 37.5 21H27Z" fill="black"/>
<rect width="2" height="64" fill="#D9D9D9"/>
</svg>
