<svg width="46" height="64" viewBox="0 0 46 64" fill="none" xmlns="http://www.w3.org/2000/svg">
<path d="M30 22H24.5C20.9101 22 18 24.9101 18 28.5C18 32.0899 20.9101 35 24.5 35H30V51H25V40H24.5C18.1487 40 13 34.8513 13 28.5C13 22.1487 18.1487 17 24.5 17H30V22Z" fill="black"/>
<path d="M31 1C39.2843 1 46 7.71573 46 16C46 24.2843 39.2843 31 31 31H27V26H31C36.5228 26 41 21.5228 41 16C41 10.4772 36.5228 6 31 6H26C21.0294 6 17 10.0294 17 15H12C12 7.26801 18.268 1 26 1H31Z" fill="black"/>
<rect width="2" height="64" fill="#D9D9D9"/>
</svg>
