<svg width="53" height="64" viewBox="0 0 53 64" fill="none" xmlns="http://www.w3.org/2000/svg">
<path d="M31 30V51H26V30H31Z" fill="black"/>
<path d="M18 1C22.4183 1 26 4.58172 26 9V11H21V9C21 7.34315 19.6569 6 18 6H17C12.5817 6 9 9.58172 9 14V20C9 24.4183 12.5817 28 17 28H18V26C18 21.5817 21.5817 18 26 18V23C24.3431 23 23 24.3431 23 26V28C23 30.7614 20.7614 33 18 33H17C9.8203 33 4 27.1797 4 20V14C4 6.8203 9.8203 1 17 1H18Z" fill="black"/>
<path d="M40 1C47.1797 1 53 6.8203 53 14V20C53 27.1797 47.1797 33 40 33H39C36.2386 33 34 30.7614 34 28V26C34 24.3431 32.6569 23 31 23V18C35.4183 18 39 21.5817 39 26V28H40C44.4183 28 48 24.4183 48 20V14C48 9.58172 44.4183 6 40 6H39C37.3431 6 36 7.34315 36 9V11H31V9C31 4.58172 34.5817 1 39 1H40Z" fill="black"/>
<rect width="2" height="64" fill="#D9D9D9"/>
</svg>
