<svg width="51" height="64" viewBox="0 0 51 64" fill="none" xmlns="http://www.w3.org/2000/svg">
<path fill-rule="evenodd" clip-rule="evenodd" d="M28 26C32.9706 26 37 30.0294 37 35C37 39.9706 32.9706 44 28 44C23.0294 44 19 39.9706 19 35C19 30.0294 23.0294 26 28 26ZM28 31C25.7909 31 24 32.7909 24 35C24 37.2091 25.7909 39 28 39C30.2091 39 32 37.2091 32 35C32 32.7909 30.2091 31 28 31Z" fill="black"/>
<path d="M31 7C42.0457 7 51 15.9543 51 27H46C46 18.7157 39.2843 12 31 12H25C16.7157 12 10 18.7157 10 27H5C5 15.9543 13.9543 7 25 7H31Z" fill="black"/>
<rect width="2" height="64" fill="#D9D9D9"/>
</svg>
