<svg width="50" height="64" viewBox="0 0 50 64" fill="none" xmlns="http://www.w3.org/2000/svg">
<path d="M25.0195 0.802735C25.0207 0.803187 25.0221 0.803146 25.0234 0.803711C25.0267 0.805173 25.0308 0.807588 25.0352 0.80957C25.044 0.813546 25.0553 0.818241 25.0684 0.824219C25.0946 0.836278 25.1302 0.852819 25.1729 0.873047C25.2581 0.913464 25.3755 0.969823 25.5195 1.04297C25.808 1.18949 26.207 1.4039 26.6807 1.68457C27.623 2.24301 28.8872 3.08344 30.1611 4.21582C32.6737 6.44922 35.4999 10.0746 35.5 15.085C35.4998 20.0361 32.4098 24.2123 30.0342 27.5381C27.4101 31.2119 25.5002 34.0365 25.5 37.085C25.5001 40.0741 27.174 42.4494 29.1611 44.2158C30.1369 45.0831 31.1232 45.7421 31.8682 46.1836C32.2381 46.4028 32.5424 46.5655 32.7461 46.6689C32.8473 46.7203 32.9233 46.7573 32.9697 46.7793C32.9928 46.7903 33.0088 46.7972 33.0166 46.8008C33.0116 46.8101 32.947 46.9541 32 49.085C30.9848 51.3693 30.9833 51.3686 30.9824 51.3682H30.9805C30.9792 51.3676 30.978 51.3659 30.9766 51.3652C30.9733 51.3638 30.9691 51.3623 30.9648 51.3604C30.956 51.3564 30.9447 51.3517 30.9316 51.3457C30.9054 51.3337 30.8706 51.317 30.8281 51.2969C30.7429 51.2565 30.6254 51.2001 30.4814 51.127C30.193 50.9804 29.7931 50.7661 29.3193 50.4854C28.377 49.9269 27.1128 49.0864 25.8389 47.9541C23.3263 45.7207 20.5001 42.0953 20.5 37.085C20.5 35.6895 20.7455 34.3555 21.1514 33.085H13.5C8.80562 33.085 5.00006 29.2793 5 24.585C5 19.8905 8.80558 16.085 13.5 16.085H15V21.085H13.5C11.567 21.085 10 22.652 10 24.585C10.0001 26.5179 11.567 28.085 13.5 28.085H23.5908C24.3728 26.849 25.2056 25.6972 25.9658 24.6328C28.5901 20.9589 30.4999 18.1337 30.5 15.085C30.4999 12.0958 28.8268 9.72052 26.8398 7.9541C25.8641 7.08674 24.8769 6.42785 24.1318 5.98633C23.762 5.76719 23.4586 5.60444 23.2549 5.50098C23.1537 5.44957 23.0768 5.41367 23.0303 5.3916C23.0076 5.38085 22.9913 5.37281 22.9834 5.36914C22.9847 5.3682 23.0091 5.31447 24 3.08496C25.0032 0.82766 25.0166 0.800699 25.0176 0.800781L25.0195 0.802735Z" fill="black"/>
<path d="M39.1719 0.802735C39.173 0.803168 39.1745 0.803133 39.1758 0.803711C39.1791 0.805186 39.1831 0.807585 39.1875 0.80957C39.1963 0.813546 39.2077 0.81824 39.2207 0.824219C39.2469 0.836249 39.2817 0.8529 39.3242 0.873047C39.4095 0.913479 39.5276 0.969694 39.6719 1.04297C39.9603 1.1895 40.3594 1.40391 40.833 1.68457C41.7754 2.24301 43.0395 3.08345 44.3135 4.21582C46.826 6.44923 49.6522 10.0747 49.6523 15.085C49.6522 20.0361 46.5621 24.2123 44.1865 27.5381C41.5624 31.2119 39.6525 34.0365 39.6523 37.085C39.6525 40.0742 41.3263 42.4494 43.3135 44.2158C44.2893 45.0831 45.2755 45.7421 46.0205 46.1836C46.3904 46.4028 46.6947 46.5655 46.8984 46.6689C46.9997 46.7203 47.0757 46.7573 47.1221 46.7793C47.1452 46.7903 47.1612 46.7972 47.1689 46.8008C47.1642 46.8096 47.1011 46.9501 46.1523 49.085C45.1371 51.3694 45.1357 51.3686 45.1348 51.3682H45.1328C45.1316 51.3676 45.1303 51.3659 45.1289 51.3652C45.1257 51.3638 45.1214 51.3622 45.1172 51.3604C45.1084 51.3564 45.097 51.3517 45.084 51.3457C45.0578 51.3337 45.0229 51.317 44.9805 51.2969C44.8953 51.2565 44.7778 51.2001 44.6338 51.127C44.3453 50.9804 43.9454 50.7661 43.4717 50.4854C42.5293 49.9269 41.2652 49.0864 39.9912 47.9541C37.4786 45.7207 34.6515 42.0953 34.6514 37.085C34.6515 32.134 37.7426 27.9586 40.1182 24.6328C42.7424 20.9589 44.6522 18.1337 44.6523 15.085C44.6523 12.0959 42.9791 9.72051 40.9922 7.9541C40.0165 7.08677 39.0292 6.42785 38.2842 5.98633C37.9144 5.76719 37.6109 5.60444 37.4072 5.50098C37.3056 5.44936 37.2282 5.41365 37.1816 5.3916C37.1586 5.38067 37.1425 5.37269 37.1348 5.36914C37.1355 5.36948 37.1372 5.36907 38.1523 3.08496C39.1176 0.913011 39.1657 0.805697 39.1689 0.800781L39.1719 0.802735Z" fill="black"/>
<rect width="2" height="64" fill="#D9D9D9"/>
</svg>
