<svg width="52" height="64" viewBox="0 0 52 64" fill="none" xmlns="http://www.w3.org/2000/svg">
<path d="M27 45.1309V45.1602L33.4951 37H39.6064L28.4639 51H25.5293L14.5098 37H20.5996L27 45.1309Z" fill="black"/>
<path d="M16 2C16 4.20914 17.7909 6 20 6H34C36.2091 6 38 4.20914 38 2V1H43V23C43 27.9706 47.0294 32 52 32V37C44.268 37 38 30.732 38 23V10.0615C36.7947 10.6607 35.4373 11 34 11H20C18.5627 11 17.2053 10.6607 16 10.0615V23C16 30.732 9.73199 37 2 37V32C6.97056 32 11 27.9706 11 23V1H16V2Z" fill="black"/>
<rect width="2" height="64" fill="#D9D9D9"/>
</svg>
