<svg width="49" height="64" viewBox="0 0 49 64" fill="none" xmlns="http://www.w3.org/2000/svg">
<path fill-rule="evenodd" clip-rule="evenodd" d="M41 1C45.4183 1 49 4.58172 49 9H44C44 7.34315 42.6569 6 41 6H27C24.2386 6 22 8.23858 22 11V11.0088C22.166 11.0035 22.3327 11 22.5 11C31.0604 11 38 17.9396 38 26.5C38 35.0604 31.0604 42 22.5 42C22.3658 42 22.232 41.9975 22.0986 41.9941C22.5596 44.2793 24.579 46 27 46H38V51H27C21.4772 51 17 46.5228 17 41V40.9941C11.1549 38.7749 7 33.1234 7 26.5C7 19.8765 11.1547 14.224 17 12.0049V11C17 5.47715 21.4772 1 27 1H41ZM22 16.0117V36.9873C22.1657 36.9951 22.3324 37 22.5 37C28.299 37 33 32.299 33 26.5C33 20.701 28.299 16 22.5 16C22.3324 16 22.1657 16.004 22 16.0117ZM17 17.5557C14.0003 19.4041 12 22.7179 12 26.5C12 30.2819 14.0006 33.5948 17 35.4434V17.5557Z" fill="black"/>
<rect width="2" height="64" fill="#D9D9D9"/>
</svg>
