<svg width="52" height="64" viewBox="0 0 52 64" fill="none" xmlns="http://www.w3.org/2000/svg">
<path fill-rule="evenodd" clip-rule="evenodd" d="M17 2C22.5228 2 27 6.47715 27 12V29C27 34.3894 25.0608 39.3251 21.8438 43.1504C23.4617 43.7009 25.1959 44 27 44C30.35 44 33.3777 42.6257 35.5547 40.4121C31.5658 37.3011 29 32.4505 29 27V26C29 22.6863 31.6863 20 35 20H38C41.3137 20 44 22.6863 44 26V32C44 34.3159 43.5359 36.5231 42.6973 38.5352C43.7469 38.8351 44.8541 39 46 39C46.5523 39 47 38.5523 47 38H52C52 41.3137 49.3137 44 46 44C43.8981 44 41.8856 43.6174 40.0273 42.9199C36.9089 46.6363 32.231 49 27 49C23.7038 49 20.5856 48.2392 17.8096 46.8857C14.2016 49.4743 9.77936 51 5 51V46C7.99215 46 10.8029 45.2254 13.2451 43.8682C8.80701 40.0178 6 34.3368 6 28V12C6 6.47715 10.4772 2 16 2H17ZM16 7C13.2386 7 11 9.23858 11 12V28C11 33.1916 13.4729 37.8053 17.3047 40.7285C20.2134 37.6779 22 33.5479 22 29V12C22 9.23858 19.7614 7 17 7H16ZM34 27C34 30.675 35.654 33.9619 38.2559 36.1631C38.7358 34.866 39 33.464 39 32V26C39 25.4477 38.5523 25 38 25H35C34.4477 25 34 25.4477 34 26V27Z" fill="black"/>
<rect width="2" height="64" fill="#D9D9D9"/>
</svg>
