<svg width="50" height="64" viewBox="0 0 50 64" fill="none" xmlns="http://www.w3.org/2000/svg">
<path d="M29.5166 1.00684C40.3234 1.28084 48.9998 10.1272 49 21V23C49 29.9819 45.4221 36.1277 40 39.7051V42C40 44.2091 41.7909 46 44 46H50V51H44C39.0571 51 35.0465 47.0153 35.002 42.083L35 42.084V36.75C40.2973 34.4351 44 29.1507 44 23V21C43.9998 12.7159 37.2842 6 29 6H27C18.7158 6 12.0002 12.7159 12 21V23C12 29.1506 15.7027 34.4351 21 36.75V42.084L20.9971 42.083C20.9525 47.0153 16.9429 51 12 51H7V46H12C14.2091 46 16 44.2091 16 42V39.7051C10.5779 36.1277 7 29.9819 7 23V21L7.00684 20.4834C7.27664 9.84827 15.8482 1.27649 26.4834 1.00684L27 1H29L29.5166 1.00684Z" fill="black"/>
<path d="M28 29.7773V29.7354L34.9443 21H41V21.0703L29.9238 35H26.0322L15 21.0645V21H21.0508L28 29.7773Z" fill="black"/>
<rect width="2" height="64" fill="#D9D9D9"/>
</svg>
