<svg width="42" height="64" viewBox="0 0 42 64" fill="none" xmlns="http://www.w3.org/2000/svg">
<path d="M27 1C35.2843 1 42 7.71573 42 16V24C42 32.2843 35.2843 39 27 39H26C24.8954 39 24 39.8954 24 41C24 43.7614 26.2386 46 29 46H31C33.7614 46 36 43.7614 36 41H41C41 46.5228 36.5228 51 31 51H29C23.4772 51 19 46.5228 19 41C19 37.134 22.134 34 26 34H27C32.5228 34 37 29.5228 37 24V16C37 10.4772 32.5228 6 27 6H23C18.0294 6 14 10.0294 14 15C14 19.9706 18.0294 24 23 24H24C25.6569 24 27 22.6569 27 21C27 19.3949 25.7394 18.0842 24.1543 18.0039L23.8457 17.9961C22.2606 17.9158 21 16.6051 21 15V13H24C28.4183 13 32 16.5817 32 21C32 25.4183 28.4183 29 24 29H23C15.268 29 9 22.732 9 15C9 7.26801 15.268 1 23 1H27Z" fill="black"/>
<rect width="2" height="64" fill="#D9D9D9"/>
</svg>
