<svg width="53" height="64" viewBox="0 0 53 64" fill="none" xmlns="http://www.w3.org/2000/svg">
<path d="M13 20.7822C14.7259 19.6565 16.7858 19 19 19H20C23.3137 19 26 21.6863 26 25C26 25.5523 26.4477 26 27 26H29C32.3137 26 35 23.3137 35 20V1H40V42C40 44.2091 41.7909 46 44 46C46.2091 46 48 44.2091 48 42V33H53V42C53 46.9706 48.9706 51 44 51C39.0294 51 35 46.9706 35 42V29.2168C33.274 30.3427 31.2144 31 29 31H27C23.6863 31 21 28.3137 21 25C21 24.4477 20.5523 24 20 24H19C15.6863 24 13 26.6863 13 30V31H8V1H13V20.7822Z" fill="black"/>
<rect width="2" height="64" fill="#D9D9D9"/>
</svg>
