<svg width="46" height="64" viewBox="0 0 46 64" fill="none" xmlns="http://www.w3.org/2000/svg">
<path fill-rule="evenodd" clip-rule="evenodd" d="M22 1C22 5.41828 25.5817 9 30 9H32V13.5L32.001 14.3838L31.4443 15.0713L24.2295 24.002C29.1477 24.0871 33.3992 26.9041 35.5342 31H46V36H36.9619C36.987 36.33 37 36.6635 37 37V38C37 45.1797 31.1797 51 24 51H22C17.5817 51 14 47.4183 14 43C14 36.3726 19.3726 31 26 31H29.2891C27.879 29.756 26.0282 29 24 29H19L17.0557 24.9287L26.3105 13.4678C20.9281 11.8775 17 6.89799 17 1H22ZM26 36C22.134 36 19 39.134 19 43C19 44.6569 20.3431 46 22 46H24C28.4183 46 32 42.4183 32 38V37C32 36.6612 31.9764 36.3277 31.9355 36H26ZM23.999 24.2891L24 26.5V24.2871L23.999 24.2891Z" fill="black"/>
<rect width="2" height="64" fill="#D9D9D9"/>
</svg>
