<svg width="52" height="64" viewBox="0 0 52 64" fill="none" xmlns="http://www.w3.org/2000/svg">
<path d="M50 9.32422L9.4707 26H9.47559L50 42.6602V47.9844L1 27.8398V24.1602L50 3.99902V9.32422Z" fill="black"/>
<path d="M33 18C37.4183 18 41 21.5817 41 26C41 27.6569 42.3431 29 44 29C45.6569 29 47 27.6569 47 26V17H52V26C52 30.4183 48.4183 34 44 34C39.5817 34 36 30.4183 36 26C36 24.3431 34.6569 23 33 23C31.3431 23 30 24.3431 30 26V31H25V26C25 21.5817 28.5817 18 33 18Z" fill="black"/>
<rect width="2" height="64" fill="#D9D9D9"/>
</svg>
