<svg width="43" height="64" viewBox="0 0 43 64" fill="none" xmlns="http://www.w3.org/2000/svg">
<path fill-rule="evenodd" clip-rule="evenodd" d="M29.8486 2.00488C37.1433 2.1898 43 8.16072 43 15.5C43 20.0383 40.7602 24.0526 37.3262 26.5C40.7602 28.9474 43 32.9617 43 37.5C43 44.8393 37.1433 50.8102 29.8486 50.9951L29.5 51H16V2H29.5L29.8486 2.00488ZM21 46H29.5C34.1944 46 38 42.1944 38 37.5C38 32.8056 34.1944 29 29.5 29H21V46ZM21 24H29.5C34.1944 24 38 20.1944 38 15.5C38 10.8056 34.1944 7 29.5 7H21V24Z" fill="black"/>
<rect width="2" height="64" fill="#D9D9D9"/>
</svg>
