<svg width="45" height="64" viewBox="0 0 45 64" fill="none" xmlns="http://www.w3.org/2000/svg">
<path d="M22 12C22 15.9377 23.5182 19.5201 26 22.1963V1H31V22.1963C33.4818 19.5201 35 15.9377 35 12V1H40V12C40 17.772 37.5535 22.9715 33.6426 26.6221C34.722 26.8689 35.8457 27 37 27H45V32H37C34.9094 32 32.8942 31.678 31 31.083V51H26V31.083C24.1058 31.678 22.0906 32 20 32H13V27H20C21.154 27 22.2773 26.8688 23.3564 26.6221C19.4458 22.9715 17 17.7718 17 12V1H22V12Z" fill="black"/>
<rect width="2" height="64" fill="#D9D9D9"/>
</svg>
