<svg width="37" height="64" viewBox="0 0 37 64" fill="none" xmlns="http://www.w3.org/2000/svg">
<path fill-rule="evenodd" clip-rule="evenodd" d="M28 1C32.9706 1 37 5.02944 37 10V12H32V10C32 7.79086 30.2091 6 28 6C25.7909 6 24 7.79086 24 10V13C24 15.2091 25.7909 17 28 17C32.9706 17 37 21.0294 37 26C37 28.5561 35.9329 30.8617 34.2217 32.5C35.9329 34.1383 37 36.4439 37 39V42C37 46.9706 32.9706 51 28 51C23.0294 51 19 46.9706 19 42V40H24V42C24 44.2091 25.7909 46 28 46C30.2091 46 32 44.2091 32 42V39C32 36.7909 30.2091 35 28 35C23.0294 35 19 30.9706 19 26C19 23.4442 20.0665 21.1383 21.7773 19.5C20.0665 17.8617 19 15.5558 19 13V10C19 5.02944 23.0294 1 28 1ZM28 22C25.7909 22 24 23.7909 24 26C24 28.2091 25.7909 30 28 30C30.2091 30 32 28.2091 32 26C32 23.7909 30.2091 22 28 22Z" fill="black"/>
<rect width="2" height="64" fill="#D9D9D9"/>
</svg>
