<svg width="49" height="64" viewBox="0 0 49 64" fill="none" xmlns="http://www.w3.org/2000/svg">
<path d="M31 16.7822C32.7259 15.6565 34.7858 15 37 15H38C44.0751 15 49 19.9249 49 26C49 32.0751 44.0751 37 38 37H37V32H38C41.3137 32 44 29.3137 44 26C44 22.6863 41.3137 20 38 20H37C33.6863 20 31 22.6863 31 26V51H26V35.2168C24.274 36.3427 22.2144 37 20 37H19C12.9249 37 8 32.0751 8 26C8 19.9249 12.9249 15 19 15H20V20H19C15.6863 20 13 22.6863 13 26C13 29.3137 15.6863 32 19 32H20C23.3137 32 26 29.3137 26 26V1H31V16.7822Z" fill="black"/>
<rect width="2" height="64" fill="#D9D9D9"/>
</svg>
