<svg width="43" height="64" viewBox="0 0 43 64" fill="none" xmlns="http://www.w3.org/2000/svg">
<path fill-rule="evenodd" clip-rule="evenodd" d="M29.5 1C36.9558 1 43 7.04416 43 14.5C43 19.1131 40.6857 23.1851 37.1553 25.6201C40.6943 28.1608 43 32.3109 43 37C43 44.6112 36.9263 50.8035 29.3613 50.9951L29 51H27L26.6387 50.9951C19.0737 50.8035 13 44.6112 13 37C13 32.3112 15.3051 28.1609 18.8438 25.6201C15.3136 23.1852 13 19.1129 13 14.5C13 7.16072 18.8567 1.1898 26.1514 1.00488L26.5 1H29.5ZM27 28C22.0294 28 18 32.0294 18 37C18 41.9706 22.0294 46 27 46H29C33.9706 46 38 41.9706 38 37C38 32.0294 33.9706 28 29 28H27ZM26.5 6C21.8056 6 18 9.80558 18 14.5C18 19.1944 21.8056 23 26.5 23H29.5C34.1944 23 38 19.1944 38 14.5C38 9.80558 34.1944 6 29.5 6H26.5Z" fill="black"/>
<rect width="2" height="64" fill="#D9D9D9"/>
</svg>
