<svg width="42" height="64" viewBox="0 0 42 64" fill="none" xmlns="http://www.w3.org/2000/svg">
<path fill-rule="evenodd" clip-rule="evenodd" d="M23 10H33V1H38V10H42V15H38V31C38 36.4049 35.8549 41.3079 32.3711 44.9072C34.1093 45.6114 36.0092 46 38 46H42V51H38C34.3569 51 30.9418 50.0251 28 48.3232C25.0582 50.0251 21.6431 51 18 51H14V46H18C19.9905 46 21.89 45.6112 23.6279 44.9072C20.1444 41.308 18 36.4046 18 31V15H14V10H18V1H23V10ZM23 31C23 35.4421 24.9318 39.4321 28 42.1787C31.0682 39.4321 33 35.4421 33 31V15H23V31Z" fill="black"/>
<rect width="2" height="64" fill="#D9D9D9"/>
</svg>
