<svg width="52" height="64" viewBox="0 0 52 64" fill="none" xmlns="http://www.w3.org/2000/svg">
<path fill-rule="evenodd" clip-rule="evenodd" d="M27 1C30.3137 1 33 3.68629 33 7V11H28V7C28 6.44772 27.5523 6 27 6H19V23H25V28H19V36C24.9037 36 29.0157 39.0105 32.4531 41.4658C36.0157 44.0105 38.9037 46 43 46H46C46.5523 46 47 45.5523 47 45V41H52V45C52 48.3137 49.3137 51 46 51H43C37.0963 51 32.9843 47.9895 29.5469 45.5342C25.9843 42.9895 23.0963 41 19 41V45C19 48.3137 16.3137 51 13 51H12.375L11.8926 50.9883C6.93909 50.7372 3 46.6409 3 41.625C3 38.5184 5.5184 36 8.625 36H14V28H8V23H14V6C14 3.23858 16.2386 1 19 1H27ZM8.625 41C8.27982 41 8 41.2798 8 41.625C8 44.0412 9.95875 46 12.375 46H13C13.5523 46 14 45.5523 14 45V41H8.625Z" fill="black"/>
<rect width="2" height="64" fill="#D9D9D9"/>
</svg>
