<svg width="41" height="64" viewBox="0 0 41 64" fill="none" xmlns="http://www.w3.org/2000/svg">
<path d="M19 12.5C19 16.3242 21.5259 19.5573 25 20.625V1H30V20.625C33.4741 19.5573 36 16.3242 36 12.5V1H41V12.5C41 18.8153 36.6633 24.1163 30.8057 25.5908C34.4227 26.9334 37 30.4158 37 34.5V42H32V34.5C32 32.9398 31.206 31.5651 30 30.7578V51H25V30.7578C23.794 31.5651 23 32.9398 23 34.5V42H18V34.5C18 30.4161 20.5768 26.9336 24.1934 25.5908C18.3362 24.116 14 18.8149 14 12.5V1H19V12.5Z" fill="black"/>
<rect width="2" height="64" fill="#D9D9D9"/>
</svg>
